/* XPM */
static char *result[] = {
/* columns rows colors chars-per-pixel */
"40 50 19 1 ",
"  c black",
". c #0C1E0C",
"X c #173115",
"o c #36260A",
"O c #3E3212",
"+ c #5C3812",
"@ c #753E2D",
"# c #1F4119",
"$ c #2A6024",
"% c #386A2E",
"& c #904E14",
"* c #B4751A",
"= c #4E9F43",
"- c #5EC850",
"; c #D48C52",
": c #E6AD6A",
"> c #EBB385",
", c #FFD9AD",
"< c None",
/* pixels */
"<<<<<<<<<<<<<<<<<<<<<<<<<<<<<<<<<<<<<<<<",
"<<<<<<<<<<<<<<<<<<<<<<<<<<<<<<<<<<<<<<<<",
"<<<<<<<<<<<<<<<<<<<<<<<<<<<<<<<<<<<<<<<<",
"<<<<<<<<<<<<<<<oo+++++++oo<<<<<<<<<<<<<<",
"<<<<<<<<<<<<<o++&*******&&+o<<<<<<<<<<<<",
"<<<<<<<<<<<o+&**&&&&&&&&*:*&+o<<<<<<<<<<",
"<<<<<<<<<<o+&*&&&&&&&&&&&&&*&+o<<<<<<<<<",
"<<<<<<<<<<<o+&&&&&&&&&&&&&&&+o<<<<<<<<<<",
"<<<<<<<<<<o+&*&&&&&&&&&&&&&*&+o<<<<<<<<<",
"<<<<<<<<<<o&*&&&&&&&&&&&&&*&&&o<<<<<<<<<",
"<<<<<<<<<o+&+**&&&&&&&&&**&&+&+o<<<<<<<<",
"<<<<<<<<<o++&&*:*&:*&*::&&+&&++o<<<<<<<<",
"<<<<<<<<<oo+&+&*&&::*&**&&&+&o+o<<<<<<<<",
"<<<<<<<<<oo+++&&&+&*&&&&+&&++ooo<<<<<<<<",
"<<<<<<<<<oo+&o+&++&&&+&&++&o+ooo<<<<<<<<",
"<<<<<<<<<< o&o+&+o+&+o&+o++ooo <<<<<<<<<",
"<<<<<<<<<< o++o+oo++o++++o+ooo <<<<<<<<<",
"<<<<<<<<<<< o++&o++o+++++oooo <<<<<<<<<<",
"<<<<<<<<<<<< o+&++&o+&o+o+oo <<<<<<<<<<<",
"<<<<<<<<<<<<< oo&o&++&o+o+o <<<<<<<<<<<<",
"<<<<<<<<<<<<<@o+o+&++o+++oo@<<<<<<<<<<<<",
"<<<<<<<<<<<<@>,o o+&o ++o ,>@<<<<<<<<<<<",
"<<<<<<<<<<<@>,>;O  o  o O>>,>@<<<<<<<<<<",
"<<<<<<<<<<<@,>;;;>>;;;>>;>;>,@<<<<<<<<<<",
"<<<<<<<<<<@;,>@@;>>>;>>>;;@>,;@<<<<<<<<<",
"<<<<<<<<<<@,,;  >,,>;>,,>% ;,,@<<<<<<<<<",
"<<<<<<<<<@;,,; X@>>>>>>>@X ;,,;@<<<<<<<<",
"<<<<<<<<@;>,> .%#@;;;;;@#%. >,>;@<<<<<<<",
"<<<<<<<<@;>>; .%#%@@@@@%#%. ;>>;@<<<<<<<",
"<<<<<<<<< ;; <X#%$=$=$=$%#X< ;; <<<<<<<<",
"<<<<<<<<<<  <<X#=$-$-$-$=#X<<  <<<<<<<<<",
"<<<<<<<<<<<<<<.%#=$=$=$=#%.<<<<<<<<<<<<<",
"<<<<<<<<<<<<<<<X#-XXXXX-#X<<<<<<<<<<<<<<",
"<<<<<<<<<<<<<<<X%%$$$$$%%X<<<<<<<<<<<<<<",
"<<<<<<<<<<<<<%%%%=%=%=%=%%%%<<<<<<<<<<<<",
"<<<<<<<<<<<%%%=--%=%X%=%--=%%%<<<<<<<<<<",
"<<<<<<<<<<%=---%=-%X X%-=%---=%<<<<<<<<<",
"<<<<<<<<<%=-%%=--%X X X%--=%%-=%<<<<<<<<",
"<<<<<<<<<%-%=--XXX XXX XXX--=%-%<<<<<<<<",
"<<<<<<<<<-=XXXX<<<< X <<<<XXXX=-<<<<<<<<",
"<<<<<<<<<XX<<<<<<<<<<<<<<<<<<<XX<<<<<<<<",
"<<<<<<<<<<<<<<<<<<<<<<<<<<<<<<<<<<<<<<<<",
"<<<<<<<<<<<<<<<<<<<<<<<<<<<<<<<<<<<<<<<<",
"<<<<<<<<<<<<<<<<<<<<<<<<<<<<<<<<<<<<<<<<",
"<<<<<<<<<<<<<<<<<<<<<<<<<<<<<<<<<<<<<<<<",
"<<<<<<<<<<<<<<<<<<<<<<<<<<<<<<<<<<<<<<<<",
"<<<<<<<<<<<<<<<<<<<<<<<<<<<<<<<<<<<<<<<<",
"<<<<<<<<<<<<<<<<<<<<<<<<<<<<<<<<<<<<<<<<",
"<<<<<<<<<<<<<<<<<<<<<<<<<<<<<<<<<<<<<<<<",
"<<<<<<<<<<<<<<<<<<<<<<<<<<<<<<<<<<<<<<<<"
};
