/* XPM */
static char *result[] = {
/* columns rows colors chars-per-pixel */
"40 50 20 1 ",
"  c black",
". c #071206",
"X c #0C1E0C",
"o c #173115",
"O c #36260A",
"+ c #3E3212",
"@ c #5C3812",
"# c #753E2D",
"$ c #1F4119",
"% c #2A6024",
"& c #386A2E",
"* c #904E14",
"= c #B4751A",
"- c #4E9F43",
"; c #5EC850",
": c #D48C52",
"> c #E6AD6A",
", c #EBB385",
"< c #FFD9AD",
"1 c None",
/* pixels */
"1111111111111111111111111111111111111111",
"1111111111111111111111111111111111111111",
"1111111111111111111111111111111111111111",
"1111111111111111111111111111111111111111",
"1111111111111111111111111111111111111111",
"111111111111111OO@@@@@@@OO11111111111111",
"1111111111111O@@*=======**@O111111111111",
"11111111111O@*==********=>=*@O1111111111",
"1111111111O@*=*************=*@O111111111",
"11111111111O@***************@O1111111111",
"1111111111O@*=*************=*@O111111111",
"1111111111O*=*************=***O111111111",
"111111111O@*@==*********==**@*@O11111111",
"111111111O@@**=>=*>=*=>>**@**@@O11111111",
"111111111OO@*@*=**>>=*==***@*O@O11111111",
"111111111OO@@@***@*=****@**@@OOO11111111",
"111111111OO@*O@*@@***@**@@*O@OOO11111111",
"1111111111 O*O@*@O@*@O*@O@@OOO 111111111",
"1111111111 O@@O@OO@@O@@@@O@OOO 111111111",
"11111111111 O@@*O@@O@@@@@OOOO 1111111111",
"11111111111  O@*@@*O@*O@O@OO 11111111111",
"111111111111  OO*O*@@*O@O@O 111111111111",
"111111111111##O@O@*@@O@@@OO1111111111111",
"11111111111#:,:O O@*O @@O :#111111111111",
"11111111111#,<,,+  O  O +<,#111111111111",
"1111111111#:<<:#,<,:,<,#:<<:#11111111111",
"1111111111#,<,:#,&&&&&,#:,<,#11111111111",
"1111111111#<<,#$&%;%;%&$#,<<#11111111111",
"1111111111#<<: &%-%-%-%& :<<#11111111111",
"1111111111#:,# &%;%;%;%& #,:#11111111111",
"11111111111   &$-%;%;%-$&   111111111111",
"1111111111111X&$&%-%-%&$&X11111111111111",
"11111111111111X&$&%-%&$&X111111111111111",
"11111111111111Xo$&$&$&$oX111111111111111",
"111111111111111X&$&$&$&X1111111111111111",
"111111111111111Xo$&$&$oX1111111111111111",
"1111111111111111Xo$&$oX11111111111111111",
"111111111111111oXo$&$oXo1111111111111111",
"11111111111111ooo.oXo.ooo111111111111111",
"1111111111111oooo.oXo.oooo11111111111111",
"1111111111111o&-oo.o.oo-&o11111111111111",
"111111111111o&-&&ooXoo&&-&o1111111111111",
"111111111111&&;&oo111oo&;&&1111111111111",
"111111111111&-&o1111111o&-&1111111111111",
"111111111111&;&111111111&;&1111111111111",
"111111111111&;&111111111&;&1111111111111",
"111111111111&-11111111111-&1111111111111",
"11111111111&&1111111111111&&111111111111",
"1111111111111111111111111111111111111111",
"1111111111111111111111111111111111111111"
};
