/* XPM */
static char *crate2[] = {
/* columns rows colors chars-per-pixel */
"40 40 13 1 ",
"  c black",
". c #30332C",
"X c #552D1A",
"o c #5E4128",
"O c #7D4D26",
"+ c #865731",
"@ c #AB7D33",
"# c #B0783F",
"$ c #9C7B52",
"% c #5A8100",
"& c #B3CC00",
"* c #BEA65C",
"= c #D4A05D",
/* pixels */
"========================================",
"========================================",
"==##============================##======",
"==##============================##======",
"==######$$$$$$********@@******$$####====",
"==######$$$$$$********@@******$$####====",
"==####@@%%%%XX%%&&&&&&%%&&&&&&  ######==",
"==####@@%%%%XX%%&&&&&&%%&&&&&&  ######==",
"====**@@&&&&%%&&&&&&&&&&&&&&&&  ****##==",
"====**@@&&&&%%&&&&&&&&&&&&&&&&  ****##==",
"========&&&&%%%%%%    &&&&&&%%  **======",
"========&&&&%%%%%%    &&&&&&%%  **======",
"==##==**%%%%&&&&&&%%&&&&&&%%%%%%##======",
"==##==**%%%%&&&&&&%%&&&&&&%%%%%%##======",
"==######%%%%&&&&&&%%&&&&%%%%&&&&@@##====",
"==######%%%%&&&&&&%%&&&&%%%%&&&&@@##====",
"==####@@XX%%&&&&&&%%&&&&%%%%&&&&@@####==",
"==####@@XX%%&&&&&&%%&&&&%%%%&&&&@@####==",
"====**##OOOOOOOOOOOOOOOOOO@@&&&&==**##==",
"====**##OOOOOOOOOOOOOOOOOO@@&&&&==**##==",
"========================================",
"========================================",
"==##++++++++++++++++++++++++++++++++##==",
"==##++++++++++++++++++++++++++++++++##==",
"==##++OOXXXXXXXXXXXXXXXXXXXXXXXX++++++==",
"==##++OOXXXXXXXXXXXXXXXXXXXXXXXX++++++==",
"==##@@OO  XXXX..  XXXX  ..XXXX  @@@@##==",
"==##@@OO  XXXX..  XXXX  ..XXXX  @@@@##==",
"==####@@  OOOOXXXXOOOOXXXXOOOO  @@####==",
"==####@@  OOOOXXXXOOOOXXXXOOOO  @@####==",
"==++++@@  OOOOXXXXOOOOXXXXOOOO  oo++##==",
"==++++@@  OOOOXXXXOOOOXXXXOOOO  oo++##==",
"==++++++@@####++OO####OOOO++##@@++++##==",
"==++++++@@####++OO####OOOO++##@@++++##==",
"==++OO++++####++++++##@@++++++##@@++++==",
"==++OO++++####++++++##@@++++++##@@++++==",
"==##++++++######++++######++++########==",
"==##++++++######++++######++++########==",
"========================================",
"========================================"
};
