/* XPM */
static char *down2[] = {
/* columns rows colors chars-per-pixel */
"40 40 179 2 ",
"   c black",
".  c #080003",
"X  c #000F00",
"o  c #1D0000",
"O  c #0C1D0C",
"+  c #0E130D",
"@  c #131000",
"#  c #1D1900",
"$  c #250000",
"%  c #280200",
"&  c #2D090E",
"*  c #2C1A00",
"=  c #381A00",
"-  c #311707",
";  c #10200F",
":  c #122510",
">  c #193316",
",  c #193515",
"<  c #27210A",
"1  c #2D2309",
"2  c #3F2806",
"3  c #34260A",
"4  c #39260B",
"5  c #3B280B",
"6  c #3B2300",
"7  c #3F2812",
"8  c #203518",
"9  c #273F18",
"0  c #3C301D",
"q  c #003423",
"w  c #460B01",
"e  c #481500",
"r  c #431100",
"t  c #4F2800",
"y  c #422B0C",
"u  c #4A2E0C",
"i  c #582600",
"p  c #5D2900",
"a  c #562B00",
"s  c #422712",
"d  c #422914",
"f  c #553412",
"g  c #5C3916",
"h  c #672904",
"j  c #6C3201",
"k  c #6A3A0A",
"l  c #723200",
"z  c #753900",
"x  c #7F3E00",
"c  c #72310A",
"v  c #703C0F",
"b  c #693710",
"n  c #623A12",
"m  c #693C16",
"M  c #743E11",
"N  c #662D28",
"B  c #6D3626",
"V  c #723B2C",
"C  c #753A26",
"Z  c #22421D",
"A  c #25491F",
"S  c #29511E",
"D  c #294B21",
"F  c #264E20",
"G  c #2F5D27",
"H  c #285422",
"J  c #325826",
"K  c #335D29",
"L  c #2E6628",
"P  c #35652C",
"I  c #356A2C",
"U  c #386A2E",
"Y  c #3B7532",
"T  c #3C7C33",
"R  c #724113",
"E  c #7A4412",
"W  c #7A4A21",
"Q  c #7C452F",
"!  c #7E4B39",
"~  c #407E36",
"^  c #6C6469",
"/  c #8E4908",
"(  c #8C4803",
")  c #924C00",
"_  c #814613",
"`  c #8D4C14",
"'  c #834914",
"]  c #914F14",
"[  c #975414",
"{  c #9F5D17",
"}  c #98610D",
"|  c #9E6616",
" . c #AF6F0D",
".. c #AA6B18",
"X. c #A46417",
"o. c #AE711A",
"O. c #85482D",
"+. c #8C592E",
"@. c #89563D",
"#. c #8C553A",
"$. c #965B36",
"%. c #9F613A",
"&. c #A06026",
"*. c #A26836",
"=. c #986848",
"-. c #96745A",
";. c #A76D48",
":. c #B17442",
">. c #B97944",
",. c #BC7A48",
"<. c #A67456",
"1. c #A77658",
"2. c #967D60",
"3. c #8B7974",
"4. c #418337",
"5. c #438438",
"6. c #448A3A",
"7. c #448B38",
"8. c #44903A",
"9. c #4A933E",
"0. c #4A993E",
"q. c #4D9C42",
"w. c #51A744",
"e. c #52AE47",
"r. c #56B549",
"t. c #5BC34E",
"y. c #60CC51",
"u. c #99976E",
"i. c #B38160",
"p. c #A09C74",
"a. c #CD854B",
"s. c #D1884D",
"d. c #C88B5B",
"f. c #D58D53",
"g. c #C8955A",
"h. c #DB9155",
"j. c #DB965E",
"k. c #D1985A",
"l. c #E09559",
"z. c #C99569",
"x. c #DD9760",
"c. c #DC9A65",
"v. c #DF9E68",
"b. c #D59864",
"n. c #C69B74",
"m. c #CA9F79",
"M. c #DA9F70",
"N. c #E19D67",
"B. c #DFA16E",
"V. c #E1A967",
"C. c #E5A26C",
"Z. c #EAA46B",
"A. c #E4A673",
"S. c #E5AB7B",
"D. c #E6A977",
"F. c #EBB07F",
"G. c #CAB68E",
"H. c #DBB58F",
"J. c #DEB893",
"K. c #E4AF83",
"L. c #ECB485",
"P. c #EDB789",
"I. c #F1BB8C",
"U. c #E7BC92",
"Y. c #E8C79E",
"T. c #F4C295",
"R. c #F9C698",
"E. c #D8C8BC",
"W. c #FFCEA0",
"Q. c #F5CFA5",
"!. c #FED5A9",
"~. c #FFDAAE",
"^. c #E1CABC",
"/. c #FFDDB1",
"(. c #FFE0B4",
"). c #C8CBCD",
"_. c #D6D2CF",
"`. c #DAD5D3",
"'. c #00D9FA",
/* pixels */
"'.'.'.'.'.'.'.'.'.'.'.'.'.'.'.'.'.'.'.'.'.'.'.'.'.'.'.'.'.'.'.'.'.'.'.'.'.'.'.'.",
"'.'.'.'.'.'.'.'.'.'.'.'.'.'.'.'.'.'.'.'.'.'.'.'.'.'.'.'.'.'.'.'.'.'.'.'.'.'.'.'.",
"'.'.'.'.'.'.'.'.'.'.'.'.'.'.'.'.'.'.'.'.'.'.'.'.'.'.'.'.'.'.'.'.'.'.'.'.'.'.'.'.",
"'.'.'.'.'.'.'.'.'.'.'.'.'.U '.'.'.'.'.'.'.'.'.'.'.'.U U '.'.'.'.'.'.'.'.'.'.'.'.",
"'.'.'.'.'.'.'.'.'.'.'.'.'.U U '.'.'.'.'.'.'.'.'.'.'.U P '.'.'.'.'.'.'.'.'.'.'.'.",
"'.'.'.'.'.'.'.'.'.'.'.'.'.Z ~ U 4.'.'.'.'.'.'.'.~ Y Y > '.'.'.'.'.'.'.'.'.'.'.'.",
"'.'.'.'.'.'.'.'.'.'.'.'.'.> 6.U 4.4.U '.'.'.U 6.~ 4.Y '.'.'.'.'.'.'.'.'.'.'.'.'.",
"'.'.'.'.'.'.'.'.'.'.'.'.'.'.G q.U 9.P U '.U K q.P q.D '.'.'.'.'.'.'.'.'.'.'.'.'.",
"'.'.'.'.'.'.'.'.'.'.'.'.'.'.O K q.0.q.U > U r.T q.D '.'.'.'.'.'.'.'.'.'.'.'.'.'.",
"'.'.'.'.'.'.'.'.'.'.'.'.'.'.'.O L w.w.P : 5.9.r.D '.'.'.'.'.'.'.'.'.'.'.'.'.'.'.",
"'.'.'.'.'.'.'.'.'.'.'.'.'.'.'.'.'.H F D 6.9 L Z '.'.'.'.'.'.'.'.'.'.'.'.'.'.'.'.",
"'.'.'.'.'.'.'.'.'.'.'.'.'.'.'.'.'.'.O q.L 6.: '.'.'.'.'.'.'.'.'.'.'.'.'.'.'.'.'.",
"'.'.'.'.'.'.'.'.'.'.'.'.'.'.'.'.'.'.4.L t.T L '.'.'.'.'.'.'.'.'.'.'.'.'.'.'.'.'.",
"'.'.'.'.'.'.'.'.'.'.'.'.'.'.'.'.'.Z , y.F r.Z '.'.'.'.'.'.'.'.'.'.'.'.'.'.'.'.'.",
"'.'.'.'.'.'.'.'.'.'.'.'.'.'.'.'.'.A 8 r.S 0.J > '.'.'.'.'.'.'.'.'.'.'.'.'.'.'.'.",
"'.'.'.'.'.'.'.'.'.'.'.'.'.'.'.'.O + e.I q.8.4.: O '.'.'.'.'.'.'.'.'.'.'.'.'.'.'.",
"'.'.'.'.'.'.'.'.'.'.'.'.'.'.'.'., q.S q.9 6.K q.. '.'.'.'.'.'.'.'.'.'.'.'.'.'.'.",
"'.'.'.'.'.'.'.'.'.'.'.'.'.'.'.'.= h M c M c M w 5 '.'.'.'.'.'.'.'.'.'.'.'.'.'.'.",
"'.'.'.'.'.'.'.'.'.'.'.'.'.5 b } g.) { ] [ X.` ' X.p 3 1 '.'.'.'.'.'.'.'.'.'.'.'.",
"'.'.'.'.'.'.'.'.'.'.'.'.5 v ..[ *.k.j .. ...../ &.k.( g 3 '.'.'.'.'.'.'.'.'.'.'.",
"'.'.'.'.'.'.'.'.'.'.'.'.'.y _ ` [ } < E V.l j V.a / R 5 '.'.'.'.'.'.'.'.'.'.'.'.",
"'.'.'.'.'.'.'.'.'.'.'.'.5 _ [ u ..$ E y z 4 E j [ n ` E < '.'.'.'.'.'.'.'.'.'.'.",
"'.'.'.'.'.'.'.'.'.'.'.3 f ` ` @ v -.K.>.* @.I.>.k 6 f R E '.'.'.'.'.'.'.'.'.'.'.",
"'.'.'.'.'.'.'.'.'.'.'.1 ` v k a.0 T./.P.B T.~.~.$ :.2 g n 1 '.'.'.'.'.'.'.'.'.'.",
"'.'.'.'.'.'.'.'.'.'.'.3 f R e K.v./.!./.I.~.~.~.x.n.z y 3 3 '.'.'.'.'.'.'.'.'.'.",
"'.'.'.'.'.'.'.'.'.'.'.3 3 u i F.J.H.Q.~./.~.Y.H.U.z.t # 4 3 '.'.'.'.'.'.'.'.'.'.",
"'.'.'.'.'.'.'.'.'.'.'.'.d *.z K.^   m.T.T.R.-.o 3.M.i :.  '.'.'.'.'.'.'.'.'.'.'.",
"'.'.'.'.'.'.'.'.'.'.'.'.d ,.h S.).  z.L.L.P.-.  _.b.r f.  '.'.'.'.'.'.'.'.'.'.'.",
"'.'.'.'.'.'.'.'.'.'.'.'.'.  $ S.).X n.P.P.I.-.q `.z.*   '.'.'.'.'.'.'.'.'.'.'.'.",
"'.'.'.'.'.'.'.'.'.'.'.'.'.'.  A._.u.Y.~././.G.p.E.d.  '.'.'.'.'.'.'.'.'.'.'.'.'.",
"'.'.'.'.'.'.'.'.'.'.'.'.'.$.g g Z.!./.~.~.~.(.R.j.- +.O.'.'.'.'.'.'.'.'.'.'.'.'.",
"'.'.'.'.'.'.'.'.'.'.'.'.'.1.c.a.- ;.F.I.I.I.D.#.f a.D.! '.'.'.'.'.'.'.'.'.'.'.'.",
"'.'.'.'.'.'.'.'.'.'.'.'.#.N.P.I.O.h.*.C V C ,.h.@.I.L.x.Q '.'.'.'.'.'.'.'.'.'.'.",
"'.'.'.'.'.'.'.'.'.'.'.V j.D.I.I.C.c.c.N.h.N.c.N.A.R.A.L.s.N '.'.'.'.'.'.'.'.'.'.",
"'.'.'.'.'.'.'.'.'.'.'.& l.d.=.1.i.R.!.!.f.!.!.I.1.<.=.c.f.  '.'.'.'.'.'.'.'.'.'.",
"'.'.'.'.'.'.'.'.'.'.'.'.d d '.'.V ;.x.x.f.x.x.@.V '.'.s d '.'.'.'.'.'.'.'.'.'.'.",
"'.'.'.'.'.'.'.'.'.'.'.'.'.'.'.'.'.'.'.'.'.'.'.'.'.'.'.'.'.'.'.'.'.'.'.'.'.'.'.'.",
"'.'.'.'.'.'.'.'.'.'.'.'.'.'.'.'.'.'.'.'.'.'.'.'.'.'.'.'.'.'.'.'.'.'.'.'.'.'.'.'.",
"'.'.'.'.'.'.'.'.'.'.'.'.'.'.'.'.'.'.'.'.'.'.'.'.'.'.'.'.'.'.'.'.'.'.'.'.'.'.'.'.",
"'.'.'.'.'.'.'.'.'.'.'.'.'.'.'.'.'.'.'.'.'.'.'.'.'.'.'.'.'.'.'.'.'.'.'.'.'.'.'.'."
};
