/* XPM */
static char *down3[] = {
/* columns rows colors chars-per-pixel */
"32 40 173 2 ",
"   c #000100",
".  c #080000",
"X  c #000D00",
"o  c #120000",
"O  c #170805",
"+  c #1C0800",
"@  c #001502",
"#  c #1A1E08",
"$  c #1A1905",
"%  c #3D0F00",
"&  c #2D1D00",
"*  c #381702",
"=  c #311D10",
"-  c #10280F",
";  c #142C13",
":  c #122510",
">  c #003614",
",  c #173115",
"<  c #1C3B18",
"1  c #193A16",
"2  c #2B2309",
"3  c #342509",
"4  c #39270A",
"5  c #3C290C",
"6  c #392403",
"7  c #213313",
"8  c #353413",
"9  c #421200",
"0  c #421818",
"q  c #442B0E",
"w  c #492D09",
"e  c #5A2600",
"r  c #552B00",
"t  c #592900",
"y  c #512509",
"u  c #4F310F",
"i  c #55320A",
"p  c #432914",
"a  c #482B12",
"s  c #4D3110",
"d  c #5D3912",
"f  c #573612",
"g  c #612300",
"h  c #6C2F00",
"j  c #622E00",
"k  c #643301",
"l  c #63390F",
"z  c #6C3702",
"x  c #733905",
"c  c #7F3E0F",
"v  c #693C12",
"b  c #783F12",
"n  c #572A20",
"m  c #753E2D",
"M  c #773B26",
"N  c #1E461A",
"B  c #21441B",
"V  c #25491F",
"C  c #3B491B",
"Z  c #22501D",
"A  c #264B20",
"S  c #2F5926",
"D  c #275B22",
"F  c #3F5020",
"G  c #305B27",
"H  c #315D29",
"J  c #2E6828",
"K  c #34652B",
"L  c #35682C",
"P  c #386B2E",
"I  c #36712E",
"U  c #397B31",
"Y  c #6F4013",
"T  c #61462A",
"R  c #7A432F",
"E  c #7A4E2A",
"W  c #7A4B23",
"Q  c #7D512D",
"!  c #7D4835",
"~  c #4C7E33",
"^  c #813F0E",
"/  c #824100",
"(  c #8E4804",
")  c #934F00",
"_  c #835201",
"`  c #824613",
"'  c #854914",
"]  c #8D4C14",
"[  c #924F15",
"{  c #935115",
"}  c #9F5F16",
"|  c #95551E",
" . c #AA6C0C",
".. c #A26216",
"X. c #A76916",
"o. c #AB6B18",
"O. c #AE7118",
"+. c #8E4E28",
"@. c #85482C",
"#. c #9D5F2E",
"$. c #975827",
"%. c #804D38",
"&. c #84503A",
"*. c #8B543A",
"=. c #985A34",
"-. c #A15F34",
";. c #BB7D29",
":. c #AC6C3C",
">. c #925F46",
",. c #926F51",
"<. c #987559",
"1. c #A36A48",
"2. c #B77844",
"3. c #BA7A47",
"4. c #3E8235",
"5. c #448C3A",
"6. c #488738",
"7. c #518939",
"8. c #4D9D42",
"9. c #BD804E",
"0. c #958464",
"q. c #AD886C",
"w. c #B38B6D",
"e. c #B78E70",
"r. c #BC9371",
"t. c #C9854E",
"y. c #C7814D",
"u. c #D18649",
"i. c #D68A4B",
"p. c #D88C4D",
"a. c #D38C52",
"s. c #D98F54",
"d. c #D49259",
"f. c #DE965B",
"g. c #D2995A",
"h. c #DC9153",
"j. c #E1985D",
"k. c #C99569",
"l. c #D99965",
"z. c #C59771",
"x. c #D39C70",
"c. c #DEA766",
"v. c #C8A47E",
"b. c #E2A16C",
"n. c #E3A574",
"m. c #E5AB7D",
"M. c #ECAE7C",
"N. c #808285",
"B. c #9B918D",
"V. c #D6AC85",
"C. c #D4BE94",
"Z. c #E6AF82",
"A. c #E9AF80",
"S. c #EDB485",
"D. c #EDB789",
"F. c #F0B887",
"G. c #F2BB8D",
"H. c #F3BF91",
"J. c #E6BFA5",
"K. c #E8C69D",
"L. c #F4C295",
"P. c #F8C799",
"I. c #FBCA9C",
"U. c #F9C393",
"Y. c #E4C2A9",
"T. c #FACEA2",
"R. c #FFDBAF",
"E. c #F2D1A6",
"W. c #FFDDB1",
"Q. c #FFE1B4",
"!. c #CACFD1",
"~. c #DBD7D5",
"^. c None",
/* pixels */
"^.^.^.^.^.^.^.^.^.^.^.^.^.^.^.^.^.^.^.^.^.^.^.^.^.^.^.^.^.^.^.^.",
"^.^.^.^.^.^.^.^.^.^.^.^.^.^.^.^.^.^.^.^.^.^.^.^.^.^.^.^.^.^.^.^.",
"^.^.^.^.^.^.^.^.^.^.^.^.^.^.^.^.^.^.^.^.^.^.^.^.^.^.^.^.^.^.^.^.",
"^.^.^.^.^.^.^.^.^.^.^.^.^.^.^.^.^.^.^.^.^.^.^.^.^.^.^.^.^.^.^.^.",
"^.^.^.^.^.^.^.^.^.^.^.^.^.^.^.^.^.^.^.^.^.^.^.^.^.^.^.^.^.^.^.^.",
"^.^.^.^.^.^.^.^.^.^.^.^.^.^.^.^.^.^.^.^.^.^.^.^.^.^.^.^.^.^.^.^.",
"^.^.^.^.^.^.^.^.^.^.P ^.^.^.^.^.^.^.^.^.^.^.P ^.^.^.^.^.^.^.^.^.",
"^.^.^.^.^.^.^.^.^.^.P ^.^.^.^.^.^.^.^.^.^.^.P ^.^.^.^.^.^.^.^.^.",
"^.^.^.^.^.^.^.^.^.^.P P ^.^.^.^.^.^.^.^.^.P P ^.^.^.^.^.^.^.^.^.",
"^.^.^.^.^.^.^.^.^.^.K P ^.^.^.^.^.^.^.^.^.L K ^.^.^.^.^.^.^.^.^.",
"^.^.^.^.^.^.^.^.^.^.G P P S ^.^.^.^.^.K P P A ^.^.^.^.^.^.^.^.^.",
"^.^.^.^.^.^.^.^.^.^., L P H ; , ^., ; P P H , ^.^.^.^.^.^.^.^.^.",
"^.^.^.^.^.^.^.^.^.^., ; ; ; , - ; ; , ; ; ; ^.^.^.^.^.^.^.^.^.^.",
"^.^.^.^.^.^.^.^.^.^.^., , , : D K Z ; , , , ^.^.^.^.^.^.^.^.^.^.",
"^.^.^.^.^.^.^.^.^.^.^.^.^.; B 5.L 4.1 ; ^.^.^.^.^.^.^.^.^.^.^.^.",
"^.^.^.^.^.^.^.^.^.^.^.^.^.A V 8.N 5.S 1 ^.^.^.^.^.^.^.^.^.^.^.^.",
"^.^.^.^.^.^.^.^.^.^.^.^.^.< 5.J 8.U I N ^.^.^.^.^.^.^.^.^.^.^.^.",
"^.^.^.^.^.^.^.^.^.^.^.^.7 6.C 7.8 ~ F 6.+ ^.^.^.^.^.^.^.^.^.^.^.",
"^.^.^.^.^.^.^.^.^.^.^.u % Y ` ^ ` ^ ' y p : ^.^.^.^.^.^.^.^.^.^.",
"^.^.^.^.^.^.^.^.^.q Y  .b.) ..[ [ X.] ] O.x 5 3 ^.^.^.^.^.^.^.^.",
"^.^.^.^.^.^.^.^.5 v O.{ | g.t o.;...X.#.$.g.( l 3 ^.^.^.^.^.^.^.",
"^.^.^.^.^.^.^.^.^.u ' ` .._ @ x g.j e g.z x ' q ^.^.^.^.^.^.^.^.",
"^.^.^.^.^.^.^.^.5 [ { q } o #.3 z * #.j { l ' ' # ^.^.^.^.^.^.^.",
"^.^.^.^.^.^.^.3 l ' ' & l q.L.a.$ 1.T.a.i 6 u f ' # ^.^.^.^.^.^.",
"^.^.^.^.^.^.^.2 ] Y k d.T I.W.H.>.T.W.W.t 9.w d f 3 ^.^.^.^.^.^.",
"^.^.^.^.^.^.^.3 u v 9 Z.F.Q.R.W.H.W.W.W.M.z.h 5 3 3 ^.^.^.^.^.^.",
"^.^.^.^.^.^.^.3 3 6 h Z.w.w.K.W.W.W.V.e.r.x.r X 3 3 ^.^.^.^.^.^.",
"^.^.^.^.^.^.^.^.p 2.h S.N.  z.F.D.D.<.  B.c.e t.  ^.^.^.^.^.^.^.",
"^.^.^.^.^.^.^.^.p 2.g m.!.  z.S.S.D.,.  ~.l.% t.  ^.^.^.^.^.^.^.",
"^.^.^.^.^.^.^.^.^.  . m.!.X v.L.H.P.0.> ~.k.+   ^.^.^.^.^.^.^.^.",
"^.^.^.^.^.^.^.^.^.^.  l.Y.C.E.R.R.R.Y.C.Y.3.  ^.^.^.^.^.^.^.^.^.",
"^.^.^.^.^.^.^.^.^.=.E   j.P.W.R.R.R.R.U.a.  :.R ^.^.^.^.^.^.^.^.",
"^.^.^.^.^.^.^.^.*.b.b.f.  #.b.Z.m.Z.l.@.= j.m.f.m ^.^.^.^.^.^.^.",
"^.^.^.^.^.^.^.n y.p.S.G.:.p.:.+.=.+.3.p.1.H.x.s.s.0 ^.^.^.^.^.^.",
"^.^.^.^.^.^.^.^.0 W V.G.M.n.n.n.s.n.n.n.M.U.<.Q Q ^.^.^.^.^.^.^.",
"^.^.^.^.^.^.^.^.^.^.%.&.>.P.R.R.d.W.W.G.@.%.^.^.^.^.^.^.^.^.^.^.",
"^.^.^.^.^.^.^.^.^.^.^.^.m =.i.u.a.u.p.M m ^.^.^.^.^.^.^.^.^.^.^.",
"^.^.^.^.^.^.^.^.^.^.^.^.^.^.^.^.^.^.^.^.^.^.^.^.^.^.^.^.^.^.^.^.",
"^.^.^.^.^.^.^.^.^.^.^.^.^.^.^.^.^.^.^.^.^.^.^.^.^.^.^.^.^.^.^.^.",
"^.^.^.^.^.^.^.^.^.^.^.^.^.^.^.^.^.^.^.^.^.^.^.^.^.^.^.^.^.^.^.^."
};
