/* XPM */
static char *down1[] = {
/* columns rows colors chars-per-pixel */
"40 40 177 2 ",
"   c black",
".  c #0A0000",
"X  c #1C0000",
"o  c #0B1C0D",
"O  c #1F1702",
"+  c #3D0000",
"@  c #261804",
"#  c #381600",
"$  c #0C260C",
"%  c #00261C",
"&  c #102610",
"*  c #132C13",
"=  c #193516",
"-  c #1A3417",
";  c #2B2209",
":  c #34250A",
">  c #39260B",
",  c #3C290B",
"<  c #382712",
"1  c #203E1B",
"2  c #263F22",
"3  c #4B1A00",
"4  c #531D11",
"5  c #4D2A03",
"6  c #452D0D",
"7  c #462804",
"8  c #5A2C02",
"9  c #562F0D",
"0  c #4D300E",
"q  c #51300D",
"w  c #422914",
"e  c #4A3113",
"r  c #533411",
"t  c #583611",
"y  c #583917",
"u  c #662C06",
"i  c #62350E",
"p  c #7B3D02",
"a  c #743904",
"s  c #64261E",
"d  c #643A12",
"f  c #6A3E12",
"g  c #633711",
"h  c #5F2723",
"j  c #413428",
"k  c #6A3326",
"l  c #723A2A",
"z  c #1F461E",
"x  c #22421D",
"c  c #2D5B27",
"v  c #2B5327",
"b  c #335F29",
"n  c #2B6328",
"m  c #36662D",
"M  c #366B2E",
"N  c #386B2E",
"B  c #366633",
"V  c #3B7231",
"C  c #7E4A0C",
"Z  c #744113",
"A  c #7B4312",
"S  c #7B491E",
"D  c #6E432E",
"F  c #744020",
"G  c #7E522B",
"H  c #684231",
"J  c #7D4B38",
"K  c #784636",
"L  c #70543D",
"P  c #406F38",
"I  c #5A3C45",
"U  c #745744",
"Y  c #7E5D57",
"T  c #507248",
"R  c #844302",
"E  c #8B4701",
"W  c #954E00",
"Q  c #854A14",
"!  c #8F4E15",
"~  c #924E14",
"^  c #845414",
"/  c #945114",
"(  c #9C5916",
")  c #A66500",
"_  c #A26214",
"`  c #A86919",
"'  c #B1721A",
"]  c #805026",
"[  c #9D5B22",
"{  c #885931",
"}  c #975934",
"|  c #9B6333",
" . c #936034",
".. c #AA6924",
"X. c #A87025",
"o. c #A76730",
"O. c #A96B38",
"+. c #AF703B",
"@. c #B0713D",
"#. c #895D45",
"$. c #8B6045",
"%. c #906B4E",
"&. c #95775B",
"*. c #A36742",
"=. c #AA7442",
"-. c #BC7A4A",
";. c #A67A5C",
":. c #B07D5C",
">. c #418037",
",. c #488C3E",
"<. c #45913D",
"1. c #49943E",
"2. c #4A993F",
"3. c #4D9C42",
"4. c #569E4A",
"5. c #4EA343",
"6. c #56A949",
"7. c #5EA250",
"8. c #63AB54",
"9. c #67BB58",
"0. c #6DC55C",
"q. c #6AD25A",
"w. c #73CD62",
"e. c #BD8349",
"r. c #AD8367",
"t. c #BD8863",
"y. c #AEA47D",
"u. c #CF884F",
"i. c #C7844A",
"p. c #D38A4E",
"a. c #C98B55",
"s. c #D48D54",
"d. c #DB9156",
"f. c #D79058",
"g. c #DA935A",
"h. c #DE985F",
"j. c #C28E67",
"k. c #C3946D",
"l. c #C8946C",
"z. c #C99262",
"x. c #D99968",
"c. c #C89771",
"v. c #D49E75",
"b. c #DDA275",
"n. c #D3A073",
"m. c #E3AA67",
"M. c #E3A067",
"N. c #E5AD7D",
"B. c #EAAE7C",
"V. c #E6A977",
"C. c #B7BBBD",
"Z. c #D1A883",
"A. c #E4AE82",
"S. c #ECB384",
"D. c #EFB98B",
"F. c #E7B68C",
"G. c #F2BB8D",
"H. c #EDBE90",
"J. c #F3BF91",
"K. c #DAC097",
"L. c #F3C296",
"P. c #F5C69A",
"I. c #F8C698",
"U. c #F9CA9D",
"Y. c #F7C99D",
"T. c #F9CEA1",
"R. c #F7D1A7",
"E. c #FAD1A5",
"W. c #FAD5AA",
"Q. c #FFDAAE",
"!. c #FFDDB1",
"~. c #FFE0B3",
"^. c #CCCDCD",
"/. c #CAC5C2",
"(. c #DCD2CD",
"). c #DAD5D3",
"_. c #00D9FA",
/* pixels */
"_._._._._._._._._._._._._._._._._._._._._._._._._._._._._._._._._._._._._._._._.",
"_._._._._._._._._._._._._._._._._._._._._._._._._._._._._._._._._._._._._._._._.",
"_._._._._._._._._._._._._._._._._._._._._._._._._._._._._._._._._._._._._._._._.",
"_._._._._._._._._._._._._._._._._._._._._._._._._._._._._._._._._._._._._._._._.",
"_._._._._._._._._._._._._._._._._._._._._._._._._._._._._._._._._._._._._._._._.",
"_._._._._._._._._._._._._._._._._._._._._._._._._._._._._._._._._._._._._._._._.",
"_._._._._._._._._._._.N N N N N _._._._._._._._._.N N N N V _._._._._._._._._._.",
"_._._._._._._._._._._.= N N m N m N _._._._.N m m N N m m * _._._._._._._._._._.",
"_._._._._._._._._._._.* N N V N 5.1.N _._._.M 3.3.N N 3.m & _._._._._._._._._._.",
"_._._._._._._._._._._._.* M <.3.P 5.5.m _.V 6.1.>.1.,.c o _._._._._._._._._._._.",
"_._._._._._._._._._._._._._.1 x V 2.6.0.V 0.4.3.m x = _._._._._._._._._._._._._.",
"_._._._._._._._._._._._._._._._._.= B 8.= 7.v - _._._._._._._._._._._._._._._._.",
"_._._._._._._._._._._._._._._._._._.m * 4.& V _._._._._._._._._._._._._._._._._.",
"_._._._._._._._._._._._._._._._._._.6.9.q.9.3._._._._._._._._._._._._._._._._._.",
"_._._._._._._._._._._._._._._._._.& 2 q.B 0.- * _._._._._._._._._._._._._._._._.",
"_._._._._._._._._._._._._._._._._.z z 5.n <.c * _._._._._._._._._._._._._._._._.",
"_._._._._._._._._._._._._._._._.> 0 d i d i d 6 : _._._._._._._._._._._._._._._.",
"_._._._._._._._._._._._._._.9 Q =.W ( ~ / ( ~ A ^ 5 : _._._._._._._._._._._._._.",
"_._._._._._._._._._._._., d _ _ e.i.A ` ) ` _ E ..i.Z t : _._._._._._._._._._._.",
"_._._._._._._._._._._._._.6 Q ~ / X.: E m.p p m.8 [ Z , _._._._._._._._._._._._.",
"_._._._._._._._._._._._., Z / t ' : r r R w y R Q Z / f : _._._._._._._._._._._.",
"_._._._._._._._._._._._.e ! / @ p U v.} 7 D b.| A 5 i Q t _._._._._._._._._._._.",
"_._._._._._._._._._._.; Q Z a O.< F.!.B.4 A.!.U.. | > t Z ; _._._._._._._._._._.",
"_._._._._._._._._._._.: f Z 3 A.a.!.!.W.A.Q.Q.!.i.c.a 6 > > _._._._._._._._._._.",
"_._._._._._._._._._._.: , t 3 V.W.E.W.W.!.Q.W.R.R.l.5 , : : _._._._._._._._._._.",
"_._._._._._._._._._._.: , G a S.I X Z.T.T.E.;.+ Y b.8 { @ _._._._._._._._._._._.",
"_._._._._._._._._._._._.w i.u B.C.  k.S.A.S.%.  /.x.3 d.  _._._._._._._._._._._.",
"_._._._._._._._._._._._._.< # V.^.  c.S.S.S.&.% (.z.# < _._._._._._._._._._._._.",
"_._._._._._._._._._._._._._.  V.^.B K.!.Q.!.y.T (.z.  _._._._._._._._._._._._._.",
"_._._._._._._._._._._._._.#.j | B.Q.!.Q.!.Q.!.Q.M.F L _._._._._._._._._._._._._.",
"_._._._._._._._._._._._._.r.v.O.G t.L.I.Y.Y.D.;.] o.H.J _._._._._._._._._._._._.",
"_._._._._._._._._._._._.J I.J.A.k s.O.J ] K -.p.K S.T.S.s _._._._._._._._._._._.",
"_._._._._._._._._._._.k x.L.Q.G.d.f.f.g.s.g.f.f.h.L.!.D.s.h _._._._._._._._._._.",
"_._._._._._._._._._._.} G.U.v.l.v.L.P.Y.s.U.Y.G.c.l.V.T.A.F _._._._._._._._._._.",
"_._._._._._._._._._.  s.S.f.H _.l j.N.N.s.N.B.:.s X #.x.S.@._._._._._._._._._._.",
"_._._._._._._._._._._.@ h.=._._._._._._._._._._._._.  u.f.  _._._._._._._._._._.",
"_._._._._._._._._._._._.    _._._._._._._._._._._._._.    _._._._._._._._._._._.",
"_._._._._._._._._._._._._._._._._._._._._._._._._._._._._._._._._._._._._._._._.",
"_._._._._._._._._._._._._._._._._._._._._._._._._._._._._._._._._._._._._._._._.",
"_._._._._._._._._._._._._._._._._._._._._._._._._._._._._._._._._._._._._._._._."
};
