/* XPM */
static char *exit2[] = {
/* columns rows colors chars-per-pixel */
"40 40 204 2 ",
"   c black",
".  c #0B0600",
"X  c #0C0600",
"o  c #160D00",
"O  c #170E00",
"+  c #180E00",
"@  c #1A1000",
"#  c #1E1301",
"$  c #0C0B1A",
"%  c #0C0B1B",
"&  c #211300",
"*  c #221300",
"=  c #251200",
"-  c #261200",
";  c #221601",
":  c #231701",
">  c #241701",
",  c #2D1700",
"<  c #2E1900",
"1  c #2C1D01",
"2  c #2C1E01",
"3  c #2D1E01",
"4  c #2E1F01",
"5  c #301A00",
"6  c #341C00",
"7  c #371E00",
"8  c #381E00",
"9  c #2F2001",
"0  c #302001",
"q  c #322201",
"w  c #322202",
"e  c #332302",
"r  c #342302",
"t  c #3B2000",
"y  c #3E2100",
"u  c #3C2501",
"i  c #3D2501",
"p  c #3A2802",
"a  c #1B1B34",
"s  c #202020",
"d  c #222222",
"f  c #232323",
"g  c gray14",
"h  c #252525",
"j  c gray15",
"k  c #2C2C2C",
"l  c gray18",
"z  c gray20",
"x  c #343434",
"c  c gray21",
"v  c #373737",
"b  c #3C3835",
"n  c #3B3938",
"m  c #3A3A3A",
"M  c gray23",
"N  c #3C3C3C",
"B  c #402300",
"V  c #492B01",
"C  c #4E2B00",
"Z  c #502D00",
"A  c #512D00",
"S  c #4C3002",
"D  c #4D3102",
"F  c #533000",
"G  c #5E3600",
"H  c #5E3701",
"J  c #5B3713",
"K  c #5B3714",
"L  c #623800",
"P  c #643900",
"I  c #683E01",
"U  c #693E01",
"Y  c #693F01",
"T  c #453D35",
"R  c #704100",
"E  c #714100",
"W  c #764500",
"Q  c #7D4900",
"!  c #7E4900",
"~  c #49433D",
"^  c #764B23",
"/  c #7C5027",
"(  c #6A4F3D",
")  c gray25",
"_  c #434343",
"`  c #444444",
"'  c gray27",
"]  c #464646",
"[  c gray28",
"{  c #494949",
"}  c gray29",
"|  c #4B4B4B",
" . c #4E4B49",
".. c #4C4C4C",
"X. c #4E4E4E",
"o. c #505050",
"O. c #515151",
"+. c #515153",
"@. c gray32",
"#. c #535353",
"$. c gray33",
"%. c #555555",
"&. c #565656",
"*. c #5F5850",
"=. c gray35",
"-. c #5A5A5A",
";. c #5B5B5B",
":. c gray36",
">. c #605E5D",
",. c #625F5E",
"<. c #78675C",
"1. c gray38",
"2. c gray39",
"3. c #676463",
"4. c #646464",
"5. c #646465",
"6. c #656565",
"7. c #686868",
"8. c DimGray",
"9. c #6A6A6A",
"0. c gray42",
"q. c #6C6C6C",
"w. c gray43",
"e. c gray44",
"r. c #717171",
"t. c gray45",
"y. c #747474",
"u. c gray47",
"i. c #797979",
"p. c #7C7C7C",
"a. c gray49",
"s. c #7E7E7E",
"d. c #844F0F",
"f. c #95602B",
"g. c #96612C",
"h. c #9E652B",
"j. c #9D652C",
"k. c #9F662C",
"l. c #8E623E",
"z. c #926134",
"x. c #996739",
"c. c #9F6A38",
"v. c #A56B31",
"b. c #86654F",
"n. c #A57959",
"m. c #8F7A6E",
"M. c #817C77",
"N. c #88847F",
"B. c #A18573",
"V. c #A58774",
"C. c #808080",
"Z. c #818181",
"A. c gray51",
"S. c #848484",
"D. c #878685",
"F. c #868686",
"G. c gray54",
"H. c #8B8B8B",
"J. c gray55",
"K. c gray56",
"L. c #909090",
"P. c gray58",
"I. c #959595",
"U. c gray59",
"Y. c #9E9895",
"T. c gray62",
"R. c #9090A7",
"E. c #A0A0A0",
"W. c #A5A5A5",
"Q. c gray66",
"!. c #AAAAAA",
"~. c #ACACAC",
"^. c #AFAFAF",
"/. c #BDADA5",
"(. c gray69",
"). c gray70",
"_. c #B4B4B4",
"`. c #BCBCBC",
"'. c #C1B3AC",
"]. c #C9B7AD",
"[. c #D0BBAF",
"{. c #B0B0C2",
"}. c #C8C7C7",
"|. c #C8C8C8",
" X c #CBCBCB",
".X c gray80",
"XX c #CDCDCD",
"oX c #D2D2D1",
"OX c LightGray",
"+X c #DADADA",
"@X c gainsboro",
"#X c #DDDDDD",
"$X c #E1E1E1",
"%X c #E2E2E2",
"&X c #E6E6E6",
"*X c #E7E7E6",
"=X c gray91",
"-X c #E9E8E8",
";X c #E9E9E9",
":X c gray94",
">X c #F4F4F4",
",X c #FBFBFA",
"<X c white",
"1X c #48D7D8",
/* pixels */
"1X1X1X1X1X1X1X1X1X1X1X1X1X1X1X1X1X1X1X1X1X1X1X1X1X1X1X1X1X1X1X1X1X1X1X1X1X1X1X1X",
"1X1X1X1X1X1X1X1X1X1X1X1X1X1X1X1X1X1X1X1X1X1X1X1X1X1X1X1X1X1X1X1X1X1X1X1X1X1X1X1X",
"1X1X1X1X1X1X1X1X1X1X1X1X1X1X1X1X1X1X1X1X1X1X1X1X1X1X1X1X1X1X1X1X1X1X1X1X1X1X1X1X",
"1X1X1X1X1X1X1X1X1X1X1X1X1X1X1X1X1X1X1X1X1X1X1X1X1X1X1X1X1X1X1X1X1X1X1X1X1X1X1X1X",
"1X1X1X1X1X1Xa % % % % % % % % % % % % % % % % % % % % % % % % % % % % 1X1X1X1X1X",
"1X1X1X1X1X1X$                                                         1X1X1X1X1X",
"1X1X1X1X1X1X$   <X<X<X<X<X@XP.P.P.P.P.P.G.@.@.@.@.@.@.@.=X<X  p.<X$XW.9.  1X1X1X",
"1X1X1X1X1X1X$   <X,X-X-X=X|.F.F.F.F.F.F.a.} } } } } } } OX=Xd y.=X.XU.e...1X1X1X",
"1X1X1X1X1X1X$   <X*Xp 0                                     @.{       S.W.#.  1X",
"1X1X1X1X1X1X$   <X*Xp q o o o .                             8.,.8 < o u.U.|   1X",
"1X1X1X1X1X1X$   <X*Xp p p p p >                             W.Y.Q I p ;       1X",
"1X1X1X1X1X1X$   #X}.p p p p p 4 : .                         W.Y.Q I p V A -   1X",
"1X1X1X1X1X1X$   I.D.p p p p p p p O                         W.Y.Q I p Y Q y   1X",
"1X1X1X1X1X1X$   I.D.p p p p p p p 9 2                       W.Y.Q I p V Z =   1X",
"1X1X1X1X1X1X$   I.D.p p p p p p p p p                       W.Y.Q I p ;       1X",
"1X1X1X1X1X1X$   7.>.p p p p p p p p p w 2                   w.3.B 6 @ n [ s   1X",
"1X1X1X1X1X1X$   @. .p p p p p p p p p p e                   @.{       ) @.j   1X",
"1X1X1X1X1X1X$   ;XoXp p p p p p p p p p e                   @.o.{ { { c h 1X1X1X",
"1X1X1X1X1X1X$   <X*Xp p p p p p p p p p e                   @.@.@.@.@.z   1X1X1X",
"1X1X1X1X1X1X$   @.@.@.@.@.@.@.@.@.@.@.p p p 1               @.{       1X1X1X1X1X",
"1X1X1X1XR.{.5.o.@.2.L.L.L.Z.6.6.6.&.@.N.M.*.~   x [ [ [ l g { _ 1X1X1X1X1X1X1X1X",
"1X1X1X   X<X`.W.O.K.<X<X<X@XP.P.P.4.@.<X:XW.Z.  e.P.P.P.6.@.  1X1X1X1X1X1X1X1X1X",
"1X1X1Xk ^.+XE.J.` s.&X%X+X`.s.H.P.:.' +XXXJ.r.k 2.s.s.s.%.' $.+.1X1X1X1X1X1X1X1X",
"1X  z @.x         ] P.p.      y.P.'         x @.v           P.F.  1X1X1X1X1X1X1X",
"1X  z @.x   # ;   M C.w.z z z 7.C.m   ; ; ; b @.v   @ ; X   P.F.  1X1X1X1X1X1X1X",
"1X  z @.x   r p   g @.@.@.@.@.@.@.f   p p p T @.v   3 p +   P.F.  1X1X1X1X1X1X1X",
"1X  -.H.;.  H U L K x x x x x x x J L U U U <.H.1.  F U 5   P.F.  1X1X1X1X1X1X1X",
"1X  0.W.q.  E Q Q R               E Q Q Q Q m.W.t.  P Q t   P.F.  1X1X1X1X1X1X1X",
"1X  0.W.i.} z.k.k.j.g.g.g.g.g.g.g.j.k.k.k.k.B.W.t.  u S &   2.=.  1X1X1X1X1X1X1X",
"1X  0.W.p.@.x.v.v.v.v.v.v.v.v.v.v.v.v.v.v.v.V.W.t.  3 p +   @.{   1X1X1X1X1X1X1X",
"1X  E.>X~.@./ d.d.d.d.d.d.d.d.d.d.d.d.d.d.d./.>X~.  G W 7   @.{   1X1X1X1X1X1X1X",
"1X  Q.<X).@.^ Q Q Q Q Q Q Q Q Q Q Q Q Q Q Q '.<X_.  P Q t   @.{   1X1X1X1X1X1X1X",
"1X  Q.<X).@.x.v.v.v.v.v.v.v.v.v.v.v.v.v.v.v.[.<X_.  3 p +   @.{   1X1X1X1X1X1X1X",
"1X  T.:X(.9.l.f.h.h.h.h.h.h.h.h.h.h.h.h.c.n.].:X!.  i D *   4.-.  1X1X1X1X1X1X1X",
"1X  0.W.W.W.X.  ! Q Q Q Q Q Q Q Q Q Q Q b.W.W.W.t.  P Q t   P.F.  1X1X1X1X1X1X1X",
"1X  $.A.A.A.N   L L L L L L L L L L L L ( A.A.A.-.  C L ,   y.8.  1X1X1X1X1X1X1X",
"1X                                                                1X1X1X1X1X1X1X",
"1X1X1X1X1X1X1X1X1X1X1X1X1X1X1X1X1X1X1X1X1X1X1X1X1X1X1X1X1X1X1X1X1X1X1X1X1X1X1X1X",
"1X1X1X1X1X1X1X1X1X1X1X1X1X1X1X1X1X1X1X1X1X1X1X1X1X1X1X1X1X1X1X1X1X1X1X1X1X1X1X1X",
"1X1X1X1X1X1X1X1X1X1X1X1X1X1X1X1X1X1X1X1X1X1X1X1X1X1X1X1X1X1X1X1X1X1X1X1X1X1X1X1X"
};
