/* XPM */
static char *exit1[] = {
/* columns rows colors chars-per-pixel */
"40 40 180 2 ",
"   c black",
".  c #060300",
"X  c #0A0500",
"o  c #0F0800",
"O  c #170E00",
"+  c #1F1401",
"@  c #060510",
"#  c gray11",
"$  c #201401",
"%  c #201501",
"&  c #2C1A01",
"*  c #2B1D01",
"=  c #2C1D01",
"-  c #371C00",
";  c #371D00",
":  c #361F00",
">  c #3A1F00",
",  c #332302",
"<  c #342402",
"1  c #3C2200",
"2  c #3E2300",
"3  c #3A2401",
"4  c #392802",
"5  c #3A2802",
"6  c #2E2315",
"7  c #222222",
"8  c #222323",
"9  c #232323",
"0  c gray14",
"q  c #252525",
"w  c gray15",
"e  c #272727",
"r  c #292622",
"t  c #3A2F22",
"y  c #3F3322",
"u  c #343434",
"i  c gray21",
"p  c #373737",
"a  c #393939",
"s  c gray23",
"d  c #3C3C3C",
"f  c #3F3F3F",
"g  c #432600",
"h  c #462700",
"j  c #472A01",
"k  c #4B2A00",
"l  c #4D2B00",
"z  c #512F00",
"x  c #4C3002",
"c  c #583300",
"v  c #5B3500",
"b  c #5C3801",
"n  c #553515",
"m  c #613800",
"M  c #633900",
"N  c #683E01",
"B  c #623D15",
"V  c #403526",
"C  c #523F2D",
"Z  c #704100",
"A  c #714300",
"S  c #764500",
"D  c #7D4900",
"F  c #7E4A00",
"G  c #5A4639",
"H  c #764A21",
"J  c #764B22",
"K  c #664730",
"L  c #6B4F3C",
"P  c gray25",
"I  c #414141",
"U  c gray26",
"Y  c #434343",
"T  c #474441",
"R  c #474442",
"E  c gray28",
"W  c #484848",
"Q  c #494949",
"!  c gray29",
"~  c #4B4B4B",
"^  c #4C4C4C",
"/  c gray30",
"(  c #505050",
")  c #515151",
"_  c gray32",
"`  c #535353",
"'  c gray35",
"]  c #5A5A5A",
"[  c #5B5B5B",
"{  c gray36",
"}  c #5D5D5D",
"|  c #5F5F5F",
" . c #6A584D",
".. c #6F6159",
"X. c gray38",
"o. c #626262",
"O. c #646464",
"+. c #686868",
"@. c DimGray",
"#. c #6A6A6A",
"$. c gray42",
"%. c #6D6D6D",
"&. c gray43",
"*. c #717171",
"=. c #727272",
"-. c #747474",
";. c gray46",
":. c #767676",
">. c #7B7B7B",
",. c #7C7C7C",
"<. c #7E7E7E",
"1. c gray50",
"2. c #875213",
"3. c #885315",
"4. c #895315",
"5. c #8F591D",
"6. c #835425",
"7. c #965F25",
"8. c #975F25",
"9. c #815839",
"0. c #95602B",
"q. c #97622C",
"w. c #9A6739",
"e. c #9A683E",
"r. c #A0672D",
"t. c #A56B31",
"y. c #85624A",
"u. c #86634B",
"i. c #86644D",
"p. c #8E694E",
"a. c #996F4F",
"s. c #977155",
"d. c #A5754F",
"f. c #A57857",
"g. c #A57957",
"h. c #A57B5D",
"j. c #A37E65",
"k. c #A1816D",
"l. c #B2896B",
"z. c #A58672",
"x. c #A08677",
"c. c #AB8D7A",
"v. c #B58D71",
"b. c #B6947D",
"n. c #BA967E",
"m. c #848484",
"M. c gray52",
"N. c gray53",
"B. c #888888",
"V. c #898989",
"C. c gray54",
"Z. c #8D8D8D",
"A. c #929292",
"S. c #939393",
"D. c gray58",
"F. c gray59",
"G. c gray60",
"H. c #B29C8F",
"J. c #A4A4A4",
"K. c #A5A5A5",
"L. c gray65",
"P. c #B9B9B9",
"I. c gray79",
"U. c #D0D0D0",
"Y. c gray82",
"T. c #D8D3D0",
"R. c #D8D8D8",
"E. c #DADADA",
"W. c #E1E1E1",
"Q. c #E2E2E2",
"!. c #E4E4E4",
"~. c gray90",
"^. c #E6E6E6",
"/. c #E7E7E7",
"(. c gray93",
"). c #F0EAE6",
"_. c #F1F1F1",
"`. c gray95",
"'. c white",
"]. c #00D9FA",
/* pixels */
"].].].].].].].].].].].].].].].].].].].].].].].].].].].].].].].].].].].].].].].].",
"].].].].].].].].].].].].].].].].].].].].].].].].].].].].].].].].].].].].].].].].",
"].].].].].].].].].].].].].].].].].].].].].].].].].].].].].].].].].].].].].].].].",
"].].].].].].                                                      ].].].].].].].",
"].].].].].].! ! ! !     < < < < < < < < < < < < < < < t ! d   ' N.&.].].].].].].",
"].].].].].  _ _ _ _     5 5 5 5 5 5 5 5 5 5 5 5 5 5 5 V _ Y   o.D.-.  ].].].].].",
"].].].].].  G.G.9 8 0.0.q.q.q.q.q.q.q.q.q.q.q.q.q.q.q.s.G.<.  I O./   ].].].].].",
"].].].].].  K.K.    t.t.t.t.t.t.t.t.t.t.t.t.t.t.t.t.t.h.K.B.  u _ f   ].].].].].",
"].].].]./.^.#.$.Z Z 2.2.2.2.2.2.2.2.2.2.2.2.2.2.2.k.).T.( T , 6 0 [ M.%.].].].].",
"].].].  '.'.( _ D D D D D D D D D D D D D D D D D x.'.!.  % 5 =   X.D.;.  ].].].",
"].].].  '.'.( _ r.r.r.r.r.r.r.r.r.r.r.r.r.r.r.r.r.b.'.!.  h S v   X.D.;.  ].].].",
"].].].  '.'.( _ t.t.t.t.t.t.t.t.t.t.t.t.t.t.t.t.t.n.'.!.  k D m   X.D.;.  ].].].",
"].].].  K.J.) _ D D D D D D D D D D D D D D D D D y.J.A.  $ 4 *   X.D.;.  ].].].",
"].].].  L.K.) _ D D D D D D D D D D D D D D D D D u.K.S.  % 5 =   X.D.;.  ].].].",
"].].].  L.K.    t.t.t.t.t.t.t.t.t.t.t.t.t.t.t.t.t.g.K.S.  k D m   u _ f   ].].].",
"].].].  L.K.    t.t.t.t.t.t.t.t.t.t.t.t.t.t.t.t.t.g.K.S.  k D m   u _ P   ].].].",
"].].].  ` _     D D D D D D D D D D D D D D D D D J _ W   % 5 =   u _ P   ].].].",
"].].].  ` _     D D D D D D D D D D D D D D D D D H _ W   + 4 *   u _ P   ].].].",
"].].].  ` _     t.t._ _ _ _ _ _ _ _ _ _ _  .t.t.t.w._ W   k D m   u _ P   ].].].",
"].].].@ / ^ +.+.d.d._ ) 1.1.1.>.| | | { _ ..v.l.d.a.^ W a G 9.K # i ^ s   ].].].",
"].].].].    '.'.K.K._ ~ '.'.'.`.D.D.D.C._ Z.'._.K.F.  Q D.D.D.<._ f       ].].].",
"].].].].q 0 ^.~.D.D.Q U (.(.~.E.M.B.D.V.Q <.~.R.D.B.0 Q M.M.M.*.Q W E p   ].].].",
"].].].  ` _             D.A.      E D.M.          7 _ W           X.D.;.  ].].].",
"].].].  ` _     O O     C.B.9 9 9 Q C.,.  . O O O r _ W   X O o   X.D.;.  ].].].",
"].].].  ` _     5 5     _ _ _ _ _ _ _ Q   O 5 5 5 y _ W   % 5 =   X.D.;.  ].].].",
"].].].  @.+.    x x ; - ! ! ! ! ! ! ! R ; 1 x x x C +.{   & x 3   X.D.;.  ].].].",
"].].].  L.K.    D D D F               > D D D D D u.K.S.  k D m   X.D.;.  ].].].",
"].].].  L.K.w e 3.3.3.4.n n n n n n n B 3.3.3.3.3.p.K.S.  g A c   ' B.$.  ].].].",
"].].].  L.K.) _ t.t.t.t.t.t.t.t.t.t.t.t.t.t.t.t.t.f.K.S.  % 5 =   u _ P   ].].].",
"].].].  Y.U.) _ 7.7.7.7.7.7.7.7.7.7.7.7.7.7.7.7.7.j.U.P.  : b j   u _ P   ].].].",
"].].].  '.'.( _ D D D D D D D D D D D D D D D D D x.'.!.  k D m   u _ P   ].].].",
"].].].  '.'.( _ 5.5.5.5.5.5.5.5.5.5.5.5.5.5.5.5.5.c.'.!.  2 N z   u _ P   ].].].",
"].].].  '.'.( _ t.t.t.t.t.t.t.t.t.t.t.t.t.t.t.t.t.n.'.!.  % 5 =   u _ P   ].].].",
"].].].  Q.W.>.,.6.6.8.8.8.8.8.8.8.8.8.8.8.8.8.e.z.H.W.I.  : b j   ! =.]   ].].].",
"].].].  L.K.K.K.    D D D D D D D D D D D D D i.K.K.K.S.  k D m   X.D.;.  ].].].",
"].].].  M.m.m.m.    M M M M M M M M M M M M M L m.m.m.;.  > M l   / :.}   ].].].",
"].].].                                                                    ].].].",
"].].].].].].].].].].].].].].].].].].].].].].].].].].].].].].].].].].].].].].].].",
"].].].].].].].].].].].].].].].].].].].].].].].].].].].].].].].].].].].].].].].].",
"].].].].].].].].].].].].].].].].].].].].].].].].].].].].].].].].].].].].].].].]."
};
