/* XPM */
static char *result[] = {
/* columns rows colors chars-per-pixel */
"40 50 28 1 ",
"  c black",
". c #0C1E0C",
"X c #173115",
"o c #36260A",
"O c #5C3812",
"+ c #753E2D",
"@ c #1F4119",
"# c #2D453D",
"$ c #2A6024",
"% c #386A2E",
"& c #3F6F39",
"* c #316945",
"= c #487A40",
"- c #904E14",
"; c #B4751A",
": c #4E9F43",
"> c #57964C",
", c #5EA14F",
"< c #5EC850",
"1 c #69C957",
"2 c #7BDC68",
"3 c #D48C52",
"4 c #E6AD6A",
"5 c gray58",
"6 c #EBB385",
"7 c #FFD9AD",
"8 c LightGray",
"9 c None",
/* pixels */
"9999999999999999999999999999999999999999",
"9999999999999999999999999999999999999999",
"9999999999999999999999999999999999999999",
"9999999999999999999999999999999999999999",
"9999999999999999999999999999999999999999",
"9999999999999999999999999999999999999999",
"9999999999999999999999999999999999999999",
"999999999%%9999999999999999999%%99999999",
"999999999%%%%%%99999999999%%%%%%99999999",
"999999999X%%%%%%%%99999%%%%%%%%X99999999",
"999999999X%%%%%::%%999%%::%%%:%X99999999",
"9999999999X%:::%%<%%9%%<%%:::%X999999999",
"99999999999XX%%:<%<%%%<%<:%%XX9999999999",
"9999999999999XXX%:,2%2,:%XXX999999999999",
"9999999999999999XX&,X,&XX999999999999999",
"99999999999999999=XX>XX=9999999999999999",
"99999999999999999&1>2>1&9999999999999999",
"99999999999999999X>2>2>X9999999999999999",
"9999999999999999XX@<@<@XX999999999999999",
"9999999999999999.%@:$:@%.999999999999999",
"999999999999999ooOOOOOOOoo99999999999999",
"9999999999999oOO--------OOoo999999999999",
"99999999999oO-;4-;---;---;-Ooo9999999999",
"9999999999oO-;--4-O;;;-;--4--Oo999999999",
"99999999999oO---;Oo-4-O-4O--Oo9999999999",
"9999999999oO--O;OooO-OoO--O--Oo999999999",
"9999999999o---o-o+3oOo+3O-o-O-o999999999",
"999999999oO-O-oO+763o+673OoOoO-o99999999",
"999999999o-O-O3o6776+6777o3oOOOo99999999",
"999999999oOO-o6377776777736o-ooo99999999",
"999999999ooOOO6777777777776OOooo99999999",
"999999999oooO-6+++77777+++6-oooo99999999",
"9999999999 3O-65  66666  56-O3 999999999",
"9999999999 3o-68  66666  86-o3 999999999",
"99999999999 oO68##66666##86Oo 9999999999",
"999999999999 o68**77777**86o 99999999999",
"999999999999  3677777777763  99999999999",
"99999999999+6  36777777763  6+9999999999",
"99999999999+733 +3666663+ 337+9999999999",
"9999999999+6766+33+++++33+6676+999999999",
"999999999+367763333333333367763+99999999",
"999999999+676666666636666666676+ 9999999",
"99999999 3666+++677737776+++6663 9999999",
"99999999 363+ 9++3333333++9 +363 9999999",
"999999999 33 999999999999999 33 99999999",
"9999999999  99999999999999999  999999999",
"9999999999999999999999999999999999999999",
"9999999999999999999999999999999999999999",
"9999999999999999999999999999999999999999",
"9999999999999999999999999999999999999999"
};
