/* XPM */
static char *result[] = {
/* columns rows colors chars-per-pixel */
"40 50 22 1 ",
"  c black",
". c #0C1E0C",
"X c #173115",
"o c #36260A",
"O c #5C3812",
"+ c #753E2D",
"@ c #1F4119",
"# c #2D453D",
"$ c #2A6024",
"% c #386A2E",
"& c #316945",
"* c #904E14",
"= c #B4751A",
"- c #4E9F43",
"; c #5EC850",
": c #D48C52",
"> c #E6AD6A",
", c gray58",
"< c #EBB385",
"1 c #FFD9AD",
"2 c LightGray",
"3 c None",
/* pixels */
"3333333333333333333333333333333333333333",
"3333333333333333333333333333333333333333",
"3333333333333333333333333333333333333333",
"3333333333333333333333333333333333333333",
"33333333333%%333333333333333%%3333333333",
"33333333333%%%3333333333333%%%3333333333",
"33333333333X%%%%333333333%%%%X3333333333",
"33333333333X%-%-%%33333%%-%-%X3333333333",
"333333333333X-%%-%%333%%-%%-X33333333333",
"333333333333X%-%-%%%3%%%-%-%X33333333333",
"3333333333333X%-%;%%X%%;%-%X333333333333",
"33333333333333X%;%;%X%;%;%X3333333333333",
"333333333333333X%-%XXX%-%X33333333333333",
"3333333333333333XX.%-%.XX333333333333333",
"33333333333333333X@-$-@X3333333333333333",
"33333333333333333.-$;$-.3333333333333333",
"33333333333333333X$;$;$X3333333333333333",
"3333333333333333X%@;@;@%X333333333333333",
"3333333333333333.%@-$-@%.333333333333333",
"333333333333333.X@;$-$;@X.33333333333333",
"333333333333333.-%$-@-$%-.33333333333333",
"333333333333333ooOOOOOOOoo33333333333333",
"3333333333333oOO********OOoo333333333333",
"33333333333oO*=>*=***=***=*Ooo3333333333",
"3333333333oO*=**>*O===*=**>**Oo333333333",
"33333333333oO***=Oo*>*O*>O**Oo3333333333",
"3333333333oO**O=OooO*OoO**O**Oo333333333",
"3333333333o***o*o+:oOo+:O*o*O*o333333333",
"333333333oO*O*oO+1<:o+<1:OoOoO*o33333333",
"333333333o*O*O:o<11<+<111o:oOOOo33333333",
"333333333oOO*o<:1111<1111:<o*ooo33333333",
"333333333ooOOO<11111111111<OOooo33333333",
"333333333oooO*<+++11111+++<*oooo33333333",
"3333333333 :O*<,  <<<<<  ,<*O: 333333333",
"3333333333 :o*<2  <<<<<  2<*o: 333333333",
"33333333333 oO<2##<<<<<##2<Oo 3333333333",
"333333333333 o<2&&11111&&2<o 33333333333",
"333333333333  :<111111111<:  33333333333",
"33333333333+:  :<1111111<:  :+3333333333",
"33333333333+<:: +:<<<<<:+ ::<+3333333333",
"3333333333+:<<<+::+++++::+<<<:+333333333",
"333333333+:<:1<:::::::::::<1:<:+33333333",
"333333333+:<:<<<<<<<:<<<<<<<:<:+33333333",
"333333333 ::++++<111:111<++++:: 33333333",
"3333333333  333++:::::::++333  333333333",
"3333333333333333333333333333333333333333",
"3333333333333333333333333333333333333333",
"3333333333333333333333333333333333333333",
"3333333333333333333333333333333333333333",
"3333333333333333333333333333333333333333"
};
