/* XPM */
static char *result[] = {
/* columns rows colors chars-per-pixel */
"40 50 21 1 ",
"  c black",
". c #0C1E0C",
"X c #173115",
"o c #36260A",
"O c #5C3812",
"+ c #753E2D",
"@ c #1F4119",
"# c #2D453D",
"$ c #2A6024",
"% c #386A2E",
"& c #316945",
"* c #904E14",
"= c #B4751A",
"- c #4E9F43",
"; c #D48C52",
": c #E6AD6A",
"> c gray58",
", c #EBB385",
"< c #FFD9AD",
"1 c LightGray",
"2 c None",
/* pixels */
"2222222222222222222222222222222222222222",
"2222222222222222222222222222222222222222",
"2222222222222222222222222222222222222222",
"2222222222222222222222222222222222222222",
"2222222222222222222222222222222222222222",
"2222222222222222222222222222222222222222",
"2222222222222222222222222222222222222222",
"2222222222222222222222222222222222222222",
"222222222222%%2222222222222%%22222222222",
"222222222222%%2222222222222%%22222222222",
"222222222222%%%22222222222%%%22222222222",
"222222222222%%%22222222222%%%22222222222",
"222222222222X%%%222222222%%%X22222222222",
"222222222222X%%%%X22222X%%%%X22222222222",
"222222222222XX%%%XXX2XXX%%%XX22222222222",
"2222222222222XXXXXX...XXXXXX222222222222",
"2222222222222XXXXX.$$$.XXXXX222222222222",
"22222222222222XXXX@$%$@XXXX2222222222222",
"2222222222222222XX$-$-$XX222222222222222",
"2222222222222222X%@-@-@%X222222222222222",
"2222222222222222X@-$-$-@X222222222222222",
"222222222222222.-%$-@-$%-.22222222222222",
"222222222222222ooOOOOOOOoo22222222222222",
"2222222222222oOO********OOoo222222222222",
"22222222222oO*=:*=***=***=*Ooo2222222222",
"2222222222oO*=**:*O===*=**:**Oo222222222",
"22222222222oO***=Oo*:*O*:O**Oo2222222222",
"2222222222oO**O=OooO*OoO**O**Oo222222222",
"2222222222o***o*o+;oOo+;O*o*O*o222222222",
"222222222oO*O*oO+<,;o+,<;OoOoO*o22222222",
"222222222o*O*O;o,<<,+,<<<o;oOOOo22222222",
"222222222oOO*o,;<<<<,<<<<;,o*ooo22222222",
"222222222ooOOO,<<<<<<<<<<<,OOooo22222222",
"222222222oooO*,+++<<<<<+++,*oooo22222222",
"2222222222 ;O*,>  ,,,,,  >,*O; 222222222",
"2222222222 ;o*,1  ,,,,,  1,*o; 222222222",
"22222222222 oO,1##,,,,,##1,Oo 2222222222",
"222222222222 o,1&&<<<<<&&1,o 22222222222",
"222222222222  ;,<<<<<<<<<,;  22222222222",
"22222222222+;  ;,<<<<<<<,;  ;+2222222222",
"2222222222+;,;; +;,,,,,;+ ;;,;+222222222",
"222222222+;;;,,+;;+++++;;+,,;;;+22222222",
"222222222 +;;<,;;;;;;;;;;;,<+;; 22222222",
"2222222222   ,,,,,,,;,,,,,,,   222222222",
"2222222222222+++,<<<;<<<,+++222222222222",
"222222222222222++;;;;;;;++22222222222222",
"2222222222222222222222222222222222222222",
"2222222222222222222222222222222222222222",
"2222222222222222222222222222222222222222",
"2222222222222222222222222222222222222222"
};
