/* XPM */
static char *key[] = {
/* columns rows colors chars-per-pixel */
"40 40 80 1 ",
"  c black",
". c #743939",
"X c #753A39",
"o c #793C3B",
"O c #7C3D3D",
"+ c #796800",
"@ c #7C6B00",
"# c #6D6D6D",
"$ c #7C7C7C",
"% c #864342",
"& c #884443",
"* c #9A4E4D",
"= c #A45353",
"- c #AA5656",
"; c #AA5756",
": c #AC5757",
"> c #BF6261",
", c #CE7D5F",
"< c #C16362",
"1 c #CA6867",
"2 c #CE6A69",
"3 c #DF7373",
"4 c #E77877",
"5 c #AB9400",
"6 c #BFA600",
"7 c #C1A800",
"8 c #CCB100",
"9 c #CBA62D",
"0 c #DCB52D",
"q c #E7C900",
"w c #F6D600",
"e c #FFDE00",
"r c #FFDF00",
"t c #ECCA18",
"y c #FFD336",
"u c #FFD03D",
"i c #AB9951",
"p c #AB9E71",
"a c #D68B5D",
"s c #F6B559",
"d c #F6B45A",
"f c #D78165",
"g c #E68B6B",
"h c #E29561",
"j c #EE966B",
"k c #FF9C77",
"l c #FFB068",
"z c #FFCB46",
"x c #FFC451",
"c c #FFC254",
"v c #FFC056",
"b c #FFC156",
"n c #FFCC7A",
"m c gray55",
"M c gray60",
"N c #ABA79B",
"B c #ABA79C",
"V c #BFB699",
"C c #AAAAAA",
"Z c gray67",
"A c gray69",
"S c #BFBBB1",
"D c #CE9C9C",
"F c #FF8584",
"G c #FFD794",
"H c #FFDCB4",
"J c #F6E7B8",
"K c #FFEABB",
"L c #FFEABC",
"P c #CBCBCB",
"I c #FFC2C2",
"U c #FFD6C9",
"Y c #FFDBDA",
"T c #FFF3CB",
"R c #FFF5D7",
"E c #FFF7DF",
"W c #FFEDEE",
"Q c #FFF8E2",
"! c #FFF9E7",
"~ c #00D9FA",
/* pixels */
"~~~~~~~~~~~~~~~~~~~~~~~~~~~~~~~~~~~~~~~~",
"~~~~~~~~~~~~~~~~~~~~~~~~~~~~~~~~~~~~~~~~",
"~~~~~~~~~~~~~~~~~~~~~~~~~~~~~~~~~~~~~~~~",
"~~~~~~~~~~~~~~~~~~~~~~~~~~~~~~~~~~~~~~~~",
"~~~~~~~~~~~~~~~~~~~~~~~~~~~~~~~~~~~~~~~~",
"~~~~~~~~~~~~~~~~~~~~~~~~~~~~~~~~~~~~~~~~",
"~~~~~~~~~~~~~~~~~~~~~~~~~~~~~~~~~~~~~~~~",
"~~~~~~~~~~~~~~~~~~~~~~~~~~~~~~~~~~~~~~~~",
"~~~~~~~~~~~~~~~~~~~~~~~~~~~~~~~~~~~~~~~~",
"~~~~~~~~~~~~~~~~~~~~~~~~~~~~~~~~~~~~~~~~",
"~~~~~~~~~~~~~~~~~~~~~~~~~~~~~~~~~~~~~~~~",
"~~~~~~~~~~~~~~~~~~~~~~~~~~~~~~~~~~~~~~~~",
"~~~~~~~~~~~~~~~~~~~~~~~~~~~~~~~~~~~~~~~~",
"~~~~~~~~~~~~~~~~~~~~~~~~~~~~~~~~~~~~~~~~",
"~~~~~~~~~~~~~~~~~~~~~~$$@+~~~~~~~~~~~~~~",
"~~~~~~~~~~~~~~~~~~~~~$!Wyto~~~~~~~~~~~~~",
"~~~~~~~~~~~~~~~~~~~~mEz3gxj&~~~~~~~~~~~~",
"~~~~~~~~~~~MZp55NZiBTv1 .au4 ~~~~~~~~~~~",
"~~~~~~~~~~ PQG0w!RnLeF ~~@u4 ~~~~~~~~~~~",
"~~~~~~~~~~ PHh%6Jnf9rl-~#Vu4 ~~~~~~~~~~~",
"~~~~~~~~~~ PI;~ qkO 8blCSKd>~~~~~~~~~~~~",
"~~~~~~~~~~~AD*~~7,X~ 2cYUs<~~~~~~~~~~~~~",
"~~~~~~~~~~~~~~~~~~~~~~:::=~~~~~~~~~~~~~~",
"~~~~~~~~~~~~~~~~~~~~~~~~~~~~~~~~~~~~~~~~",
"~~~~~~~~~~~~~~~~~~~~~~~~~~~~~~~~~~~~~~~~",
"~~~~~~~~~~~~~~~~~~~~~~~~~~~~~~~~~~~~~~~~",
"~~~~~~~~~~~~~~~~~~~~~~~~~~~~~~~~~~~~~~~~",
"~~~~~~~~~~~~~~~~~~~~~~~~~~~~~~~~~~~~~~~~",
"~~~~~~~~~~~~~~~~~~~~~~~~~~~~~~~~~~~~~~~~",
"~~~~~~~~~~~~~~~~~~~~~~~~~~~~~~~~~~~~~~~~",
"~~~~~~~~~~~~~~~~~~~~~~~~~~~~~~~~~~~~~~~~",
"~~~~~~~~~~~~~~~~~~~~~~~~~~~~~~~~~~~~~~~~",
"~~~~~~~~~~~~~~~~~~~~~~~~~~~~~~~~~~~~~~~~",
"~~~~~~~~~~~~~~~~~~~~~~~~~~~~~~~~~~~~~~~~",
"~~~~~~~~~~~~~~~~~~~~~~~~~~~~~~~~~~~~~~~~",
"~~~~~~~~~~~~~~~~~~~~~~~~~~~~~~~~~~~~~~~~",
"~~~~~~~~~~~~~~~~~~~~~~~~~~~~~~~~~~~~~~~~",
"~~~~~~~~~~~~~~~~~~~~~~~~~~~~~~~~~~~~~~~~",
"~~~~~~~~~~~~~~~~~~~~~~~~~~~~~~~~~~~~~~~~",
"~~~~~~~~~~~~~~~~~~~~~~~~~~~~~~~~~~~~~~~~"
};
