/* XPM */
static char *a815a2a79ab5430c9519b05e9ea2ed2612kuBlhfHH4WyB4L[] = {
/* columns rows colors chars-per-pixel */
"54 40 23 1 ",
"  c None",
". c black",
"X c #0C1E0C",
"o c gray8",
"O c #173115",
"+ c #36260A",
"@ c #5C3812",
"# c #753E2D",
"$ c #1F4119",
"% c #2D453D",
"& c #2A6024",
"* c #386A2E",
"= c #316945",
"- c #904E14",
"; c #B4751A",
": c #4E9F43",
"> c #5EC850",
", c #D48C52",
"< c #E6AD6A",
"1 c gray58",
"2 c #EBB385",
"3 c #FFD9AD",
"4 c LightGray",
/* pixels */
"                                                      ",
"                                                      ",
"                                                      ",
"                                                      ",
"                                                      ",
"                                                      ",
"    ++@@----@@++                                      ",
" ++@@----------@++                                    ",
"+@-----------;<--@+                                   ",
" +@;--;-@---;--;;-@+                                  ",
" +;-@<-@+-;--<-----+                                  ",
" @-@+;@,+@<-@;;--@-@+                                 ",
" @@+#@,2,+-;@-;---@@+                 ****O           ",
" ++#,2333,@;@---@--@+               *****O            ",
" ++,233333+-+-@--+@-+              *****O             ",
" +.2333333,@+-@@-++@+              *:*:*O             ",
"  .233###,2+@@++@+++.             *:***O              ",
"  .222..1,2,-@+++@@+.            O**::*O              ",
"  .222..4,22-@,++@@.             O*:******            ",
"  .222%%4233@+,++@+.             OOO:::**:***         ",
"  .333==4333+o+@++.             O*&O********::*       ",
"  .333333333,o+@+.             O$&*O::********:*      ",
"  .,33333332#+++.       OOXX  O&:*XO**:::::::**:**    ",
"   .,233333#222,..   OOX$**OXO$>$$O OO******OOOOO     ",
"    ..#####3333,2###O$$*:$$*:&:$*O    OOOOOO          ",
"        232333,23,#2#*:&&:>$&:$OX                     ",
"       23322222332#22#$:>&&:>$OO                      ",
"       2332,,,#233,#2#*&&:>&$*O                       ",
"        ,,,,222,33,#,#$*:&$*OX                        ",
"        .23222#,33,..*:$$**:X                         ",
"         ###. .233##X$$*:XXX                          ",
"              .232.  OOXX                             ",
"              .#,#.                                   ",
"               ...                                    ",
"                                                      ",
"                                                      ",
"                                                      ",
"                                                      ",
"                                                      ",
"                                                      "
};
