/* XPM */
static char *f3bbebfb91a94e93c4176f1d68707682CfG8Ds7xow0M1fVh[] = {
/* columns rows colors chars-per-pixel */
"53 40 23 1 ",
"  c None",
". c black",
"X c #0C1E0C",
"o c gray8",
"O c #173115",
"+ c #36260A",
"@ c #5C3812",
"# c #753E2D",
"$ c #1F4119",
"% c #2D453D",
"& c #2A6024",
"* c #386A2E",
"= c #316945",
"- c #904E14",
"; c #B4751A",
": c #4E9F43",
"> c #5EC850",
", c #D48C52",
"< c #E6AD6A",
"1 c gray58",
"2 c #EBB385",
"3 c #FFD9AD",
"4 c LightGray",
/* pixels */
"                                                     ",
"                                                     ",
"                                                     ",
"                                                     ",
"                                                     ",
"                                                     ",
"                                                     ",
"    ++@@----@@++                                     ",
" ++@@----------@++                                   ",
"+@-----------;<--@+                                  ",
" +@;--;-@---;--;;-@+                                 ",
" +;-@<-@+-;--<-----+                                 ",
" @-@+;@,+@<-@;;--@-@+                                ",
" @@+#@,2,+-;@-;---@@+                                ",
" ++#,2333,@;@---@--@+                                ",
" ++,233333+-+-@--+@-+                                ",
" +.2333333,@+-@@-++@+                                ",
"  .233###,2+@@++@+++.                                ",
"  .222..1,2,-@+++@@+.                      OO***     ",
"  .222..4,22-@,++@@..                    OO**:::**   ",
"  .222%%4233@+,++@+.                    O*******::** ",
"  .333==4333+o+@++..   OOXXOOX      OXXO*::OO**OOOO  ",
"  .333333333,o+@+.o.##O$$*:$$*OXXOOX$:>$O**::OO      ",
"  .,33333332#+++..##,2#*:&&:>$$*:$&:>$$*O::**:*O     ",
"   .,233333#222,,,,3#22#$:>&&:>&&:*$$OOX:**:**:*O    ",
"    ..#####33333#,23,#2#*&&:>&&:*$XOO OO*:**:**::O   ",
"        2323332222332,,#$*:&$*:$XO      OO:**::**:*  ",
"       23322222###233,#*:$$*:XXO          OO:**::*:* ",
"       2332,,,,,,2#332#$$*:XX               OOO**:*:*",
"        ,,,,22222.#,33,#OXX                    OOOOOO",
"              ###..,233#                             ",
"                   #232.                             ",
"                   .#,#.                             ",
"                    ...                              ",
"                                                     ",
"                                                     ",
"                                                     ",
"                                                     ",
"                                                     ",
"                                                     "
};
