/* XPM */
static char *_4ea6717ebbe4f79f1d538fe07939491dRxlTofNtkYwi9o2[] = {
/* columns rows colors chars-per-pixel */
"54 40 23 1 ",
"  c None",
". c black",
"X c #0C1E0C",
"o c gray8",
"O c #173115",
"+ c #36260A",
"@ c #5C3812",
"# c #753E2D",
"$ c #1F4119",
"% c #2D453D",
"& c #2A6024",
"* c #386A2E",
"= c #316945",
"- c #904E14",
"; c #B4751A",
": c #4E9F43",
"> c #5EC850",
", c #D48C52",
"< c #E6AD6A",
"1 c gray58",
"2 c #EBB385",
"3 c #FFD9AD",
"4 c LightGray",
/* pixels */
"                                                      ",
"                                                      ",
"                                                      ",
"                                                      ",
"                                                      ",
"                                                      ",
"                                                      ",
"                                                      ",
"     ++@@----@@++                                     ",
"  ++@@----------@++                                   ",
" +@-----------;<--@+                                  ",
"  +@;--;-@---;--;;-@+                                 ",
"  +;-@<-@+-;--<-----+                                 ",
"  @-@+;@,+@<-@;;--@-@+                                ",
"  @@+#@,2,+-;@-;---@@+                                ",
"  ++#,2333,@;@---@--@+                                ",
"  ++,233333+-+-@--+@-+                                ",
"  +.2333333,@+-@@-++@+                                ",
"   .233###,2+@@++@+++.                                ",
"   .222..1,2,-@+++@@+.                                ",
"   .222..4,22-@,++@@.                                 ",
"   .222%%4233@+,++@+.   XXOOX                         ",
"   .333==4333+o+@++. ..X*:$$*OX                       ",
"   .333333333,o+@+.#.###&&:>&$*O                      ",
"   .,33333332#+++.###,,,#..&:>&$O                     ",
"    .,233333#222,,,,333332#.&&:>$X                    ",
"     ..#####33333,23333333,.*:&&:*X             OO    ",
"         232333222,232,,22#.$$*:&&*O       OOOOOO     ",
"        23322222#####..#...XOOX$*:$$O   OOO****O      ",
"        2332,,,,,,2##***$$O    OX$*:XOOO******O     O ",
"         ,,,,2222    OXXO        O$$*O**:::OOO    OO  ",
"                                  O*$X::**O     OO*O  ",
"                                   OOO**::*OOOOO:*O   ",
"                                    O*::**::::*:*O    ",
"                                     O**::****:*O     ",
"                                      OO**::::*O      ",
"                                        OOOOOOO       ",
"                                                      ",
"                                                      ",
"                                                      "
};
