/* XPM */
static char *left1[] = {
/* columns rows colors chars-per-pixel */
"40 40 159 2 ",
"   c #000000",
".  c #0F0901",
"X  c #051007",
"o  c #0D140B",
"O  c #0A1B0D",
"+  c #07130A",
"@  c #1C1703",
"#  c #230003",
"$  c #280000",
"%  c #201704",
"&  c #371A00",
"*  c #002F0C",
"=  c #0F2410",
"-  c #142B13",
";  c #063612",
":  c #153114",
">  c #193416",
",  c #1B3718",
"<  c #1D3B19",
"1  c #252109",
"2  c #2D2309",
"3  c #2C2106",
"4  c #332000",
"5  c #33240A",
"6  c #3B280B",
"7  c #012E27",
"8  c #400000",
"9  c #5E0000",
"0  c #5B0800",
"q  c #432C0D",
"w  c #482E0E",
"e  c #4A300E",
"r  c #5D350E",
"t  c #4A231A",
"y  c #4F3210",
"u  c #553511",
"i  c #5B3712",
"p  c #5F3912",
"a  c #692D00",
"s  c #783D03",
"d  c #692818",
"f  c #653C13",
"g  c #673A12",
"h  c #693C2C",
"j  c #723826",
"k  c #1D4119",
"l  c #21421C",
"z  c #234D1E",
"x  c #274E21",
"c  c #284F22",
"v  c #364E21",
"b  c #265220",
"n  c #2B5424",
"m  c #2D5A25",
"M  c #3F5D29",
"N  c #2D6326",
"B  c #2F6B29",
"V  c #35662C",
"C  c #36692D",
"Z  c #386A2E",
"A  c #3A6E30",
"S  c #377430",
"D  c #3B7331",
"F  c #3E7B33",
"G  c #674612",
"H  c #714013",
"J  c #7C4413",
"K  c #5F4020",
"L  c #634837",
"P  c #7F4630",
"I  c #407E36",
"U  c #7C5B43",
"Y  c #647B53",
"T  c #854201",
"R  c #9D5B09",
"E  c #834A14",
"W  c #8C4D14",
"Q  c #894919",
"!  c #804613",
"~  c #904E14",
"^  c #87581B",
"/  c #955313",
"(  c #A36216",
")  c #A66718",
"_  c #AA6A18",
"`  c #B6771A",
"'  c #83482E",
"]  c #895629",
"[  c #995C2B",
"{  c #834B34",
"}  c #894F36",
"|  c #87563E",
" . c #955937",
".. c #946135",
"X. c #B97A22",
"o. c #A36337",
"O. c #B16D3A",
"+. c #B67A37",
"@. c #8F5D45",
"#. c #916F50",
"$. c #9B7352",
"%. c #9F7D5F",
"&. c #B17141",
"*. c #3F8436",
"=. c #408637",
"-. c #458B3B",
";. c #488F3D",
":. c #438539",
">. c #46963C",
",. c #4A943F",
"<. c #499E3E",
"1. c #4D9D42",
"2. c #58BD4B",
"3. c #5CC34E",
"4. c #BA8050",
"5. c #B78C67",
"6. c #BB8967",
"7. c #B58F70",
"8. c #C88046",
"9. c #C6834C",
"0. c #C88248",
"q. c #D38A4E",
"w. c #C88955",
"e. c #CC9759",
"r. c #D79056",
"t. c #D7915A",
"y. c #D9935C",
"u. c #DBA15D",
"i. c #CA946B",
"p. c #DC9F6D",
"a. c #C79F7D",
"s. c #CF9973",
"d. c #DCA67A",
"f. c #DFA97D",
"g. c #E3A36F",
"h. c #E9A56F",
"j. c #E3A471",
"k. c #E2AB7D",
"l. c #ECAD7A",
"z. c #BBAC85",
"x. c #EBB284",
"c. c #EFB98C",
"v. c #E5B082",
"b. c #F2BB8C",
"n. c #C4B6AF",
"m. c #F6C697",
"M. c #F6C699",
"N. c #F7CA9D",
"B. c #FBCD9F",
"V. c #F8CCA0",
"C. c #FED2A5",
"Z. c #FFD7AA",
"A. c #FFD9AD",
"S. c #F6D3A8",
"D. c #FFDDB1",
"F. c #FFE1B5",
"G. c #DED1CA",
"H. c #E8DACE",
"J. c #48D7D8",
/* pixels */
"J.J.J.J.J.J.J.J.J.J.J.J.J.J.J.J.J.J.J.J.J.J.J.J.J.J.J.J.J.J.J.J.J.J.J.J.J.J.J.J.",
"J.J.J.J.J.J.J.J.J.J.J.J.J.J.J.J.J.J.J.J.J.J.J.J.J.J.J.J.J.J.J.J.J.J.J.J.J.J.J.J.",
"J.J.J.J.J.J.J.J.J.J.J.J.J.J.J.J.J.J.J.J.J.J.J.J.J.J.J.J.J.J.J.J.J.J.J.J.J.J.J.J.",
"J.J.J.J.J.J.J.J.J.J.J.J.J.J.J.J.J.J.J.J.J.J.J.J.J.J.J.J.J.J.J.J.J.J.J.J.J.J.J.J.",
"J.J.J.J.J.J.J.J.J.J.J.J.J.J.J.J.J.J.J.J.J.J.J.J.J.J.J.J.J.J.J.J.J.J.J.J.J.J.J.J.",
"J.J.J.J.J.J.J.J.J.J.J.J.J.J.J.J.J.J.J.J.J.J.J.J.J.J.J.J.J.J.J.J.J.J.J.J.J.J.J.J.",
"J.J.J.J.J.J.J.J.J.J.J.J.J.J.J.J.J.J.J.J.J.J.J.J.J.J.J.J.J.J.J.J.J.J.J.J.J.J.J.J.",
"J.J.J.J.J.J.J.J.J.J.J.J.J.J.J.J.J.J.J.J.J.J.J.J.J.J.J.J.J.J.J.J.J.J.J.J.J.J.J.J.",
"J.J.J.J.J.J.J.J.J.J.J.J.J.J.J.J.J.J.J.J.J.J.J.J.J.J.J.J.J.J.J.J.J.J.J.J.J.J.J.J.",
"J.J.J.2 q J.J./ ~ J.J.J.J.J.J.J.J.J.J.J.J.J.J.J.J.J.J.J.J.J.J.J.J.J.J.J.J.J.J.J.",
"J.2 u p W E ~ ~ W W T u 1 J.J.J.J.J.J.J.J.J.J.J.J.J.J.J.J.J.J.J.J.J.J.J.J.J.J.J.",
"6 J / ~ / ~ W ~ W R u./ W q J.J.J.J.J.J.J.J.J.J.J.J.J.J.J.J.J.J.J.J.J.J.J.J.J.J.",
"J.G _ ] +.H p R ~ +.[ ( ( E 2 J.J.J.J.J.J.J.J.J.J.J.J.J.J.J.J.J.J.J.J.J.J.J.J.J.",
"J.E f G ^ 8.  e.W ^ X.~ ! W u 5 J.J.J.J.J.J.J.J.J.J.J.J.J.J.J.J.J.J.J.J.J.J.J.J.",
"J.u 6 { 4.b.w.a ` g ) ~ ~ g f 2 J.J.J.J.J.J.J.J.J.J.J.J.Z Z Z : J.J.J.J.J.J.J.J.",
"J.@ o.l.Z.A.Z.#.( p J ~ g ! J 1 J.J.J.J.J.J.J.J.J.J.Z Z V V < J.J.J.J.J.J.J.J.J.",
"J.  d.A.A.F.F.k.f r H f ! 2 f 2 J.J.J.J.J.J.J.J.J.J.F F 1.m J.J.J.J.J.J.J.J.J.J.",
"J.  k.A.7.0 } l.K f 6 5 e 6 5   J.J.J.J.J.J.J.J.J.Z ,.Z V O J.J.J.J.J.J.J.J.J.J.",
"J.  k.x.$.  n.g.g.s ..5 w f % J.J.J.J.J.J.J.J.J.= Z -.-.V n V J.J.J.J.J.J.J.J.J.",
"J.  k.x.%.7 G.m.Z.$ 9.3 w e   J.J.J.J.J.J.J.J.J.- , V 1.1.M ,.A Z J.J.J.J.J.J.J.",
"J.  S.D.z.Y H.A.A.#   p 5 . J.J.J.J.J.J.J.J.J.J.n N < Z V Z V Z F 1.D J.J.J.J.J.",
"J.  v.D.D.D.A.A.B.Q   4 % J.J.J.J.J.- J.J.J.J.z D n c 1.-.-.-.-.-.A ,.:.A J.J.J.",
"J.J.& h.C.D.F.F.{ k.k.9.  J.J.J.: X n V O o o 2.k : J., D D D D Z < < l J.J.J.J.",
"J.J.J.  8 9 { d D.A.A.t.d.j | ; b D *.m D *.1.- n J.J.J.- - - - - J.J.J.J.J.J.J.",
"J.J.J.J.J.J.C.M.N.N.k.B.B.' b.$.F -.>.<.*.>., - J.J.J.J.J.J.J.J.J.J.J.J.J.J.J.J.",
"J.J.J.J.J.x.D.M.t.r. .b.A.p.@.s.M B *.3.N Z , J.J.J.J.J.J.J.J.J.J.J.J.J.J.J.J.J.",
"J.J.J.J.J.J.0.y.t.c.x.q.F.j.h &.v Z *.> A + J.J.J.J.J.J.J.J.J.J.J.J.J.J.J.J.J.J.",
"J.J.J.J.J.J.L a.5.5.h d.F.i.t * F m Z x S J.J.J.J.J.J.J.J.J.J.J.J.J.J.J.J.J.J.J.",
"J.J.J.J.J.J.J.J.J.J.  c.A.U J.: : : k J.J.J.J.J.J.J.J.J.J.J.J.J.J.J.J.J.J.J.J.J.",
"J.J.J.J.J.J.J.J.J.J.  d O.# J.J.J.J.J.J.J.J.J.J.J.J.J.J.J.J.J.J.J.J.J.J.J.J.J.J.",
"J.J.J.J.J.J.J.J.J.J.J.    J.J.J.J.J.J.J.J.J.J.J.J.J.J.J.J.J.J.J.J.J.J.J.J.J.J.J.",
"J.J.J.J.J.J.J.J.J.J.J.J.J.J.J.J.J.J.J.J.J.J.J.J.J.J.J.J.J.J.J.J.J.J.J.J.J.J.J.J.",
"J.J.J.J.J.J.J.J.J.J.J.J.J.J.J.J.J.J.J.J.J.J.J.J.J.J.J.J.J.J.J.J.J.J.J.J.J.J.J.J.",
"J.J.J.J.J.J.J.J.J.J.J.J.J.J.J.J.J.J.J.J.J.J.J.J.J.J.J.J.J.J.J.J.J.J.J.J.J.J.J.J.",
"J.J.J.J.J.J.J.J.J.J.J.J.J.J.J.J.J.J.J.J.J.J.J.J.J.J.J.J.J.J.J.J.J.J.J.J.J.J.J.J.",
"J.J.J.J.J.J.J.J.J.J.J.J.J.J.J.J.J.J.J.J.J.J.J.J.J.J.J.J.J.J.J.J.J.J.J.J.J.J.J.J.",
"J.J.J.J.J.J.J.J.J.J.J.J.J.J.J.J.J.J.J.J.J.J.J.J.J.J.J.J.J.J.J.J.J.J.J.J.J.J.J.J.",
"J.J.J.J.J.J.J.J.J.J.J.J.J.J.J.J.J.J.J.J.J.J.J.J.J.J.J.J.J.J.J.J.J.J.J.J.J.J.J.J.",
"J.J.J.J.J.J.J.J.J.J.J.J.J.J.J.J.J.J.J.J.J.J.J.J.J.J.J.J.J.J.J.J.J.J.J.J.J.J.J.J.",
"J.J.J.J.J.J.J.J.J.J.J.J.J.J.J.J.J.J.J.J.J.J.J.J.J.J.J.J.J.J.J.J.J.J.J.J.J.J.J.J."
};
