/* XPM */
static char *left2[] = {
/* columns rows colors chars-per-pixel */
"40 40 163 2 ",
"   c #000001",
".  c #0E0C04",
"X  c #0D080B",
"o  c #1F0000",
"O  c #0C1A0D",
"+  c #0C130D",
"@  c #141400",
"#  c #10190E",
"$  c #240005",
"%  c #261E05",
"&  c #3A1200",
"*  c #311D06",
"=  c #2A0810",
"-  c #3F1D15",
";  c #00270A",
":  c #0F210E",
">  c #122A0F",
",  c #0F2410",
"<  c #152710",
"1  c #142B12",
"2  c #0E3615",
"3  c #193516",
"4  c #1C3C18",
"5  c #1A3516",
"6  c #222008",
"7  c #2F2309",
"8  c #34250A",
"9  c #38270B",
"0  c #3C290B",
"q  c #500001",
"w  c #432C0C",
"e  c #4A2F0E",
"r  c #4E300E",
"t  c #53320E",
"y  c #4E3210",
"u  c #493816",
"i  c #533512",
"p  c #5E3A11",
"a  c #5C3612",
"s  c #643601",
"d  c #7C3D00",
"f  c #642A1D",
"g  c #603611",
"h  c #623A12",
"j  c #6B3E13",
"k  c #74351E",
"l  c #24451E",
"z  c #244C1E",
"x  c #2F501E",
"c  c #24541F",
"v  c #274C21",
"b  c #294F22",
"n  c #2A5223",
"m  c #295B22",
"M  c #325D29",
"N  c #2D6027",
"B  c #34642B",
"V  c #346B2B",
"C  c #386C2F",
"Z  c #3B7331",
"A  c #3D7934",
"S  c #6E4013",
"D  c #754213",
"F  c #7B4512",
"G  c #78471B",
"H  c #55592D",
"J  c #754D27",
"K  c #7C4829",
"L  c #407E36",
"P  c #7C625F",
"I  c #8C4700",
"U  c #894900",
"Y  c #914E0C",
"T  c #8F5900",
"R  c #975509",
"E  c #8B4C14",
"W  c #834814",
"Q  c #914E14",
"!  c #805512",
"~  c #965314",
"^  c #9C5A16",
"/  c #985515",
"(  c #A46314",
")  c #A76618",
"_  c #B37413",
"`  c #9E5D21",
"'  c #8A593A",
"]  c #996334",
"[  c #B0722E",
"{  c #AC6E34",
"}  c #BB6F37",
"|  c #B26E3B",
" . c #B77436",
".. c #CE7E3B",
"X. c #866449",
"o. c #99735B",
"O. c #A4674A",
"+. c #B06E42",
"@. c #A77B49",
"#. c #BC7740",
"$. c #A37153",
"%. c #A87054",
"&. c #B67D54",
"*. c #3F8236",
"=. c #408437",
"-. c #408D37",
";. c #438639",
":. c #458B3B",
">. c #49943E",
",. c #46973B",
"<. c #4D9C42",
"1. c #4FA144",
"2. c #54AE48",
"3. c #55B048",
"4. c #5CC34E",
"5. c #B58562",
"6. c #BC8A67",
"7. c #B78B6B",
"8. c #B79370",
"9. c #BE9674",
"0. c #CF8140",
"q. c #CA834A",
"w. c #D0884F",
"e. c #D88C4F",
"r. c #D2874B",
"t. c #CC8A55",
"y. c #D38D55",
"u. c #CB9155",
"i. c #D69057",
"p. c #D69058",
"a. c #DC955C",
"s. c #C4906D",
"d. c #D29E75",
"f. c #E19E6A",
"g. c #DAA67B",
"h. c #E5A16B",
"j. c #E5A571",
"k. c #B9AA80",
"l. c #C2A380",
"z. c #DDAB80",
"x. c #DFB790",
"c. c #ECB384",
"v. c #EEB688",
"b. c #EEB98B",
"n. c #F3BC8D",
"m. c #E8BB91",
"M. c #F4BE90",
"N. c #E5C89E",
"B. c #F8C797",
"V. c #FAC798",
"C. c #F7C99C",
"Z. c #F6C89B",
"A. c #F3CEA4",
"S. c #F7D1A6",
"D. c #FDD3A6",
"F. c #FDD5A9",
"G. c #FFDAAE",
"H. c #FFDEB2",
"J. c #FFE1B4",
"K. c #D1CDCB",
"L. c #D8D5D3",
"P. c #EED8C2",
"I. c #00D9FA",
/* pixels */
"I.I.I.I.I.I.I.I.I.I.I.I.I.I.I.I.I.I.I.I.I.I.I.I.I.I.I.I.I.I.I.I.I.I.I.I.I.I.I.I.",
"I.I.I.I.I.I.I.I.I.I.I.I.I.I.I.I.I.I.I.I.I.I.I.I.I.I.I.I.I.I.I.I.I.I.I.I.I.I.I.I.",
"I.I.I.I.I.I.I.I.I.I.I.I.I.I.I.I.I.I.I.I.I.I.I.I.I.I.I.I.I.I.I.I.I.I.I.I.I.I.I.I.",
"I.I.I.I.I.I.I.I.I.I.I.I.I.I.I.I.I.I.I.I.I.I.I.I.I.I.I.I.I.I.I.I.I.I.I.I.I.I.I.I.",
"I.I.I.I.I.I.I.I.I.I.I.I.I.I.I.I.I.I.I.I.I.I.I.I.I.I.I.I.I.I.I.I.I.I.I.I.I.I.I.I.",
"I.I.I.I.I.I.I.I.I.I.I.I.I.I.I.I.I.I.I.I.I.I.I.I.I.I.I.I.I.I.I.I.I.I.I.I.I.I.I.I.",
"I.I.I.I.I.I.I.I.I.I.I.I.I.I.I.I.I.I.I.I.I.I.I.I.I.I.I.I.I.I.I.I.I.I.I.I.I.I.I.I.",
"I.I.I.I.I.I.I.I.I.I.I.I.I.I.I.I.I.I.I.I.I.I.I.I.I.I.I.I.I.I.I.I.I.I.I.I.I.I.I.I.",
"I.I.I.I.I.I.I.I.I.I.I.I.I.I.I.I.I.I.I.I.I.I.I.I.I.I.I.I.I.I.I.I.I.I.I.I.I.I.I.I.",
"I.I.I.I.I.I.I.I.I.I.I.I.I.I.I.I.I.I.I.I.I.I.I.I.I.I.I.I.I.I.I.I.I.I.I.I.I.I.I.I.",
"I.I.I.8 w i ~ Q ~ i e 7 I.I.I.I.I.I.I.I.I.I.I.I.I.I.I.I.I.I.I.I.I.I.I.I.I.I.I.I.",
"I.w p j ~ Q E Q Q Q ` G w 9 I.I.I.I.I.I.I.I.I.I.I.I.I.I.I.I.I.I.I.I.I.I.I.I.I.I.",
"9 g ) Q R / F E E )  .[ ) h 9 I.I.I.I.I.I.I.I.I.I.I.I.I.I.I.I.I.I.I.I.I.I.I.I.I.",
"I.! ^ J u.s w ( ~ ` u.Y ~ Q t I.I.I.I.I.I.I.I.I.I.I.I.I.I.I.I.I.I.I.I.I.I.I.I.I.",
"I.D h r T y.t @.{ a _ ^ E S S 8 I.I.I.I.I.I.I.I.I.I.I.I.I.I.I.I.I.I.I.I.I.I.I.I.",
"I.e - +.d.C.c.d _ a ^ ~ D ~ h 8 I.I.I.I.I.I.I.I.I.I.I.I.I.I.I.I.I.I.I.I.I.I.I.I.",
"I.@ #.c.G.G.G.l.U 0 W E E e E 8 I.I.I.I.I.I.I.I.I.I.I.I.I.I.I.I.I.I.I.I.I.I.I.I.",
"I.  g.H.F.A.S.n.K w F y E 6 y 8 I.I.I.I.I.I.I.I.I.I.I.I.I.I.I.I.I.I.I.I.I.I.I.I.",
"I.I.g.C.9.o P h.&.D 9 % w y 0   I.I.I.I.I.I.I.I.I.I.I.I.I.I.I.I.I.: I.M I.I.I.I.",
"I.I.g.c.5.  K.a.c.U ] J 9 h *   I.I.I.I.I.I.I.I.I.I.I.I.I.I.I.1 n B <.<.C B I.I.",
"I.I.z.b.8.; L.B.J.& ' J 9 y . I.I.I.I.I.I.I.I.I.I.I.I.I.I.I.4 A C B B M <.<.B I.",
"I.I.S.G.N.k.P.G.J.]   p 9 .   I.I.2 1 B z # n I.I.I.I.+ *.V n :.*.A v v I.  I.I.",
"I.  t.J.G.G.F.F.B.k   @   = q w.s.x <.c :.4.X z <.> =.4.z C + 1.=.C :.v I.I.I.I.",
"I.I.  q.m.A.A.S.o.B.n.j.w.e.F.K v.%.4 3.*.V 3.,.m >.l 1 1   <.B :.A Z :.b I.I.I.",
"I.I.I.    I.&.7.S.H.F.D.6.c.G.f.q.O.n C =.,.V ;.b : I.1 I.I.v =.A ;.:.:.:.Z I.I.",
"I.I.I.I.I.c.F.A.b.b.n.$.' 5.F.S.| H ,.3 M <.: 3 I.I.I.I.I.I.I.I.3 <.C :.<.A ;.I.",
"I.I.I.I.I.c.D.Z.p.p.y.a.a.6.m.H.d.u 3 L N   I.I.I.I.I.I.I.I.I.I.I.O 1 b M <.A C ",
"I.I.I.I.I.I...0.r.I.d.6.5.  } Z.F.%.I.  I.I.I.I.I.I.I.I.I.I.I.I.I.I.I.I.<   I.I.",
"I.I.I.I.I.I.I.I.I.I.I.I.I.I.k n.G.X.I.I.I.I.I.I.I.I.I.I.I.I.I.I.I.I.I.I.I.I.I.I.",
"I.I.I.I.I.I.I.I.I.I.I.I.I.I.  f | $ I.I.I.I.I.I.I.I.I.I.I.I.I.I.I.I.I.I.I.I.I.I.",
"I.I.I.I.I.I.I.I.I.I.I.I.I.I.I.    I.I.I.I.I.I.I.I.I.I.I.I.I.I.I.I.I.I.I.I.I.I.I.",
"I.I.I.I.I.I.I.I.I.I.I.I.I.I.I.I.I.I.I.I.I.I.I.I.I.I.I.I.I.I.I.I.I.I.I.I.I.I.I.I.",
"I.I.I.I.I.I.I.I.I.I.I.I.I.I.I.I.I.I.I.I.I.I.I.I.I.I.I.I.I.I.I.I.I.I.I.I.I.I.I.I.",
"I.I.I.I.I.I.I.I.I.I.I.I.I.I.I.I.I.I.I.I.I.I.I.I.I.I.I.I.I.I.I.I.I.I.I.I.I.I.I.I.",
"I.I.I.I.I.I.I.I.I.I.I.I.I.I.I.I.I.I.I.I.I.I.I.I.I.I.I.I.I.I.I.I.I.I.I.I.I.I.I.I.",
"I.I.I.I.I.I.I.I.I.I.I.I.I.I.I.I.I.I.I.I.I.I.I.I.I.I.I.I.I.I.I.I.I.I.I.I.I.I.I.I.",
"I.I.I.I.I.I.I.I.I.I.I.I.I.I.I.I.I.I.I.I.I.I.I.I.I.I.I.I.I.I.I.I.I.I.I.I.I.I.I.I.",
"I.I.I.I.I.I.I.I.I.I.I.I.I.I.I.I.I.I.I.I.I.I.I.I.I.I.I.I.I.I.I.I.I.I.I.I.I.I.I.I.",
"I.I.I.I.I.I.I.I.I.I.I.I.I.I.I.I.I.I.I.I.I.I.I.I.I.I.I.I.I.I.I.I.I.I.I.I.I.I.I.I.",
"I.I.I.I.I.I.I.I.I.I.I.I.I.I.I.I.I.I.I.I.I.I.I.I.I.I.I.I.I.I.I.I.I.I.I.I.I.I.I.I."
};
