/* XPM */
static char *left3[] = {
/* columns rows colors chars-per-pixel */
"40 30 149 2 ",
"   c #000000",
".  c #020C01",
"X  c #030D08",
"o  c #091108",
"O  c #0C190D",
"+  c #260004",
"@  c #2C0900",
"#  c #231905",
"$  c #371612",
"%  c #00250B",
"&  c #10230F",
"*  c #0F2210",
"=  c #112410",
"-  c #142C13",
";  c #173115",
":  c #193416",
">  c #1D3B18",
",  c #24210A",
"<  c #342406",
"1  c #34260A",
"2  c #3A270B",
"3  c #3A280C",
"4  c #3F271A",
"5  c #392D22",
"6  c #450700",
"7  c #4D2300",
"8  c #422C0D",
"9  c #492C09",
"0  c #4C300F",
"q  c #50300C",
"w  c #542F11",
"e  c #543511",
"r  c #593712",
"t  c #5E3912",
"y  c #6D280F",
"u  c #6C3B0D",
"i  c #6B3701",
"p  c #793C0C",
"a  c #68291E",
"s  c #633A12",
"d  c #603F1C",
"f  c #653026",
"g  c #613827",
"h  c #693B29",
"j  c #22471E",
"k  c #244C1F",
"l  c #1C4E20",
"z  c #1D563D",
"x  c #274B21",
"c  c #284E22",
"v  c #265020",
"b  c #2B5323",
"n  c #2B5C24",
"m  c #1F6726",
"M  c #34652B",
"N  c #3A6D2F",
"B  c #35762E",
"V  c #3B6F30",
"C  c #3B7431",
"Z  c #3B7832",
"A  c #744112",
"S  c #7B4312",
"D  c #544E29",
"F  c #69462F",
"G  c #624629",
"H  c #704421",
"J  c #7D482F",
"K  c #744E3F",
"L  c #407E36",
"P  c #434144",
"I  c #5F7D78",
"U  c #6E7374",
"Y  c #843F02",
"T  c #884105",
"R  c #8C5206",
"E  c #9C5A06",
"W  c #824612",
"Q  c #834914",
"!  c #8C4B14",
"~  c #914E14",
"^  c #8E501C",
"/  c #955214",
"(  c #9A5A16",
")  c #A76D19",
"_  c #AF7119",
"`  c #B37319",
"'  c #B8791B",
"]  c #80482E",
"[  c #9C5E25",
"{  c #854B31",
"}  c #85523D",
"|  c #9F622C",
" . c #9F693B",
".. c #B67036",
"X. c #9D6B45",
"o. c #A0684A",
"O. c #B67F59",
"+. c #408637",
"@. c #468B3B",
"#. c #49943E",
"$. c #4AA03F",
"%. c #4E9D42",
"&. c #4FA043",
"*. c #59BB4B",
"=. c #BE802F",
"-. c #BE8867",
";. c #C88E52",
":. c #C58956",
">. c #D58E56",
",. c #C19056",
"<. c #D6955B",
"1. c #C78E67",
"2. c #D79867",
"3. c #DD9A64",
"4. c #DF9E68",
"5. c #D99763",
"6. c #C39E7D",
"7. c #E39F68",
"8. c #DFA06E",
"9. c #C5A07F",
"0. c #DFA87D",
"q. c #DCA476",
"w. c #E1A16D",
"e. c #E7AD7C",
"r. c #E6A572",
"t. c #CEA885",
"y. c #CAA381",
"u. c #D5AD88",
"i. c #D9B098",
"p. c #DEBD96",
"a. c #E0B287",
"s. c #EBB486",
"d. c #EAB788",
"f. c #EEB88B",
"g. c #F2BA8C",
"h. c #F1BF90",
"j. c #EDC298",
"k. c #F6C193",
"l. c #FCCD9F",
"z. c #F8C698",
"x. c #FCCDA0",
"c. c #FAD0A4",
"v. c #FFD6AA",
"b. c #FFDAAE",
"n. c #F3D1A7",
"m. c #EDCFB7",
"M. c #FFDDB2",
"N. c #FFE1B5",
"B. c None",
/* pixels */
"B.B.B.B.B.B.B.B.B.B.B.B.B.B.B.B.B.B.B.B.B.B.B.B.B.B.B.B.B.B.B.B.B.B.B.B.B.B.B.B.",
"B.B.B.B.B.B.B.B.B.B.B.B.B.B.B.B.B.B.B.B.B.B.B.B.B.B.B.B.B.B.B.B.B.B.B.B.B.B.B.B.",
"B.B.B.B.B.B.B.B.B.B.B.B.B.B.B.B.B.B.B.B.B.B.B.B.B.B.B.B.B.B.B.B.B.B.B.B.B.B.B.B.",
"B.B.B.B.B.B.B.B.B.B.B.B.B.B.B.B.B.B.B.B.B.B.B.B.B.B.B.B.B.B.B.B.B.B.B.B.B.B.B.B.",
"B.B.B.B.B.B.B.B.B.B.B.B.B.B.B.B.B.B.B.B.B.B.B.B.B.B.B.B.B.B.B.B.B.B.B.B.B.B.B.B.",
"B.B.B.B.B.B.B.B.B.B.B.B.B.B.B.B.B.B.B.B.B.B.B.B.B.B.B.B.B.B.B.B.B.B.B.B.B.B.B.B.",
"B.B.B.B.3 s A ~ ~ Q s 9 2 B.B.B.B.B.B.B.B.B.B.B.B.B.B.B.B.B.B.B.B.B.B.B.B.B.B.B.",
"B.8 u A ! ~ ~ ~ ~ ! E ;.i 0 B.B.B.B.B.B.B.B.B.B.B.B.B.B.B.B.B.B.B.B.B.B.B.B.B.B.",
"B.2 w ` T ` Q W ~ ( E | ' ( 0 1 B.B.B.B.B.B.B.B.B.B.B.B.B.B.B.B.B.B.B.B.B.B.B.B.",
"B.X _ p ,.^ d u ..T <./ ! ! / , B.B.B.B.B.B.B.B.B.B.B.B.B.B.B.B.B.B.B.B.B.B.B.B.",
"B.t A 3 i [ 2.7 ;.R R =.~ S A 0 B.B.B.B.B.B.B.B.B.B.B.B.B.B.B.B.B.B.B.B.B.B.B.B.",
"B.3 2 ] 2.c.b.q.s ) S E S ! ! 8 B.B.B.B.B.B.B.B.B.B.B.B.B.B.B.B.B.B.B.B.B.B.B.B.",
"B.2 . 7.c.b.M.M.d A S t / 0 r A B.B.B.B.B.B.B.B.B.B.B.B.B.B.B.B.B.B.B.B.B.B.B.B.",
"B.B.  k.N.t.y.a.r.  A 0 t 0 1 3 B.B.B.B.B.B.B.B.B.B.B.B.B.B.B.B.B.B.B.B.B.B.B.B.",
"B.B.  g.g.8 P -.s...u . 2 r r # B.B.B.B.B.B.B.B.B.B.B.B.B.B.B.B.B.B.B.B.B.B.B.B.",
"B.B.  g.g.5 U i.f.q.7 >.  q r   B.B.B.B.B.B.B.B.B.B.B.B.B.B.B.B.B.B.B.B.B.B.B.B.",
"B.B.  l.l.z I m.M.p.   .< 0 . B.  % M > & k   B.B.B.B.B.B.B.B.B.B.B.B.B.B.B.B.B.",
"B.B.  N.b.n.n.M.b.z.H 1 r   h $ f g m #.*.; M = B.B.B.B.B.B.B.B.B.B.B.B.B.B.B.B.",
"B.B.  5.v.b.b.b.b.1.F G e J { -.3.5.K + n *.B n = B.B.B.B.B.B.B.B.B.B.B.B.B.B.B.",
"B.B.B.@ X.6.6.6.6.u.l.l.e.7.g.N.N.N.M.:.  Z +.&.M X B.B.B.B.B.B.B.B.B.B.: B.B.B.",
"B.B.B.B.B.B.B.j.0.M.M.f.g.3.k.v.w.7.k.o.. v M #.n M = B.B.B.B.B.- = - : B.B.B.B.",
"B.B.B.B.B.B.h.M.s.e.e.s.y } a 6   g     & ; X > #.k k B.B.B.> > C V M B.B.B.B.B.",
"B.B.B.B.B.B.d.d.w.>.8.4.w.B.B.D b l > > B.B.B.- O b Z : x M @.@.c b B.B.B.= : B.",
"B.B.B.B.B.B.B.B.B.B.B.B.B.B.B.B.B.B.B.B.B.B.B.B.B.; M o %.#.C j B.B.B.B.O M = B.",
"B.B.B.B.B.B.B.B.B.B.B.B.B.B.B.B.B.B.B.B.B.B.B.B.B.B.- ; V L &.C j j > Z Z = B.B.",
"B.B.B.B.B.B.B.B.B.B.B.B.B.B.B.B.B.B.B.B.B.B.B.B.B.B.B.k @.@.@.@.@.@.@.C - B.B.B.",
"B.B.B.B.B.B.B.B.B.B.B.B.B.B.B.B.B.B.B.B.B.B.B.B.B.B.B.B.> c C %.%.&.C - B.B.B.B.",
"B.B.B.B.B.B.B.B.B.B.B.B.B.B.B.B.B.B.B.B.B.B.B.B.B.B.B.B.B.B.- O O O - B.B.B.B.B.",
"B.B.B.B.B.B.B.B.B.B.B.B.B.B.B.B.B.B.B.B.B.B.B.B.B.B.B.B.B.B.B.B.B.B.B.B.B.B.B.B.",
"B.B.B.B.B.B.B.B.B.B.B.B.B.B.B.B.B.B.B.B.B.B.B.B.B.B.B.B.B.B.B.B.B.B.B.B.B.B.B.B."
};
