/* XPM */
static char *_35dc9ea000142e2e5e3e5e1dbae9aa8cjIARU0ZVVMy9LLG[] = {
/* columns rows colors chars-per-pixel */
"55 40 23 1 ",
"  c None",
". c black",
"X c #0C1E0C",
"o c gray8",
"O c #173115",
"+ c #36260A",
"@ c #5C3812",
"# c #753E2D",
"$ c #1F4119",
"% c #2D453D",
"& c #2A6024",
"* c #386A2E",
"= c #316945",
"- c #904E14",
"; c #B4751A",
": c #4E9F43",
"> c #5EC850",
", c #D48C52",
"< c #E6AD6A",
"1 c gray58",
"2 c #EBB385",
"3 c #FFD9AD",
"4 c LightGray",
/* pixels */
"                                                       ",
"                                                       ",
"                                                       ",
"                                                       ",
"                                                       ",
"                                   ++@@----@@++        ",
"                                 ++@----------@@++     ",
"                                +@--<;-----------@+    ",
"                               +@-;;--;---@-;--;@+     ",
"                               +-----<--;-+@-<@-;+     ",
"                              +@-@--;;@-<@+,@;+@-@     ",
"        O****                 +@@---;-@;-+,2,@#+@@     ",
"         O*****               +@--@---@;@,3332,#++     ",
"          O*****              +-@+--@-+-+333332,++     ",
"          O*:*:*              +@++-@@-+@,3333332.+     ",
"           O***:*             .+++@++@@+2,###332.      ",
"           O*::**O            .+@@+++@-,2,1..222.      ",
"         ******:*O             .@@++,@-22,4..222.      ",
"      ***:**:::OOO             .+@++,+@3324%%222.      ",
"    *::********O&*O             .++@+o+3334==333.      ",
"   *:********::O*&$O             .+@+o,333333333.      ",
" **:**:::::::**OX*:&O  XXOO       .+++#23333333,.      ",
"  OOOOO******OO O$$>$OXO**$XOO   ..,222#333332,.       ",
"       OOOOOO    O*$:&:*$$:*$$O###2,3333#####..        ",
"                  XO$:&$>:&&:*#2#,32,333232            ",
"                   OO$>:&&>:$#22#23322222332           ",
"                    O*$&>:&&*#2#,332#,,,2332           ",
"                     XO*$&:*$#,#,33,222,,,,            ",
"                      X:**$$:*..,33,#22232.            ",
"                       XXX:*$$X##332. .###             ",
"                          XXOO  .232.                  ",
"                                .#,#.                  ",
"                                 ...                   ",
"                                                       ",
"                                                       ",
"                                                       ",
"                                                       ",
"                                                       ",
"                                                       ",
"                                                       "
};
