/* XPM */
static char *fecced6f02634945a92680ee556e9225rG3iumqDFvhQSfuU[] = {
/* columns rows colors chars-per-pixel */
"55 40 23 1 ",
"  c None",
". c black",
"X c #0C1E0C",
"o c gray8",
"O c #173115",
"+ c #36260A",
"@ c #5C3812",
"# c #753E2D",
"$ c #1F4119",
"% c #2D453D",
"& c #2A6024",
"* c #386A2E",
"= c #316945",
"- c #904E14",
"; c #B4751A",
": c #4E9F43",
"> c #5EC850",
", c #D48C52",
"< c #E6AD6A",
"1 c gray58",
"2 c #EBB385",
"3 c #FFD9AD",
"4 c LightGray",
/* pixels */
"                                                       ",
"                                                       ",
"                                                       ",
"                                                       ",
"                                                       ",
"                                                       ",
"                                     ++@@----@@++      ",
"                                   ++@----------@@++   ",
"                                  +@--<;-----------@+  ",
"                                 +@-;;--;---@-;--;@+   ",
"                                 +-----<--;-+@-<@-;+   ",
"                                +@-@--;;@-<@+,@;+@-@   ",
"                                +@@---;-@;-+,2,@#+@@   ",
"                                +@--@---@;@,3332,#++   ",
"                                +-@+--@-+-+333332,++   ",
"                                +@++-@@-+@,3333332.+   ",
"                                .+++@++@@+2,###332.    ",
"      ***OO                     .+@@+++@-,2,1..222.    ",
"    **:::**OO                    .@@++,@-22,4..222.    ",
"  **::*******O                   .+@++,+@3324%%222.    ",
"   OOOO**OO::*OXXO      XOOXXOO   .++@+o+3334==333.    ",
"       OO::**O$>:$XOOXXO*$$:*$$O##..+@+o,333333333.    ",
"      O*:**::O*$$>:&$:*$$>:&&:*#2,##.+++#23333333,.    ",
"     O*:**:**:XOO$$*:&&>:&&>:$#223,,,,222#333332,.     ",
"    O::**:**:*OO OOX$*:&&>:&&*#2#,32,33333#####..      ",
"   *:**::**:OO      OX$:*$&:*$#,,233222333232          ",
"  *:*::**:OO          OXX:*$$:*#,332##22222332         ",
" *:*:**OOO               XX:*$$#2332,,,,,,2332         ",
" OOOOOO                    XXO#,33,#.2222,,,,          ",
"                              #332,..###               ",
"                              .232#                    ",
"                              .#,#.                    ",
"                               ...                     ",
"                                                       ",
"                                                       ",
"                                                       ",
"                                                       ",
"                                                       ",
"                                                       ",
"                                                       "
};
