/* XPM */
static char *_21815d76ac542d3b8121ade7dd8bbfbubBkqfZKKSGasiG3[] = {
/* columns rows colors chars-per-pixel */
"55 40 23 1 ",
"  c None",
". c black",
"X c #0C1E0C",
"o c gray8",
"O c #173115",
"+ c #36260A",
"@ c #5C3812",
"# c #753E2D",
"$ c #1F4119",
"% c #2D453D",
"& c #2A6024",
"* c #386A2E",
"= c #316945",
"- c #904E14",
"; c #B4751A",
": c #4E9F43",
"> c #5EC850",
", c #D48C52",
"< c #E6AD6A",
"1 c gray58",
"2 c #EBB385",
"3 c #FFD9AD",
"4 c LightGray",
/* pixels */
"                                                       ",
"                                                       ",
"                                                       ",
"                                                       ",
"                                                       ",
"                                                       ",
"                                                       ",
"                                     ++@@----@@++      ",
"                                   ++@----------@@++   ",
"                                  +@--<;-----------@+  ",
"                                 +@-;;--;---@-;--;@+   ",
"                                 +-----<--;-+@-<@-;+   ",
"                                +@-@--;;@-<@+,@;+@-@   ",
"                                +@@---;-@;-+,2,@#+@@   ",
"                                +@--@---@;@,3332,#++   ",
"                                +-@+--@-+-+333332,++   ",
"                                +@++-@@-+@,3333332.+   ",
"                                .+++@++@@+2,###332.    ",
"                                .+@@+++@-,2,1..222.    ",
"                                 .@@++,@-22,4..222.    ",
"                         XOOXX   .+@++,+@3324%%222.    ",
"                       XO*$$:*X.. .++@+o+3334==333.    ",
"                      O*$&>:&&###.#.+@+o,333333333.    ",
"                     O$&>:&..#,,,###.+++#23333333,.    ",
"                    X$>:&&.#233333,,,,222#333332,.     ",
"    OO             X*:&&:*.,33333332,33333#####..      ",
"     OOOOOO       O*&&:*$$.#22,,232,222333232          ",
"      O****OOO   O$$:*$XOOX...#..#####22222332         ",
" O     O******OOOX:*$XO    O$$***##2,,,,,,2332         ",
"  OO    OOO:::**O*$$O        OXXO    2222,,,,          ",
"  O*OO     O**::X$*O                                   ",
"   O*:OOOOO*::**OOO                                    ",
"    O*:*::::**::*O                                     ",
"     O*:****::**O                                      ",
"      O*::::**OO                                       ",
"       OOOOOOO                                         ",
"                                                       ",
"                                                       ",
"                                                       ",
"                                                       "
};
