/* XPM */
static char *right1[] = {
/* columns rows colors chars-per-pixel */
"40 40 158 2 ",
"   c #000000",
".  c #1C0000",
"X  c #160A05",
"o  c #051108",
"O  c #0D1E0D",
"+  c #171806",
"@  c #3A0000",
"#  c #340400",
"$  c #271A05",
"%  c #0E210F",
"&  c #122210",
"*  c #142D13",
"=  c #163314",
"-  c #193416",
";  c #1C3A16",
":  c #1C3618",
">  c #1C3919",
",  c #2D2309",
"<  c #292105",
"1  c #312101",
"2  c #35260A",
"3  c #3C290C",
"4  c #292115",
"5  c #4E0000",
"6  c #451900",
"7  c #452C0C",
"8  c #492E0E",
"9  c #4C300E",
"0  c #54330F",
"q  c #5F370F",
"w  c #412A16",
"e  c #5A2912",
"r  c #4C311B",
"t  c #543513",
"y  c #5A3712",
"u  c #5D3812",
"i  c #5E3F1E",
"p  c #602C00",
"a  c #67380A",
"s  c #7B3600",
"d  c #622417",
"f  c #643C13",
"g  c #743E12",
"h  c #753C2C",
"j  c #19481C",
"k  c #22441D",
"l  c #264A1F",
"z  c #274920",
"x  c #284D21",
"c  c #2B5624",
"v  c #2A5F24",
"b  c #325F29",
"n  c #2D6927",
"m  c #2E6429",
"M  c #2E6828",
"N  c #266428",
"B  c #34642B",
"V  c #376B2E",
"C  c #396B2E",
"Z  c #37722F",
"A  c #3A6F30",
"S  c #3B7231",
"D  c #3D7933",
"F  c #6F421F",
"G  c #774214",
"H  c #7B4413",
"J  c #70451F",
"K  c #7D4C1D",
"L  c #5B4430",
"P  c #7F4130",
"I  c #7E4F3C",
"U  c #47652F",
"Y  c #343E40",
"T  c #635140",
"R  c #5F7554",
"E  c #5B6162",
"W  c #467565",
"Q  c #803B00",
"!  c #894400",
"~  c #814612",
"^  c #8C4B14",
"/  c #824B18",
"(  c #914E14",
")  c #9A5D16",
"_  c #975514",
"`  c #9F6615",
"'  c #A56400",
"]  c #A36818",
"[  c #A16113",
"{  c #B4751B",
"}  c #8F5121",
"|  c #985E2F",
" . c #804435",
".. c #8D5135",
"X. c #9D602B",
"o. c #996232",
"O. c #9D723A",
"+. c #A5682A",
"@. c #A8683D",
"#. c #BB7439",
"$. c #835542",
"%. c #885742",
"&. c #885E48",
"*. c #8D614B",
"=. c #90624C",
"-. c #A16849",
";. c #A26D40",
":. c #AA704D",
">. c #BC7B4D",
",. c #A77E63",
"<. c #C67D42",
"1. c #3E8335",
"2. c #418137",
"3. c #468C3B",
"4. c #46953D",
"5. c #49943E",
"6. c #4A9F3F",
"7. c #4A9640",
"8. c #4E9E43",
"9. c #4EA242",
"0. c #AD805D",
"q. c #BD8155",
"w. c #B0825D",
"e. c #B98867",
"r. c #C8884B",
"t. c #D58C52",
"y. c #D9945E",
"u. c #D99654",
"i. c #C8906C",
"p. c #DE9C68",
"a. c #DC9962",
"s. c #C1967D",
"d. c #DEA77B",
"f. c #E1A867",
"g. c #E5A46E",
"h. c #E7A774",
"j. c #E8A772",
"k. c #E7AA7A",
"l. c #DEB288",
"z. c #DEBD96",
"x. c #E4AD81",
"c. c #ECB384",
"v. c #EFB78A",
"b. c #EEB98C",
"n. c #F2BB8B",
"m. c #DEBCA8",
"M. c #F5C699",
"N. c #F9C596",
"B. c #FDCFA2",
"V. c #F5D0A7",
"C. c #FDD2A5",
"Z. c #FED6AA",
"A. c #FFD9AD",
"S. c #FFDEB1",
"D. c #FFE1B5",
"F. c #FFE5B8",
"G. c #F0D8C3",
"H. c #48D7D8",
/* pixels */
"H.H.H.H.H.H.H.H.H.H.H.H.H.H.H.H.H.H.H.H.H.H.H.H.H.H.H.H.H.H.H.H.H.H.H.H.H.H.H.H.",
"H.H.H.H.H.H.H.H.H.H.H.H.H.H.H.H.H.H.H.H.H.H.H.H.H.H.H.H.H.H.H.H.H.H.H.H.H.H.H.H.",
"H.H.H.H.H.H.H.H.H.H.H.H.H.H.H.H.H.H.H.H.H.H.H.H.H.H.H.H.H.H.H.H.H.H.H.H.H.H.H.H.",
"H.H.H.H.H.H.H.H.H.H.H.H.H.H.H.H.H.H.H.H.H.H.H.H.H.H.H.H.H.H.H.H.H.H.H.H.H.H.H.H.",
"H.H.H.H.H.H.H.H.H.H.H.H.H.H.H.H.H.H.H.H.H.H.H.H.H.H.H.H.H.H.H.H.H.H.H.H.H.H.H.H.",
"H.H.H.H.H.H.H.H.H.H.H.H.H.H.H.H.H.H.H.H.H.H.H.H.H.H.H.H.H.H.H.H.H.H.H.H.H.H.H.H.",
"H.H.H.H.H.H.H.H.H.H.H.H.H.H.H.H.H.H.H.H.H.H.H.H.H.H.H.H.H.H.H.H.H.H.H.H.H.H.H.H.",
"H.H.H.H.H.H.H.H.H.H.H.H.H.H.H.H.H.H.H.H.H.H.H.H.H.H.H.H.H.H.H.H.H.H.H.H.H.H.H.H.",
"H.H.H.H.H.H.H.H.H.H.H.H.H.H.H.H.H.H.H.H.H.H.H.H.H.H.H.H.H.H.H.H.H.H.H.H.H.H.H.H.",
"H.H.H.H.H.H.H.H.H.H.H.H.H.H.H.H.H.H.H.H.H.H.H.H., 3 p G ^ ( ( H H 0 t + H.H.H.H.",
"H.H.H.H.H.H.H.H.H.H.H.H.H.H.H.H.H.H.H.H.H.H.H., u Q f.' ^ ^ ( ( ^ ^ ^ H 3 H.H.H.",
"H.H.H.H.H.H.H.H.H.H.H.H.H.H.H.H.H.H.H.H.H.H.H.u _ { ! +.) _ H ~ { } { 0 H.H.H.H.",
"H.H.H.H.H.H.H.H.H.H.H.H.H.H.H.H.H.H.H.H.H.H.3 ^ H ^ [ r.s u.6 o.K O.g ) H.H.H.H.",
"H.H.H.H.H.H.x C C H.H.H.H.H.H.H.H.H.H.H.H.H.8 y ^ ^ { ~ ] | K k.#.e 2 f H.H.H.H.",
"H.H.H.H.H.H.H.b C C C H.H.H.H.H.H.H.H.H.H.H.8 ^ / ~ ^ H ] t N.A.A.h...< H.H.H.H.",
"H.H.H.H.H.H.H.% S D 3.B H.H.H.H.H.H.H.H.H.H.q 0 7 ^ y ~ a O.F.A.S.C.h.  H.H.H.H.",
"H.H.H.H.H.H.H.H.l C C 5.H.H.H.H.H.H.H.H.H.H.$ 2 3 0 3 f   c.<.=.,.D.n.  H.H.H.H.",
"H.H.H.H.H.H.H.H.j 3.8.V k H.H.H.H.H.H.H.H.H.+ y u $ i a r.c.s.Y L c.c.  H.H.H.H.",
"H.H.H.H.H.H.U D A 3.3.Z - H.H.H.H.H.H.H.H.H.H.8 u   u.# l.V.m.E T c.c.  H.H.H.H.",
"H.H.H.D 9.Z A A A A S - B * H.H.H.H.H.H.H.H.H.  3 8 f   z.S.G.W R A.Z.  H.H.H.H.",
"H.H.S 7.C S S S S 3.8.: m c * H.H.H.H.H.H.H.H.H.  t 1 F b.S.S.S.S.A.Z.  H.H.H.H.",
"H.b S l Z 3.3.3.3.C x O z 1.1.&   k c O H.H.H.H.  G ,.,.:.S.S.S.S.N.| H.H.H.H.H.",
"H.H.H.H.H.> > > > : H.H.* B 1.v 7.l ; 5.k ; w h  .a.Z.Z.Z.$.$.*.&.r H.H.H.H.H.H.",
"H.H.H.H.H.H.H.H.H.H.H.H.H.o & 5.n 9.8.n 4.U i.%.g.C.t.A.Z.b.C.H.H.H.H.H.H.H.H.H.",
"H.H.H.H.H.H.H.H.H.H.H.H.H.H.* l 6.4.1.9.N  .x.;.C.Z.e.p.p.b.D.b.H.H.H.H.H.H.H.H.",
"H.H.H.H.H.H.H.H.H.H.H.H.H.H.H.= > m n 5.j  .>.<.S.c.x.k.y.t.a.H.H.H.H.H.H.H.H.H.",
"H.H.H.H.H.H.H.H.H.H.H.H.H.H.H.H.k 2.B k 3.N   #.S.v.d v.d.V.0.H.H.H.H.H.H.H.H.H.",
"H.H.H.H.H.H.H.H.H.H.H.H.H.H.H.H.H.  H.C ; - H.. C.B.4 H.@ 5 H.H.H.H.H.H.H.H.H.H.",
"H.H.H.H.H.H.H.H.H.H.H.H.H.H.H.H.H.H.H.H.H.H.H.  -.q.X H.H.H.H.H.H.H.H.H.H.H.H.H.",
"H.H.H.H.H.H.H.H.H.H.H.H.H.H.H.H.H.H.H.H.H.H.H.H.    H.H.H.H.H.H.H.H.H.H.H.H.H.H.",
"H.H.H.H.H.H.H.H.H.H.H.H.H.H.H.H.H.H.H.H.H.H.H.H.H.H.H.H.H.H.H.H.H.H.H.H.H.H.H.H.",
"H.H.H.H.H.H.H.H.H.H.H.H.H.H.H.H.H.H.H.H.H.H.H.H.H.H.H.H.H.H.H.H.H.H.H.H.H.H.H.H.",
"H.H.H.H.H.H.H.H.H.H.H.H.H.H.H.H.H.H.H.H.H.H.H.H.H.H.H.H.H.H.H.H.H.H.H.H.H.H.H.H.",
"H.H.H.H.H.H.H.H.H.H.H.H.H.H.H.H.H.H.H.H.H.H.H.H.H.H.H.H.H.H.H.H.H.H.H.H.H.H.H.H.",
"H.H.H.H.H.H.H.H.H.H.H.H.H.H.H.H.H.H.H.H.H.H.H.H.H.H.H.H.H.H.H.H.H.H.H.H.H.H.H.H.",
"H.H.H.H.H.H.H.H.H.H.H.H.H.H.H.H.H.H.H.H.H.H.H.H.H.H.H.H.H.H.H.H.H.H.H.H.H.H.H.H.",
"H.H.H.H.H.H.H.H.H.H.H.H.H.H.H.H.H.H.H.H.H.H.H.H.H.H.H.H.H.H.H.H.H.H.H.H.H.H.H.H.",
"H.H.H.H.H.H.H.H.H.H.H.H.H.H.H.H.H.H.H.H.H.H.H.H.H.H.H.H.H.H.H.H.H.H.H.H.H.H.H.H.",
"H.H.H.H.H.H.H.H.H.H.H.H.H.H.H.H.H.H.H.H.H.H.H.H.H.H.H.H.H.H.H.H.H.H.H.H.H.H.H.H.",
"H.H.H.H.H.H.H.H.H.H.H.H.H.H.H.H.H.H.H.H.H.H.H.H.H.H.H.H.H.H.H.H.H.H.H.H.H.H.H.H."
};
