/* XPM */
static char *right3[] = {
/* columns rows colors chars-per-pixel */
"40 40 155 2 ",
"   c #000001",
".  c #0A0701",
"X  c #07070A",
"o  c #031204",
"O  c #0C160C",
"+  c #0B1206",
"@  c #151100",
"#  c #3B0000",
"$  c #281F09",
"%  c #241904",
"&  c #2C1E11",
"*  c #381E11",
"=  c #0F220F",
"-  c #10220F",
";  c #0F2310",
":  c #142C13",
">  c #173115",
",  c #193315",
"<  c #1B3718",
"1  c #1D3B19",
"2  c #252109",
"3  c #2D2209",
"4  c #34260A",
"5  c #38270B",
"6  c #3C290B",
"7  c #213E1B",
"8  c #520000",
"9  c #451218",
"0  c #441A18",
"q  c #41270F",
"w  c #462D0C",
"e  c #4D300E",
"r  c #53320E",
"t  c #5B2B10",
"y  c #4D3210",
"u  c #553512",
"i  c #5D3912",
"p  c #5A3712",
"a  c #662E0F",
"s  c #6C2D00",
"d  c #663000",
"f  c #7A3D00",
"g  c #623A13",
"h  c #683D13",
"j  c #4F3526",
"k  c #5A3F2D",
"l  c #6D362B",
"z  c #753828",
"x  c #22431C",
"c  c #234A1F",
"v  c #26501F",
"b  c #294F22",
"n  c #2B5323",
"m  c #2C5E26",
"M  c #305D27",
"N  c #2C6827",
"B  c #2B6729",
"V  c #35652C",
"C  c #34682D",
"Z  c #386C2F",
"A  c #3C7532",
"S  c #3C7B33",
"D  c #754213",
"F  c #7D4614",
"G  c #7B4A1D",
"H  c #604427",
"J  c #754B26",
"K  c #7C522C",
"L  c #76532B",
"P  c #7F5E44",
"I  c #605259",
"U  c #894400",
"Y  c #8E4D0C",
"T  c #9E5E0F",
"R  c #95510D",
"E  c #864A14",
"W  c #8B4C14",
"Q  c #804513",
"!  c #914E14",
"~  c #955214",
"^  c #995614",
"/  c #9D5A16",
"(  c #9D5B1E",
")  c #A76900",
"_  c #A2660E",
"`  c #B5730E",
"'  c #A16017",
"]  c #A66618",
"[  c #AF6F19",
"{  c #80472F",
"}  c #88582E",
"|  c #985620",
" . c #854C32",
".. c #84523E",
"X. c #9A5B33",
"o. c #9D6433",
"O. c #A96A2E",
"+. c #B27532",
"@. c #CE7F3C",
"#. c #805F45",
"$. c #806248",
"%. c #92644D",
"&. c #8C785F",
"*. c #AB7345",
"=. c #AA714E",
"-. c #A87658",
";. c #3F8536",
":. c #458B3B",
">. c #48923D",
",. c #499B3E",
"<. c #4A9640",
"1. c #4D9D42",
"2. c #4EA243",
"3. c #5CC44F",
"4. c #B3855F",
"5. c #BF9878",
"6. c #B69375",
"7. c #B5A87F",
"8. c #CE8347",
"9. c #C2864A",
"0. c #D68A47",
"q. c #D18649",
"w. c #D68F57",
"e. c #D98F53",
"r. c #DA9155",
"t. c #DA935B",
"y. c #D29A5D",
"u. c #C69267",
"i. c #DB9863",
"p. c #CA9771",
"a. c #DDA77C",
"s. c #E1A866",
"d. c #E1A06E",
"f. c #E5A673",
"g. c #E7AF82",
"h. c #EDB586",
"j. c #EDB689",
"k. c #EFB98B",
"l. c #F2BC8D",
"z. c #E8BE96",
"x. c #EAC49A",
"c. c #F6C395",
"v. c #FACB9D",
"b. c #F1C498",
"n. c #F3CEA4",
"m. c #F9CEA1",
"M. c #FCD2A5",
"N. c #FED6A9",
"B. c #FFDAAE",
"V. c #E3D1BB",
"C. c #FFDEB2",
"Z. c #FFE3B6",
"A. c #BFC3C5",
"S. c #C3C8CA",
"D. c #48D7D8",
/* pixels */
"D.D.D.D.D.D.D.D.D.D.D.D.D.D.D.D.D.D.D.D.D.D.D.D.D.D.D.D.D.D.D.D.D.D.D.D.D.D.D.D.",
"D.D.D.D.D.D.D.D.D.D.D.D.D.D.D.D.D.D.D.D.D.D.D.D.D.D.D.D.D.D.D.D.D.D.D.D.D.D.D.D.",
"D.D.D.D.D.D.D.D.D.D.D.D.D.D.D.D.D.D.D.D.D.D.D.D.D.D.D.D.D.D.D.D.D.D.D.D.D.D.D.D.",
"D.D.D.D.D.D.D.D.D.D.D.D.D.D.D.D.D.D.D.D.D.D.D.D.D.D.D.D.D.D.D.D.D.D.D.D.D.D.D.D.",
"D.D.D.D.D.D.D.D.D.D.D.D.D.D.D.D.D.D.D.D.D.D.D.D.D.D.D.D.D.D.D.D.D.D.D.D.D.D.D.D.",
"D.D.D.D.D.D.D.D.D.D.D.D.D.D.D.D.D.D.D.D.D.D.D.D.D.D.D.D.D.D.D.D.D.D.D.D.D.D.D.D.",
"D.D.D.D.D.D.D.D.D.D.D.D.D.D.D.D.D.D.D.D.D.D.D.D.D.D.D.D.D.D.D.D.D.D.D.D.D.D.D.D.",
"D.D.D.D.D.D.D.D.D.D.D.D.D.D.D.D.D.D.D.D.D.D.D.D.D.D.D.D.D.D.D.D.D.D.D.D.D.D.D.D.",
"D.D.D.D.D.D.D.D.D.D.D.D.D.D.D.D.D.D.D.D.D.D.D.D.D.D.D.D.D.D.D.D.D.D.D.D.D.D.D.D.",
"D.D.D.D.D.D.D.D.D.D.D.D.D.D.D.D.D.D.D.D.D.D.D.D.D.D.D.D.D.D.D.D.D.D.D.D.D.D.D.D.",
"D.D.D.D.D.D.D.D.D.D.D.D.D.D.D.D.D.D.D.D.D.D.D.D.D.D.D.3 y p ! ! W u 2 4 D.D.D.D.",
"D.D.D.D.D.D.D.D.D.D.D.D.D.D.D.D.D.D.D.D.D.D.D.D.D.5 w G ( ! ! ! ! ! ~ g r 6 D.D.",
"D.D.D.D.D.D.D.D.D.D.D.D.D.D.D.D.D.D.D.D.D.D.D.D.5 g ] +.O.] W ! F / U / W e D.D.",
"D.D.D.D.D.D.D.D.D.D.D.D.D.D.D.D.D.D.D.D.D.D.D.D.w ~ ~ Y y.R T ^ 4 f s.d [ $ D.D.",
"D.D.D.D.D.D.D.D.D.D.D.D.D.D.D.D.D.D.D.D.D.D.D.4 h D ! / ` p 9.L K *.) & F i D.D.",
"D.D.D.D.D.D.D.D.D.D.D.D.D.D.D.D.D.D.D.D.D.D.D.4 i W D ^ ^ g _ Y c.c.4.X.q e D.D.",
"D.D.D.D.D.D.D.D.D.D.D.D.D.D.D.D.D.D.D.D.D.D.D.2 W r E E W 6 s x.B.C.N.d.J 5 D.D.",
"D.D.D.D.D.D.D.D.D.D.D.D.D.D.D.D.D.D.D.D.D.D.D.3 u 2 W y E 5 o.v.n.n.B.M.P 5 D.D.",
"D.D.D.D.D.D.D.D.D.D.D.D.D.D.D.D.D.D.D.D.D.D.D.  5 e w % w F u.r.I   b.c.P D.D.D.",
"D.D.D.D.D.D.D.D.D.D.D.D.D.D.D.D.D.D.D.D.D.D.D.D.% g 5 K } | h.0.A.  g.j.P D.D.D.",
"D.D.D.D.D.D.D.D.D.D.D.D.D.D.D.D.D.D.: > 1 > D.D.. w 5 } K H Z.c.S.o j.k.$.D.D.D.",
"D.D.D.D.D.D.D.D.D.D.D.D.D.D.D.D.1 , m ,.:.B 9 0 D.* 4 r   *.Z.B.V.7.B.C.&.D.D.D.",
"D.D.D.D.D.D.D.D.D.D.D.D.D.D.D.> : 2.2.N   a 8.8.8 l   @    .v.B.B.B.C.m.J D.D.D.",
"D.D.D.D.D.D.D.D.D.D.D.D.D.D.; x 3.S m # a.C.B.C.N.t.r.f.l.k.6.n.n.n.a.O.D.D.D.D.",
"D.D.D.> > ; ; ; D.D.D.D.D., n ;.S A V t k.v.h.v.C.j.f.M.N.C.z.5.=.D.  D.D.D.D.D.",
"D.D.D.D.: C V C - : D.D., , S A v : > + j k z j %.{ ..-.l.l.h.N.M.D.D.D.D.D.D.D.",
"D.> D.D.D.: C V A S 7 < O 1.b + > D.D.D.1 x C C z p.r.t.w.w.i.n.m.D.D.D.D.D.D.D.",
"D.: n D.D.D.D.D.S :.:.S b n : D.D.D.D.D.D.>   - D.D.D.j.j.h.q.@.D.D.D.D.D.D.D.D.",
"D.D.1 S m : O X Z 2.A M : 1 D.D.D.D.D.D.D.D.D.D.D.D.D.D.D.D.D.D.D.D.D.D.D.D.D.D.",
"D.D.D.1 >.A 2.1.<.C 1.>.x D.D.D.D.D.D.D.D.D.D.D.D.D.D.D.D.D.D.D.D.D.D.D.D.D.D.D.",
"D.D.D.D.7 >.:.:.:.>.b c D.D.D.D.D.D.D.D.D.D.D.D.D.D.D.D.D.D.D.D.D.D.D.D.D.D.D.D.",
"D.D.D.D.D.< c b x 1 D.D.D.D.D.D.D.D.D.D.D.D.D.D.D.D.D.D.D.D.D.D.D.D.D.D.D.D.D.D.",
"D.D.D.D.D.D.D.D.D.D.D.D.D.D.D.D.D.D.D.D.D.D.D.D.D.D.D.D.D.D.D.D.D.D.D.D.D.D.D.D.",
"D.D.D.D.D.D.D.D.D.D.D.D.D.D.D.D.D.D.D.D.D.D.D.D.D.D.D.D.D.D.D.D.D.D.D.D.D.D.D.D.",
"D.D.D.D.D.D.D.D.D.D.D.D.D.D.D.D.D.D.D.D.D.D.D.D.D.D.D.D.D.D.D.D.D.D.D.D.D.D.D.D.",
"D.D.D.D.D.D.D.D.D.D.D.D.D.D.D.D.D.D.D.D.D.D.D.D.D.D.D.D.D.D.D.D.D.D.D.D.D.D.D.D.",
"D.D.D.D.D.D.D.D.D.D.D.D.D.D.D.D.D.D.D.D.D.D.D.D.D.D.D.D.D.D.D.D.D.D.D.D.D.D.D.D.",
"D.D.D.D.D.D.D.D.D.D.D.D.D.D.D.D.D.D.D.D.D.D.D.D.D.D.D.D.D.D.D.D.D.D.D.D.D.D.D.D.",
"D.D.D.D.D.D.D.D.D.D.D.D.D.D.D.D.D.D.D.D.D.D.D.D.D.D.D.D.D.D.D.D.D.D.D.D.D.D.D.D.",
"D.D.D.D.D.D.D.D.D.D.D.D.D.D.D.D.D.D.D.D.D.D.D.D.D.D.D.D.D.D.D.D.D.D.D.D.D.D.D.D."
};
