/* XPM */
static char *right2[] = {
/* columns rows colors chars-per-pixel */
"40 40 155 2 ",
"   c #000000",
".  c #0F0801",
"X  c #00050D",
"o  c #0C1B0C",
"O  c #0D170D",
"+  c #181E09",
"@  c #1B1403",
"#  c #3D0000",
"$  c #2C1A00",
"%  c #251904",
"&  c #3B0F18",
"*  c #113D0E",
"=  c #102110",
"-  c #142C13",
";  c #163114",
":  c #1A3516",
">  c #1A3816",
",  c #1C3E19",
"<  c #2B2107",
"1  c #252109",
"2  c #2C2209",
"3  c #322007",
"4  c #34250A",
"5  c #38270A",
"6  c #3A280C",
"7  c #213116",
"8  c #2E3011",
"9  c #5A0304",
"0  c #640700",
"q  c #4F2B00",
"w  c #422B0C",
"e  c #4A2F0E",
"r  c #4E310F",
"t  c #53330D",
"y  c #472F10",
"u  c #543512",
"i  c #593611",
"p  c #5D3912",
"a  c #64380C",
"s  c #613710",
"d  c #633C12",
"f  c #643D1C",
"g  c #4E2C21",
"h  c #5B262C",
"j  c #7A3D28",
"k  c #1E421A",
"l  c #24461E",
"z  c #2A4F1F",
"x  c #214D1D",
"c  c #23501E",
"v  c #294C22",
"b  c #295522",
"n  c #2C5925",
"m  c #275A22",
"M  c #305B27",
"N  c #335D29",
"B  c #33642A",
"V  c #336B2B",
"C  c #396B2E",
"Z  c #3A662C",
"A  c #35732E",
"S  c #3A6E30",
"D  c #3B7431",
"F  c #3F7E34",
"G  c #7D4600",
"H  c #754212",
"J  c #794413",
"K  c #694828",
"L  c #714A28",
"P  c #794827",
"I  c #7B4B38",
"U  c #795334",
"Y  c #407E36",
"T  c #7E5E43",
"R  c #446D41",
"E  c #87460E",
"W  c #834905",
"Q  c #965608",
"!  c #804714",
"~  c #8C4C14",
"^  c #824813",
"/  c #914E14",
"(  c #945315",
")  c #9B5A15",
"_  c #985519",
"`  c #9D6418",
"'  c #A66516",
"]  c #AA6811",
"[  c #865B2E",
"{  c #9C5828",
"}  c #804E3B",
"|  c #855931",
" . c #8D583E",
".. c #955D31",
"X. c #B2763D",
"o. c #C67A3C",
"O. c #815D41",
"+. c #8B765D",
"@. c #AC6B43",
"#. c #B67D48",
"$. c #B37145",
"%. c #AE7D5C",
"&. c #3F8536",
"*. c #438538",
"=. c #468B3B",
"-. c #428237",
";. c #4A973F",
":. c #499C3E",
">. c #4B9640",
",. c #4C9B41",
"<. c #4FA144",
"1. c #54AE48",
"2. c #56B349",
"3. c #5AC04D",
"4. c #BF802F",
"5. c #C0812C",
"6. c #C4883E",
"7. c #BF8251",
"8. c #AE8561",
"9. c #B78867",
"0. c #CA854D",
"q. c #C1854A",
"w. c #D08345",
"e. c #D2864A",
"r. c #D78C4B",
"t. c #C98B54",
"y. c #D48D55",
"u. c #D8925A",
"i. c #C58F69",
"p. c #DD9B65",
"a. c #DF9F6C",
"s. c #C09978",
"d. c #DA9E72",
"f. c #DFAA7D",
"g. c #DCA479",
"h. c #E6A46F",
"j. c #ECAE7C",
"k. c #E6AA7B",
"l. c #EBB07D",
"z. c #AAB0B2",
"x. c #D9B38D",
"c. c #E4AD80",
"v. c #EDB385",
"b. c #F5BF90",
"n. c #F4C294",
"m. c #F7C99D",
"M. c #F9CA9D",
"N. c #FACEA2",
"B. c #FAD1A5",
"V. c #FED5A9",
"C. c #FFDAAD",
"Z. c #FFDEB1",
"A. c #FFE0B3",
"S. c #C8CAC9",
"D. c #00D9FA",
/* pixels */
"D.D.D.D.D.D.D.D.D.D.D.D.D.D.D.D.D.D.D.D.D.D.D.D.D.D.D.D.D.D.D.D.D.D.D.D.D.D.D.D.",
"D.D.D.D.D.D.D.D.D.D.D.D.D.D.D.D.D.D.D.D.D.D.D.D.D.D.D.D.D.D.D.D.D.D.D.D.D.D.D.D.",
"D.D.D.D.D.D.D.D.D.D.D.D.D.D.D.D.D.D.D.D.D.D.D.D.D.D.D.D.D.D.D.D.D.D.D.D.D.D.D.D.",
"D.D.D.D.D.D.D.D.D.D.D.D.D.D.D.D.D.D.D.D.D.D.D.D.D.D.D.D.D.D.D.D.D.D.D.D.D.D.D.D.",
"D.D.D.D.D.D.D.D.D.D.D.D.D.D.D.D.D.D.D.D.D.D.D.D.D.D.D.D.D.D.D.D.D.D.D.D.D.D.D.D.",
"D.D.D.D.D.D.D.D.D.D.D.D.D.D.D.D.D.D.D.D.D.D.D.D.D.D.D.D.D.D.D.D.D.D.D.D.D.D.D.D.",
"D.D.D.D.D.D.D.D.D.D.D.D.D.D.D.D.D.D.D.D.D.D.D.D.D.D.D.D.D.D.D.D.D.D.D.D.D.D.D.D.",
"D.D.D.D.D.D.D.D.D.D.D.D.D.D.D.D.D.D.D.D.D.D.D.D.D.D.D.D.D.D.D.D.D.D.D.D.D.D.D.D.",
"D.D.D.D.D.D.D.D.D.D.D.D.D.D.D.D.D.D.D.D.D.D.D.D.D.D.D.D.D.D.D.D.D.D.D.D.D.D.D.D.",
"D.D.D.D.D.D.D.D.D.D.D.D.D.D.D.D.D.D.D.D.D.D.D.D.D.D.D.< y u ( / ~ r + D.D.D.D.D.",
"D.D.D.D.D.D.D.D.D.D.D.D.D.D.D.D.D.D.D.D.D.D.D.D.D.D.1 a E ~ / / / ~ ~ t 6 4 D.D.",
"D.D.D.D.D.D.D.D.D.D.D.D.D.D.D.D.D.D.D.D.D.D.D.D.D.r _ X.6.( / ~ ~ ( ~ ( ( u 4 D.",
"D.D.D.D.D.D.D.D.D.D.D.D.D.D.D.D.D.D.D.D.D.D.D.D.6 ~ ' Q #.' Q ( y Q q.W ` < D.D.",
"D.D.D.D.D.D.D.D.D.D.D.D.D.D.D.D.D.D.D.D.D.D.D.4 d J / ) 5.s q.[ u ..X.$ ( u D.D.",
"D.D.D.D.D.D.D.D.D.D.D.D.D.D.D.D.D.D.D.D.D.D.D.4 d ^ ~ ) ) p ] q h.c.U P y i D.D.",
"D.D.D.D.D.D.D.D.D.D.D.D.D.D.D.D.D.D.D.D.D.D.D.2 J J J ~ ~ r G k.Z.Z.N.u.f 4 D.D.",
"D.D.D.D.D.D.D.D.D.D.D.D.D.D.D.D.D.D.D.D.D.D.D.4 d 1 / p ~ 2 _ V.Z.Z.C.N.O.6 D.D.",
"D.D.D.D.D.D.D.D.D.D.D.D.D.D.D.D.D.D.D.D.D.D.D.  4 6 u $ e d 8.u.h # B.N.T D.D.D.",
"D.D.D.N *.=.D b D.D.D.D.D.D.D.D.D.D.D.D.D.D.D.D.3 d 4 K L _ j.r.z.X c.v.T D.D.D.",
"D.S S ,.*.D D S B l D.D.D.D.D.D.D.D.D.D.D.D.D.D.. i 6 | | L Z.l.S.  c.v.T D.D.D.",
"D.D.- O o Z n , ,.*.: x : D.D.D.D.; - > : ; : D.D.@ 4 t X L A.C.S.Y V.Z.+.D.D.D.",
"D.D.D.D.D.v &.=.=.n n :.:.D ; A v : :.&.V &.* %.{ &   $   $.C.C.C.Z.C.V.T D.D.D.",
"D.D.D.D.v ,.Z >.S =.> - m b =.A V 2.V &.1.z %.v.N.o.0.t.f.g.s.Z.Z.A.b.7.D.D.D.D.",
"D.D.D.B <.S =.S Y Y : : ; - o M >.x 3.=.m Z %. .a.B.u.C.C.Z.x.} j 0     D.D.D.D.",
"D.D.=.=.*.=.=.M D   D.D.D.D.D.D.k B D V M -.U w.N.V.9.i.m.M.n.C.m.D.D.D.D.D.D.D.",
"D.=.D >.D > l D.D.D.D.D.D.D.D.D.D.D.k M F m 8 d.Z.M.e.0.y.y.a.C.C.D.D.D.D.D.D.D.",
"D.= - = - D.D.D.D.D.D.D.D.D.D.D.D.D.D.D.  7 @.V.N.{   v.c.v.e.e.w.D.D.D.D.D.D.D.",
"D.D.D.D.D.D.D.D.D.D.D.D.D.D.D.D.D.D.D.D.D.D.9.Z.k.P D.9 9 D.D.D.D.D.D.D.D.D.D.D.",
"D.D.D.D.D.D.D.D.D.D.D.D.D.D.D.D.D.D.D.D.D.D.g p.I D.D.D.D.D.D.D.D.D.D.D.D.D.D.D.",
"D.D.D.D.D.D.D.D.D.D.D.D.D.D.D.D.D.D.D.D.D.D.D.    D.D.D.D.D.D.D.D.D.D.D.D.D.D.D.",
"D.D.D.D.D.D.D.D.D.D.D.D.D.D.D.D.D.D.D.D.D.D.D.D.D.D.D.D.D.D.D.D.D.D.D.D.D.D.D.D.",
"D.D.D.D.D.D.D.D.D.D.D.D.D.D.D.D.D.D.D.D.D.D.D.D.D.D.D.D.D.D.D.D.D.D.D.D.D.D.D.D.",
"D.D.D.D.D.D.D.D.D.D.D.D.D.D.D.D.D.D.D.D.D.D.D.D.D.D.D.D.D.D.D.D.D.D.D.D.D.D.D.D.",
"D.D.D.D.D.D.D.D.D.D.D.D.D.D.D.D.D.D.D.D.D.D.D.D.D.D.D.D.D.D.D.D.D.D.D.D.D.D.D.D.",
"D.D.D.D.D.D.D.D.D.D.D.D.D.D.D.D.D.D.D.D.D.D.D.D.D.D.D.D.D.D.D.D.D.D.D.D.D.D.D.D.",
"D.D.D.D.D.D.D.D.D.D.D.D.D.D.D.D.D.D.D.D.D.D.D.D.D.D.D.D.D.D.D.D.D.D.D.D.D.D.D.D.",
"D.D.D.D.D.D.D.D.D.D.D.D.D.D.D.D.D.D.D.D.D.D.D.D.D.D.D.D.D.D.D.D.D.D.D.D.D.D.D.D.",
"D.D.D.D.D.D.D.D.D.D.D.D.D.D.D.D.D.D.D.D.D.D.D.D.D.D.D.D.D.D.D.D.D.D.D.D.D.D.D.D.",
"D.D.D.D.D.D.D.D.D.D.D.D.D.D.D.D.D.D.D.D.D.D.D.D.D.D.D.D.D.D.D.D.D.D.D.D.D.D.D.D.",
"D.D.D.D.D.D.D.D.D.D.D.D.D.D.D.D.D.D.D.D.D.D.D.D.D.D.D.D.D.D.D.D.D.D.D.D.D.D.D.D."
};
