/* XPM */
static char *up1[] = {
/* columns rows colors chars-per-pixel */
"32 40 167 2 ",
"   c #000100",
".  c #080401",
"X  c #020C03",
"o  c #0A040C",
"O  c #071607",
"+  c #0D1D0D",
"@  c #171E08",
"#  c #281607",
"$  c #2A1C07",
"%  c #201F09",
"&  c #221A04",
"*  c #3B1800",
"=  c #331D0A",
"-  c #0E200D",
";  c #10250F",
":  c #0C2C13",
">  c #122311",
",  c #152B13",
"<  c #173715",
"1  c #2D230A",
"2  c #34250A",
"3  c #39260A",
"4  c #3C290B",
"5  c #452D0D",
"6  c #4A2F0D",
"7  c #4B300E",
"8  c #53330D",
"9  c #412B10",
"0  c #4B2B11",
"q  c #4D3110",
"w  c #533411",
"e  c #593611",
"r  c #5C3812",
"t  c #61370E",
"y  c #64390F",
"u  c #753D05",
"i  c #633B12",
"p  c #6A3E12",
"a  c #633711",
"s  c #743118",
"d  c #443323",
"f  c #622B26",
"g  c #673827",
"h  c #174318",
"j  c #1C441A",
"k  c #1A4217",
"l  c #005A1A",
"z  c #21451A",
"x  c #234C1E",
"c  c #284A1F",
"v  c #22501E",
"b  c #2E4B25",
"n  c #285321",
"m  c #305B27",
"M  c #315628",
"N  c #325E29",
"B  c #34652B",
"V  c #346C2C",
"C  c #396C2F",
"Z  c #346026",
"A  c #39722E",
"S  c #3B7331",
"D  c #3B7B31",
"F  c #734113",
"G  c #7D4412",
"H  c #7A471A",
"J  c #7F452E",
"K  c #70582D",
"L  c #655039",
"P  c #7E503E",
"I  c #73523B",
"U  c #407F36",
"Y  c #844101",
"T  c #83440F",
"R  c #995600",
"E  c #9A5908",
"W  c #9D5B06",
"Q  c #834613",
"!  c #834914",
"~  c #8D4B14",
"^  c #8B4713",
"/  c #904E14",
"(  c #935113",
")  c #945816",
"_  c #9B5B14",
"`  c #96561C",
"'  c #9D6217",
"]  c #A86500",
"[  c #A8690D",
"{  c #A16117",
"}  c #AB6C19",
"|  c #B1731A",
" . c #B7781A",
".. c #975721",
"X. c #995A26",
"o. c #8B5333",
"O. c #8A523B",
"+. c #8F583E",
"@. c #825634",
"#. c #9E5637",
"$. c #975B38",
"%. c #A15C39",
"&. c #9E6836",
"*. c #895B41",
"=. c #916047",
"-. c #AF7342",
";. c #B27645",
":. c #B87848",
">. c #A5795A",
",. c #B57D51",
"<. c #3F8936",
"1. c #3F8435",
"2. c #418136",
"3. c #418E37",
"4. c #428738",
"5. c #468D3B",
"6. c #45913A",
"7. c #48933D",
"8. c #4F9540",
"9. c #4C9D41",
"0. c #4EA043",
"q. c #51AF45",
"w. c #52AA46",
"e. c #54B147",
"r. c #57B54A",
"t. c #59BB4C",
"y. c #5CC24E",
"u. c #5EC750",
"i. c #5FC951",
"p. c #BF833B",
"a. c #B58054",
"s. c #AA8265",
"d. c #D58B4F",
"f. c #CC9048",
"g. c #D1964D",
"h. c #D38D56",
"j. c #D7915A",
"k. c #D69D5F",
"l. c #D99053",
"z. c #E0965C",
"x. c #DBA15B",
"c. c #C5946F",
"v. c #DA9660",
"b. c #C59771",
"n. c #D59D71",
"m. c #E09C66",
"M. c #DFA172",
"N. c #E3A964",
"B. c #E2A06C",
"V. c #E7A773",
"C. c #E6A876",
"Z. c #E9AD7B",
"A. c #E4AB7A",
"S. c #DEAC83",
"D. c #ECB385",
"F. c #EFB98C",
"G. c #E9B58A",
"H. c #F3BA8B",
"J. c #F4C396",
"K. c #FACA9C",
"L. c #FCCEA1",
"P. c #FFD5A8",
"I. c #FFD9AB",
"U. c #FFD3A5",
"Y. c #FFDCB0",
"T. c #FFE2B6",
"R. c None",
/* pixels */
"R.R.R.R.R.R.R.R.R.R.R.R.R.R.R.R.R.R.R.R.R.R.R.R.R.R.R.R.R.R.R.R.",
"R.R.R.R.R.R.R.R.R.R.R.R.R.R.R.R.R.R.R.R.R.R.R.R.R.R.R.R.R.R.R.R.",
"R.R.R.R.R.R.R.R.R.R.R.R.1 1 0 0 0 0 0 1 ; R.R.R.R.R.R.R.R.R.R.R.",
"R.R.R.R.R.R.R.R.R.R.% w e _ | | | | | ~ Y 9 R.R.R.R.R.R.R.R.R.R.",
"R.R.R.R.R.R.R.R.R.0 ! | | ~ ~ ~ ~ ~ ! [ N.] F 4 R.R.R.R.R.R.R.R.",
"R.R.R.R.R.R.R.R.3 a { / ~ ~ / ( / ~ / ~ Y _ ) r 2 R.R.R.R.R.R.R.",
"R.R.R.R.R.R.R.R.2 e { ( / / ( ~ / / / / ( _ ` q 2 R.R.R.R.R.R.R.",
"R.R.R.R.R.R.R.R.5 { { ~ / / ~ ( / / / ~ ( } ( ~ 1 R.R.R.R.R.R.R.",
"R.R.R.R.R.R.R.2 i G '  .X.( ` ) / _ X.| | ! F ~ e 1 R.R.R.R.R.R.",
"R.R.R.R.R.R.R.2 w F Q [ x.R k.f._ p.N...^ F / w r 1 R.R.R.R.R.R.",
"R.R.R.R.R.R.R.2 3 i e ~ E ! &.f._ ( W F ( ! F 2 5 2 R.R.R.R.R.R.",
"R.R.R.R.R.R.R.2 4 F t r ~ e ! ( ~ F ( i i G w 3 3 2 R.R.R.R.R.R.",
"R.R.R.R.R.R.R.R.  i y w ~ 5 5 ~ 8 y F 2 e q 2 4   R.R.R.R.R.R.R.",
"R.R.R.R.R.R.R.R.. 3 r 5 p 1 e 7 5 r e i 1 7 2 $   R.R.R.R.R.R.R.",
"R.R.R.R.R.R.R.R.R.  3 r ( 7 G 3 i F w 6 8 2 $ R.R.R.R.R.R.R.R.R.",
"R.R.R.R.R.R.R.R.R.R.  2 7 G G r i G q 2 r & R.R.R.R.R.R.R.R.R.R.",
"R.R.R.R.R.R.R.R.R.R.O.L 8 2 ! i e 4 r r 1 I R.R.R.R.R.R.R.R.R.R.",
"R.R.R.R.R.R.R.R.R.O.S.I.H     u     * X >.P.b.R.R.R.R.R.R.R.R.R.",
"R.R.R.R.R.R.R.R.R.s.L.n.l.a.b.-.;.,.b.;.H.C.U.P R.R.R.R.R.R.R.R.",
"R.R.R.R.R.R.R.R.@.A.K.$.o.B.D.D.h.D.D.h.h.>.P.h.g R.R.R.R.R.R.R.",
"R.R.R.R.R.R.R.R.*.Y.D.= d J.I.F.j.J.I.G.l H J.T.s R.R.R.R.R.R.R.",
"R.R.R.R.R.R.R.$.V.Y.n.= c +.M.Z.Z.V.n.g j y G.Y.v.o.R.R.R.R.R.R.",
"R.R.R.R.R.R.f d.F.H.@.  C h @.#.#.%.K < C   :.J.H.:.R.R.R.R.R.R.",
"R.R.R.R.R.R.R.# z.:.R., x B 5.N 7.U A B z :   h.h.  R.R.R.R.R.R.",
"R.R.R.R.R.R.R.R.    R., n 8.e.V y.<.6.9.< , R.    R.R.R.R.R.R.R.",
"R.R.R.R.R.R.R.R.R.R.R.X m S D 4.j S 9.z Z R.R.R.R.R.R.R.R.R.R.R.",
"R.R.R.R.R.R.R.R.R.R.R.R.: D C j v h 1.B + R.R.R.R.R.R.R.R.R.R.R.",
"R.R.R.R.R.R.R.R.R.R.C C N D D 9.S 6.5.C N C R.R.R.R.R.R.R.R.R.R.",
"R.R.R.R.R.R.R.R.R.S S 9.u.q.8.C , U U y.y.7.S S R.R.R.R.R.R.R.R.",
"R.R.R.R.R.R.R.R.1.t.e.t.6.r.1.- O , 9.e.7.t.e.t.U R.R.R.R.R.R.R.",
"R.R.R.R.R.R.R.M t.6.w.t.1.V @ ; < + , D <.y.9.7.r.b R.R.R.R.R.R.",
"R.R.R.R.R.R.R.i.9.> n n R.R.R.  ,   R.R.R.x c , e.i.R.R.R.R.R.R.",
"R.R.R.R.R.R.R.o > R.R.R.R.R.R.R.R.R.R.R.R.R.R.R.+ o R.R.R.R.R.R.",
"R.R.R.R.R.R.R.R.R.R.R.R.R.R.R.R.R.R.R.R.R.R.R.R.R.R.R.R.R.R.R.R.",
"R.R.R.R.R.R.R.R.R.R.R.R.R.R.R.R.R.R.R.R.R.R.R.R.R.R.R.R.R.R.R.R.",
"R.R.R.R.R.R.R.R.R.R.R.R.R.R.R.R.R.R.R.R.R.R.R.R.R.R.R.R.R.R.R.R.",
"R.R.R.R.R.R.R.R.R.R.R.R.R.R.R.R.R.R.R.R.R.R.R.R.R.R.R.R.R.R.R.R.",
"R.R.R.R.R.R.R.R.R.R.R.R.R.R.R.R.R.R.R.R.R.R.R.R.R.R.R.R.R.R.R.R.",
"R.R.R.R.R.R.R.R.R.R.R.R.R.R.R.R.R.R.R.R.R.R.R.R.R.R.R.R.R.R.R.R.",
"R.R.R.R.R.R.R.R.R.R.R.R.R.R.R.R.R.R.R.R.R.R.R.R.R.R.R.R.R.R.R.R."
};
