/* XPM */
static char *up2[] = {
/* columns rows colors chars-per-pixel */
"32 40 160 2 ",
"   c black",
".  c #0D0C00",
"X  c #150005",
"o  c #0F1F0F",
"O  c #201504",
"+  c #2B1E07",
"@  c #251804",
"#  c #361500",
"$  c #00220C",
"%  c #10200F",
"&  c #102410",
"*  c #122C12",
"=  c #173115",
"-  c #193316",
";  c #1B3A18",
":  c #1B3915",
">  c #2D2209",
",  c #2D2004",
"<  c #34250A",
"1  c #39270B",
"2  c #3B280B",
"3  c #203D1B",
"4  c #481200",
"5  c #432C0D",
"6  c #4A2F0D",
"7  c #4C300F",
"8  c #55340F",
"9  c #5D370F",
"0  c #432E19",
"q  c #4F3310",
"w  c #4B391D",
"e  c #533311",
"r  c #593712",
"t  c #5E3912",
"y  c #62380E",
"u  c #633B12",
"i  c #6A3D12",
"p  c #573026",
"a  c #5E3425",
"s  c #6C3327",
"d  c #1E431A",
"f  c #22441C",
"g  c #26491F",
"h  c #26531F",
"j  c #1B5824",
"k  c #274C21",
"l  c #284D20",
"z  c #265320",
"x  c #295122",
"c  c #2C5D25",
"v  c #325A26",
"b  c #325E29",
"n  c #2C6126",
"m  c #35622B",
"M  c #346A2D",
"N  c #3A6C2F",
"B  c #33742C",
"V  c #3B7431",
"C  c #3B7C32",
"Z  c #6D4213",
"A  c #764313",
"S  c #7B4412",
"D  c #465D27",
"F  c #7F462F",
"G  c #6D4A32",
"H  c #48642A",
"J  c #417D36",
"K  c #8B4604",
"L  c #914D00",
"P  c #975506",
"I  c #814513",
"U  c #834A14",
"Y  c #8D4B13",
"T  c #884A19",
"R  c #904E14",
"E  c #945315",
"W  c #975810",
"Q  c #9D5E16",
"!  c #97561C",
"~  c #995714",
"^  c #A25F16",
"/  c #A86607",
"(  c #A7670E",
")  c #A26117",
"_  c #AB6B19",
"`  c #B77816",
"'  c #B5751A",
"]  c #9A5C26",
"[  c #814B34",
"{  c #865834",
"}  c #86553F",
"|  c #8A5135",
" . c #9A5A33",
".. c #975938",
"X. c #92643F",
"o. c #A96C2D",
"O. c #B5782C",
"+. c #AA6F3A",
"@. c #B46D36",
"#. c #9F6F4C",
"$. c #9A704E",
"%. c #A36740",
"&. c #A16C4E",
"*. c #B87F49",
"=. c #B57B44",
"-. c #A87759",
";. c #C47B40",
":. c #3D8133",
">. c #418337",
",. c #428338",
"<. c #448C3A",
"1. c #44913A",
"2. c #49953E",
"3. c #4B9C3F",
"4. c #5E913E",
"5. c #4D9C42",
"6. c #639E44",
"7. c #4DA242",
"8. c #4FA944",
"9. c #51AF45",
"0. c #50A344",
"q. c #52B046",
"w. c #55B448",
"e. c #5BBF4E",
"r. c #B78862",
"t. c #B78764",
"y. c #CB9046",
"u. c #D2964A",
"i. c #CD8850",
"p. c #C4855E",
"a. c #D58D53",
"s. c #D39B5C",
"d. c #D4905A",
"f. c #E3995D",
"g. c #C48B64",
"h. c #D99767",
"j. c #CB9B75",
"k. c #E39C69",
"l. c #DFA560",
"z. c #DCA67C",
"x. c #E9AC7A",
"c. c #E6AF82",
"v. c #ECB383",
"b. c #E9B78B",
"n. c #EEB88B",
"m. c #E5B286",
"M. c #F6BF8F",
"N. c #F1B481",
"B. c #EBBD92",
"V. c #F1BF92",
"C. c #F6C191",
"Z. c #F3C69B",
"A. c #F6C899",
"S. c #FACA9D",
"D. c #FCCEA0",
"F. c #FDD3A6",
"G. c #FFD5A8",
"H. c #FFD9AD",
"J. c #FFDFB3",
"K. c None",
/* pixels */
"K.K.K.K.K.K.K.K.K.K.K.K.K.K.K.K.K.K.K.K.K.K.K.K.K.K.K.K.K.K.K.K.",
"K.K.K.K.K.K.K.K.K.K.K.K.K.K.K.K.K.K.K.K.K.K.K.K.K.K.K.K.K.K.K.K.",
"K.K.K.K.K.K.K.K.K.K.K.K.K.K.K.K.K.K.K.K.K.K.K.K.K.K.K.K.K.K.K.K.",
"K.K.K.K.K.K.K.K.K.K.K.K.< 2 e e e e e < > K.K.K.K.K.K.K.K.K.K.K.",
"K.K.K.K.K.K.K.K.K.K.2 Z Z ^ ' ' ' ' ' ~ ] 8 K.K.K.K.K.K.K.K.K.K.",
"K.K.K.K.K.K.K.K.K.8 E _ _ Y Y Y Y Y T ( s./ U 6 K.K.K.K.K.K.K.K.",
"K.K.K.K.K.K.K.K.K.8 E R Y R R R R R R Y K E U 6 K.K.K.K.K.K.K.K.",
"K.K.K.K.K.K.K.K.< i _ E R Y R R R R R Y R ^ ^ t < K.K.K.K.K.K.K.",
"K.K.K.K.K.K.K.K.6 ) Q E Y R R R R R R E W _ Y E < K.K.K.K.K.K.K.",
"K.K.K.K.K.K.K.< u S Q ` *.P +.Q R o.*._ _ S S I r > K.K.K.K.K.K.",
"K.K.K.K.K.K.K.< 5 A S W y.L s.l.( @.u.! Y i Y 7 t > K.K.K.K.K.K.",
"K.K.K.K.K.K.K.< 2 t r Y E U T O.R R R i E U t 2 2 < K.K.K.K.K.K.",
"K.K.K.K.K.K.K.< 1 A y e Y e S R Y i E 9 t S 7 2 < < K.K.K.K.K.K.",
"K.K.K.K.K.K.K.K.  t u 6 S 2 5 U 5 9 i 5 e 7 < 1   K.K.K.K.K.K.K.",
"K.K.K.K.K.K.K.K.K.+ r q S < r 5 8 r t u > 5 2 @ K.K.K.K.K.K.K.K.",
"K.K.K.K.K.K.K.K.K.K.+ r E e U 2 u S 8 2 r < O K.K.K.K.K.K.K.K.K.",
"K.K.K.K.K.K.K.K.K.K.X , 2 S S u u S 7 2 r @ K.K.K.K.K.K.K.K.K.K.",
"K.K.K.K.K.K.K.K.K.K...$.# > S A 7 < u r . &...K.K.K.K.K.K.K.K.K.",
"K.K.K.K.K.K.K.K.K.K.@.D.r.    4         j.C. .K.K.K.K.K.K.K.K.K.",
"K.K.K.K.K.K.K.K.K.K.g.H.v.c.Z.m.i.B.B.c.n.F.&.K.K.K.K.K.K.K.K.K.",
"K.K.K.K.K.K.K.K.K. .S.H.;.-.F.n.a.A.S.} d.J.v.[ K.K.K.K.K.K.K.K.",
"K.K.K.K.K.K.K.K.K.j.H.x.p b.F.n.h.V.G.z.a C.D.r.K.K.K.K.K.K.K.K.",
"K.K.K.K.K.K.K.K.[ v.S.$.j G h.h.k.k.p.w v r.S.x.s K.K.K.K.K.K.K.",
"K.K.K.K.K.K.K.K.K.%.f.5 N g D 6.H 6.D ; M { f.| K.K.K.K.K.K.K.K.",
"K.K.K.K.K.K.K.K.K.K.  * d M 2.n 7.C C V : $   K.K.K.K.K.K.K.K.K.",
"K.K.K.K.K.K.K.K.K.K.K.* c ,.7.C 8.<.1.<.l & K.K.K.K.K.K.K.K.K.K.",
"K.K.K.K.K.K.K.K.K.K.K.K.k :.:.e.d 8.8.h l K.K.K.K.K.K.K.K.K.K.K.",
"K.K.K.K.K.K.K.K.K.K.K.K.= - q.B 3.1.1.- = K.K.K.K.K.K.K.K.K.K.K.",
"K.K.K.K.K.K.K.K.K.K.K.K.K.k f 5.n <.c * K.K.K.K.K.K.K.K.K.K.K.K.",
"K.K.K.K.K.K.K.K.K.K.K.K.K.k f 7.h 1.x ; K.K.K.K.K.K.K.K.K.K.K.K.",
"K.K.K.K.K.K.K.K.K.K.K.K.K.K.C M d C n K.K.K.K.K.K.K.K.K.K.K.K.K.",
"K.K.K.K.K.K.K.K.K.K.K.K.K.K.- m n v * K.K.K.K.K.K.K.K.K.K.K.K.K.",
"K.K.K.K.K.K.K.K.K.K.K.K.V ,.,.5.; 2.<.V V K.K.K.K.K.K.K.K.K.K.K.",
"K.K.K.K.K.K.K.K.K.K.K.1.w.<.5.N - J 5.<.w.<.K.K.K.K.K.K.K.K.K.K.",
"K.K.K.K.K.K.K.K.K.K.7.3.m w.m g K.f >.w.b 5.<.K.K.K.K.K.K.K.K.K.",
"K.K.K.K.K.K.K.K.K.K.w.V 5.; K.K.K.K.- f 5.5.2.K.K.K.K.K.K.K.K.K.",
"K.K.K.K.K.K.K.K.K.,.>.- % K.K.K.K.K.K.K.& ; 2.V K.K.K.K.K.K.K.K.",
"K.K.K.K.K.K.K.K.K.M c K.K.K.K.K.K.K.K.K.K.K.V b K.K.K.K.K.K.K.K.",
"K.K.K.K.K.K.K.K.K.K.K.K.K.K.K.K.K.K.K.K.K.K.K.K.K.K.K.K.K.K.K.K.",
"K.K.K.K.K.K.K.K.K.K.K.K.K.K.K.K.K.K.K.K.K.K.K.K.K.K.K.K.K.K.K.K."
};
