/* XPM */
static char *up3[] = {
/* columns rows colors chars-per-pixel */
"32 40 147 2 ",
"   c #000000",
".  c #0A0300",
"X  c #010B02",
"o  c #100004",
"O  c #190000",
"+  c #110A02",
"@  c #0E1100",
"#  c #071509",
"$  c #091608",
"%  c #0C1E0C",
"&  c #1D1404",
"*  c #350208",
"=  c #2D1E05",
"-  c #231A09",
";  c #0F220E",
":  c #10250F",
">  c #112410",
",  c #142B12",
"<  c #173115",
"1  c #183416",
"2  c #1D3719",
"3  c #1A3915",
"4  c #2F2309",
"5  c #342509",
"6  c #39270B",
"7  c #3B290B",
"8  c #442C0C",
"9  c #492F0E",
"0  c #562F0D",
"q  c #4D310F",
"w  c #54330F",
"e  c #4D3111",
"r  c #543411",
"t  c #593712",
"y  c #5D3912",
"u  c #64380D",
"i  c #763B07",
"p  c #643B12",
"a  c #6C3E11",
"s  c #703F10",
"d  c #592F21",
"f  c #1F4419",
"g  c #22451C",
"h  c #24491E",
"j  c #185F24",
"k  c #274D21",
"l  c #2B5323",
"z  c #2C5C25",
"x  c #325B28",
"c  c #006325",
"v  c #1E6F28",
"b  c #266027",
"n  c #35642B",
"m  c #346E2D",
"M  c #396B2F",
"N  c #3D7632",
"B  c #3D7B34",
"V  c #327B31",
"C  c #714509",
"Z  c #674013",
"A  c #694113",
"S  c #754213",
"D  c #7C4513",
"F  c #694931",
"G  c #774232",
"H  c #777343",
"J  c #8A4402",
"K  c #8D4A0C",
"L  c #9C5A00",
"P  c #804613",
"I  c #864A14",
"U  c #8D4C14",
"Y  c #904E14",
"T  c #805115",
"R  c #885616",
"E  c #955315",
"W  c #965816",
"Q  c #9D5D15",
"!  c #A05F16",
"~  c #9D6117",
"^  c #AD6E0B",
"/  c #A36215",
"(  c #A0611D",
")  c #AE6D19",
"_  c #A96A16",
"`  c #B57512",
"'  c #804730",
"]  c #814932",
"[  c #85533E",
"{  c #985A34",
"}  c #9E623E",
"|  c #A46623",
" . c #BA7C29",
".. c #AB6D3D",
"X. c #BB7F3B",
"o. c #885B45",
"O. c #935C41",
"+. c #8E6C4D",
"@. c #A16C4E",
"#. c #B47442",
"$. c #B77D44",
"%. c #B87E44",
"&. c #A77356",
"*. c #AB7D5E",
"=. c #00821E",
"-. c #0B9030",
";. c #3E8835",
":. c #3D8035",
">. c #418037",
",. c #438439",
"<. c #438939",
"1. c #45923A",
"2. c #4A983E",
"3. c #4A943F",
"4. c #4C9B41",
"5. c #53AF47",
"6. c #53B147",
"7. c #56B34A",
"8. c #5CC44F",
"9. c #BF812B",
"0. c #BD844C",
"q. c #A68D5F",
"w. c #B88361",
"e. c #B48E71",
"r. c #D08549",
"t. c #C38050",
"y. c #D28E53",
"u. c #D0975A",
"i. c #D1985A",
"p. c #DB955C",
"a. c #C78D64",
"s. c #D69D60",
"d. c #DEA97D",
"f. c #E8AE6B",
"g. c #EBAA75",
"h. c #ECB789",
"j. c #EDB381",
"k. c #F3B987",
"l. c #F3C397",
"z. c #F6C899",
"x. c #FBCA9B",
"c. c #FCCFA2",
"v. c #FCD2A5",
"b. c #FFD9AD",
"n. c #FFDEB3",
"m. c #FFE5B9",
"M. c None",
/* pixels */
"M.M.M.M.M.M.M.M.M.M.M.M.M.M.M.M.M.M.M.M.M.M.M.M.M.M.M.M.M.M.M.M.",
"M.M.M.M.M.M.M.M.M.M.M.M.M.M.M.M.M.M.M.M.M.M.M.M.M.M.M.M.M.M.M.M.",
"M.M.M.M.M.M.M.M.M.M.M.M.M.M.M.M.M.M.M.M.M.M.M.M.M.M.M.M.M.M.M.M.",
"M.M.M.M.M.M.M.M.M.M.M.M.M.M.M.M.M.M.M.M.M.M.M.M.M.M.M.M.M.M.M.M.",
"M.M.M.M.M.M.M.M.M.M.M.M.6 w Z Z Z Z a 8 8 M.M.M.M.M.M.M.M.M.M.M.",
"M.M.M.M.M.M.M.M.M.M.0 T R ! ) ) ) ) ) / $.C 0 M.M.M.M.M.M.M.M.M.",
"M.M.M.M.M.M.M.M.6 p / / ! U U Y U U U Q $./ Q t 6 M.M.M.M.M.M.M.",
"M.M.M.M.M.M.M.M.M.8 I Y Y Y Y Y Y Y Y Y U Y C 7 M.M.M.M.M.M.M.M.",
"M.M.M.M.M.M.M.M.7 S ) E Y Y Y Y Y Y Y Y Y / / a 5 M.M.M.M.M.M.M.",
"M.M.M.M.M.M.M.M.q Q ~ Q J U K U Y U J Q / / D E 7 M.M.M.M.M.M.M.",
"M.M.M.M.M.M.M.5 p S W ` u.L 0._ U X.s.| Q S I S t 4 M.M.M.M.M.M.",
"M.M.M.M.M.M.M.6 7 S S U  .J i.f.^ ( 9.E Y D I 8 y 5 M.M.M.M.M.M.",
"M.M.M.M.M.M.M.6 7 p t I U D i ^ U Y Y y U P t 7 5 6 M.M.M.M.M.M.",
"M.M.M.M.M.M.M.6 = S u e Y e S I D p U r y a 9 7 = M.M.M.M.M.M.M.",
"M.M.M.M.M.M.M.M.  t p 7 a 7 e S 6 p p r 9 r 5 7   M.M.M.M.M.M.M.",
"M.M.M.M.M.M.M.M.M.& t t I 7 t 7 t t y y 4 6 6 + M.M.M.M.M.M.M.M.",
"M.M.M.M.M.M.M.M.M.  & t U t I 8 p D e 5 y 5 & M.M.M.M.M.M.M.M.M.",
"M.M.M.M.M.M.M.M.M.M.* @ 9 s D p p a r 9 e X M.M.M.M.M.M.M.M.M.M.",
"M.M.M.M.M.M.M.M.M.{ a.#.  - a I 8 5 p e   ..M.M.M.M.M.M.M.M.M.M.",
"M.M.M.M.M.M.M.M.M.@.c.h.d.    =     .   b.a.M.M.M.M.M.M.M.M.M.M.",
"M.M.M.M.M.M.M.M.G j.m.p.G x.l.y.h.v.&.r.b.z.{ M.M.M.M.M.M.M.M.M.",
"M.M.M.M.M.M.M.M.[ v.l.t.F q.=.c -.H +.#.h.b.*.M.M.M.M.M.M.M.M.M.",
"M.M.M.M.M.M.M.M.o.m.k.d b v 1.<.1.V v . g.m.e.M.M.M.M.M.M.M.M.M.",
"M.M.M.M.M.M.M.M.] g.w.O M 1.;.8.z 6.z   O.k.{ M.M.M.M.M.M.M.M.M.",
"M.M.M.M.M.M.M.M.M.    M h <.6.b 8.M m M     M.M.M.M.M.M.M.M.M.M.",
"M.M.M.M.M.M.M.M.M.M.M.z l x :.B <.z l z # M.M.M.M.M.M.M.M.M.M.M.",
"M.M.M.M.M.M.M.M.M.M.M.X k k l >.f n h % M.M.M.M.M.M.M.M.M.M.M.M.",
"M.M.M.M.M.M.M.M.M.M.M.M., n z h n l g M.M.M.M.M.M.M.M.M.M.M.M.M.",
"M.M.M.M.M.M.M.M.M.M.M.M.; < x h n 1 ; M.M.M.M.M.M.M.M.M.M.M.M.M.",
"M.M.M.M.M.M.M.M.M.M.M.M.M.; 1 M 3 , : M.M.M.M.M.M.M.M.M.M.M.M.M.",
"M.M.M.M.M.M.M.M.M.M.M.< < : , g 1 % < < M.M.M.M.M.M.M.M.M.M.M.M.",
"M.M.M.M.M.M.M.M.M.M.< , ; , , % < % , , < M.M.M.M.M.M.M.M.M.M.M.",
"M.M.M.M.M.M.M.M.M.M., M 4.> % < $ , <.N 2 M.M.M.M.M.M.M.M.M.M.M.",
"M.M.M.M.M.M.M.M.M.M.x 7.x l , % 1 g x 7.n g M.M.M.M.M.M.M.M.M.M.",
"M.M.M.M.M.M.M.M.M.M.>.2.g M.M.M.M.M.2 1.,.n M.M.M.M.M.M.M.M.M.M.",
"M.M.M.M.M.M.M.M.M.M.6.N M.M.M.M.M.M.M.n 8.x M.M.M.M.M.M.M.M.M.M.",
"M.M.M.M.M.M.M.M.M.M.6.N M.M.M.M.M.M.M.n 7.x M.M.M.M.M.M.M.M.M.M.",
"M.M.M.M.M.M.M.M.M.M ,.M.M.M.M.M.M.M.M.M.4.M M.M.M.M.M.M.M.M.M.M.",
"M.M.M.M.M.M.M.M.M.M.M.M.M.M.M.M.M.M.M.M.M.M.M.M.M.M.M.M.M.M.M.M.",
"M.M.M.M.M.M.M.M.M.M.M.M.M.M.M.M.M.M.M.M.M.M.M.M.M.M.M.M.M.M.M.M."
};
