/* XPM */
static char *wall_up[] = {
/* columns rows colors chars-per-pixel */
"40 40 9 1 ",
"  c white",
". c #BDBB58",
"X c #48D7D8",
"o c #E1F9EA",
"O c #BF8785",
"+ c gray94",
"@ c #D9D66E",
"# c #9C511D",
"$ c #68ECD5",
/* pixels */
"oooXXoooXXXXXXXXXXXXXXXXXXXXXXXXXXXXXXXX",
"oooXXoooXXXXXXXXXXXXXXXXXXXXXXXXXXXXXXXX",
"ooooooooooooooooooooooooooooooo$XXXX$ooo",
"OOooooooooooooooooooooooooooooo$XXXXoo+ ",
"OOooooooooooooooooooooooooooooo$XXXXooo ",
"OOOOOOOOOOOOOOOOOOOoooooOOOOOOOoooooOOOO",
"OOOOOOOOOOOOOOOOOOOoooooOOOOOOOoooooOOOO",
"........OOOOOOOOOOOooooOOOOOOOOOooooOOOO",
".........OOOOOOOOOOOOOOOOOOOOOOOOOOOOOOO",
".........OOOOOOOOOOOOOOOOOOOOOOOOOOOOOOO",
"................OOOOO........OOOOOOOOOOO",
"................OOOOO........OOOOOOOOOOO",
".......@.........O..O........O..........",
"......@@@...............................",
"......@@@...............................",
"........................................",
"........................................",
"...................@@...................",
"...................@@...................",
"...................@@...................",
"........................................",
"........................................",
"........................................",
"........................................",
"........................................",
"........................................",
"........................................",
"........................................",
"........................................",
"........................................",
"..................................@@....",
"..................................@@....",
"............@.....................@@....",
"...........@@@..........................",
"...........@@@..........................",
"........................................",
"........................................",
"........................................",
"........................................",
"........................................"
};
