/* XPM */
static char *wall_left[] = {
/* columns rows colors chars-per-pixel */
"40 40 9 1 ",
"  c white",
". c #BDBB58",
"X c #48D7D8",
"o c #E1F9EA",
"O c #BF8785",
"+ c gray94",
"@ c #D9D66E",
"# c #9C511D",
"$ c #68ECD5",
/* pixels */
"XXooooooOOOOOOOOO.......................",
"XXo+ooooOOOOOOOOO.......................",
"XX$oooooooOOOOOOO.........@.............",
"XXXXXoooooOOOOOOOO.......@@@............",
"XXXXXoooooOOOOOOO........@@.............",
"XXXXXoooooOOOOO.........................",
"XXXXXoooooOOOOO.........................",
"XXXXXoooooOOOOO................@........",
"XXXXXoooooOOOOO##.............@@@.......",
"XXXXXoooooOOOOO##.............@@........",
"XXXXXoooOOOOOOOOO.......................",
"XXXXXoooOOOOOOOOOO......................",
"XX$oooooOOOOOOOOO......@................",
"XXo+ooooOOOOOOO.......@@@...............",
"XXooooooOOOOOOO........@@...............",
"XXooooooooOOO...........................",
"XXo+ooooooOO............................",
"XX$oooooooOOO...........................",
"XXXXXoooooOOO##.........................",
"XXXXXoooooOOO##.........................",
"XXXXXoooOOOOOOO.........................",
"XXXXXoooOOOOOOO.........................",
"XXXXXoooOOOOOOO................@........",
"XXXXXoooOOOOOOO##.............@@@.......",
"XXXXXoooOOOOOOO##.............@@........",
"XXXXXoooooOOOOOOO.......................",
"XXXXXoooooOOOOOOOO......................",
"XX$oooooooOOOOOOO.......................",
"XXo+ooooooOOOOO.........................",
"XXooooooooOOOOO.........................",
"XXooooooOOOOOOO.........................",
"XXo+ooooOOOOOOO.........................",
"XX$oooooOOOOOOO...........@.............",
"XXXXXoooOOOOOOO##........@@@............",
"XXXXXoooOOOOOOO##........@@.............",
"XXXXXoooooOOOOOOO.......................",
"XXXXXoooooOOOOOOOO......................",
"XX$oooooooOOOOOOO.......................",
"XXo+ooooooOOOOOOO.......................",
"XXooooooooOOOOOOO......................."
};
