/* XPM */
static char *wall_middle[] = {
/* columns rows colors chars-per-pixel */
"40 40 9 1 ",
"  c white",
". c #BDBB58",
"X c #48D7D8",
"o c #E1F9EA",
"O c #BF8785",
"+ c gray94",
"@ c #D9D66E",
"# c #9C511D",
"$ c #68ECD5",
/* pixels */
"XXXXXXooooo$XXXXooooooooooooooooooXXXXXX",
"XXX$oooOooooooooooooooOOOOOOOOOooooo$XXX",
"XXX$ooOOOooooooooooooOOOOOOOOOOooooo$XXX",
"X$$$ooOOOooooooooooooOOOOOOOOOOooooo$XXX",
"XoooOOOOOOOOOO...............OOOOOoo$XXX",
"XoooOOOOOOOOOO...............OOOOOoo$XXX",
"ooOOOOOOOOO....................OOOOOoooo",
" OOOOOOOOOO....................OOOOOoooo",
" OOOOOOOOOO....................OOOOOoooo",
" OOOOO.........................OOOOOoooo",
" OOOOO.........................OOOOOoooo",
" OOO..........@@...............OOOOOoooo",
" OOO..........@@...............OOOOOoooo",
" OOO..........@@...............OOOOOoooo",
" OOO..............................OOoooo",
" OOO..............................OOoooo",
" OOO......................@@@.....OOoooo",
" OOO......................@@@.....OOoooo",
" oOO......................@@@.....OOoooo",
" ooo.............................@oooooo",
" ooo.............................@oooooo",
"$ooo.............................@oo$$$$",
"Xooo.............................@oo$XXX",
"Xooo.............................@oo$$$$",
"Xooo.............................@oooooo",
"Xooo.............................@oooooo",
"oooo##..........@@@...............OOoooo",
" ooo##..........@@@...............OOoooo",
" ooo##..........@@@...............OOoooo",
" OOOOO###......................###OOoooo",
" OOOOO###......................###OOoooo",
" OOOOOOOO##........#######...##OOOoo$$$$",
" OOOOOOOO##........#######...##OOOoo$XXX",
"ooOOOOOOO##........##OOOOO...##OOooo$XXX",
"XoooOOOOOOO########OOoooooO##OOoooXXXXXX",
"XoooOOOOOOO########OOoooooO##OOoooXXXXXX",
"X$$$ooooooooooooooooooooooooooo$$$XXXXXX",
"XXX$ooooooooooooooooooooooooooo$XXXXXXXX",
"XXX$ooooooooooooooooooooooooooo$XXXXXXXX",
"XXX$ooooooooooooooooooooooooooo$XXXXXXXX"
};
