/* XPM */
static char *_5f0eac5a47046799e6883797d668b0aKKOTjodJnR7KmWBG[] = {
/* columns rows colors chars-per-pixel */
"60 66 211 2 ",
"   c None",
".  c #020202",
"X  c #0C0C0C",
"o  c #0F0407",
"O  c #1B050B",
"+  c #141414",
"@  c #1B1B1B",
"#  c #29010B",
"$  c #390013",
"%  c #2C161C",
"&  c #300A17",
"*  c #381621",
"=  c #172A2A",
"-  c #1D3939",
";  c #0E2121",
":  c #242424",
">  c #2B2B2B",
",  c #222B2B",
"<  c #283636",
"1  c #343433",
"2  c #3C3D3C",
"3  c #3D3935",
"4  c #3A3030",
"5  c #470019",
"6  c #55001E",
"7  c #57161D",
"8  c #531227",
"9  c #640024",
"0  c #78012E",
"q  c #7D0731",
"w  c #671F38",
"e  c #522E37",
"r  c #622A37",
"t  c #73273F",
"y  c #65303D",
"u  c #47403C",
"i  c #7B5E20",
"p  c #513E43",
"a  c #6B3745",
"s  c #77354A",
"d  c #71354A",
"f  c #1B4343",
"g  c #224545",
"h  c #214C4C",
"j  c #2D4E4F",
"k  c #364746",
"l  c #2A5353",
"z  c #2C5C5C",
"x  c #265555",
"c  c #315E5E",
"v  c #385556",
"b  c #2D6666",
"n  c #326363",
"m  c #356B6B",
"M  c #396E6E",
"N  c #3B7474",
"B  c #357B7B",
"V  c #3E7979",
"C  c #337373",
"Z  c #444444",
"A  c #494949",
"S  c #4D4641",
"D  c #544C47",
"F  c #575858",
"G  c #585151",
"H  c #65444A",
"J  c #655A53",
"K  c #755257",
"L  c #734F53",
"P  c #67615D",
"I  c #496969",
"U  c #417D7D",
"Y  c #577777",
"T  c #576264",
"R  c #6C6C6C",
"E  c #636365",
"W  c #7B6967",
"Q  c #747474",
"!  c #7C7C7B",
"~  c #797575",
"^  c #8B0036",
"/  c #810030",
"(  c #95013A",
")  c #9B003C",
"_  c #8A1836",
"`  c #A1003F",
"'  c #AF2025",
"]  c #A50041",
"[  c #AB0043",
"{  c #AF094A",
"}  c #BA004A",
"|  c #B50048",
" . c #852C48",
".. c #9B3B5C",
"X. c #952346",
"o. c #B32C59",
"O. c #9F3F61",
"+. c #A93A62",
"@. c #B83D67",
"#. c #C4004E",
"$. c #C8004F",
"%. c #CC0051",
"&. c #D20054",
"*. c #DA0057",
"=. c #C71859",
"-. c #E3005A",
";. c #E9005D",
":. c #C73C4E",
">. c #CB1D61",
",. c #FF0066",
"<. c #F90967",
"1. c #FF116B",
"2. c #FF1E75",
"3. c #E91267",
"4. c #DB306A",
"5. c #FE2C7C",
"6. c #FE2776",
"7. c #FE3B79",
"8. c #FF3477",
"9. c #E82B72",
"0. c #884259",
"q. c #93465D",
"w. c #A1695B",
"e. c #A54B69",
"r. c #AB5471",
"t. c #BC5D7C",
"y. c #B35775",
"u. c #856867",
"i. c #91777A",
"p. c #BA7A7C",
"a. c #B46E6E",
"s. c #AF5051",
"d. c #CB4753",
"f. c #D84C5A",
"g. c #C2505C",
"h. c #E14F5E",
"j. c #C24973",
"k. c #CE5670",
"l. c #FF437E",
"z. c #E14E70",
"x. c #D5636D",
"c. c #C4696A",
"v. c #B29A1A",
"b. c #A18F22",
"n. c #C3A725",
"m. c #D0C514",
"M. c #B5857F",
"N. c #C88948",
"B. c #557F80",
"V. c #FF3481",
"C. c #FF3C85",
"Z. c #C25F80",
"A. c #FF4389",
"S. c #FF4A8E",
"D. c #FF4982",
"F. c #FF568C",
"G. c #F8578C",
"H. c #FE5392",
"J. c #FF5B95",
"K. c #FF5E98",
"L. c #EE4E87",
"P. c #CB6587",
"I. c #DC6D92",
"U. c #D0678A",
"Y. c #FF6294",
"T. c #FF639B",
"R. c #FF6A9C",
"E. c #E8749B",
"W. c #FF6DA0",
"Q. c #FF73A3",
"!. c #FF79A6",
"~. c #FE7DA9",
"^. c #F57AA3",
"/. c #3F8989",
"(. c #438383",
"). c #468A8A",
"_. c #498E8E",
"`. c #498181",
"'. c #4C9393",
"]. c #4F9999",
"[. c #529D9D",
"{. c #798F8F",
"}. c #55A2A2",
"|. c #8B8C8C",
" X c gray51",
".X c #8A9494",
"XX c #969797",
"oX c #9A8384",
"OX c #A98684",
"+X c #B48D88",
"@X c #B29DA0",
"#X c #91A7A7",
"$X c #A5A8A8",
"%X c #AFB0B0",
"&X c #BDBDBD",
"*X c #B5B5B5",
"=X c #B4AFA5",
"-X c #FF81AB",
";X c #C39690",
":X c #BEC6C6",
">X c #C7C6C6",
",X c #D5D6D6",
"<X c #E4DCCB",
"1X c #E4DCD2",
"2X c #E4E4E4",
"3X c #EBEBEB",
"4X c #E5E8E8",
"5X c #F4F4F4",
"6X c #FCFCFB",
"7X c #FFFBF1",
"8X c #F5F2E9",
/* pixels */
"                                                                                                                        ",
"                                                                                                                        ",
"                                                                                                                        ",
"                                                                                                                        ",
"                                                                                                                        ",
"                                                                                                                        ",
"                                                                                                                        ",
"                                          a                                                                             ",
"                                          t.t.        .                                                                 ",
"                                          r.Q.U.*     s                                                                 ",
"                          . *              .K.Q.I.r O ^.y                                                               ",
"                            0.E.P.r...%   8 H.S.Q.E.+.C.y.                                                              ",
"                              q.W.Q.~.^.I.P.S.C.A.Q.R.5.L.      .                                                       ",
"                                ..W.K.W.!.-XK.C.V.C.Q.2.2. .$ ) .                                                       ",
"                                  +.J.S.S.H.K.V.5.6.C.5.1.{ ) X.0.r.y.P.U.U.P.Z.r.d                                     ",
"                                o t z.S.A.C.V.9.N.n.i ..t.I.^.-X-X-X-X-X-X-X-X-X-X-XI.d                                 ",
"                      o s +.t.L.G.S.S.C.C.V.4.m.v.y.E.-X-X!.Q.W.W.W.Q.Q.~.~.Q.Q.Q.Q.~.^.s                               ",
"                      r @.z.L.H.H.S.A.V.V.V.b.w.^.-XQ.J.H.H.J.K.W.W.W.W.Q.Q.Q.Q.W.W.T.!.^.*                             ",
"                          6 ( } =.4.9.V.V.>.r.^.T.V.C.A.S.H.H.J.J.K.W.W.W.W.W.W.T.W.T.J.!.r.                            ",
"                              5 ^ | | } 3.e.Q.7.1.2.V.C.A.S.S.H.H.J.K.K.K.T.T.T.T.K.R.W.~.E.                            ",
"                                & ( } 3.X.^.V.,.,.1.2.5.V.A.A.S.S.H.H.J.T.T.R.Q.Q.-X-X-X-X-Xt.                          ",
"                              9 [ } } | y.~.-X-X!.l.D.J.6.F.Q.!.!.~.~.~.-X-X-X-X-X-X-X-X!.-X-XI.                        ",
"                            # ^ ( ) ` ^ E.-X-X-X~.1.R.F.1.H.-X-X-X-X~.-X-X-X-X-X-X-X!.F.1.Q.-X-Xe.                      ",
"                                    . o 7.F.R.!.Y.<.!.8.,.F.-X-X-X-X-X-X-X!.Q.R.F.7.,.,.,.Y.-X-Xy.                      ",
"                                    6 0 ,.,.,.,.,.<.8.,.,.6.l.l.A.7.7.6.1.,.,.,.,.,.,.,.,.J.-X~.d                       ",
"                                  . 6 6 ,.,.,.,.,.,.,.,.,.,.<.,.,.,.,.,.,.,.,.,.,.;.;.,.,.R.-Xt.                        ",
"                                      $ ,.,.,.,.;.&.#.,.,.,.,.,.,.,.,.,.,.,.,.,.*.#.,.,.8.~.I.                          ",
"                                      . ,.,.,.*.} } *.,.,.,.,.,.,.,.,.,.,.,.;.#.} *.,.<.R.I.*                           ",
"                                        ;.,.&.} } } ,.,.,.,.,.,.,.,.,.,.;.$.} [ L %.,.Y.Z.O                             ",
"                                        %.;.} } } %.,.,.,.,.,.,.,.,.-.#.| |  .`.Y 1.G.q.m .                             ",
"                                        [ #.} } } &.,.,.,.,.,.;.%.} #.[ s I ).'.o.j.p N [.5 m                           ",
"                                        9 } ( 0 } ,.,.;.*.%.} } [ q.G ).}.[.(.j E 2X5X.X_./ m V                         ",
"                                          9 # ] #.| ] ) _ i.@X&X>X8X#X[.[.[.].].{.6X6X,XB s v _..                       ",
"                                        - _.U M h #.&.^ |.6X7X3X4X3X$X'.].].].].{.6X4X2XU T D ).;                       ",
"                                        N ).V V x %.*.^ T 6X6X3X5X6XY '.'.'.'.'._.:X8X#XU V e Y                         ",
"                                        N ).N V z [ %./ n {.4X6X3X.XB '.'._.'._._.(.m N (.V r p.                        ",
"                                        m ).V n m ( } t _.n c n z N _._._.)./._._.)._.(.M H _ s.                        ",
"                                        ; M oX+X~ q } y (.'.).(._._.`.E W u.u.L T U U b r &.H i.                        ",
"                                          ! x.x.p.6 } a M m n U (.W +X<X7X7X8X8X+XH =   6 #.                            ",
"                                            p.' oX% | y l z x b K :.=X<X6X<X;XM.2       . `                             ",
"                                            R i.A > ] W u ! Q F > . 7 d.c.a.f.d.          $                             ",
"                                              n M k q K J XXP ! 1     f.h.h.h.d.                                        ",
"                                              v D Z 1 7 W J 1 ! Z       k.x.k.                                          ",
"                                              > = Z Z X W D R F A 1                                                     ",
"                                              @ @ 2 A A P 1 ! F k 3 W ~ j m x                                           ",
"                                            + < l 3 Z ! &XXXk I v 1 XX{.C C b x n                                       ",
"                                            + b V , 1 *X%XV ].}.(.I XXv B B /./.l C                                     ",
"                                            X - M m , |.XX(.].}.].k R v m B B B z f                                     ",
"                                            + : : 1 2 A E V ).}.]./.n   f z C f n h                                     ",
"                                          @ : : > 1 2 Z S j U '.).f B.      g z f h                                     ",
"                                          4 3 S u 3 > 1 u e n b V z N       h f                                         ",
"                                          @ , u G u G J u k N k m x                                                     ",
"                                            n (.`., > , l l - @ l                                                       ",
"                                            l (.[.      c V                                                             ",
"                                            h '.}._.  g M U N                                                           ",
"                                            2X,X#X    XX.XY n                                                           ",
"                                          >X5X5X4X  |.*X&X&X                                                            ",
"                                          2X5X6X>X  $X&X&X$X                                                            ",
"                                          ,X,X>X1 Z %X%X%XF                                                             ",
"                                        :  X X1 Z ! Q R Z 1 F ! A                                                       ",
"                                      + % = , > R  XR 1 : 2 |.|.F :                                                     ",
"                                      + @ : > > 1 1 1 > > > 1 1 1 1                                                     ",
"                                      + X + + % : : : : = % > : > > @                                                   ",
"                                    X + : : : : : : > 1 @ @ : : 1 : X                                                   ",
"                                      . X X X X X X + @ X X + @ : @ .                                                   ",
"                                                                                                                        "
};
