/* XPM */
static char *_[] = {
/* columns rows colors chars-per-pixel */
"36 36 190 2 ",
"   c #1B3A16",
".  c #37270C",
"X  c #3C2E12",
"o  c #372617",
"O  c #383319",
"+  c #1A3E26",
"@  c #373D3B",
"#  c #2A2629",
"$  c #4B2C09",
"%  c #562B0B",
"&  c #58310A",
"*  c #522D13",
"=  c #473A17",
"-  c #5B3711",
";  c #573717",
":  c #66390D",
">  c #69380C",
",  c #643D17",
"<  c #4F392D",
"1  c #1D4226",
"2  c #264E24",
"3  c #244F2B",
"4  c #374328",
"5  c #2D582A",
"6  c #305D27",
"7  c #265332",
"8  c #376627",
"9  c #356429",
"0  c #386B2E",
"q  c #376A2D",
"w  c #3C752F",
"e  c #326638",
"r  c #397637",
"t  c #4E4D1C",
"y  c #53541F",
"u  c #7B4209",
"i  c #734112",
"p  c #7B4413",
"a  c #76491B",
"s  c #644214",
"d  c #5A4E29",
"f  c #555920",
"g  c #454D39",
"h  c #714A2D",
"j  c #754823",
"k  c #6A4B33",
"l  c #61533D",
"z  c #775033",
"x  c #724F2F",
"c  c #437D38",
"v  c #3F5842",
"b  c #24654F",
"n  c #387746",
"m  c #296962",
"M  c #2F7E6C",
"N  c #3D796C",
"B  c #2D7A78",
"V  c #3D7974",
"C  c #675545",
"Z  c #53635F",
"A  c #5E795E",
"S  c #626849",
"D  c #437065",
"F  c #844A0D",
"G  c #98560E",
"H  c #8B4B12",
"J  c #834815",
"K  c #8C5117",
"L  c #995917",
"P  c #A56411",
"I  c #8A572D",
"U  c #94592A",
"Y  c #88583B",
"T  c #965F36",
"R  c #95623B",
"E  c #81643B",
"W  c #A66929",
"Q  c #A66C3F",
"!  c #AB7133",
"~  c #BD7C3F",
"^  c #925C43",
"/  c #9A6947",
"(  c #987459",
")  c #A76E4A",
"_  c #AD7143",
"`  c #AF764B",
"'  c #B87646",
"]  c #AB7858",
"[  c #B07C56",
"{  c #A67C63",
"}  c #42833B",
"|  c #458C3B",
" . c #428336",
".. c #49923D",
"X. c #3F8650",
"o. c #3C8A61",
"O. c #3E946E",
"+. c #3E9672",
"@. c #3F9975",
"#. c #338A7B",
"$. c #458748",
"%. c #4D9942",
"&. c #519E46",
"*. c #429059",
"=. c #5BB04F",
"-. c #50A747",
";. c #62B252",
":. c #64BC54",
">. c #419F7B",
",. c #498F75",
"<. c #7F917B",
"1. c #98835E",
"2. c #BE8154",
"3. c #9C9075",
"4. c #888964",
"5. c #A88A6B",
"6. c #BB8460",
"7. c #B2A278",
"8. c #C78649",
"9. c #DB935B",
"0. c #C1885B",
"q. c #C7926A",
"w. c #D99C6A",
"e. c #C69A78",
"r. c #D49B71",
"t. c #C58965",
"y. c #E29F6A",
"u. c #DAA579",
"i. c #E2A26D",
"p. c #E5AB7C",
"a. c #3F8983",
"s. c #2C9294",
"d. c #3AA499",
"f. c #38AAA8",
"g. c #38AEB0",
"h. c #44978C",
"j. c #419890",
"k. c #6B968C",
"l. c #46A59E",
"z. c #59A19B",
"x. c #78A192",
"c. c #53A9A5",
"v. c #51A4A2",
"b. c #43B5AA",
"n. c #45BDB3",
"m. c #45BFBC",
"M. c #47B6B3",
"N. c #5BBBB5",
"B. c #6CB1A8",
"V. c #44C5BF",
"C. c #45C0B2",
"Z. c #3EBEC0",
"A. c #45CDCC",
"S. c #4ACCCB",
"D. c #48C6C3",
"F. c #45CFD0",
"G. c #47D3D3",
"H. c #48D5D6",
"J. c #48D7D8",
"K. c #44D9DC",
"L. c #48D9DB",
"P. c #47D7D8",
"I. c #49DEE1",
"U. c #49E0E1",
"Y. c #B99C8D",
"T. c #90B59A",
"R. c #92BDA6",
"E. c #D3AD8F",
"W. c #E3AE81",
"Q. c #E9B282",
"!. c #E8B78B",
"~. c #EDBB8E",
"^. c #E3B589",
"/. c #F3BB8B",
"(. c #F1B789",
"). c #EDBF94",
"_. c #F0BD90",
"`. c #DEBCA1",
"'. c #96C1A9",
"]. c #E7C599",
"[. c #F5C99C",
"{. c #F7C89A",
"}. c #DEC7B3",
"|. c #F5CEA3",
" X c #EFD1A6",
".X c #FAD2A6",
"XX c #FEDAAD",
"oX c #F7D4A7",
"OX c #E1C5B0",
"+X c #FFDDB1",
/* pixels */
"J.J.J.J.J.J.J.J.J.J.J.J.J.J.J.J.J.J.J.J.J.J.J.J.J.J.J.J.J.J.J.J.J.J.J.J.",
"J.J.J.J.J.J.J.J.J.J.J.J.J.J.J.J.J.J.J.J.J.J.J.J.J.J.J.J.J.J.J.J.J.J.J.J.",
"J.J.J.J.J.J.J.J.J.J.J.J.J.J.J.J.J.J.J.J.J.J.J.J.J.J.J.J.J.J.J.J.J.J.J.J.",
"J.J.J.J.J.J.J.J.J.J.J.J.J.J.J.J.J.J.J.J.J.J.J.J.J.J.J.J.J.J.J.J.J.J.J.J.",
"J.J.J.J.J.J.J.J.H.L.L.L.L.L.L.J.J.J.L.J.J.J.J.L.L.K.L.P.J.J.J.J.J.J.J.J.",
"J.J.J.J.J.J.J.J.L.A.>.O.+.+.n.I.J.J.P.P.L.L.b.O.@.+.>.F.J.J.J.J.J.J.J.J.",
"J.J.J.J.J.J.J.J.L.D.2 0 9 9 n *.D.P.P.V.o.o.n 8 8 9 2 A.J.J.J.J.J.J.J.J.",
"J.J.J.J.J.J.J.J.L.g.2 0 0 0  .| X.D.P.C.w ..c 0 } 0 1 A.J.J.J.J.J.J.J.J.",
"J.J.J.J.J.J.J.J.J.H.d.3 c  . ...%.$.C.$.-.|  . .r 1 f.J.J.J.J.J.J.J.J.J.",
"J.J.J.J.J.J.J.J.J.J.H.G.d.7 n } &.;.$.;.%.| e 7 f.A.J.J.J.J.J.J.J.J.J.J.",
"J.J.J.J.J.J.J.J.J.J.P.P.H.G.H.M e } 6 c 7 #.P.G.H.J.J.J.J.J.J.J.J.J.J.J.",
"J.J.J.J.J.J.J.J.J.J.J.P.L.H.H.L.*.9 ..6 >.L.P.J.P.P.J.J.J.J.J.J.J.J.J.J.",
"J.J.J.J.J.J.J.J.J.J.J.J.J.J.L.f.$.:.=.;.n f.K.J.J.J.J.J.J.J.J.J.P.H.J.J.",
"J.J.J.J.J.J.J.J.J.J.J.J.J.J.I.b   -.r %.  m U.J.J.J.J.J.J.J.J.J.L.H.J.J.",
"J.J.J.J.J.J.J.J.J.J.J.P.L.I.j.4 = y t f = 4 l.U.J.J.J.J.J.J.J.J.H.L.L.H.",
"J.J.J.J.J.J.J.J.J.J.J.L.l.S E F H H J J p i d v b.L.J.J.J.J.J.J.P.L.H.J.",
"J.J.J.J.J.J.J.J.J.L.M.v x G ! ~ K L P P G G W J d v D.H.P.P.P.P.J.J.J.J.",
"J.J.J.J.J.J.J.J.J.L.H.,.s K G W - F 8.F U ! J K * j.H.P.P.P.P.P.J.J.J.J.",
"J.J.J.J.J.J.J.J.J.L.n.= F u F s ; , u * a H > J p < D.H.J.J.L.H.J.J.J.J.",
"J.J.J.J.J.J.J.J.J.H.h.: H : % Y e._ $ / r.I > - > s l.H.J.J.J.J.J.J.J.J.",
"J.J.J.J.J.J.J.J.J.m.$ a > U Y e.XX!./ ~.XX5.h j * : O A.L.J.J.J.J.J.J.J.",
"J.J.J.J.J.J.J.J.J.m.X , % T p..X+XoX[.XX+X[.r.I $ . o S.H.P.J.J.J.J.J.J.",
"J.J.J.J.J.J.J.P.P.m.. $ : Q Y.( E.[.XX|.7.{ Y.I * . o.J.J.J.J.J.J.J.J.J.",
"J.J.J.J.J.J.J.P.P.F.V , U ! Y.# ( {.~.W.h < E.K R o g.L.J.J.J.J.J.J.J.J.",
"J.J.J.J.J.J.J.J.L.L.G.,.% ^ }.@ ( Q.Q.u.l Z ).j - h.F.H.L.L.H.L.J.J.J.J.",
"J.J.J.J.J.J.J.J.H.L.J.G.m z OXA 7..X.X X( <.`.< B F.L.J.H.P.P.H.J.J.J.J.",
"J.J.J.J.J.J.J.J.L.H.I.N.C h q.).oXXX+XXXOX^.` h v.L.L.P.H.L.L.H.J.J.J.H.",
"J.J.J.J.J.J.J.J.H.J.H.B.t.t.T [ ^.!.!.!.u.( U w.] c.P.L.P.H.H.L.J.J.J.L.",
"J.J.J.J.J.J.J.J.L.H.z.] {._.) ' ' R R R 8.' [ |./.^ l.H.L.H.P.L.H.L.H.H.",
"J.J.J.J.J.J.J.J.I.S.Y Q.|._.i.w.i.i.9.i.y.w.Q.|.{.w.z S.H.L.L.H.L.H.L.P.",
"J.J.J.J.J.J.J.J.F.D 0./.r.3.5.r././.9./.(.t.Y ] W.W./ S.J.J.H.P.H.L.J.J.",
"J.J.J.J.J.J.J.J.F.m T i.( M.c.x.R.'.T.'.R.k.D @ ) y.k S.L.J.J.J.J.J.J.J.",
"J.J.J.J.J.J.J.J.J.G.V * D I.L.K.K.K.K.K.K.K.U.f.g * B G.J.J.J.J.J.J.J.J.",
"J.J.J.J.J.J.J.J.J.L.F.s.g.L.P.P.J.J.P.P.P.P.L.L.f.s.G.K.J.J.J.J.J.J.J.J.",
"J.J.J.J.J.J.J.J.J.J.J.L.L.J.P.P.J.J.J.J.P.J.J.J.L.I.K.H.J.J.L.H.J.J.J.J.",
"J.J.J.J.J.J.J.J.J.J.J.J.J.J.L.P.J.J.J.J.P.P.J.J.H.H.L.H.H.L.H.L.J.J.J.J."
};
