/* XPM */
static char *_[] = {
/* columns rows colors chars-per-pixel */
"36 36 191 2 ",
"   c #28150A",
".  c #1D3715",
"X  c #382508",
"o  c #2C2110",
"O  c #362B15",
"+  c #213E15",
"@  c #353015",
"#  c #1C3F2D",
"$  c #303235",
"%  c #532906",
"&  c #4B310D",
"*  c #55350C",
"=  c #433314",
"-  c #523313",
";  c #5A3717",
":  c #663609",
">  c #673D13",
",  c #703F13",
"<  c #773E08",
"1  c #512F24",
"2  c #743C2A",
"3  c #264A1D",
"4  c #2B521F",
"5  c #1A4230",
"6  c #2D5B27",
"7  c #2A5423",
"8  c #325C22",
"9  c #394933",
"0  c #25593D",
"q  c #2B5E3D",
"w  c #336326",
"e  c #396E2D",
"r  c #34652B",
"t  c #3C752D",
"y  c #3B7431",
"u  c #3D7B32",
"i  c #5D4416",
"p  c #78440E",
"a  c #644C19",
"s  c #68411B",
"d  c #724315",
"f  c #784612",
"g  c #494E34",
"h  c #484428",
"j  c #6A4424",
"k  c #754928",
"l  c #6D502D",
"z  c #407E35",
"x  c #766A38",
"c  c #3E4942",
"v  c #397C49",
"b  c #2F7155",
"n  c #2C6856",
"m  c #256868",
"M  c #326F6A",
"N  c #3E7C6F",
"B  c #2F7871",
"V  c #494748",
"C  c #665947",
"Z  c #7A7055",
"A  c #516F68",
"S  c #7F7968",
"D  c #93500F",
"F  c #834510",
"G  c #844912",
"H  c #8C4B13",
"J  c #8F551D",
"K  c #955315",
"L  c #9D5D13",
"P  c #955A18",
"I  c #AA6B16",
"U  c #804825",
"Y  c #89562A",
"T  c #825332",
"R  c #8E593A",
"E  c #875837",
"W  c #965A3A",
"Q  c #985727",
"!  c #9A6438",
"~  c #A16329",
"^  c #A56938",
"/  c #AF7236",
"(  c #846E4F",
")  c #9B6541",
"_  c #9E7C41",
"`  c #816354",
"'  c #9B7553",
"]  c #A76B4A",
"[  c #A87447",
"{  c #B97A4B",
"}  c #AB7251",
"|  c #B47E5E",
" . c #9C7B60",
".. c #867562",
"X. c #3D8133",
"o. c #428337",
"O. c #448B39",
"+. c #408638",
"@. c #49943C",
"#. c #4A9B3F",
"$. c #46943E",
"%. c #3A8557",
"&. c #398B68",
"*. c #388A75",
"=. c #3C9477",
"-. c #4D9E40",
";. c #43975C",
":. c #51AA44",
">. c #409C76",
",. c #449270",
"<. c #BD8445",
"1. c #BE9B79",
"2. c #B68563",
"3. c #B5A67F",
"4. c #C8824F",
"5. c #C5875A",
"6. c #DD955B",
"7. c #CD8F62",
"8. c #CF9368",
"9. c #D89B6A",
"0. c #C59B7A",
"q. c #CD9770",
"w. c #D49C74",
"e. c #E39D64",
"r. c #DCA778",
"t. c #D7A076",
"y. c #E2A26E",
"u. c #E1A472",
"i. c #E6AA79",
"p. c #EEB17F",
"a. c #F1B37F",
"s. c #3E8882",
"d. c #35928E",
"f. c #38A29C",
"g. c #3EB4AF",
"h. c #3CBDBF",
"j. c #3AACA8",
"k. c #418E87",
"l. c #41978D",
"z. c #47988D",
"x. c #5B9C96",
"c. c #659C92",
"v. c #43A886",
"b. c #5CA39C",
"n. c #6CA498",
"m. c #70A598",
"M. c #43A9A4",
"N. c #42B3A3",
"B. c #4FB1AF",
"V. c #5FB8AF",
"C. c #42B9B3",
"Z. c #44BFBC",
"A. c #47B8B6",
"S. c #53BDB9",
"D. c #7BB6A3",
"F. c #46C5BB",
"G. c #45C0B4",
"H. c #46CBC4",
"J. c #46CBCB",
"K. c #46C4C2",
"L. c #47D0CD",
"P. c #45CFD1",
"I. c #47D3D3",
"U. c #48D4D4",
"Y. c #48D7D8",
"T. c #45DADC",
"R. c #48D9DB",
"E. c #45DFE1",
"W. c #49DDE1",
"Q. c #BC9B82",
"!. c #A8A489",
"~. c #82BBA5",
"^. c #D2AB87",
"/. c #D2B68D",
"(. c #D4B296",
"). c #E1AE83",
"_. c #ECB584",
"`. c #E9B78A",
"'. c #F2B888",
"]. c #F5BF90",
"[. c #DEBFA6",
"{. c #C8B2A2",
"}. c #EFC499",
"|. c #F2C599",
" X c #DFC9B6",
".X c #E0C2AA",
"XX c #F8CEA2",
"oX c #FAD4A8",
"OX c #FED9AD",
"+X c #F7D2A6",
"@X c #FFE1B4",
/* pixels */
"Y.Y.Y.Y.Y.Y.Y.Y.Y.Y.Y.Y.Y.Y.Y.Y.Y.Y.Y.Y.Y.Y.Y.Y.Y.Y.Y.Y.Y.Y.Y.Y.Y.Y.Y.Y.",
"Y.Y.Y.Y.Y.Y.Y.Y.Y.Y.Y.R.R.Y.Y.Y.Y.Y.Y.Y.Y.Y.Y.R.R.Y.Y.Y.Y.Y.Y.Y.Y.Y.Y.Y.",
"Y.Y.Y.Y.Y.Y.Y.Y.Y.Y.R.H.F.Y.U.Y.Y.Y.Y.Y.Y.Y.Y.C.N.L.R.Y.Y.Y.Y.Y.Y.Y.Y.Y.",
"Y.Y.Y.Y.Y.Y.Y.Y.Y.Y.R.N.%.F.R.R.Y.Y.Y.Y.Y.R.W.,.w G.R.Y.Y.Y.Y.Y.Y.Y.Y.Y.",
"Y.Y.Y.Y.Y.Y.Y.Y.Y.Y.T.N.8 %.v.F.R.R.R.R.R.F.v.%.4 C.R.Y.Y.Y.Y.Y.Y.Y.Y.Y.",
"Y.Y.Y.Y.Y.Y.Y.Y.Y.Y.R.f.4 z u ;.>.L.R.H.>.;.z y &.J.Y.Y.Y.Y.Y.Y.Y.Y.Y.Y.",
"Y.Y.Y.Y.Y.Y.Y.Y.Y.Y.R.H.&.o.X.o.e &.F.%.t o.z e N.R.Y.Y.Y.Y.Y.Y.Y.Y.Y.Y.",
"Y.Y.Y.Y.Y.Y.Y.Y.Y.Y.Y.R.d.3 o.#.@.e 0 y #.O.z =.I.R.Y.Y.Y.Y.Y.Y.Y.Y.Y.Y.",
"Y.Y.Y.Y.Y.Y.Y.Y.Y.Y.Y.Y.I.M 7 %.-.r . u #.+.*.U.R.Y.Y.Y.Y.Y.Y.Y.Y.Y.Y.Y.",
"Y.Y.Y.Y.Y.Y.Y.Y.Y.Y.Y.Y.R.L.L.&.7 6 y 7 6 *.R.Y.Y.Y.Y.Y.Y.Y.Y.Y.Y.Y.Y.Y.",
"Y.Y.Y.Y.Y.Y.Y.Y.Y.Y.Y.Y.Y.Y.Y.Y.n t X.e n U.Y.Y.Y.Y.Y.Y.Y.Y.Y.Y.Y.Y.Y.Y.",
"Y.Y.Y.Y.Y.Y.Y.Y.Y.Y.Y.Y.Y.Y.R.C.u X.-.X.%.T.Y.Y.Y.Y.Y.Y.Y.Y.Y.Y.Y.Y.Y.Y.",
"Y.Y.Y.Y.Y.Y.Y.Y.Y.Y.Y.Y.Y.Y.R.b . :.r $.q g.W.Y.Y.Y.Y.Y.Y.Y.Y.Y.Y.Y.Y.Y.",
"Y.Y.Y.Y.Y.Y.Y.Y.Y.Y.Y.Y.Y.R.f.5 6 X.X.X.6 5 j.R.Y.Y.Y.Y.Y.Y.Y.Y.Y.Y.Y.Y.",
"Y.Y.Y.Y.Y.Y.Y.Y.Y.Y.Y.Y.Y.R.m 4 u O.y X.y + m W.Y.Y.Y.Y.Y.Y.Y.Y.Y.Y.Y.Y.",
"Y.Y.Y.Y.Y.Y.Y.Y.Y.Y.Y.Y.R.R.b * i a i a i X N R.Y.Y.Y.Y.Y.Y.Y.Y.Y.Y.Y.Y.",
"Y.Y.Y.Y.Y.Y.R.U.R.R.W.N.g x _ K K H K K F p k g 9 C.R.Y.Y.Y.Y.Y.Y.Y.Y.Y.",
"Y.Y.Y.Y.Y.R.U.R.R.T.A.1 F L ~ <.f L I I L K / L * 9 K.R.Y.Y.Y.Y.Y.Y.Y.Y.",
"Y.Y.Y.Y.Y.Y.U.R.U.R.Y.,.: G K K & p 4.: J ^ p F * l.Y.Y.Y.Y.Y.Y.Y.Y.Y.Y.",
"Y.Y.Y.Y.Y.Y.R.U.R.U.l.- H > p * d i : ; J F p d G = K.R.Y.Y.Y.Y.Y.Y.Y.Y.",
"Y.Y.Y.Y.R.U.R.R.R.Z.O , H > & ' `.5.- 2.'.) % - > d z.I.Y.Y.Y.Y.Y.Y.Y.Y.",
"Y.Y.Y.Y.R.U.U.R.U.Z.= p : W [ ^.OX}.| XX@X0.R T & * O J.Y.Y.Y.Y.Y.Y.Y.Y.",
"Y.Y.Y.Y.U.R.R.U.T.Z.X & % ! `.}.oX@XoXOX+X].r.Y X X O J.Y.Y.Y.Y.Y.Y.Y.Y.",
"Y.Y.Y.Y.R.U.R.R.R.P.N - , [ Q.C 1.|.XX|. .Z 0.Y s   *.I.Y.Y.Y.Y.Y.Y.Y.Y.",
"Y.Y.Y.Y.Y.Y.Y.Y.Y.W.A.2 Q ^ {.$ ' '.'.).l V (.k ^ o h.W.Y.Y.Y.Y.Y.Y.Y.Y.",
"Y.Y.Y.Y.Y.Y.Y.Y.Y.Y.P.s.  E  Xc ' `.'.^.C A [.j o d.I.Y.Y.Y.Y.Y.Y.Y.Y.Y.",
"Y.Y.Y.Y.Y.Y.Y.Y.W.U.W.U.m l [.!./.OXOX+XQ.!.^.; B Y.Y.Y.Y.Y.Y.Y.Y.Y.Y.Y.",
"Y.Y.Y.Y.Y.Y.Y.Y.U.I.W.V.k 2 [ `.+XOXOXOX+Xr.E k E S.Y.Y.Y.Y.Y.Y.Y.Y.Y.Y.",
"Y.Y.Y.Y.Y.Y.Y.Y.Y.Y.U.m.5.9.k R 9.t.w.t.8.T ! u.} b.Y.Y.Y.Y.Y.Y.Y.Y.Y.Y.",
"Y.Y.Y.Y.Y.Y.Y.Y.Y.U.c.{ i.].7.4.{ W W ! 4.5.8.'.u.] x.P.Y.Y.Y.Y.Y.Y.Y.Y.",
"Y.Y.Y.Y.Y.Y.Y.Y.Y.Z.2 e.9.w.9.u._.a.9.a._.w.w.8.u.6.1 J.Y.Y.Y.Y.Y.Y.Y.Y.",
"Y.Y.Y.Y.Y.Y.Y.Y.Y.J.A Y Z m...5.p.a.6.a.i.] ..m.( T M P.Y.Y.Y.Y.Y.Y.Y.Y.",
"Y.Y.Y.Y.Y.Y.Y.Y.Y.R.J.s.N.W.B.c.D.D.D.~.D.x.S.T.M.k.U.R.Y.Y.Y.Y.Y.Y.Y.Y.",
"Y.Y.Y.Y.Y.Y.Y.Y.Y.Y.R.T.W.R.T.E.T.Y.T.T.T.T.T.Y.T.T.Y.Y.Y.Y.Y.Y.Y.Y.Y.Y.",
"Y.Y.Y.Y.Y.Y.Y.Y.Y.Y.Y.Y.R.R.R.R.U.R.R.U.T.Y.Y.Y.Y.Y.Y.Y.Y.Y.Y.Y.Y.Y.Y.Y.",
"Y.Y.Y.Y.Y.Y.Y.Y.Y.Y.Y.Y.U.U.R.U.R.R.U.R.R.Y.Y.Y.Y.Y.Y.Y.Y.Y.Y.Y.Y.Y.Y.Y."
};
