/* XPM */
static char *_[] = {
/* columns rows colors chars-per-pixel */
"36 36 199 2 ",
"   c #110C08",
".  c #19160F",
"X  c #291B00",
"o  c #12250A",
"O  c #152D13",
"+  c #1D3C16",
"@  c #193718",
"#  c #2F2208",
"$  c #392A0B",
"%  c #2E2618",
"&  c #312F15",
"*  c #2C311C",
"=  c #3D3013",
"-  c #3A3318",
";  c #1A3D25",
":  c #36393C",
">  c #462909",
",  c #542D06",
"<  c #49300E",
"1  c #5D340C",
"2  c #452B15",
"3  c #563C1A",
"4  c #573716",
"5  c #483411",
"6  c #63380C",
"7  c #6B3C0E",
"8  c #623B12",
"9  c #673E15",
"0  c #763C04",
"q  c #5C3D23",
"w  c #623D25",
"e  c #1F4117",
"r  c #224117",
"t  c #2B521F",
"y  c #1C422B",
"u  c #1F4B34",
"i  c #3E4026",
"p  c #2C5923",
"a  c #2D5625",
"s  c #315F29",
"d  c #375C24",
"f  c #245131",
"g  c #305F34",
"h  c #336223",
"j  c #386529",
"k  c #386F35",
"l  c #356935",
"z  c #397134",
"x  c #3A7B32",
"c  c #2F6729",
"v  c #6C410E",
"b  c #6B4313",
"n  c #724315",
"m  c #7B4412",
"M  c #764B16",
"N  c #7F4815",
"B  c #7D4B08",
"V  c #5A4429",
"C  c #474737",
"Z  c #5F4733",
"A  c #49462B",
"S  c #644327",
"D  c #6C4426",
"F  c #774925",
"G  c #765235",
"H  c #7D5536",
"J  c #447630",
"K  c #2B6D55",
"L  c #2E6D6A",
"P  c #2B7462",
"I  c #2F7D67",
"U  c #357F7D",
"Y  c #464F47",
"T  c #5D5047",
"R  c #4E4F50",
"E  c #5E685E",
"W  c #6C6A56",
"Q  c #53756C",
"!  c #844B17",
"~  c #914F14",
"^  c #865615",
"/  c #945514",
"(  c #9A5A17",
")  c #A15F16",
"_  c #9A6014",
"`  c #A0621E",
"'  c #89572B",
"]  c #975929",
"[  c #9C5B32",
"{  c #95553B",
"}  c #9A6433",
"|  c #A36322",
" . c #A76B3C",
".. c #B46C3E",
"X. c #B87D3A",
"o. c #B17631",
"O. c #806349",
"+. c #9A6843",
"@. c #9D6442",
"#. c #997455",
"$. c #A36942",
"%. c #B2734B",
"&. c #B57648",
"*. c #B07A52",
"=. c #3E8135",
"-. c #428838",
";. c #3E926B",
":. c #3F9C7C",
">. c #418A7E",
",. c #4A897A",
"<. c #7D866E",
"1. c #BD805D",
"2. c #AB8865",
"3. c #BF8561",
"4. c #C6804D",
"5. c #C88958",
"6. c #D08E5A",
"7. c #D9935A",
"8. c #CA9063",
"9. c #C89367",
"0. c #DD9B65",
"q. c #DB9F6D",
"w. c #D39160",
"e. c #D09D76",
"r. c #D89F75",
"t. c #C79671",
"y. c #D5A276",
"u. c #D9A67C",
"i. c #E4A46D",
"p. c #EAA973",
"a. c #E0A97E",
"s. c #368D8F",
"d. c #38928A",
"f. c #369B93",
"g. c #389C9B",
"h. c #3CA697",
"j. c #3CABA1",
"k. c #3CAFA9",
"l. c #3CB0AB",
"z. c #3CBDBF",
"x. c #459388",
"c. c #569994",
"v. c #5D938A",
"b. c #638F83",
"n. c #659589",
"m. c #41A78D",
"M. c #41AB94",
"N. c #44A799",
"B. c #43B39F",
"V. c #5CA39C",
"C. c #6EA495",
"Z. c #57A8A1",
"A. c #43B5A3",
"S. c #44BBAC",
"D. c #45BFBC",
"F. c #44B8B5",
"G. c #50BDBB",
"H. c #44ADA7",
"J. c #70BDAB",
"K. c #6AB8A8",
"L. c #45C2B6",
"P. c #71C0AF",
"I. c #4EC3C2",
"U. c #46CAC9",
"Y. c #45C6C5",
"T. c #47CFD0",
"R. c #47D3D4",
"E. c #49D5D5",
"W. c #48D7D8",
"Q. c #46DADC",
"!. c #48D9DB",
"~. c #48DEE0",
"^. c #4BE0E3",
"/. c #909983",
"(. c #B99B85",
"). c #C39D81",
"_. c #D6AC87",
"`. c #D5BA96",
"'. c #D9B587",
"]. c #E2AD81",
"[. c #E9B689",
"{. c #F1BD8F",
"}. c #E3BD93",
"|. c #F1BE91",
" X c #DDBBA0",
".X c #E0BFA5",
"XX c #DDC197",
"oX c #F3C395",
"OX c #F4C79B",
"+X c #F4CB9F",
"@X c #D3C0AF",
"#X c #EBCAA1",
"$X c #F9CEA0",
"%X c #FBD5A9",
"&X c #FDDAAD",
"*X c #F8D3A7",
"=X c #FEDEB2",
"-X c #E1CAB6",
";X c #FFE5B8",
/* pixels */
"W.W.W.W.W.W.W.W.W.W.W.W.W.W.W.W.W.W.W.W.W.W.W.W.W.W.W.W.W.W.W.W.W.W.W.W.",
"W.W.W.W.W.W.W.W.W.W.W.W.W.W.W.W.W.W.W.W.W.W.W.W.W.W.W.W.W.W.W.W.W.W.W.W.",
"W.W.W.W.W.W.W.W.W.W.W.W.W.W.W.W.W.W.W.W.W.W.W.W.W.W.W.W.W.W.W.W.W.W.W.W.",
"W.W.W.W.W.W.W.W.W.W.W.W.W.W.W.W.W.W.W.W.W.W.W.W.W.W.W.W.W.W.W.W.W.W.W.W.",
"W.W.W.W.W.W.W.W.W.W.W.W.!.!.W.W.W.W.W.W.W.W.W.!.W.W.W.W.W.W.W.W.W.W.W.W.",
"W.W.W.W.W.W.W.W.W.W.W.!.S.A.!.W.W.W.W.W.W.W.!.B.L.!.W.W.W.W.W.W.W.W.W.W.",
"W.W.W.W.W.W.W.W.W.W.!.!.m.>.!.W.W.W.W.W.W.W.!.;.B.!.W.W.W.W.W.W.W.W.W.W.",
"W.W.W.W.W.W.W.W.W.W.!.!.M.x A.!.W.W.W.W.W.!.M.z A.!.W.W.W.W.W.W.W.W.W.W.",
"W.W.W.W.W.W.W.W.W.W.W.!.m.h m.R.E.W.!.!.R.R.>.h A.!.W.W.W.W.W.W.W.W.W.W.",
"W.W.W.W.W.W.W.W.W.W.!.!.h.p z l j.Y.E.z.h.z x t j.!.W.W.W.W.W.W.W.W.W.W.",
"W.W.W.W.W.W.W.W.W.W.W.!.d.e s a @ ; f.@ e c a f l.!.W.W.W.W.W.W.W.W.W.W.",
"W.W.W.W.W.W.W.W.W.!.!.!.j.y o O O @ + O O O o d.!.!.W.W.W.W.W.W.W.W.W.W.",
"W.W.W.W.W.W.W.W.W.W.W.W.!.j.P y @ c c p O u P k.!.W.W.W.W.W.W.W.W.W.W.W.",
"W.W.W.W.W.W.W.W.W.W.W.W.W.!.^.K e -.c x r P ^.!.W.W.W.W.W.W.W.W.W.W.W.W.",
"W.W.W.W.W.W.W.W.W.W.W.W.W.W.!.K h x z =.a I !.W.!.W.W.W.W.W.W.W.W.W.W.W.",
"W.W.W.W.W.W.W.W.W.W.W.W.W.!.d.l J J d J j l s.!.W.W.W.W.W.W.W.W.W.W.W.W.",
"W.W.W.W.W.W.W.W.W.W.W.W.W.x.= v n m n M b 5 * f.W.W.W.W.W.W.W.W.W.W.W.W.",
"W.W.W.W.W.W.W.W.W.W.W.N.V ^ X.| ~ ~ / ) ~ / ^ 3 i H.W.W.W.W.W.W.W.W.W.W.",
"W.W.W.W.W.W.W.W.W.W.F.A ! ( ( &.7 _ o._ _ }  .| 6 C Y.W.W.W.W.W.W.W.W.W.",
"W.W.W.W.W.W.W.W.W.W.E.,.7 m / m # 6 o.1 N ] B N 8 x.E.W.W.W.W.W.W.W.W.W.",
"W.W.W.W.W.W.W.W.W.R.>.1 ~ 9 9 4  .M , 9 $.! 7 6 m 5 d.R.W.W.W.W.W.W.W.W.",
"W.W.W.W.W.W.W.W.!.D.> m 0 m 9 2.OXr.V e.$X%.6 3 4 v & U.W.W.W.W.W.W.W.W.",
"W.W.W.W.W.W.W.W.!.D.= n , [ 8.}.=X#Xe.%X;X'.&.' < > - U.W.W.W.W.W.W.W.W.",
"W.W.W.W.W.W.W.W.W.D.$ $ >  ._._.#X=X&X&XXX_.u.' X # - U.W.W.W.W.W.W.W.W.",
"W.W.W.W.W.W.W.W.!.E.>.4 !  .(.Y 2.oXoX}.O.T (.{ F % d.W.W.W.W.W.W.W.W.W.",
"W.W.W.W.W.W.W.W.W.!.F.D '  ..X: #.[.[.u.Z R  XF } % z.W.W.W.W.W.W.W.W.W.",
"W.W.W.W.W.W.W.W.W.W.W.s.  H -XY 2.oXoX[.W Q  Xw . g.E.W.W.W.W.W.W.W.W.W.",
"W.W.W.W.W.W.W.W.W.W.!.E.L w _.`.#X*X&X%XXX}.t.2 U W.E.W.W.W.W.W.W.W.W.W.",
"W.W.W.W.W.W.W.W.W.W.W.C. .q G y.OX*X%X%XoXt.D ' @.V.W.W.W.W.W.W.W.W.W.W.",
"W.W.W.W.W.W.W.W.!.T.v.%.i.p.G ' 5.8.8.6.4.F $.p.0.@.c.R.W.W.W.W.W.W.W.W.",
"W.W.W.W.W.W.W.W.W.U.E { 5.{.y.7.4.&. .&.7.w.a.e.&...E T.W.W.W.W.W.W.W.W.",
"W.W.W.W.W.W.W.W.W.Q.U.Q <.*.5.].oXoX0.oX|.u.*./.n.b.E.W.W.W.W.W.W.W.W.W.",
"W.W.W.W.W.W.W.W.W.W.!.~.I.c.W %.q.p.7.p.0.{ E I.~.~.R.!.W.W.W.W.W.W.W.W.",
"W.W.W.W.W.W.W.W.W.W.W.W.W.~.G.Z.K.J.J.J.K.Z.I.~.W.W.!.R.W.W.W.W.W.W.W.W.",
"W.W.W.W.W.W.W.W.W.W.W.W.W.W.~.!.!.!.!.!.Q.~.Q.R.W.W.W.W.W.W.W.W.W.W.W.W.",
"W.W.W.W.W.W.W.W.W.W.W.W.W.W.W.!.W.W.W.W.R.R.R.W.W.W.W.W.W.W.W.W.W.W.W.W."
};
