/* XPM */
static char *_[] = {
/* columns rows colors chars-per-pixel */
"36 36 193 2 ",
"   c #170C04",
".  c #2A1804",
"X  c #14211F",
"o  c #172E10",
"O  c #1B3618",
"+  c #173B18",
"@  c #2A200B",
"#  c #3A280B",
"$  c #38270C",
"%  c #362919",
"&  c #3D341B",
"*  c #322A21",
"=  c #353128",
"-  c #452B0B",
";  c #4B2D0B",
":  c #442606",
">  c #4F320F",
",  c #413619",
"<  c #5E3810",
"1  c #573815",
"2  c #4F271B",
"3  c #65390D",
"4  c #693C11",
"5  c #713F10",
"6  c #503525",
"7  c #1D411E",
"8  c #254B1E",
"9  c #1E462C",
"0  c #1D4426",
"q  c #234D27",
"w  c #2C5623",
"e  c #2D5923",
"r  c #2C592C",
"t  c #27522C",
"y  c #335B26",
"u  c #26583A",
"i  c #34443C",
"p  c #336126",
"a  c #336329",
"s  c #366C2D",
"d  c #396D2D",
"f  c #3D6B2A",
"g  c #38712D",
"h  c #376C30",
"j  c #3A7431",
"k  c #3C7B32",
"l  c #38753B",
"z  c #5D401B",
"x  c #734113",
"c  c #7A4412",
"v  c #7D4814",
"b  c #785119",
"n  c #6A4318",
"m  c #484F39",
"M  c #7A4828",
"N  c #7D5022",
"B  c #7E5630",
"V  c #417E34",
"C  c #726739",
"Z  c #234A40",
"A  c #264F50",
"S  c #275954",
"D  c #3A5D49",
"F  c #26664D",
"G  c #3C7C44",
"H  c #276C5E",
"J  c #2A6A53",
"K  c #3B6251",
"L  c #296A61",
"P  c #2D706B",
"I  c #595941",
"U  c #445053",
"Y  c #465449",
"T  c #6E5B57",
"R  c #49664F",
"E  c #7C6543",
"W  c #707844",
"Q  c #8E4D13",
"!  c #854913",
"~  c #8E5116",
"^  c #86531C",
"/  c #8C581A",
"(  c #86541A",
")  c #945516",
"_  c #985817",
"`  c #9F6318",
"'  c #A1621B",
"]  c #AB6C1C",
"[  c #8C5B26",
"{  c #85562A",
"}  c #865736",
"|  c #915339",
" . c #87622F",
".. c #986439",
"X. c #9C6228",
"o. c #A46829",
"O. c #9F6C4E",
"+. c #9C6348",
"@. c #8A6D5B",
"#. c #A66C4F",
"$. c #AE7344",
"%. c #B37B57",
"&. c #B77D58",
"*. c #A9745A",
"=. c #438639",
"-. c #438A39",
";. c #428236",
":. c #49923E",
">. c #3A865E",
",. c #3F946E",
"<. c #2F857A",
"1. c #338C7E",
"2. c #448C44",
"3. c #78835C",
"4. c #51AD45",
"5. c #409A71",
"6. c #4B8979",
"7. c #6A8676",
"8. c #BF824A",
"9. c #B7825C",
"0. c #94956E",
"q. c #B28263",
"w. c #C18544",
"e. c #DA955E",
"r. c #C58D66",
"t. c #CD9263",
"y. c #C4936B",
"u. c #C8906A",
"i. c #CB9172",
"p. c #D89F72",
"a. c #D7A478",
"s. c #E3A572",
"d. c #E5AB77",
"f. c #EAB17E",
"g. c #2F8583",
"h. c #3B8E85",
"j. c #328E86",
"k. c #369687",
"l. c #369F98",
"z. c #3EAC9F",
"x. c #39A7A3",
"c. c #3CADA5",
"v. c #3AADAD",
"b. c #3BB0AE",
"n. c #3BB3B5",
"m. c #3BB6B8",
"M. c #3DBBBC",
"N. c #409F81",
"B. c #43A681",
"V. c #41AA93",
"C. c #42A099",
"Z. c #42B19E",
"A. c #44ABA4",
"S. c #42B5A5",
"D. c #44BCBA",
"F. c #56BBB4",
"G. c #57ACA8",
"H. c #42C2BD",
"J. c #4BC2B9",
"K. c #44C5C3",
"L. c #44CCCC",
"P. c #49CCCB",
"I. c #48C8C4",
"U. c #5BC5C0",
"Y. c #48D2CF",
"T. c #47D3D3",
"R. c #48D5D6",
"E. c #48D7D8",
"W. c #46D9DB",
"Q. c #49DADC",
"!. c #60C9C2",
"~. c #69D0C8",
"^. c #70D3C8",
"/. c #49DEE0",
"(. c #818C87",
"). c #B7B59D",
"_. c #D6A983",
"`. c #C2B48B",
"'. c #DCB38B",
"]. c #EAB384",
"[. c #E5B78C",
"{. c #E8B68A",
"}. c #EEBE91",
"|. c #EAC198",
" X c #F6C698",
".X c #DBD6B1",
"XX c #EBCAA1",
"oX c #F4CDA5",
"OX c #FCD2A5",
"+X c #FFD9AB",
"@X c #FFDFB2",
"#X c #FCDBB8",
"$X c #FFE3B6",
/* pixels */
"E.E.E.E.E.E.E.E.E.E.E.E.E.E.E.E.E.E.E.E.E.E.E.E.E.E.E.E.E.E.E.E.E.E.E.E.",
"E.E.E.E.E.E.E.E.E.E.E.E.E.E.E.E.E.E.E.E.E.E.E.E.E.E.E.E.E.E.E.E.E.E.E.E.",
"E.E.E.E.E.E.E.E.E.E.E.E.E.E.E.E.E.E.E.E.E.E.E.E.E.E.E.E.E.E.E.E.E.E.E.E.",
"E.E.E.E.E.E.E.E.E.E.E.E.E.E.E.E.E.E.E.E.E.E.E.E.E.E.E.E.E.E.E.E.E.E.E.E.",
"E.E.E.E.E.E.E.E.E.E.E.E.E.E.E.E.E.E.E.E.E.E.E.E.E.E.E.E.E.E.E.E.E.E.E.E.",
"E.E.E.E.E.E.E.E.E.E.E.E.E.E.E.E.E.E.E.E.E.E.E.E.E.E.E.E.E.E.E.E.E.E.E.E.",
"E.E.E.E.E.E.E.E.E.E.E.E.E.E.E.E.E.E.E.E.E.E.E.E.E.E.E.E.E.E.E.E.E.E.E.E.",
"E.E.R.T.R.R.R.T.E.E.E.E.E.E.E.E.E.E.E.E.E.E.E.E.E.E.E.E.E.E.E.E.E.E.E.E.",
"R.T.C.& 6.T.3. .F.P.P.Y.E.E.E.E.E.E.E.E.E.E.E.E.E.E.E.E.E.E.E.E.E.E.E.E.",
"A., z x ! { ) Q ^ ^ z D L.E.E.E.E.E.E.E.E.E.E.E.E.E.E.E.E.E.E.E.E.E.E.E.",
"m v ) ) ) ! Q ~ ' w.) c R P.Q.E.E.E.E.E.E.E.E.E.E.E.E.E.E.E.E.E.E.E.E.E.",
"J.b / [ X.1 / _ o.o.` ) 3 K I.E.E.E.E.E.E.E.E.E.E.Q.Q./.Q.E.E.E.E.E.E.E.",
"J.n 1 N 8.} { ` ! ] Q ! x # h./.E.E.E.E.E.E.E.Q.Q.S.V.l.z.E.E.E.E.E.E.E.",
"D., { u.{. X+.` x ~ Q c c : h.Q.E.E.E.E.E.E.E.S.N.j p w g.R.E.E.E.E.E.E.",
"D.% p.OX$X$X_.[ < x c n 3 : h./.E.E.E.E.E.E.Q.5.f ;.h l.E.E.E.E.E.E.E.E.",
"m.* {.XX*.+.a.B < > - > # . <.Q.E.E.E.E.E.Q.Z.2.V j 0 Y.E.E.E.E.E.E.E.E.",
"n.* [.a.6 T _.t.v M $ > - S L.E.E.E.E.E./.z.q k -.s w >.Y.E.E.E.E.E.E.E.",
"n.* ].a.m (.oX X2 ..$ > . P /.E.E.E.E.E./.k.o e -.:.m ;.l ,.Y.R.E.E.E.E.",
"n.= OXXX0.).#XOX2   - . P T.E.Q.K.R.Q.Q.R.1.e 8 a j j j g -.:.B.I.T.E.E.",
"M.i a.+X#X$X#X[...% - Z W./.K.v.Z z.b.v.k.s e u l -.=.=.=.k s k G D.Q.E.",
"W.D.I %.i._._.q.[.{.$.Y G.A.F o e a + + e g t c.1.e e y e r J J S.Q.E.E.",
"W.Q.n.A U @.#.}.OX Xf.u.| E w k -.j k -.e 9 c.Q.Q.<.H L H j.Q.E.E.R.E.E.",
"E.E.W./.^..XOXf.s.r. X[.&.y.W j -.4.k g 9 x./.E.E.Q.Q././.Q.E.E.E.E.E.E.",
"E.E.E.W.~.`.s.e.s.t.d.OX&.+.C y k g p 9 c.Q.W.E.E.E.E.E.E.E.E.E.E.E.E.E.",
"E.E.E.E.W.7.9.y.i.O.a.oXO.& a f g 8 l x.Q.E.E.E.E.E.E.E.E.E.E.E.E.E.E.E.",
"E.E.E.E.W.K.J.U.F.* {.[.7.P + O q c.H.Q.E.E.E.E.E.E.E.E.E.E.E.E.E.E.E.E.",
"E.E.E.E.R.E.Q.Q.L.X M } L T.D.H.H.R.E.E.E.E.E.E.E.E.E.E.E.E.E.E.E.E.E.E.",
"E.E.E.E.Q.Q.R.Q.R.b.X S P.Q.Q.E.E.E.E.E.E.E.E.E.E.E.E.E.E.E.E.E.E.E.E.E.",
"E.E.E.E.R.E.E.E.E.E.T.T.E.E.E.E.E.E.E.E.E.E.E.E.E.E.E.E.E.E.E.E.E.E.E.E.",
"E.E.E.E.E.E.E.E.E.E.E.E.E.E.E.E.E.E.E.E.E.E.E.E.E.E.E.E.E.E.E.E.E.E.E.E.",
"E.E.E.E.E.E.E.E.E.E.E.E.E.E.E.E.E.E.E.E.E.E.E.E.E.E.E.E.E.E.E.E.E.E.E.E.",
"E.E.E.E.E.E.E.E.E.E.E.E.E.E.E.E.E.E.E.E.E.E.E.E.E.E.E.E.E.E.E.E.E.E.E.E.",
"E.E.E.E.E.E.E.E.E.E.E.E.E.E.E.E.E.E.E.E.E.E.E.E.E.E.E.E.E.E.E.E.E.E.E.E.",
"E.E.E.E.E.E.E.E.E.E.E.E.E.E.E.E.E.E.E.E.E.E.E.E.E.E.E.E.E.E.E.E.E.E.E.E.",
"E.E.E.E.E.E.E.E.E.E.E.E.E.E.E.E.E.E.E.E.E.E.E.E.E.E.E.E.E.E.E.E.E.E.E.E.",
"E.E.E.E.E.E.E.E.E.E.E.E.E.E.E.E.E.E.E.E.E.E.E.E.E.E.E.E.E.E.E.E.E.E.E.E."
};
