/* XPM */
static char *_[] = {
/* columns rows colors chars-per-pixel */
"36 36 194 2 ",
"   c #0D0000",
".  c #150D04",
"X  c #111817",
"o  c #221404",
"O  c #2F1A04",
"+  c #3E1F17",
"@  c #182D11",
"#  c #3B280B",
"$  c #362B17",
"%  c #1B3E28",
"&  c #442D0D",
"*  c #4C2E0B",
"=  c #4C2805",
"-  c #4E310E",
";  c #59320A",
":  c #51350F",
">  c #48371B",
",  c #5C3914",
"<  c #503C1A",
"1  c #583117",
"2  c #472A1A",
"3  c #753F0E",
"4  c #6D3F11",
"5  c #4F3B2A",
"6  c #563A2A",
"7  c #693924",
"8  c #1E451E",
"9  c #23431B",
"0  c #26491A",
"q  c #2B541E",
"w  c #1B432F",
"e  c #254B25",
"r  c #2A5422",
"t  c #2D5D28",
"y  c #285934",
"u  c #3D513C",
"i  c #3D4B27",
"p  c #336329",
"a  c #356B2D",
"s  c #396F2D",
"d  c #3A722E",
"f  c #38762E",
"g  c #366F31",
"h  c #3C7431",
"j  c #3E7D35",
"k  c #3A7538",
"l  c #53401E",
"z  c #73410E",
"x  c #694218",
"c  c #7C4612",
"v  c #754616",
"b  c #7F5319",
"n  c #644520",
"m  c #6D492F",
"M  c #7B5221",
"N  c #7F5031",
"B  c #71502D",
"V  c #437732",
"C  c #2E4741",
"Z  c #225C4C",
"A  c #205B55",
"S  c #344E45",
"D  c #2B674D",
"F  c #36774A",
"G  c #3A645E",
"H  c #196165",
"J  c #246867",
"K  c #307E6A",
"L  c #297273",
"P  c #425740",
"I  c #73574E",
"U  c #48624B",
"Y  c #626140",
"T  c #7A6F46",
"R  c #4E796F",
"E  c #706F70",
"W  c #8C4D14",
"Q  c #834A13",
"!  c #904E14",
"~  c #8E541B",
"^  c #955313",
"/  c #985C15",
"(  c #985A19",
")  c #A26218",
"_  c #8A5925",
"`  c #975E27",
"'  c #9C5C3A",
"]  c #925D33",
"[  c #98633C",
"{  c #8E653B",
"}  c #A56825",
"|  c #B97A37",
" . c #99694A",
".. c #87634D",
"X. c #AC7C58",
"o. c #B97C52",
"O. c #BE7F5D",
"+. c #3E8234",
"@. c #408235",
"#. c #428539",
"$. c #458B3B",
"%. c #428A37",
"&. c #49953E",
"*. c #388C6F",
"=. c #3E9065",
"-. c #2D8178",
";. c #318477",
":. c #3E9872",
">. c #418542",
",. c #4A9A49",
"<. c #428275",
"1. c #43A378",
"2. c #BF8B5F",
"3. c #BE9264",
"4. c #AF8868",
"5. c #C48657",
"6. c #D28D53",
"7. c #CE965A",
"8. c #D6925B",
"9. c #CA8F64",
"0. c #C9956A",
"q. c #C59B79",
"w. c #D79C6D",
"e. c #E19D68",
"r. c #CFA178",
"t. c #DDAA7E",
"y. c #D0A17B",
"u. c #E2AC7D",
"i. c #E4A876",
"p. c #2D8586",
"a. c #378D86",
"s. c #3C9887",
"d. c #369B98",
"f. c #3BA394",
"g. c #3AABAB",
"h. c #39A7A3",
"j. c #3CB0AB",
"k. c #3CB6B8",
"l. c #478F84",
"z. c #4B998F",
"x. c #41AA96",
"c. c #5CABA3",
"v. c #44BAA9",
"b. c #41AEB0",
"n. c #41BDB5",
"m. c #43BEBC",
"M. c #52BFBB",
"N. c #44C1B7",
"B. c #47C2BD",
"V. c #64C4B8",
"C. c #3DBFC1",
"Z. c #3FC1C3",
"A. c #43C5C3",
"S. c #45C9C5",
"D. c #46CBCB",
"F. c #4BCDCA",
"G. c #48C4C2",
"H. c #53C9C2",
"J. c #5DD3CF",
"K. c #45CED1",
"L. c #46D3D4",
"P. c #48D6D6",
"I. c #47D7D9",
"U. c #48D7D8",
"Y. c #46D8DA",
"T. c #49D9DB",
"R. c #64CDC6",
"E. c #60C7C1",
"W. c #68D1C9",
"Q. c #49DFE1",
"!. c #45E0E2",
"~. c #879386",
"^. c #8FAB93",
"/. c #B6AC82",
"(. c #DAAB84",
"). c #DFB289",
"_. c #C4BA97",
"`. c #D4BC91",
"'. c #E2AC80",
"]. c #E5B489",
"[. c #EDB381",
"{. c #F3BC87",
"}. c #9FC6AE",
"|. c #EDC297",
" X c #F6CC9F",
".X c #FCCA9B",
"XX c #F4C69A",
"oX c #DDC7A7",
"OX c #F8CEA2",
"+X c #F6CFA8",
"@X c #FCD2A5",
"#X c #FCD6AA",
"$X c #FCD9AB",
"%X c #FCD9B3",
/* pixels */
"U.U.U.U.U.U.U.U.U.U.U.U.U.U.U.U.U.U.U.U.U.U.U.U.U.U.U.U.U.U.U.U.U.U.U.U.",
"U.U.U.U.U.U.U.U.U.U.U.U.U.U.U.U.U.U.U.U.U.U.U.U.U.U.U.U.U.U.U.U.U.U.U.U.",
"U.U.U.U.U.U.U.U.U.U.U.U.U.U.U.U.U.U.U.U.U.U.U.U.U.U.U.U.U.U.U.U.U.U.U.U.",
"U.U.U.U.U.U.U.U.U.U.U.U.U.U.U.U.U.U.U.U.U.U.U.U.U.U.U.U.U.U.U.U.U.U.U.U.",
"U.U.U.U.U.U.U.U.U.U.U.U.U.U.U.U.U.U.U.U.U.U.U.U.U.U.U.U.U.U.U.U.U.U.U.U.",
"U.U.U.U.U.U.U.U.U.U.U.U.U.U.U.U.U.U.U.U.U.U.U.U.U.U.U.U.U.U.U.U.U.U.U.U.",
"U.U.U.U.U.U.U.U.U.U.U.U.U.U.U.U.U.U.U.U.U.U.U.U.U.U.U.U.U.U.U.U.U.U.U.U.",
"U.U.U.U.U.U.U.U.U.U.U.U.U.U.U.U.U.U.U.U.U.U.U.U.U.U.U.U.U.U.U.U.U.U.U.U.",
"U.T.L.D.D.F.F.F.F.F.D.T.U.U.U.U.U.U.U.U.U.U.U.U.U.U.U.U.U.U.U.U.U.U.U.U.",
"P.G.z.> < b _ _ x l u B.D.T.U.U.U.U.U.U.U.U.U.U.U.U.U.U.U.U.U.U.U.U.U.U.",
"z.< x c ^ W W W ^ ` b - U S.T.U.U.U.U.U.U.U.U.U.U.U.U.U.U.U.U.U.U.U.U.U.",
"P v / ( / z Q W ) | } ~ ; <.Q.U.U.U.U.U.U.U.U.U.U.U.U.U.U.U.U.U.U.U.U.U.",
"B.~ v _ } , _ } _ | ^ W 3 U m.T.U.U.U.U.U.U.U.U.U.U.U.U.U.U.U.U.U.U.U.U.",
"B.< 1 ` 7.3.` } 3 ) ^ Q c = a.Q.U.U.U.U.U.U.U.U.U.U.U.U.U.U.U.U.U.U.U.U.",
"n.$ [ u.+X@X3./ ; W W v z ; a.T.U.U.U.U.U.U.U.U.U.U.U.U.U.U.U.U.U.U.U.U.",
"k.$ u.$X#X#X|.] - z 4 4 & * l.T.U.U.U.U.U.U.U.U.U.U.U.U.U.U.U.U.U.U.U.P.",
"K.c.].]...I w.o.x $ # * & o p.Q.U.U.U.U.U.U.U.U.U.U.U.U.P.f.-.f.x.T.U.T.",
"I.W.].(.6 E (.i.~ _ 4 & * . p.Q.U.U.T.U.U.U.U.U.U.Y.T.k.y y k ,.>.F v.T.",
"Y.W.].'.Y ~.+X+X7 N n & O J Y.S.C.A.B.m.S.T.Y.Y.A.S.N.y h a a p >.$.F S.",
"K.c.OX%X`.oX%X#X] . & o   G W.D 8 t r e D N.N.N.D a g r $.j a r f.J j.T.",
"Z.C X.OXOX#X#X]. .5 > 2 7 ' 9.T V f $.$.e f a t %.q 9 e $.V j s *.D.T.T.",
"U.C.S _ ^._.'./.OX.X[.8.{.y.5.O.i %.#.+.&.f q F w Z A h s #.j #.f :.L.T.",
"I.Q.C.H z._.(.{.OX|.q.X.].OX6. .V r h $.0 F -.k.d.B.T.s.:.p $.#.&.V 1.L.",
"I.I.I.Q.}.OX+Xi.e.e.5.o.y.#X(.B r t r e a.j.T.Y.T.Y.T.T.D.K 9 r d $.V =.",
"I.I.I.I.J./.8.8.^.q.0. .m u.OXX.l.% f.h.T.T.P.U.Y.Y.U.U.Y.S.f.h.D @ s.v.",
"I.I.P.P.U.H.V.V.I.R.E.M.R o.OX4.M.k.I.T.T.P.T.U.U.U.U.U.U.U.!.T.B.g.K.Q.",
"I.I.I.P.U.U.U.U.U.U.U.Q.p.$ ' 6 j.Q.T.P.Y.P.U.U.U.U.U.U.U.U.T.U.U.T.U.U.",
"I.I.I.I.U.U.U.U.U.U.U.U.Y.L X d.I.I.U.U.P.T.U.U.U.U.U.U.U.U.U.U.U.U.U.U.",
"U.U.U.U.U.U.U.U.U.U.U.U.I.I.K.I.I.U.U.U.U.U.U.U.U.U.U.U.U.U.U.U.U.U.U.U.",
"U.U.U.U.U.U.U.U.U.U.U.U.P.U.U.U.U.U.U.U.U.U.U.U.U.U.U.U.U.U.U.U.U.U.U.U.",
"U.U.U.U.U.U.U.U.U.U.U.U.P.U.U.U.U.U.U.U.U.U.U.U.U.U.U.U.U.U.U.U.U.U.U.U.",
"U.U.U.U.U.U.U.U.U.U.U.U.U.U.U.U.U.U.U.U.U.U.U.U.U.U.U.U.U.U.U.U.U.U.U.U.",
"U.U.U.U.U.U.U.U.U.U.U.U.U.U.U.U.U.U.U.U.U.U.U.U.U.U.U.U.U.U.U.U.U.U.U.U.",
"U.U.U.U.U.U.U.U.U.U.U.U.U.U.U.U.U.U.U.U.U.U.U.U.U.U.U.U.U.U.U.U.U.U.U.U.",
"U.U.U.U.U.U.U.U.U.U.U.U.U.U.U.U.U.U.U.U.U.U.U.U.U.U.U.U.U.U.U.U.U.U.U.U.",
"U.U.U.U.U.U.U.U.U.U.U.U.U.U.U.U.U.U.U.U.U.U.U.U.U.U.U.U.U.U.U.U.U.U.U.U."
};
