/* XPM */
static char *_[] = {
/* columns rows colors chars-per-pixel */
"36 36 188 2 ",
"   c #0F1C09",
".  c #131B0C",
"X  c #251A07",
"o  c #0F2A17",
"O  c #162D12",
"+  c #193113",
"@  c #1B3919",
"#  c #2D250D",
"$  c #3B2307",
"%  c #2A2412",
"&  c #392514",
"*  c #372A18",
"=  c #2B3011",
"-  c #442B0D",
";  c #442604",
":  c #59330C",
">  c #412318",
",  c #473314",
"<  c #493518",
"1  c #543311",
"2  c #5D3C15",
"3  c #65370C",
"4  c #633A10",
"5  c #6B3D12",
"6  c #613714",
"7  c #493A2B",
"8  c #48372A",
"9  c #4C3F31",
"0  c #673B29",
"q  c #244416",
"w  c #25441C",
"e  c #2A511E",
"r  c #1F4422",
"t  c #1B463D",
"y  c #244A23",
"u  c #2E5A22",
"i  c #27552C",
"p  c #295A28",
"a  c #2A5521",
"s  c #2A5C39",
"d  c #2F6228",
"f  c #326429",
"g  c #366B2C",
"h  c #396B2C",
"j  c #3A722E",
"k  c #2B623C",
"l  c #336D38",
"z  c #3B7531",
"x  c #3D7C32",
"c  c #377335",
"v  c #6E4519",
"b  c #754314",
"n  c #7A4306",
"m  c #4D413B",
"M  c #455735",
"N  c #794D29",
"B  c #6C4A36",
"V  c #764330",
"C  c #6D4627",
"Z  c #1E5149",
"A  c #1F5347",
"S  c #274E4F",
"D  c #235B49",
"F  c #3D5347",
"G  c #2E6A45",
"H  c #28654D",
"J  c #306C42",
"K  c #29645A",
"L  c #2D7055",
"P  c #307458",
"I  c #2B7361",
"U  c #2E7E6E",
"Y  c #327C63",
"T  c #2C7D74",
"R  c #287C7E",
"E  c #49504D",
"W  c #536750",
"Q  c #4B7C73",
"!  c #617D6B",
"~  c #874E0D",
"^  c #9F5E0F",
"/  c #824712",
"(  c #844A13",
")  c #8B4B13",
"_  c #864E19",
"`  c #855014",
"'  c #8E521A",
"]  c #945212",
"[  c #985717",
"{  c #986014",
"}  c #A16117",
"|  c #A2621D",
" . c #8F5E2F",
".. c #995C22",
"X. c #845739",
"o. c #976438",
"O. c #AF6D27",
"+. c #AF702C",
"@. c #AC7537",
"#. c #A66C3B",
"$. c #985D46",
"%. c #8F7356",
"&. c #9F7856",
"*. c #A36545",
"=. c #AB704C",
"-. c #B0754C",
";. c #A47C5D",
":. c #A37D66",
">. c #408035",
",. c #458A3A",
"<. c #458A39",
"1. c #48973D",
"2. c #388159",
"3. c #508471",
"4. c #BA855B",
"5. c #9D8969",
"6. c #B88F71",
"7. c #A29E78",
"8. c #C08A59",
"9. c #C6936A",
"0. c #DC9966",
"q. c #D29D70",
"w. c #CB9B75",
"e. c #D9A277",
"r. c #E2A36F",
"t. c #E7AC7C",
"y. c #EFB27F",
"u. c #378C85",
"i. c #3F9187",
"p. c #369C95",
"a. c #38A49E",
"s. c #3BA99F",
"d. c #34A6A8",
"f. c #36A9A8",
"g. c #3FBAB1",
"h. c #3DB9BA",
"j. c #479387",
"k. c #539989",
"l. c #44A59E",
"z. c #7BAD9B",
"x. c #52ACAA",
"c. c #44B5AD",
"v. c #43BAB3",
"b. c #42BEBB",
"n. c #48BFBC",
"m. c #50BAB2",
"M. c #42C2BE",
"N. c #4BC2BD",
"B. c #51C5BE",
"V. c #7ECDBF",
"C. c #65C8BD",
"Z. c #3FC2C1",
"A. c #43C5C3",
"S. c #45CDCC",
"D. c #48CAC6",
"F. c #46D0CF",
"G. c #5CD3CE",
"H. c #47D3D3",
"J. c #48D4D4",
"K. c #46D7D9",
"L. c #48D7D8",
"P. c #45D9DB",
"I. c #49DADB",
"U. c #68CCC2",
"Y. c #67CBC1",
"T. c #65D1C9",
"R. c #4ADEE1",
"E. c #B89F8F",
"W. c #BDB293",
"Q. c #82BCAD",
"!. c #D1AB88",
"~. c #DAB790",
"^. c #E4B68D",
"/. c #EEBA89",
"(. c #E6B687",
"). c #EDBB92",
"_. c #F8BF90",
"`. c #D0BEA7",
"'. c #ADC3A7",
"]. c #EAC49C",
"[. c #E5C099",
"{. c #F3C292",
"}. c #FDC798",
"|. c #E4CFA9",
" X c #FBD6AA",
".X c #FED9AC",
"XX c #FBD2A4",
"oX c #FFDCB0",
/* pixels */
"L.L.L.L.L.L.L.L.L.L.L.L.L.L.L.L.L.L.L.L.L.L.L.L.L.L.L.L.L.L.L.L.L.L.L.L.",
"L.L.L.L.L.L.L.L.L.L.L.L.L.L.L.L.L.L.L.L.L.L.L.L.L.L.L.L.L.L.L.L.L.L.L.L.",
"L.L.L.L.L.L.L.L.L.L.L.L.L.L.L.L.L.L.L.L.L.L.L.L.L.L.L.L.L.L.L.L.L.L.L.L.",
"L.L.L.L.L.L.L.L.L.L.L.L.L.L.L.L.L.L.L.L.L.L.L.L.L.L.L.L.L.L.L.L.L.L.L.L.",
"L.L.L.L.L.L.L.L.L.L.L.L.L.L.L.L.L.L.L.L.L.L.L.L.L.L.L.L.L.L.L.L.L.L.L.L.",
"L.L.L.L.L.L.L.L.L.L.L.L.L.L.L.L.L.L.L.L.L.L.L.L.L.L.L.L.L.L.L.L.L.L.L.L.",
"L.L.L.L.L.L.L.L.L.L.L.L.L.L.L.L.L.L.L.L.L.L.L.L.L.L.L.L.L.L.L.L.L.L.L.L.",
"L.L.L.L.L.L.L.L.L.L.L.L.L.L.L.L.L.L.L.L.L.L.L.L.L.L.L.L.L.L.L.L.L.L.L.L.",
"L.L.L.L.I.L.L.I.L.L.I.L.L.L.L.L.L.L.L.L.L.L.L.L.L.L.L.L.L.L.L.L.L.L.L.L.",
"L.I.I.S.N.N.B.B.B.N.b.D.I.L.L.L.L.L.L.L.L.L.L.L.L.L.L.L.L.L.L.L.L.L.L.L.",
"H.c.m.3.2 b _ ' ( v 2 M N.I.I.L.L.L.L.L.L.L.L.L.L.L.L.L.L.L.L.L.L.L.L.L.",
"b., b ) ] ] ) ) ] ^ -.n W l.M.I.L.L.L.L.L.L.L.L.L.L.L.L.L.L.L.L.L.L.L.L.",
"b.# ` } | ` b [ ] O...} ) ; u.R.L.L.L.L.L.L.L.L.L.L.L.L.L.L.L.L.L.L.L.L.",
"b., ( C ..o.v @.] +.} ) / 3 j.I.L.L.L.L.L.L.L.L.L.L.L.L.L.L.L.L.L.L.L.L.",
"N.1 1 N 8./.4. .{ ~ } ~ / 3 j.I.L.L.L.L.L.L.L.L.L.L.L.L.L.L.L.L.L.L.L.L.",
"b.# < q.XX.X XX.` b b b 3 3 k.I.L.L.L.L.L.L.L.L.L.L.L.L.L.L.L.L.L.L.L.L.",
"J.u.7 }.|.!.^.9.& 4 1 3 - ; j.R.L.L.L.L.L.L.L.L.L.L.L.L.L.L.L.L.L.L.L.L.",
"R.d.7 }.;.9 :.(.#.3 X & : $ u.R.L.I.I.L.L.I.L.L.L.L.L.L.L.L.L.L.L.L.L.L.",
"I.d.8 _.%.E E.).q.6 o.X 1 % R A.M.M.b.M.Z.I.L.L.L.L.L.L.L.L.L.L.L.L.L.L.",
"I.d.9 XX7.! `.oX~.& N ; X K S . d p y @ t A.I.L.L.L.L.L.L.L.L.L.L.L.L.L.",
"I.d.9  X.X X.XoX^.C - - > 0 0 X.M h 1.d a D Z.I.L.L.L.L.L.L.L.L.I.I.L.L.",
"I.h.F -.^.).[.[.w.:.;.o.=.9././.6.0 w 1.x d D Z.I.L.L.K.I.I.R.R.f.b.I.L.",
"L.I.b.Q z.V.W.!.]..X{./.y.XXXX{.XX4.. f <.<.q A M.K.L.P.S.R 2.2.T v.I.L.",
"L.L.I.I.R.Q.|./._.).0.*.*.$.B X.B * . + @ g g q s.R.H.U L i r K b.R.R.I.",
"L.L.L.L.P.'._.t.0.r.0.5.x.W = w O o p.d.T O w d G P 2.j g a P D.I.T H A.",
"L.L.L.L.K.G.T.U.C.U.U.T.R.S.v.g.g.v.J.I.S.g.I a + j <.z J c.N.I.T y @ h.",
"L.L.L.L.L.L.K.K.K.K.P.K.P.K.P.I.L.L.L.L.K.P.F.I O g x 1.l k k l c y d.J.",
"L.L.L.L.L.L.L.L.L.L.L.L.K.K.K.J.L.L.L.L.L.L.I.H.Y z >.,.,.,.<.x i a.L.L.",
"L.L.L.L.L.L.L.L.L.L.L.L.L.L.L.L.L.L.L.L.L.L.L.L.J.I G f x x z i p.I.I.L.",
"L.L.L.L.L.L.L.L.L.L.L.L.L.L.L.L.L.L.L.L.L.L.L.L.I.I.S.K A A D p.I.L.L.L.",
"L.L.L.L.L.L.L.L.L.L.L.L.L.L.L.L.L.L.L.L.L.L.L.I.J.I.L.I.I.I.L.L.L.L.L.L.",
"L.L.L.L.L.L.L.L.L.L.L.L.L.L.L.L.L.L.L.L.L.L.L.J.I.J.L.L.I.L.L.L.L.L.L.L.",
"L.L.L.L.L.L.L.L.L.L.L.L.L.L.L.L.L.L.L.L.L.L.L.L.L.L.L.L.L.L.L.L.L.L.L.L.",
"L.L.L.L.L.L.L.L.L.L.L.L.L.L.L.L.L.L.L.L.L.L.L.L.L.L.L.L.L.L.L.L.L.L.L.L.",
"L.L.L.L.L.L.L.L.L.L.L.L.L.L.L.L.L.L.L.L.L.L.L.L.L.L.L.L.L.L.L.L.L.L.L.L.",
"L.L.L.L.L.L.L.L.L.L.L.L.L.L.L.L.L.L.L.L.L.L.L.L.L.L.L.L.L.L.L.L.L.L.L.L."
};
