/* XPM */
static char *_[] = {
/* columns rows colors chars-per-pixel */
"36 36 189 2 ",
"   c #1C160D",
".  c #2C1C08",
"X  c #2B1603",
"o  c #1E3D1B",
"O  c #132815",
"+  c #3C2309",
"@  c #3D280C",
"#  c #173F36",
"$  c #3B3B22",
"%  c #4E2A0D",
"&  c #42290C",
"*  c #54330E",
"=  c #5F370F",
"-  c #452E12",
";  c #493211",
":  c #593813",
">  c #713B07",
",  c #613A11",
"<  c #673A17",
"1  c #763F11",
"2  c #462E22",
"3  c #643E23",
"4  c #24481D",
"5  c #29521F",
"6  c #1C4431",
"7  c #1E5737",
"8  c #224A24",
"9  c #354821",
"0  c #2B5324",
"q  c #2D5D26",
"w  c #275025",
"e  c #204D39",
"r  c #23573E",
"t  c #316126",
"y  c #346B2C",
"u  c #3A6C2D",
"i  c #326329",
"p  c #3C742E",
"a  c #37742F",
"s  c #2F6439",
"d  c #356B39",
"f  c #3C7432",
"g  c #3C7B32",
"h  c #3F7D39",
"j  c #387336",
"k  c #76400D",
"l  c #7C4413",
"z  c #764213",
"x  c #574628",
"c  c #54483F",
"v  c #464E28",
"b  c #6C4228",
"n  c #754925",
"m  c #6C542C",
"M  c #74552C",
"N  c #75543B",
"B  c #7C4439",
"V  c #407E33",
"C  c #245940",
"Z  c #28644D",
"A  c #2A6745",
"S  c #36794E",
"D  c #2A6952",
"F  c #2B6E5B",
"G  c #316D6A",
"H  c #247B7D",
"J  c #2F7B7A",
"K  c #357775",
"L  c #2C7A6C",
"P  c #545755",
"I  c #70574A",
"U  c #7A6647",
"Y  c #7B6A54",
"T  c #5C7A67",
"R  c #687566",
"E  c #874F0F",
"W  c #96540E",
"Q  c #864B13",
"!  c #8C4C13",
"~  c #804611",
"^  c #8B5117",
"/  c #9D5D16",
"(  c #9C5C1B",
")  c #925114",
"_  c #9B6117",
"`  c #A0651F",
"'  c #B0721E",
"]  c #835C2D",
"[  c #885524",
"{  c #864C38",
"}  c #87602E",
"|  c #9D6122",
" . c #B1722F",
".. c #A66D3C",
"X. c #B37437",
"o. c #A46524",
"O. c #825D45",
"+. c #935541",
"@. c #896C51",
"#. c #956E51",
"$. c #B07A56",
"%. c #A07A61",
"&. c #3C8134",
"*. c #438638",
"=. c #448839",
"-. c #47963D",
";. c #4A983F",
":. c #3C8041",
">. c #398157",
",. c #2F8172",
"<. c #358F7C",
"1. c #37927F",
"2. c #44934D",
"3. c #418551",
"4. c #429155",
"5. c #488B7E",
"6. c #768576",
"7. c #B68458",
"8. c #969370",
"9. c #AF8063",
"0. c #B98965",
"q. c #B6926A",
"w. c #B69374",
"e. c #C6895B",
"r. c #C28B65",
"t. c #D69969",
"y. c #C69873",
"u. c #DC9F70",
"i. c #DFA56E",
"p. c #DEA779",
"a. c #D9A471",
"s. c #E1A16D",
"d. c #E4AA7A",
"f. c #2A8685",
"g. c #3E9188",
"h. c #339B9C",
"j. c #388D86",
"k. c #3AA295",
"l. c #3BAAA6",
"z. c #3FB4AF",
"x. c #3DB7B8",
"c. c #3FBCB8",
"v. c #499387",
"b. c #479F85",
"n. c #519585",
"m. c #609589",
"M. c #41A386",
"N. c #40A791",
"B. c #43B29E",
"V. c #65A48F",
"C. c #44ABA9",
"Z. c #41A7A1",
"A. c #44B9A6",
"S. c #46B3AD",
"D. c #45B4A6",
"F. c #40BDBA",
"G. c #45B8B5",
"H. c #63B7AF",
"J. c #42C1BD",
"K. c #40BFC1",
"L. c #43C6C4",
"P. c #45CCCA",
"I. c #47D3D4",
"U. c #49D4D4",
"Y. c #48D7D8",
"T. c #47DADC",
"R. c #49DADB",
"E. c #46D7D8",
"W. c #49DDE0",
"Q. c #DFAD84",
"!. c #DDB892",
"~. c #C8AB98",
"^. c #E8B787",
"/. c #F3BA88",
"(. c #E4BC94",
"). c #F3BF92",
"_. c #90CAB7",
"`. c #F7C698",
"'. c #E9C299",
"]. c #DCCAB3",
"[. c #FACFA1",
"{. c #FDD3A5",
"}. c #FED6A9",
"|. c #F2D8AE",
" X c #FDDAAC",
".X c #F5D2A5",
"XX c #FDDDB2",
"oX c #FFE0B3",
"OX c #82D0C1",
/* pixels */
"Y.Y.Y.Y.Y.Y.Y.Y.Y.Y.Y.Y.Y.Y.Y.Y.Y.Y.Y.Y.Y.Y.Y.Y.Y.Y.Y.Y.Y.Y.Y.Y.Y.Y.Y.Y.",
"Y.Y.Y.Y.Y.Y.Y.Y.Y.Y.Y.Y.Y.Y.Y.Y.Y.Y.Y.Y.Y.Y.Y.Y.Y.Y.Y.Y.Y.Y.Y.Y.Y.Y.Y.Y.",
"Y.Y.Y.Y.Y.Y.Y.Y.Y.Y.Y.Y.Y.Y.Y.Y.Y.Y.Y.Y.Y.Y.Y.Y.Y.Y.Y.Y.Y.Y.Y.Y.Y.Y.Y.Y.",
"Y.Y.Y.Y.Y.Y.Y.Y.Y.Y.Y.Y.Y.Y.Y.Y.Y.Y.Y.Y.Y.Y.Y.Y.Y.Y.Y.Y.Y.Y.Y.Y.Y.Y.Y.Y.",
"Y.Y.Y.Y.Y.Y.Y.Y.Y.Y.Y.Y.Y.Y.Y.Y.Y.Y.Y.Y.Y.Y.Y.Y.Y.Y.R.U.Y.Y.Y.Y.Y.Y.Y.Y.",
"Y.Y.Y.Y.Y.Y.Y.Y.Y.Y.Y.Y.Y.Y.Y.Y.Y.Y.Y.Y.Y.Y.Y.Y.Y.Y.Y.R.Y.Y.Y.Y.Y.Y.Y.Y.",
"Y.Y.Y.Y.Y.Y.Y.Y.Y.Y.Y.Y.Y.Y.Y.Y.Y.Y.Y.Y.Y.Y.Y.Y.Y.Y.U.U.U.I.Y.Y.E.Y.Y.Y.",
"Y.Y.Y.Y.Y.Y.Y.Y.Y.Y.Y.Y.Y.Y.Y.Y.Y.Y.Y.Y.Y.U.I.I.U.U.U.U.U.U.I.I.U.Y.Y.E.",
"Y.Y.Y.Y.Y.Y.Y.Y.Y.Y.Y.Y.Y.Y.Y.Y.Y.Y.Y.Y.R.g.$ x M ] ] ] M m x $ j.E.E.E.",
"Y.Y.Y.Y.Y.Y.Y.Y.Y.Y.Y.Y.Y.Y.Y.Y.Y.Y.Y.R.B.; >  .' W ! ! ) ) ! ~ x C.E.E.",
"Y.Y.Y.Y.Y.R.R.T.Y.Y.Y.Y.Y.Y.Y.Y.Y.Y.R.I.5.1 / W o./ ( 1 ^ o.| ! v.R.Y.Y.",
"Y.Y.Y.Y.R.z.D.A.Y.R.Y.Y.Y.Y.Y.Y.Y.Y.R.C.* ~ Q /  .) X.< ..] z k V.T.Y.Y.",
"Y.Y.Y.Y.R.k.d u M.B.R.Y.Y.Y.Y.Y.Y.Y.R.S.* z Q / ^ _ [ 7./.e.n % v.W.R.Y.",
"Y.Y.Y.Y.R.R.D t u h N.Y.Y.Y.Y.Y.Y.Y.R.S.: z z l l E M .XoX Xp.b f.W.Y.Y.",
"Y.Y.Y.Y.R.R.k.s u V 4.R.Y.Y.Y.Y.Y.Y.R.S.@ @ * * , + 7.a.y.!.{.N ,.W.Y.Y.",
"Y.Y.Y.Y.Y.Y.W.A g =.j <.R.Y.Y.Y.Y.R.T.C.. * & - = ] p.0.c #.`.N H R.Y.Y.",
"Y.Y.Y.Y.Y.b.3.j *.=.t Z Y.Y.Y.Y.Y.Y.Y.I.v.% . M < 0.`.~.P @./.N H W.R.Y.",
"Y.Y.A.2.2.j u u f a 4 0 L Y.R.R.Y.R.Y.R.h.. @ = . w.XX].T 8.XXU H W.Y.Y.",
"Y.D.V V f f g V *.&.o q 4 ,.K.K.J.L.Y.R.R.H X ; 3 y. XXX|. X}.Y f.R.Y.Y.",
"L.>.S S :.p p p i A 6 0 &.q O o w 8 l.z.G.G % $.w.0.(.(.(.(.0.V.Y.Y.Y.Y.",
"Y.Y.R.R.h.Z D D F I.F.r 0 y &.a q g q 9 b { e./.{.}.$.%.6.R v.W.Y.Y.Y.Y.",
"Y.Y.Y.Y.R.R.R.R.R.Y.R.G.6 4 g -.;.&.&.U 0.7.`.d.Q.).`.|.OXW.R.Y.Y.Y.Y.Y.",
"Y.Y.Y.Y.Y.Y.Y.Y.Y.Y.Y.R.F.r 5 f a -.0 +.e.a.{.Q.u.t.s.(._.Y.Y.Y.Y.Y.Y.Y.",
"Y.Y.Y.Y.Y.Y.Y.Y.Y.Y.Y.Y.R.F.r q y i y v b s.[.$.t.d.Q.q.Y.Y.Y.Y.Y.Y.Y.Y.",
"Y.Y.Y.Y.Y.Y.Y.Y.Y.Y.Y.Y.Y.R.J.7 j.d w e G #.XX@.m.I 3 H.W.Y.Y.Y.Y.Y.Y.Y.",
"Y.Y.Y.Y.Y.Y.Y.Y.Y.Y.Y.Y.Y.Y.R.x.P.J.S.K.h.2 r.3 h.S.C.Y.R.Y.Y.Y.Y.Y.Y.Y.",
"Y.Y.Y.Y.Y.Y.Y.Y.Y.Y.Y.Y.Y.Y.Y.R.R.R.Y.T.P.J   K I.R.R.Y.Y.Y.Y.Y.Y.Y.Y.Y.",
"Y.Y.Y.Y.Y.Y.Y.Y.Y.Y.Y.Y.Y.Y.Y.Y.Y.Y.Y.Y.Y.I.K.U.Y.Y.Y.Y.Y.Y.Y.Y.Y.Y.Y.Y.",
"Y.Y.Y.Y.Y.Y.Y.Y.Y.Y.Y.Y.Y.Y.Y.Y.Y.Y.Y.Y.Y.Y.Y.Y.Y.Y.Y.Y.Y.Y.Y.Y.Y.Y.Y.Y.",
"Y.Y.Y.Y.Y.Y.Y.Y.Y.Y.Y.Y.Y.Y.Y.Y.Y.Y.Y.Y.Y.Y.Y.Y.Y.Y.Y.Y.Y.Y.Y.Y.Y.Y.Y.Y.",
"Y.Y.Y.Y.Y.Y.Y.Y.Y.Y.Y.Y.Y.Y.Y.Y.Y.Y.Y.Y.Y.Y.Y.Y.Y.Y.Y.Y.Y.Y.Y.Y.Y.Y.Y.Y.",
"Y.Y.Y.Y.Y.Y.Y.Y.Y.Y.Y.Y.Y.Y.Y.Y.Y.Y.Y.Y.Y.Y.Y.Y.Y.Y.Y.Y.Y.Y.Y.Y.Y.Y.Y.Y.",
"Y.Y.Y.Y.Y.Y.Y.Y.Y.Y.Y.Y.Y.Y.Y.Y.Y.Y.Y.Y.Y.Y.Y.Y.Y.Y.Y.Y.Y.Y.Y.Y.Y.Y.Y.Y.",
"Y.Y.Y.Y.Y.Y.Y.Y.Y.Y.Y.Y.Y.Y.Y.Y.Y.Y.Y.Y.Y.Y.Y.Y.Y.Y.Y.Y.Y.Y.Y.Y.Y.Y.Y.Y.",
"Y.Y.Y.Y.Y.Y.Y.Y.Y.Y.Y.Y.Y.Y.Y.Y.Y.Y.Y.Y.Y.Y.Y.Y.Y.Y.Y.Y.Y.Y.Y.Y.Y.Y.Y.Y.",
"Y.Y.Y.Y.Y.Y.Y.Y.Y.Y.Y.Y.Y.Y.Y.Y.Y.Y.Y.Y.Y.Y.Y.Y.Y.Y.Y.Y.Y.Y.Y.Y.Y.Y.Y.Y."
};
