/* XPM */
static char *_[] = {
/* columns rows colors chars-per-pixel */
"36 36 186 2 ",
"   c #1A140E",
".  c #241402",
"X  c #391C14",
"o  c #1A3514",
"O  c #38250B",
"+  c #373A19",
"@  c #392819",
"#  c #183A2C",
"$  c #3E3D22",
"%  c #462807",
"&  c #462D0D",
"*  c #492C0A",
"=  c #58370E",
"-  c #442C10",
";  c #4E3D1C",
":  c #553713",
">  c #60380F",
",  c #66370C",
"<  c #613B11",
"1  c #6D3F11",
"2  c #23471A",
"3  c #25491E",
"4  c #2A551E",
"5  c #1D4326",
"6  c #224D28",
"7  c #244B24",
"8  c #295626",
"9  c #315E22",
"0  c #3B4C36",
"q  c #2D602B",
"w  c #34652B",
"e  c #366B2B",
"r  c #396E2C",
"t  c #336727",
"y  c #39712E",
"u  c #2F6434",
"i  c #3D7932",
"p  c #39773E",
"a  c #6F4517",
"s  c #714314",
"d  c #774717",
"f  c #464125",
"g  c #594D2C",
"h  c #4A5F2F",
"j  c #5B4634",
"k  c #5B5F36",
"l  c #6A4622",
"z  c #674422",
"x  c #774B28",
"c  c #78552E",
"v  c #724F31",
"b  c #417D35",
"n  c #517137",
"m  c #3B5352",
"M  c #2F6944",
"N  c #377A49",
"B  c #286955",
"V  c #396758",
"C  c #2D735A",
"Z  c #2C7564",
"A  c #337168",
"S  c #2B7877",
"D  c #154E4F",
"F  c #69564F",
"G  c #4B7464",
"H  c #417261",
"J  c #666066",
"K  c #86392C",
"L  c #8A520D",
"P  c #9B5A0F",
"I  c #844912",
"U  c #8B4B13",
"Y  c #814B17",
"T  c #914E12",
"R  c #8F5014",
"E  c #945415",
"W  c #985715",
"Q  c #9B5E1B",
"!  c #94571C",
"~  c #A6671E",
"^  c #8E5521",
"/  c #925E25",
"(  c #834C32",
")  c #805631",
"_  c #87612E",
"`  c #9A683E",
"'  c #A96D2C",
"]  c #A66829",
"[  c #B67A38",
"{  c #825047",
"}  c #9A6745",
"|  c #9B724C",
" . c #926853",
".. c #8B6349",
"X. c #AB774B",
"o. c #B37E55",
"O. c #B87B50",
"+. c #A77A54",
"@. c #AB7C62",
"#. c #3E8335",
"$. c #428335",
"%. c #448539",
"&. c #448B3A",
"*. c #418A37",
"=. c #46923A",
"-. c #3C8251",
";. c #3B9477",
":. c #38866C",
">. c #449559",
",. c #528B7E",
"<. c #6D8779",
"1. c #45A67A",
"2. c #AD805D",
"3. c #BB885F",
"4. c #B48564",
"5. c #B09676",
"6. c #95A067",
"7. c #C28456",
"8. c #C2875D",
"9. c #D18C52",
"0. c #DC9259",
"q. c #C89168",
"w. c #D69B6A",
"e. c #CE9E78",
"r. c #DFA779",
"t. c #DEAA7E",
"y. c #DEA270",
"u. c #E7A26B",
"i. c #E6AA77",
"p. c #338E8C",
"a. c #3A978C",
"s. c #359B9A",
"d. c #3FA284",
"f. c #37A09C",
"g. c #3DA49C",
"h. c #38A6A2",
"j. c #3EB3AB",
"k. c #549A8E",
"l. c #41A19A",
"z. c #5EA295",
"x. c #44B2AD",
"c. c #47B7AD",
"v. c #56B3AC",
"b. c #4AB8B9",
"n. c #41BFB9",
"m. c #51B8B3",
"M. c #49A7A9",
"N. c #76BAAA",
"B. c #43C2BD",
"V. c #71C0AF",
"C. c #64C4B7",
"Z. c #43C5C2",
"A. c #45C9C5",
"S. c #45CCCC",
"D. c #48D1CF",
"F. c #46D0CF",
"G. c #45CFD0",
"H. c #47D3D4",
"J. c #49D4D4",
"K. c #48D7D8",
"L. c #46D9DB",
"P. c #49DADB",
"I. c #47D6D8",
"U. c #54CAC7",
"Y. c #4ADEE0",
"T. c #44DEE0",
"R. c #848A8A",
"E. c #AEB494",
"W. c #CBA481",
"Q. c #D8AB85",
"!. c #DCB389",
"~. c #E5B385",
"^. c #E2B58C",
"/. c #EDB787",
"(. c #F5BC8D",
"). c #E7B990",
"_. c #F1C99C",
"`. c #F8C99A",
"'. c #C8DABB",
"]. c #F9CDA2",
"[. c #FCD2A5",
"{. c #FFDCAE",
"}. c #FAD6A9",
"|. c #FFDEB1",
" X c #F7D7B3",
".X c #FFE3B5",
/* pixels */
"K.K.K.K.K.K.K.K.K.K.K.K.K.K.K.K.K.K.K.K.K.K.K.K.K.K.K.K.K.K.K.K.K.K.K.K.",
"K.K.K.K.K.K.K.K.K.K.K.K.K.K.K.K.K.K.K.K.K.K.K.K.K.K.K.K.K.K.K.K.K.K.K.K.",
"K.K.K.K.K.K.K.K.K.K.K.K.K.K.K.K.K.K.K.K.K.K.K.K.K.K.K.K.K.K.K.K.K.K.K.K.",
"K.K.K.K.K.K.K.K.K.K.K.K.K.K.K.K.K.K.K.K.K.K.K.K.K.K.K.K.K.K.K.K.K.K.K.K.",
"K.K.K.K.K.K.K.K.K.K.K.K.K.K.K.K.K.K.K.K.K.K.K.K.K.K.K.K.K.K.K.K.K.K.K.K.",
"K.K.K.K.K.K.K.K.K.K.K.K.K.K.K.K.K.K.K.K.K.K.K.K.K.K.K.K.K.K.K.K.K.K.K.K.",
"K.K.K.K.K.K.K.K.K.K.K.K.K.K.K.K.K.K.K.K.K.K.K.K.K.K.K.K.K.K.K.K.K.K.K.K.",
"K.K.K.K.K.K.K.K.K.K.K.K.K.K.K.K.K.K.K.K.K.K.K.K.J.H.D.J.J.H.H.H.K.K.K.K.",
"K.K.K.K.K.K.K.K.K.K.K.K.K.K.K.K.K.K.K.K.K.K.K.H.V f g ) _ c ; :.J.S.J.K.",
"K.K.K.K.K.K.K.K.K.K.K.K.K.K.K.K.K.K.K.K.K.K.H.V = I U T T T Y a ; + l.K.",
"K.K.K.K.K.K.K.K.K.K.K.K.K.K.K.K.K.K.K.K.P.S.G I ] [ Q T U I E E E = f Z.",
"K.K.K.K.K.K.K.K.K.K.K.K.K.K.K.K.K.K.K.K.S.H , W P [ Q ~ Y = ' / I : b.P.",
"K.K.K.K.K.K.K.K.K.K.K.K.K.K.K.K.K.K.K.P.l.% 1 I W ~ d ' x ` X.a = > c.P.",
"K.K.K.K.K.K.K.K.K.K.K.K.K.K.K.K.K.K.K.P.l.* I I E E < L X.`.!.o.x & x.P.",
"K.K.K.K.K.K.K.K.K.K.K.K.K.K.K.K.K.K.K.P.s.* = 1 d I & / `..X.X`.X.- x.P.",
"K.K.K.K.K.K.K.K.K.K.K.K.K.K.K.K.K.K.P.P.s.. O = % = = X.w.F @.{.4.k.S.K.",
"I.J.c.N >.>.N n.K.K.K.L.P.H.L.H.K.K.K.K.S.A % & : z ^ w.q.J j (.o.v.T.K.",
"A.>.p $.i r t p M B.S.F.K.P.K.S.S.S.A.S.J.p.O & l c c _.).R.j (.@.v.L.K.",
"K.x.5 # 6 w 8 $.i 6 8 C A.B.A.B 5 6 6 5 B U.V . -   v ]. XE.6.|.5.v.L.K.",
"K.I.H.S.:.r %.$.w 9 #.#.q q w 8 i #.i e k 4.( X - @ X.].|.|.|.[.5.m.L.K.",
"K.P.S.;.i b $.b #.o o 2 3 t y =.*.*.&.h 4.i.i.9.w./.^.W.Q.W.q. .z.L.K.K.",
"K.H.1.$.&.*.r y 7 C Z C Z Z N 4 =.#.9 n } 7.`.Q.Q.[.}.^.4. .m D h.P.K.K.",
"D.1.$.&.y 9 :.d.S H.P.T.P.Y.h.;.u 9 y w c i.|.i.7.u.i./.{.'.T.Y.L.K.K.K.",
"B.3 2 2 B a.A.Y.P.P.K.K.K.P.P.Y.g.a.o 2 | ].~.x o.i.u.0.u.E.I.I.K.K.K.K.",
"D.g.g.s.B.Y.L.K.K.K.K.K.K.K.K.K.P.I.s.k.e.[.O.G F K N.N.N.C.L.H.K.K.K.K.",
"K.P.P.P.L.K.K.K.K.K.K.K.K.K.K.K.K.I.Y.b...8.<.J.b.M.H.L.L.L.K.L.K.K.K.K.",
"K.K.K.K.K.K.K.K.K.K.K.K.K.K.K.K.K.K.I.K.a.  S P.I.L.P.K.K.K.K.K.K.K.K.K.",
"K.K.K.K.K.K.K.K.K.K.K.K.K.K.K.K.K.K.I.I.H.S.G.K.H.P.K.K.K.K.K.K.K.K.K.K.",
"K.K.K.K.K.K.K.K.K.K.K.K.K.K.K.K.K.K.K.K.K.K.K.K.K.K.K.K.K.K.K.K.K.K.K.K.",
"K.K.K.K.K.K.K.K.K.K.K.K.K.K.K.K.K.K.K.K.K.K.K.K.K.K.K.K.K.K.K.K.K.K.K.K.",
"K.K.K.K.K.K.K.K.K.K.K.K.K.K.K.K.K.K.K.K.K.K.K.K.K.K.K.K.K.K.K.K.K.K.K.K.",
"K.K.K.K.K.K.K.K.K.K.K.K.K.K.K.K.K.K.K.K.K.K.K.K.K.K.K.K.K.K.K.K.K.K.K.K.",
"K.K.K.K.K.K.K.K.K.K.K.K.K.K.K.K.K.K.K.K.K.K.K.K.K.K.K.K.K.K.K.K.K.K.K.K.",
"K.K.K.K.K.K.K.K.K.K.K.K.K.K.K.K.K.K.K.K.K.K.K.K.K.K.K.K.K.K.K.K.K.K.K.K.",
"K.K.K.K.K.K.K.K.K.K.K.K.K.K.K.K.K.K.K.K.K.K.K.K.K.K.K.K.K.K.K.K.K.K.K.K.",
"K.K.K.K.K.K.K.K.K.K.K.K.K.K.K.K.K.K.K.K.K.K.K.K.K.K.K.K.K.K.K.K.K.K.K.K."
};
