/* XPM */
static char *_[] = {
/* columns rows colors chars-per-pixel */
"36 36 184 2 ",
"   c #130C04",
".  c #1D1406",
"X  c #2F1908",
"o  c #10240D",
"O  c #19300D",
"+  c #1B3514",
"@  c #173418",
"#  c #39250A",
"$  c #3E280A",
"%  c #2C2512",
"&  c #203F18",
"*  c #373014",
"=  c #1B3D21",
"-  c #183C3B",
";  c #2C3820",
":  c #432B0C",
">  c #492E0C",
",  c #432505",
"<  c #552E08",
"1  c #4D310E",
"2  c #59360E",
"3  c #522613",
"4  c #493314",
"5  c #4B391E",
"6  c #5A3513",
"7  c #583B15",
"8  c #6F3D0E",
"9  c #653D12",
"0  c #4B3928",
"q  c #5F3A26",
"w  c #612C21",
"e  c #22441A",
"r  c #24461B",
"t  c #334F1F",
"y  c #1D4A3E",
"u  c #244C25",
"i  c #3B4821",
"p  c #2B5421",
"a  c #2C5A28",
"s  c #2F612A",
"d  c #34652A",
"f  c #31682B",
"g  c #38712D",
"h  c #326734",
"j  c #397330",
"k  c #3E7B33",
"l  c #5F401E",
"z  c #76440F",
"x  c #6D4113",
"c  c #744214",
"v  c #7D4612",
"b  c #7B4E1D",
"n  c #584331",
"m  c #4C4E29",
"M  c #674621",
"N  c #7C5125",
"B  c #75512E",
"V  c #235A44",
"C  c #3D5D4B",
"Z  c #2A6444",
"A  c #29674E",
"S  c #2F6C48",
"D  c #31634E",
"F  c #266454",
"G  c #2A6B56",
"H  c #296B59",
"J  c #307858",
"K  c #286E60",
"L  c #2D7764",
"P  c #327972",
"I  c #6A5C40",
"U  c #645652",
"Y  c #436A5C",
"T  c #55635B",
"R  c #7D6851",
"E  c #75787C",
"W  c #844A0F",
"Q  c #8B4D14",
"!  c #824814",
"~  c #914E14",
"^  c #935313",
"/  c #9A5917",
"(  c #8B5317",
")  c #A36215",
"_  c #8B5A24",
"`  c #865623",
"'  c #975A24",
"]  c #945F32",
"[  c #884F33",
"{  c #90623E",
"}  c #A76B26",
"|  c #B77A36",
" . c #975A41",
".. c #9C6A4C",
"X. c #827252",
"o. c #9B7255",
"O. c #A16E48",
"+. c #AD7B5A",
"@. c #B67955",
"#. c #B4744C",
"$. c #C07F52",
"%. c #3E8936",
"&. c #418436",
"*. c #458D3A",
"=. c #49953E",
"-. c #3F884C",
";. c #3A8753",
":. c #2E847D",
">. c #328B7F",
",. c #3A967F",
"<. c #43897C",
"1. c #998863",
"2. c #AE8462",
"3. c #B28A69",
"4. c #B99672",
"5. c #C28B57",
"6. c #D78D52",
"7. c #C6926A",
"8. c #D29D6B",
"9. c #DA9A67",
"0. c #D79F74",
"q. c #C89874",
"w. c #E39F69",
"e. c #C7A371",
"r. c #E0A169",
"t. c #E5A876",
"y. c #308985",
"u. c #34948A",
"i. c #36968A",
"p. c #379C91",
"a. c #369C96",
"s. c #3BA19B",
"d. c #309DA0",
"f. c #37AAA7",
"g. c #3DB2AF",
"h. c #41948A",
"j. c #53968B",
"k. c #41A098",
"l. c #45B2AD",
"z. c #47B6AA",
"x. c #56B3AC",
"c. c #40BEBC",
"v. c #4EB8B2",
"b. c #64BAB3",
"n. c #43C1BF",
"m. c #5DC3B7",
"M. c #6CC6B8",
"N. c #44C3C2",
"B. c #45CCCB",
"V. c #4CCDCA",
"C. c #46D0CF",
"Z. c #5FD3CE",
"A. c #47D3D4",
"S. c #46D7D9",
"D. c #48D7D8",
"F. c #46D9DB",
"G. c #49DADB",
"H. c #48D2D2",
"J. c #6CD3CA",
"K. c #6AD0C7",
"L. c #49DEE0",
"P. c #9CA28A",
"I. c #A7B398",
"U. c #8D948F",
"Y. c #CEA986",
"T. c #DCB18A",
"R. c #D8BF95",
"E. c #C8B58F",
"W. c #E5AF84",
"Q. c #E3B88F",
"!. c #F3B987",
"~. c #ECBD92",
"^. c #F5C99D",
"/. c #F6C495",
"(. c #D1CDAE",
"). c #EFC8A3",
"_. c #FCCFA1",
"`. c #F3CBA1",
"'. c #FED4A6",
"]. c #FDD7AA",
"[. c #FDD9AC",
"{. c #F5D2A6",
"}. c #FBD9B1",
"|. c #FFE1B4",
/* pixels */
"D.D.D.D.D.D.D.D.D.D.D.D.D.D.D.D.D.D.D.D.D.D.D.D.D.D.D.D.D.D.D.D.D.D.D.D.",
"D.D.D.D.D.D.D.D.D.D.D.D.D.D.D.D.D.D.D.D.D.D.D.D.D.D.D.D.D.D.D.D.D.D.D.D.",
"D.D.D.D.D.D.D.D.D.D.D.D.D.D.D.D.D.D.D.D.D.D.D.D.D.D.D.D.D.D.D.D.D.D.D.D.",
"D.D.D.D.D.D.D.D.D.D.D.D.D.D.D.D.D.D.D.D.D.D.D.D.D.D.D.D.D.D.D.D.D.D.D.D.",
"D.D.D.D.D.D.D.D.D.D.D.D.D.D.D.D.D.D.D.D.D.D.D.D.D.D.D.D.D.D.D.D.D.D.D.D.",
"D.D.D.D.D.D.D.D.D.D.D.D.D.D.D.D.D.D.D.D.D.D.D.D.D.D.D.D.D.D.D.D.D.D.D.D.",
"D.D.D.D.D.D.D.D.D.D.D.D.D.D.D.D.D.D.D.D.D.D.D.D.D.D.D.D.D.D.D.D.D.D.D.D.",
"D.D.D.D.D.D.D.D.D.D.D.D.D.D.D.D.D.D.D.D.D.D.D.D.D.D.D.D.D.D.D.D.D.D.D.D.",
"D.D.D.D.D.D.D.D.D.D.D.D.D.D.D.D.D.D.D.D.D.D.D.G.B.B.B.V.V.V.B.B.A.G.D.D.",
"D.D.D.D.D.D.D.D.D.D.D.D.D.D.D.D.D.D.D.D.D.G.B.N.Y 5 M ` _ N 5 * <.N.C.G.",
"D.D.D.D.D.D.D.D.D.D.D.D.D.D.D.D.D.D.D.D.G.B.Y 1 v ' ^ ~ ~ ~ ~ W 9 4 z.G.",
"D.D.D.D.D.D.D.D.D.D.D.D.D.D.D.D.D.D.D.G.G.h.< ^ ) | ) ^ Q 8 / / ^ 6 l.G.",
"D.D.D.D.D.D.D.D.D.D.D.D.D.D.D.D.D.D.D.G.N.Y 8 ^ ^ | ( } b 7 } _ v 7 l.G.",
"D.D.D.D.D.D.D.D.D.D.D.D.D.D.D.D.D.D.D.G.k., z ! ^ ) x } _ 7.5.` 7 2 z.G.",
"D.D.D.D.D.D.D.D.D.D.D.D.D.D.D.D.D.D.D.G.s.> z z Q ~ 2 W 8.].`.0.[ > z.G.",
"D.D.D.D.D.D.D.D.D.D.D.D.D.D.D.D.D.D.G.G.s., > 9 z z 1 { ^.{.[.'.2.4 l.G.",
"D.D.D.D.D.D.D.D.D.D.D.D.D.D.S.S.D.S.D.G.d.. 3 3 # > c 5.7.U X._.2.j.H.D.",
"D.D.D.D.D.D.D.D.D.D.D.D.D.D.S.S.B.B.B.C.H.P , : q N _ t.8.E n !.2.x.F.D.",
"D.D.D.D.D.D.D.D.D.D.D.D.D.G.B.c.V u u Z N.:.% # x B B {.`.U.I /.2.x.F.D.",
"D.D.D.D.D.D.D.G.D.D.D.D.G.B.H e f %.f i w T Y X #   ..{.}.(.R.}.4.x.S.D.",
"D.D.G.G.G.G.G.S.D.D.D.G.B.F e %.*.p 0 O.w.@.[ q 0 0 ..Q.].}.].~.1.v.G.D.",
"D.G.c.u.u.y.u.B.G.G.G.B.H & *.*.d 3 W.}.].|./.w.t./.^.Y.T.E.P.X.b.G.D.D.",
"G.G.c.V O e e K :.A.B.G & k j p e # o.+.+.3.7.+.0.^._.~.T.I.f.d.G.G.D.D.",
"B.y.G.n.A p d p p L F + j r + L u.:.; i m m  .#.$.9.0.t.'.(.L.L.D.D.D.D.",
"g.e ,.L.c.f.z.-.&.j a u t F s.B.L.D.p.@ o D b.M.E.t.t.6.e.J.F.S.D.D.D.D.",
"D.a.a ;.Z y - f =.k a + G B.G.D.D.D.D.g.f.N.G.F.K.K.K.M.m.F.S.S.D.D.D.D.",
"S.D.p.s k k *.*.k *.j G C.G.D.D.D.D.D.G.G.D.D.D.S.S.S.S.S.D.S.D.D.D.D.D.",
"S.S.G.p.g &.&.k &.h J C.G.D.D.D.D.D.D.D.D.D.D.D.S.S.D.D.D.D.D.D.D.D.D.D.",
"D.D.D.G.i.V S Z A B.H.D.D.D.D.D.D.D.D.D.D.D.D.D.D.D.D.D.D.D.D.D.D.D.D.D.",
"D.D.D.D.D.D.D.D.D.D.D.D.D.D.D.D.D.D.D.D.D.D.D.D.D.D.D.D.D.D.D.D.D.D.D.D.",
"D.D.D.D.D.D.D.D.D.D.D.D.D.D.D.D.D.D.D.D.D.D.D.D.D.D.D.D.D.D.D.D.D.D.D.D.",
"D.D.D.D.D.D.D.D.D.D.D.D.D.D.D.D.D.D.D.D.D.D.D.D.D.D.D.D.D.D.D.D.D.D.D.D.",
"D.D.D.D.D.D.D.D.D.D.D.D.D.D.D.D.D.D.D.D.D.D.D.D.D.D.D.D.D.D.D.D.D.D.D.D.",
"D.D.D.D.D.D.D.D.D.D.D.D.D.D.D.D.D.D.D.D.D.D.D.D.D.D.D.D.D.D.D.D.D.D.D.D.",
"D.D.D.D.D.D.D.D.D.D.D.D.D.D.D.D.D.D.D.D.D.D.D.D.D.D.D.D.D.D.D.D.D.D.D.D.",
"D.D.D.D.D.D.D.D.D.D.D.D.D.D.D.D.D.D.D.D.D.D.D.D.D.D.D.D.D.D.D.D.D.D.D.D."
};
