/* XPM */
static char *a[] = {
/* columns rows colors chars-per-pixel */
"36 36 198 2 ",
"   c #1A0F04",
".  c #1D1104",
"X  c #0C1509",
"o  c #281805",
"O  c #351E05",
"+  c #0F210E",
"@  c #132D0F",
"#  c #0F2111",
"$  c #193312",
"%  c #193815",
"&  c #342105",
"*  c #3C2A0D",
"=  c #33250C",
"-  c #3C2D13",
";  c #353416",
":  c #253914",
">  c #422705",
",  c #452C0C",
"<  c #492E0D",
"1  c #412807",
"2  c #4D310E",
"3  c #53330F",
"4  c #5F380C",
"5  c #5B320A",
"6  c #4E3312",
"7  c #4C301C",
"8  c #43361E",
"9  c #563511",
"0  c #5A3611",
"q  c #5E3811",
"w  c #462C11",
"e  c #683B0E",
"r  c #633B11",
"t  c #6B3E11",
"y  c #703F12",
"u  c #1E451A",
"i  c #23451C",
"p  c #3D4C17",
"a  c #1A433A",
"s  c #265320",
"d  c #2C5D24",
"f  c #305A26",
"g  c #364332",
"h  c #3B4D38",
"j  c #25583B",
"k  c #264B2C",
"l  c #316427",
"z  c #356B2B",
"x  c #38742E",
"c  c #30663C",
"v  c #3C7C32",
"b  c #387234",
"n  c #2C6327",
"m  c #6D4113",
"M  c #654113",
"N  c #744113",
"B  c #7B4513",
"V  c #7B4C14",
"C  c #404122",
"Z  c #5F5437",
"A  c #4C5527",
"S  c #7C4C2A",
"D  c #645D2F",
"F  c #7A5632",
"G  c #407F34",
"H  c #7E6536",
"J  c #1B4847",
"K  c #1F4E51",
"L  c #1B5150",
"P  c #255842",
"I  c #365443",
"U  c #295C58",
"Y  c #2A6644",
"T  c #366649",
"R  c #3D7C44",
"E  c #24605D",
"W  c #1D6668",
"Q  c #2B7B73",
"!  c #276F67",
"~  c #775B45",
"^  c #446553",
"/  c #406E5E",
"(  c #5C7452",
")  c #61665D",
"_  c #8A4A0F",
"`  c #92520B",
"'  c #834713",
"]  c #834913",
"[  c #8E4C13",
"{  c #904E14",
"}  c #8E5414",
"|  c #945414",
" . c #965A13",
".. c #9D5C17",
"X. c #95551A",
"o. c #985A18",
"O. c #A26116",
"+. c #A56519",
"@. c #A96A1A",
"#. c #A76817",
"$. c #9E5F21",
"%. c #8C5A37",
"&. c #99612D",
"*. c #846638",
"=. c #A46520",
"-. c #AF6F20",
";. c #A16B3E",
":. c #986844",
">. c #9A714A",
",. c #987656",
"<. c #896442",
"1. c #B07345",
"2. c #AB7B52",
"3. c #A57652",
"4. c #B07950",
"5. c #C17E42",
"6. c #3E8335",
"7. c #3E843A",
"8. c #428536",
"9. c #428937",
"0. c #448E3A",
"q. c #47943C",
"w. c #49943E",
"e. c #4E9F3F",
"r. c #3E8B49",
"t. c #3D8654",
"y. c #3D8C62",
"u. c #328A7D",
"i. c #2D877D",
"p. c #428B48",
"a. c #499A49",
"s. c #4DA141",
"d. c #4BA34A",
"f. c #50A643",
"g. c #52AA44",
"h. c #55B148",
"j. c #5D8476",
"k. c #BE813C",
"l. c #C28537",
"z. c #858554",
"x. c #B78357",
"c. c #9C8870",
"v. c #988169",
"b. c #B38C69",
"n. c #B98C6B",
"m. c #BA9C76",
"M. c #C58845",
"N. c #C4875A",
"B. c #D59158",
"V. c #C6946B",
"C. c #DA9A6B",
"Z. c #D49A6C",
"A. c #C99673",
"S. c #DEA271",
"D. c #E5AA7A",
"F. c #F3B37F",
"G. c #2C8E8F",
"H. c #319B9C",
"J. c #3CA48E",
"K. c #3FAE9C",
"L. c #3AACAB",
"P. c #3DB9BA",
"I. c #4B9C96",
"U. c #48978B",
"Y. c #41A49D",
"T. c #40AFAB",
"R. c #45B1AE",
"E. c #45BCAC",
"W. c #59B1AA",
"Q. c #43BFBC",
"!. c #4FBCBA",
"~. c #52BDB9",
"^. c #58A8A3",
"/. c #63B5AD",
"(. c #45C2B7",
"). c #43C4C4",
"_. c #46CCCC",
"`. c #4ACDCC",
"'. c #48C9C4",
"]. c #48D6D7",
"[. c #48D7D8",
"{. c #47D8DA",
"}. c #48D9DA",
"|. c #47D3D3",
" X c #48D3CD",
".X c #60C9C2",
"XX c #49DFE1",
"oX c #47DEE0",
"OX c #BBAE8E",
"+X c #DDB28A",
"@X c #D3A781",
"#X c #E9B182",
"$X c #EFBA8B",
"%X c #F3BD8D",
"&X c #EDBD91",
"*X c #F6C698",
"=X c #FACEA2",
"-X c #FDD3A5",
/* pixels */
"[.[.[.[.[.[.[.[.[.[.[.[.[.[.}.}.}.XX}.}.[.}.}.[.[.[.[.[.[.[.[.[.[.[.[.[.",
"[.[.[.[.[.[.[.[.[.[.[.[.}.}.(.L.R.R.R.R.R.L.).}.[.[.[.[.[.[.[.[.[.[.[.[.",
"[.[.[.[.[.[.[.[.[.[.[.[.).Y.I , M M M m r > T _.XX[.[.[.[.[.[.[.[.[.[.[.",
"[.[.[.[.[.[.[.[.[.[.}.`.^ 4 } } +.#.+.+.O.+.{ ( U._.}.[.[.[.[.[.[.[.[.[.",
"[.[.[.[.[.[.[.[.[.[.'.^ y ..O.| [ [ [ [ [ =.-.` r T _.{.[.[.[.[.[.[.[.[.",
"[.[.[.[.[.[.[.[.[.[.R.1 B o.{ { { [ { { [ [ { o.r * Q.{.[.[.[.[.[.[.[.[.",
"[.[.[.[.[.[.[.[.].[.R.3  .| { { { { { { { { ....' - ).{.[.[.[.[.[.[.[.[.",
"[.[.[.[.[.[.[.[.].).h t | #.$.| X.X.| X.$.@...] ' 0 h  X[.[.[.[.[.[.[.[.",
"[.[.[.[.[.[.[.[.[.Q.- q B  .l.+.5.M...l.M.X.' ] t 0 ; _.[.[.[.[.[.[.[.[.",
"[.[.[.[.[.[.[.[.[.(.= < r N  ._ &.k...| | B [ y < w ; _.[.[.[.[.[.[.[.[.",
"[.[.[.[.[.[.[.[.[.).g , t 0 B r N { ' B B q y q * O h _.[.[.[.[.[.[.[.[.",
"[.[.[.[.[.[.[.[.[.{.L.  r 3 N 3 < y < r r < 6 * O X P.{.[.[.[.[.[.[.[.[.",
"[.[.[.[.[.[.[.[.[.}.Q.J O < N 2 9 w 6 r 0 < 1 O I E ).[.[.[.[.[.[.[.[.[.",
"[.[.[.[.[.[.[.[.[.[.{.Q.a o r t N 9 r N < < 1 I ).XX{.[.[.[.[.[.[.[.[.[.",
"[.[.[.[.[.[.[.[.[.[.[.XXI.7 7 3 B t q 3 6 w w I.oX].[.[.[.[.[.[.[.[.[.[.",
"[.[.[.[.[.[.[.[.[.[.}.~.,.+X>.o o r .   O 8 b.OX.X{.[.[.[.[.[.[.[.[.[.[.",
"[.[.[.[.[.[.[.[.[.[.}./.A.%XB.>.,.:.%.:.,.2.#X*Xc.!.[.[.[.[.[.[.[.[.[.[.",
"[.[.[.[.[.[.[.[.[.}.!.,.$XV.%.N.D.D.B.#XS.B.x.#XS.~ ).{.[.[.[.[.[.[.[.[.",
"[.[.[.[.[.[.[.[.[.[.W.n.-X:.- b.*X$XS.*X*Xz.p V.-X:.W.].[.[.[.[.[.[.[.[.",
"[.[.[.[.[.[.[.[.[.^.2.$X$XF : Z N.C.C.C.3.p ; 3.=XS.,.`.[.[.[.[.[.[.[.[.",
"[.[.[.[.[.[.[.[.`.) 1.F.m.g u s D %.H H A s % 7 Z.#X<.`.[.[.[.[.[.[.[.[.",
"[.[.[.[.[.[.[.[.}._.^ S j.i.% l q.x s.6.6.n @ a Z S U _.[.[.[.[.[.[.[.[.",
"[.[.[.[.[.[.[.[.[.{.).W H.Q $ v q.6.6.7.0.f Y Q.G.W _.}.[.[.[.[.[.[.[.[.",
"[.[.[.[.[.[.[.[.[.{.{.{.XXL.P l x n u n v i u.XXXXXX}.[.[.[.[.[.[.[.[.[.",
"[.[.[.[.[.[.[.[.[.[.[.}.E.y.c z v v z v 8.f c E.[.].[.[.[.[.[.[.[.[.[.[.",
"[.[.[.[.[.[.[.[.[.[.[.E.R G f.g.q.x i 6.q.h.e.p.p.Q.[.[.[.[.[.[.[.[.[.[.",
"[.[.[.[.[.[.[.[.[.[.E.a.g.h.f.f.8.$ + i w.f.g.h.d.p.'.[.[.[.[.[.[.[.[.[.",
"[.[.[.[.[.[.[.[.[.).p.g.9.g.d.r.k # @ + j p.d.f.8.g.^  X[.[.[.[.[.[.[.[.",
"[.[.[.[.[.[.[.[.{.'.w.b j Y K.]._.J a L |.[.J.Y P 7.s. X[.[.[.[.[.[.[.[.",
"[.[.[.[.[.[.[.[.}.).J i.}.[.].[.[.[.[.[.[.[.[.}.[.! L  X[.[.[.[.[.[.[.[.",
"[.[.[.[.[.[.[.[.[.[.}.}.}.[.[.[.[.[.[.[.[.[.[.[.[.}.}.}.[.[.[.[.[.[.[.[.",
"[.[.[.[.[.[.[.[.[.[.}.[.[.[.[.[.[.[.[.[.[.[.[.[.[.[.[.[.[.[.[.[.[.[.[.[.",
"[.[.[.[.[.[.[.[.[.[.[.[.[.[.[.[.[.[.[.[.[.[.[.[.[.[.[.[.[.[.[.[.[.[.[.[.",
"[.[.[.[.[.[.[.[.[.[.[.[.[.[.[.[.[.[.[.[.[.[.[.[.[.[.[.[.[.[.[.[.[.[.[.[.",
"[.[.[.[.[.[.[.[.[.[.[.[.[.[.[.[.[.[.[.[.[.[.[.[.[.[.[.[.[.[.[.[.[.[.[.[.",
"[.[.[.[.[.[.[.[.[.[.[.[.[.[.[.[.[.[.[.[.[.[.[.[.[.[.[.[.[.[.[.[.[.[.[.[."
};
