/* XPM */
static char *b[] = {
/* columns rows colors chars-per-pixel */
"36 36 192 2 ",
"   c #150E06",
".  c #190F05",
"X  c #1A1006",
"o  c #281502",
"O  c #311D03",
"+  c #0F2B0C",
"@  c #1A3813",
"#  c #3C260A",
"$  c #3D2A0C",
"%  c #382409",
"&  c #372B15",
"*  c #393319",
"=  c #4B1E08",
"-  c #462E0D",
";  c #4B2F0D",
":  c #422607",
">  c #532E09",
",  c #4D300E",
"<  c #47300F",
"1  c #5A3207",
"2  c #54340E",
"3  c #5C350C",
"4  c #4D341C",
"5  c #553410",
"6  c #5A3710",
"7  c #5E3811",
"8  c #513318",
"9  c #713B0A",
"0  c #643B12",
"q  c #6C3E12",
"w  c #5A3D20",
"e  c #4E3A28",
"r  c #25491C",
"t  c #25461B",
"y  c #33461E",
"u  c #2A511E",
"i  c #12433B",
"p  c #3B4528",
"a  c #295422",
"s  c #2C5C25",
"d  c #265220",
"f  c #305D24",
"g  c #364F3D",
"h  c #28463D",
"j  c #2E6127",
"k  c #34632A",
"l  c #356C2B",
"z  c #3B6C2D",
"x  c #376626",
"c  c #38742E",
"v  c #39782F",
"b  c #2B613E",
"n  c #3E7D32",
"m  c #377730",
"M  c #76440B",
"N  c #6A4012",
"B  c #734213",
"V  c #7D4B11",
"C  c #794612",
"Z  c #44542A",
"A  c #49533A",
"S  c #74492B",
"D  c #6D6D3E",
"F  c #204C48",
"G  c #395847",
"H  c #2E5D51",
"J  c #2B6A49",
"K  c #26614A",
"L  c #2C6E54",
"P  c #307A55",
"I  c #2E7C6A",
"U  c #317B60",
"Y  c #556449",
"T  c #6F7348",
"R  c #766F5F",
"E  c #777660",
"W  c #904E0D",
"Q  c #814613",
"!  c #864A14",
"~  c #8D4D13",
"^  c #864A18",
"/  c #904E14",
"(  c #8D5514",
")  c #935215",
"_  c #9C5B16",
"`  c #9E5E1B",
"'  c #965816",
"]  c #A05F16",
"[  c #A46216",
"{  c #A4641C",
"}  c #A76817",
"|  c #82643E",
" . c #AC6D2D",
".. c #A46727",
"X. c #B3762F",
"o. c #B6782F",
"O. c #B47837",
"+. c #815E40",
"@. c #8E6949",
"#. c #83755A",
"$. c #9E7353",
"%. c #9D784B",
"&. c #A96F4D",
"*. c #BB7F40",
"=. c #A47D5D",
"-. c #B77E53",
";. c #BD7B50",
":. c #907E65",
">. c #3D8235",
",. c #428435",
"<. c #498335",
"1. c #438739",
"2. c #448C39",
"3. c #46933C",
"4. c #49953A",
"5. c #4A9A3D",
"6. c #38814E",
"7. c #3E8F5F",
"8. c #32816A",
"9. c #358664",
"0. c #3C926E",
"q. c #338B7B",
"w. c #4B9E40",
"e. c #4CA542",
"r. c #4A916D",
"t. c #47A467",
"y. c #47AB72",
"u. c #B8975C",
"i. c #B68E57",
"p. c #BF8B63",
"a. c #C6946E",
"s. c #D89A68",
"d. c #CD9C73",
"f. c #C79D79",
"g. c #D09D75",
"h. c #E29E6E",
"j. c #CCA37E",
"k. c #D4A37B",
"l. c #E7AA7A",
"z. c #D19650",
"x. c #379889",
"c. c #3E9E98",
"v. c #358888",
"b. c #37A19E",
"n. c #36AFB2",
"m. c #3DBBBA",
"M. c #419F98",
"N. c #50978D",
"B. c #49A59D",
"V. c #46A39C",
"C. c #75AC9A",
"Z. c #7CB19F",
"A. c #44ADA8",
"S. c #5FAEA4",
"D. c #5DB5AC",
"F. c #43BCB4",
"G. c #44BEBC",
"H. c #48B5B0",
"J. c #52BCB9",
"K. c #43B8A4",
"L. c #65ABA2",
"P. c #4CC89F",
"I. c #46C4B6",
"U. c #48C5BD",
"Y. c #59C0BA",
"T. c #48C3AB",
"R. c #3EC0C2",
"E. c #43C3C2",
"W. c #4AC3C1",
"Q. c #46CAC5",
"!. c #45CBCA",
"~. c #4CC8C8",
"^. c #48D0C5",
"/. c #47D0CC",
"(. c #47D3D4",
"). c #48D2D2",
"_. c #48D7D8",
"`. c #47D9DB",
"'. c #48D9DB",
"]. c #47D7D8",
"[. c #57C6C1",
"{. c #49DEE1",
"}. c #47DEE1",
"|. c #CEA681",
" X c #DEAE87",
".X c #E8B487",
"XX c #F1BB8D",
"oX c #F2BF90",
"OX c #EFC399",
"+X c #F3C193",
"@X c #F9C99B",
"#X c #FDD5A8",
/* pixels */
"_._._._._._._._._._._._._._.]._._._._._.]._._._._._._._._._._._._._._._.",
"_._._._._._._._._._._._._._.'.'.'.`.{.'.'.]._._._._._._._._._._._._._._.",
"_._._._._._._._._._._.'.'.}.F.M.B.B.B.B.V.c.G.'._._._._._._._._._._._._.",
"_._._._._._._._._._._.'.I.N.A 1 M V V V B 1 Y G.}._._._._._._._._._._._.",
"_._._._._._._._._._._.W.Y M ) ' ] { ] [ [  ...T r.Q._._._._._._._._._._.",
"_._._._._._._._._._.'.B.9 _ _ / ~ ~ ~ ~ / ] { W 3 H.'._._._._._._._._._.",
"_._._._._._._._._._.G.A Q _ ~ / ~ / ~ ~ / / / ' q G Q._._._._._._._._._.",
"_._._._._._._._._._.A.3 _ _ / / ~ ) / / / ) ] _ ~ ; G._._._._._._._._._.",
"_._._._._._._._._.E.p 0 ~ } X.] ....)  .O.{ ' Q Q 7 p !.].].].]._._._._.",
"_._._._._._._._._.U.$ 2 q ~ X.] i.z.{ X.O.) ! Q 0 , * !.].].].]._._._._.",
"_._._._._._._._.].G.% - 0 q / Q Q { ) ~ ! B ^ q : % * !._._.]._._._._._.",
"_._._._._._._._._.~.g % q 6 q 0 0 ! B B C 7 0 5 $ o G )._._._._._._._._.",
"_._._._._._._._.].'.R.h > 6 q ; ; 0 2 3 7 ; ; $ o F !._._._._._._._._._.",
"_._._._._._._._._._.'.E.G ; C 6 0 : 7 0 5 ; $ O H ~.{._._._._._._._._._.",
"_._._._._._._._._._._.{.v.o 6 q C 6 0 B ; - = H ~.}._._._._._._._._._._.",
"_._._._._._._._._._._.`.N.S 8 : q q 2 2 6 % 4 #.J.]._._._._._._._._._._.",
"_._._._._._._._._._.].`.C.s.a.& X = .     e d.;.S.`._._._._._._._._._._.",
"_._._._._._._._._._.].].C. XXXd.|.g.-.j.f.j.+Xd.L.]._._._._._._._._._._.",
"_._._._._._._._._._.`.D.p.#Xs.-.+XXXs.@X X&..X+X$.J.]._._._._._._._._._.",
"_._._._._._._._._.].).Z..XXX+.=.oX.Xh.XXXX@.$.@Xk.L.)._._._._._._._._._.",
"_._._._._._._._._.'.W.:..Xa.Z Z %.u.i.u.| y D k.h.R ~._._._._._._._._._.",
"_._._._._._._._._._.'.[.#.7 t s z <.<.<.k a p S E ~.]._._._._._._._._._.",
"_._._._._._._._._._._.'.n.i @ l 4.v e.>.2.l + i m.`._._._._._._._._._._.",
"_._._._._._._._._._._._.{.F.J l 2.w.v w.2.f L U.'.]._._._._._._._._._._.",
"_._._._._._._._._._._._._.{.I t 3.>.n w.v @ q.{.`._._._._._._._._._._._.",
"_._._._._._._._._._._._.'.'.E.J a 1.c 1.u K !._._._._._._._._._._._._._.",
"_._._._._._._._._._._._._._.'.P r 3.j ,.t I {._._._._._._._._._._._._._.",
"_._._._._._._._._._._._._._.'./.P l d l P ].'._._._._._._._._._._._._._.",
"_._._._._._._._._._._._._._.Q.I.b x s f J I.!._._._._._._._._._._._._._.",
"_._._._._._._._._._._._._.Q.t.,.2.1.t 3.2.n t.).'._._._._._._._._._._._.",
"_._._._._._._._._._._._.^.y.4.w.,.k L z 4.w.4.y.^.]._._._._._._._._._._.",
"_._._._._._._._._._._._.P.5.1.v 0.x.!.8.s n 3.5.T.'._._._._._._._._._._.",
"_._._._._._._._._._._.U.t.l r 8./.'.'./.x.I u ,.t.Q._._._._._._._._._._.",
"_._._._._._._._._._.'.K.x 9.b.Q.'._.]._.'.E.b.0.f K._._._._._._._._._._.",
"_._._._._._._._._._._.).F.!.`._._._._._.].'.'.Q.I.)._._._._._._._._._._.",
"_._._._._._._._._._._._._._._._._._._.]._._._.'._._._._._._._._._._._._."
};
