/* XPM */
static char *c[] = {
/* columns rows colors chars-per-pixel */
"36 36 186 2 ",
"   c #180C02",
".  c #0F1D08",
"X  c #1C140C",
"o  c #260C02",
"O  c #2D1C03",
"+  c #231808",
"@  c #321A06",
"#  c #0F200A",
"$  c #10240D",
"%  c #132B12",
"&  c #112610",
"*  c #193314",
"=  c #1E3A15",
"-  c #1E3E19",
";  c #183318",
":  c #34240B",
">  c #3C290B",
",  c #39290E",
"<  c #2E301A",
"1  c #3B3418",
"2  c #3B3E24",
"3  c #0B2D2F",
"4  c #442C0D",
"5  c #4A2E0D",
"6  c #4C300E",
"7  c #55330E",
"8  c #4A2F18",
"9  c #4D3411",
"0  c #533410",
"q  c #593611",
"w  c #5D3811",
"e  c #65390C",
"r  c #743E0A",
"t  c #643B11",
"y  c #6A3D12",
"u  c #463524",
"i  c #563826",
"p  c #134618",
"a  c #26481D",
"s  c #31431E",
"d  c #1D4F3E",
"f  c #274D20",
"g  c #2C5523",
"h  c #2E5A25",
"j  c #275522",
"k  c #305B25",
"l  c #305C28",
"z  c #3E4C35",
"x  c #20543D",
"c  c #13722A",
"v  c #326429",
"b  c #37692A",
"n  c #3C772E",
"m  c #397A32",
"M  c #2A752D",
"N  c #714112",
"B  c #7B4513",
"V  c #4B4A2E",
"C  c #63573A",
"Z  c #775236",
"A  c #7C663E",
"S  c #245A48",
"D  c #385B4B",
"F  c #305C5D",
"G  c #245B58",
"H  c #2A675B",
"J  c #2F735C",
"K  c #317352",
"L  c #2A694B",
"P  c #1C6468",
"I  c #266D63",
"U  c #2C7363",
"Y  c #2D7B6B",
"T  c #5F6748",
"R  c #406F5E",
"E  c #46705D",
"W  c #6C6B45",
"Q  c #6B7643",
"!  c #7B7549",
"~  c #457B6B",
"^  c #757764",
"/  c #884C0B",
"(  c #904E0F",
")  c #8A500F",
"_  c #95520F",
"`  c #9C5D0D",
"'  c #854B14",
"]  c #8D4D13",
"[  c #804713",
"{  c #904E14",
"}  c #8D5212",
"|  c #945413",
" . c #9C5B16",
".. c #985819",
"X. c #9F6317",
"o. c #A16114",
"O. c #A2621B",
"+. c #A86817",
"@. c #815539",
"#. c #AB6D2A",
"$. c #A76821",
"%. c #B17228",
"&. c #B67939",
"*. c #9D6F51",
"=. c #976B4F",
"-. c #A26946",
";. c #AC7B5C",
":. c #B67F54",
">. c #2B8A34",
",. c #3A8635",
"<. c #3E8C38",
"1. c #42802F",
"2. c #428435",
"3. c #488E33",
"4. c #458D3A",
"5. c #458A35",
"6. c #48923A",
"7. c #469A3D",
"8. c #48963D",
"9. c #3A895E",
"0. c #348162",
"q. c #2D8174",
"w. c #31887C",
"e. c #418A4D",
"r. c #4B9D40",
"t. c #418679",
"y. c #548974",
"u. c #46A56F",
"i. c #49B17E",
"p. c #C18438",
"a. c #AD8851",
"s. c #868066",
"d. c #AB8063",
"f. c #BC8A62",
"g. c #C18644",
"h. c #D69655",
"j. c #C9906A",
"k. c #D49A6E",
"l. c #C79670",
"z. c #D9A06C",
"x. c #C6A97B",
"c. c #D7A57C",
"v. c #35968B",
"b. c #359B9C",
"n. c #3CA28F",
"m. c #3FA592",
"M. c #3DB9BA",
"N. c #3AB3B4",
"B. c #438E83",
"V. c #4B9487",
"C. c #529A89",
"Z. c #46B79A",
"A. c #65AA9A",
"S. c #44ACA6",
"D. c #42B4A6",
"F. c #5CB3AA",
"G. c #43BEBC",
"H. c #46B7B2",
"J. c #52B9B6",
"K. c #5ABBB3",
"L. c #65ADA3",
"P. c #7EB3A1",
"I. c #64BAB2",
"U. c #4ECCA2",
"Y. c #45C1B4",
"T. c #45C0BE",
"R. c #48C1BE",
"E. c #57C3BD",
"W. c #45C9C7",
"Q. c #46CCCB",
"!. c #45C5C4",
"~. c #49D4CE",
"^. c #47D2D2",
"/. c #46D7D8",
"(. c #48D7D8",
"). c #47DADC",
"_. c #48D9DB",
"`. c #47DFE1",
"'. c #49DEE0",
"]. c #4CE4E6",
"[. c #D0A480",
"{. c #F0BC89",
"}. c #F2BF90",
"|. c #F7C797",
" X c #FCCFA0",
".X c #FED4A6",
/* pixels */
"(.(.(.(.(.(.(.(.(.(.(.(.(.(.(.(.(.(.(.(.(.(.(.(.(.(.(.(.(.(.(.(.(.(.(.(.",
"(.(.(.(.(.(.(.(.(.(.(.(.(.(././.(.(.(.(.(.(.(.(.(.(.(.(.(.(.(.(.(.(.(.(.",
"(.(.(.(.(.(.(.(.(.(.(.(.(.(._.`.).).).`._._.).).(.(.(.(.(.(.(.(.(.(.(.(.",
"(.(.(.(.(.(.(.(.(.(.(.(._.`.S.V.C.C.C.C.V.v.H.`._.(.(.(.(.(.(.(.(.(.(.(.",
"(.(.(.(.(.(.(.(.(.(.(.`.H.y.C r ] } } } / B W y.R.'.(.(.(.(.(.(.(.(.(.(.",
"(.(.(.(.(.(.(.(.(.(.R.E W / `  . . . . . .#.$./ W R W.(.(.(.(.(.(.(.(.(.",
"(.(.(.(.(.(.(.(.(.(.Q.~ e _ { { ] ] ] { | ....] 7 w.^.(.(.(.(.(.(.(.(.(.",
"(.(.(.(.(.(.(.(.(.(.G.V ] o.{ { ] { { { ] {  . .y V !.(.(.(.(.(.(.(.(.(.",
"(.(.(.(.(.(.(.(.(.(.S.e  .O._ { { { ] | |  .O.| ] 9 H.(.(.(.(.(.(.(.(.(.",
"(.(.(.(.(.(.(.(.(.T.1 t ' o.p.+.&.%...&.g. .] ' B w 2 Q.(.(.(.(.(.(.(.(.",
"(.(.(.(.(.(.(.(.(.T., 9 y [ $.| &.h.+.O.$.} ' B 0 6 1 Q.(.(.(.(.(.(.(.(.",
"(.(.(.(.(.(.(.(.(.T.: 4 t y ' B r ` ] ] B y [ t 4 : D Q.(.(.(.(.(.(.(.(.",
"(.(.(.(.(.(.(.(.(.Q.D @ y 0 y q w B t y y q w 6 , + G.(.(.(.(.(.(.(.(.(.",
"(.(.(.(.(.(.(.(.(.(.W.S 5 0 t 5 5 7 6 w w 6 4 > + G Q.(.(.(.(.(.(.(.(.(.",
"(.(.(.(.(.(.(.(.(.(.'.b.  4 B t y 9 t t 6 5 4 O F Q.(.(.(.(.(.(.(.(.(.(.",
"(.(.(.(.(.(.(.(.(.(.(.Q.F o 4 t B t t y 6 5 O H ^._.(.(.(.(.(.(.(.(.(.(.",
"(.(.(.(.(.(.(.(././.).K.*.-.8 + w B 5 4 w : 8 A.'.(.(.(.(.(.(.(.(.(.(.(.",
"(.(.(.(.(.(.(.(.(./.).L.l.}.l.u X > X X   C c.P.(.(.(.(.(.(.(.(.(.(.(.(.",
"(.(.(.(.(.(.(.(.(.).J.=.|.{.-.j.x.a.x.x.-.k..Xf.F.).(.(.(.(.(.(.(.(.(.(.",
"(.(.(.(.(.(.(.(.(.).J.d..Xk.Z ! >.c >.W A :. X[.I.).(.(.(.(.(.(.(.(.(.(.",
"(.(.(.(.(.(.(.(.(.).J.;. X-.s M <.7.,.,.p i }.c.I.).(.(.(.(.(.(.(.(.(.(.",
"(.(.(.(.(.(.(.(.(.(.!.^ Z u a ,.7.7.<.4.j < Z s.J.).(.(.(.(.(.(.(.(.(.(.",
"(.(.(.(.(.(.(.(.(.(._.M.P L h v 6.m 7.v v - 3 N.'.(.(.(.(.(.(.(.(.(.(.(.",
"(.(.(.(.(.(.(.(.(.(.(._.].q.= g v m v h a x N.).(.(.(.(.(.(.(.(.(.(.(.(.",
"(.(.(.(.(.(.(.(.(.(.(.(.).G.S f h h h j S G._.(.(.(.(.(.(.(.(.(.(.(.(.(.",
"(.(.(.(.(.(.(.(.(.(.(.(.(.'.I % g a k * S _.(.(.(.(.(.(.(.(.(.(.(.(.(.(.",
"(.(.(.(.(.(.(.(.(.(.(.(.(.^.T.d * l - $ S ^.(.(.(.(.(.(.(.(.(.(.(.(.(.(.",
"(.(.(.(.(.(.(.(.(.(.(.(.(.Y ; ; % - ; & % J ^.(.(.(.(.(.(.(.(.(.(.(.(.(.",
"(.(.(.(.(.(.(.(.(.(.(.'.v.* - * & & % & - * w.`.(.(.(.(.(.(.(.(.(.(.(.(.",
"(.(.(.(.(.(.(.(.(.(.(.).v.g 4.a . $ . = 2.b J W.(.(.(.(.(.(.(.(.(.(.(.(.",
"(.(.(.(.(.(.(.(.(.(.(.).m.5.n K Y H Y H v 6.k v.'.(.(.(.(.(.(.(.(.(.(.(.",
"(.(.(.(.(.(.(.(.(.(.(.).Z.3.9.!.'._.).W.9.3.1.S._.(.(.(.(.(.(.(.(.(.(.(.",
"(.(.(.(.(.(.(.(.(.(.(._.U.3.Z.(.(.(.(.`.D.5.3.V.`./././.(.(.(.(.(.(.(.(.",
"(.(.(.(.(.(.(.(.(.(._.Y.e.u.Q.(.(.(.(.(.~.i.n S.`./.(.(.(.(.(.(.(.(.(.(.",
"(.(.(.(.(.(.(.(.(.(.(.Q.H.~.(.(.(.(.(.(.(.~.Y.~.(.(.(.(.(.(.(.(.(.(.(.(.",
"(.(.(.(.(.(.(.(.(.(.(.(.(.(.(.(.(.(.(.(.(.(.(.(.(.(.(.(.(.(.(.(.(.(.(.(."
};
