/* XPM */
static char *e1[] = {
/* columns rows colors chars-per-pixel */
"36 36 179 2 ",
"   c #020201",
".  c #080707",
"X  c #0A0804",
"o  c #0D0D0D",
"O  c #130A00",
"+  c #120E0C",
"@  c #170B00",
"#  c #1D1201",
"$  c #13110F",
"%  c #141313",
"&  c #1A1615",
"*  c #1C1B1B",
"=  c #241301",
"-  c #251801",
";  c #2B1A00",
":  c #321D00",
">  c #381F00",
",  c #201E1E",
"<  c #241A10",
"1  c #2C210A",
"2  c #362501",
"3  c #3C2100",
"4  c #3D2902",
"5  c #39230D",
"6  c #2A2010",
"7  c #21201F",
"8  c #2D241D",
"9  c #3B2D19",
"0  c #232222",
"q  c #292626",
"w  c #2C2B2A",
"e  c #21242A",
"r  c #322F2F",
"t  c #31302F",
"y  c #322F30",
"u  c #353434",
"i  c #3C3C3C",
"p  c #353837",
"a  c #432600",
"s  c #422A01",
"d  c #4B2B00",
"f  c #533302",
"g  c #5B3601",
"h  c #55330D",
"j  c #443113",
"k  c #583919",
"l  c #643A01",
"z  c #6A3F00",
"x  c #413E3E",
"c  c #5F4119",
"v  c #6F4000",
"b  c #6F440F",
"n  c #724200",
"m  c #7C4800",
"M  c #77480E",
"N  c #7A4807",
"B  c #6D481D",
"V  c #754B14",
"C  c #724B1B",
"Z  c #754A16",
"A  c #5A432D",
"S  c #5B4738",
"D  c #5E4D3E",
"F  c #7E5121",
"G  c #60523F",
"H  c #7E5837",
"J  c #775839",
"K  c #745537",
"L  c #3D5556",
"P  c #1F6667",
"I  c #2E6768",
"U  c #216969",
"Y  c #2D7E7F",
"T  c #347878",
"R  c #434342",
"E  c #4C4C4C",
"W  c #484646",
"Q  c #524E4A",
"!  c #5C5141",
"~  c #545454",
"^  c #5B5B5B",
"/  c #67584B",
"(  c #6B5847",
")  c #615D5D",
"_  c #7C6B5D",
"`  c #52696A",
"'  c #636262",
"]  c #6B6B6B",
"[  c #7F6C61",
"{  c #697373",
"}  c #737373",
"|  c #797979",
" . c #7B7571",
".. c #814C05",
"X. c #834F0F",
"o. c #86510E",
"O. c #88520F",
"+. c #8D5614",
"@. c #8D5719",
"#. c #8F5814",
"$. c #925A1D",
"%. c #8D5A23",
"&. c #8B5D2D",
"*. c #85582A",
"=. c #955D22",
"-. c #976024",
";. c #9D6426",
":. c #96612B",
">. c #9E652B",
",. c #8E6132",
"<. c #8E663A",
"1. c #936639",
"2. c #9F6C3E",
"3. c #A0662C",
"4. c #A2682F",
"5. c #A56B32",
"6. c #A66D37",
"7. c #9C6C41",
"8. c #9E7249",
"9. c #987456",
"0. c #A4754C",
"q. c #A77344",
"w. c #A17551",
"e. c #A87A50",
"r. c #9A7960",
"t. c #837871",
"y. c #877569",
"u. c #AE8361",
"i. c #B89172",
"p. c #2B8F90",
"a. c #2E9393",
"s. c #2E999A",
"d. c #319596",
"f. c #319698",
"g. c #339C9E",
"h. c #35A4A5",
"j. c #3AAFB0",
"k. c #52B3B3",
"l. c #42C4C5",
"z. c #44CDCE",
"x. c #53C3C4",
"c. c #46D7D8",
"v. c #48D7D8",
"b. c #49DBDD",
"n. c #44D5D6",
"m. c #79DADB",
"M. c #4BE1E2",
"N. c #828283",
"B. c #898787",
"V. c #8C8B8B",
"C. c #9C8E85",
"Z. c #908E8D",
"A. c #959595",
"S. c #9A9B9B",
"D. c #A69589",
"F. c #A09F9E",
"G. c #A69A93",
"H. c #ACACAC",
"J. c #A5A5A5",
"K. c #BEAFA6",
"L. c #B3B3B2",
"P. c #BFBAB7",
"I. c #BBBBBB",
"U. c #C9B19D",
"Y. c #D5C7BF",
"T. c #D6C8BE",
"R. c #BFC0C1",
"E. c #CCCCCC",
"W. c #D0CDCB",
"Q. c #DAD0CC",
"!. c #C5D0D0",
"~. c #DBDBDC",
"^. c #D2D2D2",
"/. c #E1D5CD",
"(. c #EBECED",
"). c #EFF0F1",
"_. c #F5F5F5",
"`. c #FEFEFE",
"'. c #F8F5F3",
/* pixels */
"v.v.v.v.v.v.v.v.v.v.v.v.v.v.b.v.v.v.v.v.c.v.v.b.v.v.v.v.v.v.v.v.v.v.v.v.",
"v.v.v.v.v.b.b.b.b.b.b.b.b.b.b.b.b.b.b.b.b.b.b.b.b.b.b.b.b.b.v.v.v.v.v.v.",
"v.v.v.v.b.j.a.d.d.f.f.d.f.f.f.d.f.d.d.d.d.f.d.d.d.d.d.d.d.h.b.v.v.v.v.v.",
"v.v.v.v.b.I & & &     O @ O O O O O O O O O O O O & % . , L x.b.v.v.v.v.",
"v.v.b.b.h.L Q ~ E . X 4 2 2 2 2 4 2 2 2 2 2 4 2 9 W i o ] V.` g.b.v.v.v.",
"v.v.v.b.U W N.R p k k C C C C C C C C B C C C C K  .' % ~ } u U M.v.v.v.",
"v.v.v.b.U ) J.w + :.4.5.5.4.4.5.5.4.5.5.5.4.4.4.w.G.N.+ i ~ 7 U b.v.v.v.",
"v.v.n.m.!.V.| k g @.@.@.@.@.@.@.@.@.@.@.@.@.1.U.T.} Q 1 8 i ) { k.v.v.v.",
"v.b.s.{ `.S.E V ............................<.Q.).p - 4 - , | B.p g.b.v.",
"v.b.p.) `.A.E ,.3.3.3.>.3.3.>.3.>.>.>.>.3.>.e./._.t 3 z a * | B.w a.b.v.",
"v.b.p.^ '.Z.E ,.;.;.;.;.;.;.;.;.;.;.;.;.;.;.0.Y.~.w 2 z 4 * | B.w a.b.v.",
"v.b.d.x H.} ~ V m m m m m m m m m m m m m m F C.S., # 2 # * | V.w a.b.v.",
"v.b.p.x H.) w C #.#.+.+.O.#.#.+.@.O.#.#.+.O.:.C.S., - f : & ' { , d.b.v.",
"v.b.d.x L.R   *.6.6.6.6.5.6.6.6.6.6.6.6.5.5.q.D.S.0 a m f o x E % d.b.v.",
"v.b.d.w | t   b #.#.#.+.#.+.+.+.+.+.#.#.@.+.%._ ] & - f : o R E & d.b.v.",
"v.b.d.& ~ 0   l m m m m ..m m m m m m m m m M ! E o # 2 - o R E % d.b.v.",
"v.b.d.* ^ 0   C >.! ! ! ! ! ! Q ! ! ! J >.>.>./ E % > z a % W E & d.b.v.",
"v.b.g.e W ~ ] 9.w.~ ^ N.N.N.] ' ' ^ ~ y.i.u.w./ R i S *.k e x R % d.b.v.",
"v.v.b.Y   A.`.L.F.~ ] _._._.L.V.A.N.^ S._.E.S.S u k.r.V.} E e o   f.b.v.",
"v.v.z.T q N.I.N.} i ^ ~.E.L.N.} V.B.R } L.A.{ W i ' [ ] ~ x ~ ~ & d.b.v.",
"v.b.d., ^ 7         , A.^ . . p N.| .       $ R E o       * | V.w d.b.v.",
"v.v.d., ~ 0   # =   * } ^ u p W ] ' . O - - 6 R E o O - X * | B.q d.b.v.",
"v.b.d., ' 0   2 s @ < E E ~ ~ ~ ~ R = ; s 4 j Q ~ % = 4 = * | B.q d.b.v.",
"v.v.d.u A.p   f v l h * * * * * * 9 l l v v B t.B.* > l a * | V.q d.b.v.",
"v.b.a.x L.~ & b O.O.M 5 5 5 j > 5 h X.X.X.X.*.C.S.7 3 n d * { N.q d.b.v.",
"v.b.d.x H.] W ,.4.4.3.=.:.:.:.:.:.:.4.4.>.>.6.D.S., - s - % E ~ & d.b.v.",
"v.b.d.Q ~.B.E &.=.=.=.=.=.=.=.=.-.-.-.-.=.=.7.K.R.e ; f > + R E & d.b.v.",
"v.b.p.) `.A.E C ........X...X...............<.Q.(.t a n d o R E & d.b.v.",
"v.b.a.) `.A.E *.=.=.=.=.=.=.=.=.=.=.=.=.=.$.8./.).y : g 2 o R E & d.v.v.",
"v.b.p.) `.S.~ <.3.4.3.4.4.4.4.4.4.4.4.4.4.6.u.Q.(.t # s - $ W ~ & d.b.v.",
"v.b.a.E ^.J.V.A h @.@.#.+.+.#.#.@.@.@.+.%.r.G.P.I.0 > l 3 & ] | q a.b.v.",
"v.b.a.i S.S.S.0 X z z n n z n n z n n n Z y.S.S.V.* 3 n a * ] N.q d.b.v.",
"v.b.d.+ r r r X   = = = = = = = = = = = = 8 r r q . O = @ . 0 q . d.b.v.",
"v.b.l.d.d.d.d.d.d.d.f.f.d.d.d.d.d.d.d.d.d.d.d.d.d.d.f.d.f.f.d.d.d.l.v.v.",
"v.v.v.b.b.b.b.b.b.b.b.b.b.b.b.b.b.b.b.b.b.b.b.b.b.b.b.b.b.b.b.b.b.v.v.v.",
"v.v.v.v.v.v.v.v.v.v.v.v.v.v.v.v.v.v.v.v.v.v.v.v.v.v.v.v.v.v.v.v.v.v.v.v."
};
