/* XPM */
static char *e2[] = {
/* columns rows colors chars-per-pixel */
"36 36 176 2 ",
"   c #010101",
".  c #0A0400",
"X  c #050807",
"o  c #0C0904",
"O  c #07000A",
"+  c #0C0D0C",
"@  c #050909",
"#  c #120700",
"$  c #140C00",
"%  c #1C0E00",
"&  c #110E0A",
"*  c #1B1407",
"=  c #0E1313",
"-  c #121314",
";  c #16191A",
":  c #1A1A1B",
">  c #241200",
",  c #291600",
"<  c #271A01",
"1  c #2D1D01",
"2  c #321C00",
"3  c #391E00",
"4  c #251D1A",
"5  c #2B210E",
"6  c #332403",
"7  c #3A2502",
"8  c #3A2802",
"9  c #3E2E0A",
"0  c #31240B",
"q  c #23211F",
"w  c #1D2627",
"e  c #1D3F3F",
"r  c #242525",
"t  c #2C2C2C",
"y  c #282626",
"u  c #312E2E",
"i  c #36312D",
"p  c #2F3032",
"a  c #333333",
"s  c #393636",
"d  c #363738",
"f  c #3D3C3C",
"g  c #422600",
"h  c #4A2800",
"j  c #432B02",
"k  c #42320E",
"l  c #4B3002",
"z  c #553401",
"x  c #5B3300",
"c  c #5E3901",
"v  c #503008",
"b  c #422E19",
"n  c #443412",
"m  c #593C10",
"M  c #6A3F00",
"N  c #663C05",
"B  c #423325",
"V  c #413E3A",
"C  c #6E4100",
"Z  c #724200",
"A  c #784600",
"S  c #7B4F15",
"D  c #4A4337",
"F  c #65472A",
"G  c #764C22",
"H  c #784D22",
"J  c #694E36",
"K  c #675A3E",
"L  c #154040",
"P  c #3F4041",
"I  c #245C66",
"U  c #295E6A",
"Y  c #276E6F",
"T  c #346D6D",
"R  c #434343",
"E  c #464748",
"W  c #474848",
"Q  c #4D4C4C",
"!  c #4C4744",
"~  c #514E49",
"^  c #53514C",
"/  c #59524B",
"(  c #535253",
")  c #585857",
"_  c #555658",
"`  c #575858",
"'  c #5A5959",
"]  c #585655",
"[  c #7A5D42",
"{  c #635E59",
"}  c #7E624E",
"|  c #696059",
" . c #7A6A5D",
".. c #436F6F",
"X. c #576B6C",
"o. c #646464",
"O. c #696666",
"+. c #656768",
"@. c #6A6A6A",
"#. c #787168",
"$. c #637C7C",
"%. c #737372",
"&. c #797777",
"*. c #7C7C7C",
"=. c #844F0B",
"-. c #85500D",
";. c #845014",
":. c #865319",
">. c #925A1A",
",. c #8B5922",
"<. c #935D23",
"1. c #8F612C",
"2. c #976024",
"3. c #996023",
"4. c #91632A",
"5. c #996732",
"6. c #A3692F",
"7. c #A46A31",
"8. c #A36F3D",
"9. c #976C46",
"0. c #AD7C51",
"q. c #87827B",
"w. c #988876",
"e. c #958677",
"r. c #31868E",
"t. c #3B8282",
"y. c #2F9394",
"u. c #309597",
"i. c #319698",
"p. c #349B9C",
"a. c #39ABAC",
"s. c #3DADB2",
"d. c #3CB6B7",
"f. c #3CB7B8",
"g. c #3DB9BA",
"h. c #7F8081",
"j. c #40A3A4",
"k. c #5EADB5",
"l. c #47B9BA",
"z. c #42C7C8",
"x. c #44CDCE",
"c. c #42C2C3",
"v. c #43CFD0",
"b. c #4AD6D7",
"n. c #48D7D8",
"m. c #49DCDC",
"M. c #45D0D1",
"N. c #50D9DB",
"B. c #4BE1E2",
"V. c #848383",
"C. c #8C8C8C",
"Z. c #8A8680",
"A. c #898C93",
"S. c #949494",
"D. c #979898",
"F. c #9B9B9B",
"G. c #A28F83",
"H. c #A99385",
"J. c #A4A4A3",
"K. c #BABABA",
"L. c #B8B6B3",
"P. c #C4BDB9",
"I. c #CDC2BC",
"U. c #A8AFC0",
"Y. c #C4C4C4",
"T. c #C9C9C9",
"R. c #D8CDC8",
"E. c #DFD0C8",
"W. c #DBDBDA",
"Q. c #D8D7D6",
"!. c #E1E0DC",
"~. c #E5E5E4",
"^. c #EAEAEB",
"/. c #F0F0F0",
"(. c #F8F7F7",
"). c #FCFCFC",
/* pixels */
"n.n.n.n.n.n.n.n.n.n.n.n.n.n.n.n.n.n.n.n.n.n.n.n.n.n.n.n.n.n.n.n.n.n.n.n.",
"n.n.n.n.n.n.n.n.n.n.n.n.n.n.n.n.n.n.n.n.n.n.n.n.n.n.n.n.n.n.n.n.n.n.n.n.",
"n.n.n.n.n.m.m.m.m.B.m.m.m.m.m.m.m.m.B.m.m.B.m.B.m.m.m.m.m.m.B.n.n.n.n.n.",
"n.n.n.n.n.s.r.r.r.r.r.r.r.r.r.r.r.r.r.r.r.r.r.r.r.r.r.r.r.r.r.s.m.n.n.n.",
"n.n.n.n.m.U O                         O   O                   Y B.m.n.n.",
"n.n.n.n.B.I   &.F.F.F.S.%.' ' ' ' ' Q a p p a a a *.C.- ' S.&.$.T s.n.n.",
"n.n.n.n.B.I   T.).(.(./.K.C.S.C.S.S.*.^ Q Q ^ Q Q Y.~.a S./.Y.V.V j.m.m.",
"n.n.n.n.m.I   T.~.K D t r : : : : : ; + = = = & = r a E Q p r Q S.$.e g.",
"n.n.n.n.m.I   T.~.k 1 # $ o                         X o./ 2 % V C.' - g.",
"n.n.n.n.m.I   Y.W.n 8 8 8 1 #                       + S.e.Z z 6 * o @ g.",
"n.n.n.n.m.I   J.L.k 8 8 8 6 1 $                     + D.w.A z g x 3 X g.",
"n.n.n.n.B.I   &.q.9 8 8 8 8 8 < o                   + D.w.A z h C h o g.",
"n.n.n.n.m.I   &.V.9 8 8 8 8 8 6 6 .                 + D.w.A z 8 3 % X g.",
"n.n.n.n.m.I   o.%.9 8 8 8 8 8 8 8 % $               + q.#.N g 5 y - @ g.",
"n.n.n.n.B.I   R ~ 8 8 8 8 8 8 8 8 6 6               X ] R # . q Q p + g.",
"n.n.n.n.m.I   S.J.k 8 8 8 8 8 8 8 8 1               X Q W a a d a t.p.v.",
"n.n.n.n.m.I   Y.W.n 8 8 8 7 9 8 8 8 6               X Q ( Q Q E : p.B.n.",
"n.n.n.n.N.U O _ O.( ^ ~ ~ ~ Q ~ ~ k 9 6 *   .   X   X Q f ; = Y c.v.n.n.",
"n.n.v.k.L.A.' ( O.D.F.D.h.@.@.' _ Z.q.{ u - R Q Q d t P ..x.x.M.n.n.n.n.",
"n.B.u.( ~.Q.J.o.C./.)./.K.C.S.%.) !.~.F.` t V.S.S.@.Q w l.m.n.n.n.n.n.n.",
"v.p.t._ S.h.o.V @.T.K.S.%.@.S.O.d C.C.o.Q R ' ` ` R a { X.a.n.n.n.n.n.n.",
"g.= f E :   .   V V.o.= + f V.` +   . & P Q :   .   + C.O.e n.n.n.n.n.n.",
"d.= f E ; $ 1 o t o.' R E ( +.P o 1 1 0 D E : $ 1 $ + C.o.L m.n.n.n.n.n.",
"d.- ` +.r 1 z g b V P R R P P B 7 z z m { @.r > z 2 + C.+.L m.n.n.n.n.n.",
"d.; &.C.p 7 A A N * = + + + + v A A A S q.S.d 2 Z g & C.O.e m.n.n.n.n.n.",
"g.; h.D._ J <.<.<.H G G H H G ,.3.3.<.5.G.S.d > z 2 o +.Q L m.n.n.n.n.n.",
"g.; V.F.O.[ 7.7.6.6.6.6.7.7.7.6.7.7.6.8.H.F.f % 8 > X Q d L m.n.n.n.n.n.",
"d.r K.Q.*.J ;.-.-.-.-.-.-.;.=.-.-.=.-.1.I.W.Q 3 C g o Q d L n.n.n.n.n.n.",
"g.r Y.~.h.J ;.=.=.-.-.-.-.-.-.-.-.-.=.4.R.^.` , M 7 o Q d L m.n.n.n.n.n.",
"d.r Y.~.V.[ 7.7.7.7.7.7.6.7.7.7.7.7.7.0.E.~._ $ 8 > X Q s L m.n.n.n.n.n.",
"d.w J.Y.D. .F :.>.>.>.>.>.>.>.>.>.>.9.H.P.Y.E , N 2 o %.( L m.n.n.n.n.n.",
"d.; %.D.F.@.+ z Z Z Z Z Z Z Z M M N 9.D.D.V.p 3 M g & V.{ L m.n.n.n.n.n.",
"d.+ q u p q O % > > > > > > > > > > 4 u u y + # > # O y : e n.n.n.n.n.n.",
"v.i.u.y.y.y.u.u.u.u.u.u.u.u.u.u.i.y.u.y.y.u.u.i.i.i.i.y.u.a.n.n.n.n.n.n.",
"n.m.m.m.m.m.m.m.m.m.m.m.m.m.m.m.m.m.m.m.m.m.m.m.m.m.m.m.m.m.n.n.n.n.n.n.",
"n.n.n.b.n.n.n.n.n.n.n.n.n.n.b.b.n.n.n.n.b.b.b.n.n.n.n.n.n.n.n.n.n.n.n.n."
};
