/* XPM */
static char *key[] = {
/* columns rows colors chars-per-pixel */
"36 36 132 2 ",
"   c #2E311F",
".  c #321E21",
"X  c #1F2A2A",
"o  c #35282B",
"O  c #5D2D2E",
"+  c #264040",
"@  c #2E4143",
"#  c #2C4845",
"$  c #2A4C4C",
"%  c #3C4A4D",
"&  c #287979",
"*  c #7A6966",
"=  c #9F7A1F",
"-  c #98504A",
";  c #AA6446",
":  c #BE7654",
">  c #BF7E5D",
",  c #847571",
"<  c #817A77",
"1  c #8D7979",
"2  c #8E7D7D",
"3  c #D3775E",
"4  c #7F8B51",
"5  c #6D8F65",
"6  c #59A67D",
"7  c #918309",
"8  c #BC9A02",
"9  c #B1950D",
"0  c #8DA73B",
"q  c #DBB506",
"w  c #D5AB27",
"e  c #CAA33C",
"r  c #FAD312",
"t  c #B39A5E",
"y  c #BC8871",
"u  c #8DAC6F",
"i  c #81BF6D",
"p  c #DA9248",
"a  c #DC815C",
"s  c #EB975E",
"d  c #FBBF47",
"f  c #FAAC52",
"g  c #E2BA5E",
"h  c #F6B752",
"j  c #FAB156",
"k  c #C58268",
"l  c #C48868",
"z  c #DF966A",
"x  c #EF9163",
"c  c #F39667",
"v  c #C0AC76",
"b  c #EFAE72",
"n  c #E4B07D",
"m  c #FFDB41",
"M  c #E6C65A",
"N  c #E0CF6A",
"B  c #F8C279",
"V  c #FAC67C",
"C  c #EDDA7F",
"Z  c #3DB1B5",
"A  c #3BB9BA",
"S  c #3CBBBC",
"D  c #6F9595",
"F  c #58AD9D",
"G  c #58AFB1",
"H  c #45B5B6",
"J  c #57B6B8",
"K  c #59B5B8",
"L  c #72ABAB",
"P  c #77AEAF",
"I  c #61B2B3",
"U  c #66B9BB",
"Y  c #4DC7B9",
"T  c #3FC3C4",
"R  c #4AC2C7",
"E  c #42C7C8",
"W  c #43C9CA",
"Q  c #43CACB",
"!  c #4FC8C9",
"~  c #56C4C5",
"^  c #51CECF",
"/  c #46D6D7",
"(  c #4AD1D2",
")  c #48D2D3",
"_  c #4FD1D2",
"`  c #48D4D6",
"'  c #47D7D8",
"]  c #48D7D8",
"[  c #46D8D9",
"{  c #47D8D9",
"}  c #46D8DA",
"|  c #47D8DA",
" . c #47D9DA",
".. c #46D8DB",
"X. c #46DADB",
"o. c #47DADB",
"O. c #42D8DD",
"+. c #46D8DD",
"@. c #46DADC",
"#. c #47DADC",
"$. c #47DADF",
"%. c #48D8D9",
"&. c #48D9DA",
"*. c #868988",
"=. c #929684",
"-. c #A99493",
";. c #8DAE88",
":. c #8DB082",
">. c #8DB6AF",
",. c #93B6A7",
"<. c #82B0B1",
"1. c #8DB8B8",
"2. c #9FB8B8",
"3. c #B4B6B5",
"4. c #E69C99",
"5. c #EDAD81",
"6. c #F5A98B",
"7. c #C0B9B9",
"8. c #EEBBBA",
"9. c #EFC683",
"0. c #EFD69C",
"q. c #FCD295",
"w. c #FFD999",
"e. c #D5CBAD",
"r. c #DED1B0",
"t. c #F9CCA4",
"y. c #E0CFB1",
"u. c #C7C4C1",
"i. c #CFC2C2",
"p. c #D1CBC4",
"a. c #F0DEC1",
"s. c #F0E5D4",
/* pixels */
"] ] ] ] ] ] ] ] ] ] ] ] ] ] ] ] ] ] ] ] ] ] ] ] ] ] ] ] ] ] ] ] ] ] ] ] ",
"] ] ] ] ] ] ] ] ] ] ] ] ] ] ] ] ] ] ] ] ] ] ] ] ] ] ] ] ] ] ] ] ] ] ] ] ",
"] ] ] ] ] ] ] ] ] ] ] ] ] ] ] ] ] ] ] ] ] ] ] ] ] ] ] ] ] ] ] ] ] ] ] ] ",
"] ] ] ] ] ] ] ] ] ] ] ] ] ] ] ] ] ] ] ] ] ] ] ] ] ] ] ] ] ] ] ] ] ] ] ] ",
"] ] ] ] ] ] ] ] ] ] ] ] ] ] ] ] ] ] ] ] ] ] ] ] ] ] ] ] ] ] ] ] ] ] ] ] ",
"] ] ] ] ] ] ] ] ] ] ] ] ] ] ] ] ] ] ] ] ] ] ] ] ] ] ] ] ] ] ] ] ] ] ] ] ",
"] ] ] ] ] ] ] ] ] ] ] ] ] ] ] ] ] ] ] ] ] ] ] ] ] ] ] ] ] ] ] ] ] ] ] ] ",
"] ] ] ] ] ] ] ] ] ] ] ] ] ] ] ] ] ] ] ] ] ] ] ] ] ] ] ] ] ] ] ] ] ] ] ] ",
"] ] ] ] ] ] ] ] ] ] ] ] ] ] ] ] ] ] ] ] ] ] ] ] ] ] ] ] ] ] ] ] ] ] ] ] ",
"] ] ] ] ] ] ] ] ] ] ] ] ] ] ] ] ] ] ] ] ] ] ] ] ] ] ] ] ] ] ] ] ] ] ] ] ",
"] ] ] ] ] ] ] ] ] ] ] ] ] ] ] ] ] ] ] ] ] ] ] ] ] ] ] ] ] ] ] ] ] ] ] ] ",
"] ] ] ] ] ] ] ] ] ] ] ] ] ] ] ] ] ] ] %.X.@.$.| ] ] ] ] ] ] ] ] ] ] ] ] ",
"] ] ] ] ] ] ] ] ] ] ] ] ] ] ] ] ] ] %.( G F 6 Y #.] ] ] ] ] ] ] ] ] ] ] ",
"] ] ] ] ] ] ] ] ] ] ] ] ] ] ] ] ] ] ) L 7.v 8 4 R o.] ] ] ] ] ] ] ] ] ] ",
"] ] ] ] ] ] ] ] ] ] [ [ ..+.} [ } ` P e.q.6.d p , ! &.] ] ] ] ] ] ] ] ] ",
"] ] ] ] ] ] ] ] ] _ <.>.u 0 :.1.;.,.r.V ; O : h a % T %.] ] ] ] ] ] ] ] ",
"] ] ] ] ] ] ] ] Q $ u.a.g q C s.9.0.m 3 @ Z 5 w c . A %.] ] ] ] ] ] ] ] ",
"] ] ] ] ] ] ] ] E X p.t.> = N w.z e r s < J =.M x o S %.] ] ] ] ] ] ] ] ",
"] ] ] ] ] ] ] ] W + i.4.*.& 7 f -   9 j n 3.y.B k K / ] ] ] ] ] ] ] ] ] ",
"] ] ] ] ] ] ] ] ' ^ 2.-.D O.i t * H # y b 8.5.l U { ] ] ] ] ] ] ] ] ] ] ",
"] ] ] ] ] ] ] ] ] ] ] ] ] ] ] ] ] ]  .~ 2 2 1 I X.] ] ] ] ] ] ] ] ] ] ] ",
"] ] ] ] ] ] ] ] ] ] ] ] ] ] ] ] ] ] ] %.X.X.X.{ ] ] ] ] ] ] ] ] ] ] ] ] ",
"] ] ] ] ] ] ] ] ] ] ] ] ] ] ] ] ] ] ] ] ] ] ] ] ] ] ] ] ] ] ] ] ] ] ] ] ",
"] ] ] ] ] ] ] ] ] ] ] ] ] ] ] ] ] ] ] ] ] ] ] ] ] ] ] ] ] ] ] ] ] ] ] ] ",
"] ] ] ] ] ] ] ] ] ] ] ] ] ] ] ] ] ] ] ] ] ] ] ] ] ] ] ] ] ] ] ] ] ] ] ] ",
"] ] ] ] ] ] ] ] ] ] ] ] ] ] ] ] ] ] ] ] ] ] ] ] ] ] ] ] ] ] ] ] ] ] ] ] ",
"] ] ] ] ] ] ] ] ] ] ] ] ] ] ] ] ] ] ] ] ] ] ] ] ] ] ] ] ] ] ] ] ] ] ] ] ",
"] ] ] ] ] ] ] ] ] ] ] ] ] ] ] ] ] ] ] ] ] ] ] ] ] ] ] ] ] ] ] ] ] ] ] ] ",
"] ] ] ] ] ] ] ] ] ] ] ] ] ] ] ] ] ] ] ] ] ] ] ] ] ] ] ] ] ] ] ] ] ] ] ] ",
"] ] ] ] ] ] ] ] ] ] ] ] ] ] ] ] ] ] ] ] ] ] ] ] ] ] ] ] ] ] ] ] ] ] ] ] ",
"] ] ] ] ] ] ] ] ] ] ] ] ] ] ] ] ] ] ] ] ] ] ] ] ] ] ] ] ] ] ] ] ] ] ] ] ",
"] ] ] ] ] ] ] ] ] ] ] ] ] ] ] ] ] ] ] ] ] ] ] ] ] ] ] ] ] ] ] ] ] ] ] ] ",
"] ] ] ] ] ] ] ] ] ] ] ] ] ] ] ] ] ] ] ] ] ] ] ] ] ] ] ] ] ] ] ] ] ] ] ] ",
"] ] ] ] ] ] ] ] ] ] ] ] ] ] ] ] ] ] ] ] ] ] ] ] ] ] ] ] ] ] ] ] ] ] ] ] ",
"] ] ] ] ] ] ] ] ] ] ] ] ] ] ] ] ] ] ] ] ] ] ] ] ] ] ] ] ] ] ] ] ] ] ] ] ",
"] ] ] ] ] ] ] ] ] ] ] ] ] ] ] ] ] ] ] ] ] ] ] ] ] ] ] ] ] ] ] ] ] ] ] ] "
};
