/* XPM */
static char *t1[] = {
/* columns rows colors chars-per-pixel */
"36 36 90 1 ",
"  c #0067EF",
". c #016BEF",
"X c #006CF3",
"o c #0472F2",
"O c #0B7BF5",
"+ c #0A7DFD",
"@ c #32B5DE",
"# c #36BADD",
"$ c #39BFDC",
"% c #0D80EE",
"& c #1E98E5",
"* c #1E92EA",
"= c #0B85FF",
"- c #0F89FD",
"; c #1684FB",
": c #138CFE",
"> c #1D8CFF",
", c #1E9AF1",
"< c #1591FF",
"1 c #1A94FF",
"2 c #1D98FD",
"3 c #268EFF",
"4 c #2490FF",
"5 c #2C92FE",
"6 c #229BFD",
"7 c #2E9CFF",
"8 c #3097F1",
"9 c #3198FF",
"0 c #25A2E3",
"q c #2CABE3",
"w c #2EAEEC",
"e c #2DB5E6",
"r c #29B0E8",
"t c #33B9E5",
"y c #3ABCE2",
"u c #2CA1FD",
"i c #32A7F7",
"p c #34A2FF",
"a c #35AAFC",
"s c #3BACFD",
"d c #3DB5FE",
"f c #44AFFD",
"g c #44B3FE",
"h c #44BBFE",
"j c #49BBFD",
"k c #54BFFC",
"l c #59BFFA",
"z c #3BC3DB",
"x c #3FCADA",
"c c #3EC6E0",
"v c #42CDD9",
"b c #4ADAD7",
"n c #46D4D8",
"m c #48D7D8",
"M c #49D9D8",
"N c #47C1FF",
"B c #4AC3FE",
"V c #52C5FD",
"C c #5AC7FB",
"Z c #53CBFE",
"A c #5CCBFC",
"S c #63C5F9",
"D c #6BC6F8",
"F c #60CFFD",
"G c #6DCCF8",
"H c #7ECFF6",
"J c #73C7F8",
"K c #73CFF8",
"L c #63D0FC",
"P c #7BD0F7",
"I c #75D2F9",
"U c #7CD5F8",
"Y c #86D5F6",
"T c #88D4F6",
"R c #87D9F7",
"E c #8FD9F5",
"W c #92DAF5",
"Q c #9CDAF3",
"! c #A3DCF2",
"~ c #AFDEF0",
"^ c #B4DFF0",
"/ c #B7E0EF",
"( c #BBE0EF",
") c #C5E2ED",
"_ c #C9E3ED",
"` c #D1E4EB",
"' c #DBE6EA",
"] c #E3E7E9",
"[ c #E6E8E8",
"{ c #E9E8E8",
/* pixels */
"mmmmmmmmnMnv0  qnmmmmmmmmmmmmmmmmmmm",
"mmmmmmmmnze.O==%zmmn$$zvbmmmmmmmmmmm",
"mmmmmmmM#oo:uhizmmbzXXX&#@@$mmmmmmmm",
"mmmmmmm@o<2dBaybtrew<<1OXXXo@bmmmmmm",
"mmmmmbeO1NdBa*wr212pNNBd2121Oebmmmmm",
"mmmmmt6uNZBp,qu7hBAZUTWRGGZBu6ymmmmm",
"mmmme6hZZhp+:ijCIE~~```(/!IZVh6emmmm",
"mmm@OuZZg7+=ajU~(']]])QTPCjZZZuO@mmm",
"mm#o1NALg;o:dS~'[{[[/IVhu>5dhZB1o#mm",
"mb#X2BLZ9o:hI~'{['[]!VBAh:o;9hZh:ozm",
"mm@X1CYj>:dR'[''(T/)PR!)Rd-X=9Bd2oqn",
"mm#X6K/I7dS^{[^PCdVYK([{/Sd<==pBd:.v",
"mn&OdW)RhA!'[_KdsjhpgT_['/Ida:,sBuO0",
"m$X<BW`QVB![_Tfsdgs>4sR_[{~Shiq*ah= ",
"m$X<NR')IVR(Ts7pp5535ugG~]'^Ujuqzi=.",
"mzX<NU_]/!UIf57935hg9padH'{'~A6wbzOq",
"mnzwpZ~]]]_Ha35gsJUd39gdC({[(Ih2tbzm",
"nmbe1C~][[^Cjf5hU/^J53gNdT'{'EB1rbmm",
"mmbr1BE'[]TdhB85J/(Uj5fhC/[{]~C1rbmm",
"nxmt2hI([[(Cdhs3dUJsg53aH)'[[~Zpwznm",
"qOzbw6C/'['Hdap9gj53995gPUQ/]_UN<X$m",
" =izqujU^[]~Kfu5353pp7sT(RVI)'TN<X$m",
" =ha*qahI)'[_Ts3>sgdagT)[!BVQ`WB1Xzm",
"0OuBa,:ajD^{[)Tf9hNddI_['!FhT(RdO&vm",
"x.:dBp==:dI~'{(PHCdCP~{{~Sd7I(G6X#mm",
"n@o2dBp+X:dS!!RU)/T/']'~Id:>V!G1X@mm",
"mzo:NZh7;.:hABC!]{'{{{_Dd:o9AIV1X#bm",
"nM@o1NZgd7>7hVI~]{{{'~Ij:X;dLFN1o#mm",
"mmmeOuZZLCVITQ)']]'(~Uha=+7hZZuO@mmm",
"mmmbe2hZLI!()`'`~~EIAja:+phZZh6emmmm",
"mmmmbt2uNZGKEWRUZCBh6uq,pBZNu6tmmmmm",
"mmmmmbe%<126dNNNp112wq*sBdh1Otbmmmmm",
"mmmmmmm@oXXXO1:<wewtb$aBd1:o@mmmmmmm",
"mmmmmmmm$@@#&XXXzbmbzihu:oo#mmmmmmmm",
"mmmmmmmmmmbbvzz$nmmz%==Ooqznmmmmmmmm",
"mmmmmmmmmmmmmmmmmmmmqX 0xnMMmmmnmmmm"
};
