/* XPM */
static char *t2[] = {
/* columns rows colors chars-per-pixel */
"36 36 151 2 ",
"   c #016EEF",
".  c #0672EF",
"X  c #0B7AED",
"o  c #107EEB",
"O  c #026CF2",
"+  c #006CF8",
"@  c #0672F2",
"#  c #0B73F3",
"$  c #0679F2",
"%  c #0B7AF1",
"&  c #0671F9",
"*  c #0872F9",
"=  c #027BFC",
"-  c #0A7CFD",
";  c #127CF6",
":  c #2FB1DF",
">  c #31B4DE",
",  c #36BBDD",
"<  c #38BFDC",
"1  c #0E83ED",
"2  c #1486E6",
"3  c #1183EC",
"4  c #168DEA",
"5  c #1A8CEE",
"6  c #1C92E9",
"7  c #1B98EB",
"8  c #0F81F6",
"9  c #0D84FE",
"0  c #0F8AFE",
"q  c #1281F4",
"w  c #1384FD",
"e  c #1E86FF",
"r  c #128BFF",
"t  c #1C8AFE",
"y  c #1491F7",
"u  c #1D9AF3",
"i  c #1592FC",
"p  c #1D93FE",
"a  c #1E99FB",
"s  c #2B8CE8",
"d  c #239DE2",
"f  c #2492EF",
"g  c #359DEC",
"h  c #228CF6",
"j  c #2086FE",
"k  c #258EFE",
"l  c #2491F0",
"z  c #2299F6",
"x  c #2494FE",
"c  c #2992FF",
"v  c #269AFF",
"b  c #2A9CFE",
"n  c #349DFE",
"m  c #25A2E3",
"M  c #28A7E2",
"N  c #2BAAE1",
"B  c #23A2EC",
"V  c #2DA7EF",
"C  c #2BABEB",
"Z  c #2BB0E6",
"A  c #2DB2E8",
"S  c #32B3E6",
"D  c #34BAE4",
"F  c #39BDE4",
"G  c #3BB7EB",
"H  c #24A4F0",
"J  c #2BA3F4",
"K  c #26A0F8",
"L  c #2DA3FD",
"P  c #30AAF7",
"I  c #3BADF6",
"U  c #34A4FE",
"Y  c #39A4FE",
"T  c #34ACFE",
"R  c #3BACFD",
"E  c #37B1FF",
"W  c #3BB3FE",
"Q  c #3CB9FE",
"!  c #41A6FD",
"~  c #43ACFD",
"^  c #42B6FD",
"/  c #49B4FC",
"(  c #44BCFE",
")  c #4BBEFD",
"_  c #53B6FB",
"`  c #53BCFB",
"'  c #6DBEF8",
"]  c #3DC5DB",
"[  c #3EC9DC",
"{  c #35C0E1",
"}  c #3CC4E2",
"|  c #41C5DD",
" . c #41CBDC",
".. c #47D6D7",
"X. c #4ADBD7",
"o. c #46D4D8",
"O. c #48D7D8",
"+. c #49D9D8",
"@. c #44C7E4",
"#. c #44CBE2",
"$. c #46C0FE",
"%. c #4CC3FE",
"&. c #4FCAFE",
"*. c #54C4FC",
"=. c #5AC4FB",
"-. c #53CBFE",
";. c #5CCBFC",
":. c #5CD1FE",
">. c #6CC7F7",
",. c #62C4F9",
"<. c #64CCFB",
"1. c #6BCDF9",
"2. c #71C7F7",
"3. c #73CAF7",
"4. c #7BCEF7",
"5. c #71CDF9",
"6. c #64D0FC",
"7. c #6CD1FB",
"8. c #7ED2F7",
"9. c #74D3F9",
"0. c #7BD4F8",
"q. c #85CDF4",
"w. c #83D5F7",
"e. c #8AD4F5",
"r. c #8BD8F6",
"t. c #81D6F8",
"y. c #8DDDFA",
"u. c #95D5F3",
"i. c #98D4F2",
"p. c #94D9F4",
"a. c #9CDBF3",
"s. c #95DEFA",
"d. c #B4DDEF",
"f. c #B9DEEF",
"g. c #A0D7F1",
"h. c #A3DCF2",
"j. c #ACDEF1",
"k. c #B1DEF0",
"l. c #9EE0F8",
"z. c #B6E0EF",
"x. c #BCE1EF",
"c. c #B7E1F0",
"v. c #BDE3F1",
"b. c #C5E2ED",
"n. c #CBE3EC",
"m. c #D4E5EB",
"M. c #DCE6EA",
"N. c #ECE9E7",
"B. c #E2E7E9",
"V. c #E7E8E8",
"C. c #E9E8E8",
/* pixels */
"O.O.O.O.O.O.O.O.o...O.O.O.O.O.O.X.o.[ [ o.] [ [ [ ..........O.O.O.O.O.O.",
"O.O.O.O.O.O.O.O.o.] ] , [ O.....] , . 1 M O O     N ..X.X...O.O.O.O.O.O.",
"O.O.O.O.+.+.O.+.o.. O . N X.....1 . 0 9 $ 0 0 0 0 8 D D , X.O.O.O.O.O.O.",
"O.O.O.O.O.+.X.> A a p u X.O.X.} a v E T T $.( $.$.( v r % > X.O.O.O.O.O.",
"O.O.....+.> d $ j $.) F X.F C K R $.,.3.0.t.g.0.:.;.*.T - 2 X.X.+.O.O.O.",
"O.....X.X.7 * w U &.I  .V P b ` =.t.z.n.x.h.e.,.%.%.$.) b h B 7 , +.O.O.",
"O.O.....X.7 x U $.( | @.U ^ ;.p.k.m.M.b.p.5.T n n n W -.%.R p + N X.O.O.",
"O.O.X.> o q W &.( n y L ) 1.r.n.B.V.b.t.-.$.R w # # x W ^ W L - Z O.O.O.",
"O.O.X.S j U *.( T 9 t T 2.x.m.V.N.V.h.;.) 9.3.v - = $ t b &.%.Q b o ] +.",
"O.X.O.G Y ^ %.E r t W ( e.M.N.V.B.V.h.9.w.b.k.<.) W T t y @.I %.^ % , +.",
"O.o.S b %.;.Q 0 O h ( 7.x.N.N.B.d.n.h.w.n.V.V.b.u.6.-.T a  .> f b # , ..",
"O.< # Y -.=.^ 9   Y 8.h.n.m.n.h.) =.3.` a.B.B.V.M.p.7.) E P }  .Z . ] X.",
"O.< # Y <.0.` 9 ; ) x.N.m.8.6.-.) W Y b ~ h.x.j.m.m.b.j.9.$.v C X.N [ X.",
"O.< # Y ,.9.Q k ~ 9.n.N.n.,.Q Q ( U k e c ! _ ;.j.B.N.B.u.) U z ] X.X...",
"+.< # n >.h.8.W -.r.n.N.m.' U E E x k c n L L %.a.B.V.V.n.r.` t A X.+.+.",
"+.< # b =.x.j.;.-.0.n.M.u.~ U U n U / Y b E W %.7.j.B.N.N.b.;.T L 6 ] +.",
"X.< O v %.x.n.9.) ;.a.e.R c c L R <.y.*.L b Y %.$.u.B.V.C.m.w.) b O < +.",
"X.< # n =.x.V.b.9.0.t.9.^ k e Y <.l.c.l.*.b b R ,.j.M.B.B.M.a.%.T k X | ",
"..] ; x W =.b.V.M.B.M.g.=.R v P <.l.v.s.-.L t c ) 0.t.9.w.n.m.a.) v . [ ",
"....> # W &.w.M.V.N.M.e.$.%.g s U ;.y.*.R b c n =.p.p.) ) r.b.a.) p 2 | ",
"..X.< 6 L T <.n.N.V.M.h.6.$.W E n R / U b L U ` h.M.b.7.-.1.k.h.` r N ..",
"..O.O.X.C b =.a.n.V.N.M.w.) L L n c c x E E E q.M.N.n.t.&.~ w.a.,.x . ] ",
"O.O.O.+.{ K T ;.h.V.N.M.p.-._ ! c j c R Q Q Q q.M.N.d.*.U x ` p.,.x . ] ",
"O.O.+.+.X.B b -.t.j.n.V.n.j.x.u.Y c Y ^ ) -.1.u.M.n.e.U & i <.r.<.b . | ",
"O.+.< 2 > [ } L ^ *.9.g.m.V.V.M.i.,.5.=.` c.n.m.m.p.;.t   r ) =.&.v   ] ",
"O.+.> # c 4 < | z W ;.7.p.M.V.N.b.t.f.n.f.V.N.C.x.9.( w   p ) ;.) v S ..",
"O.+.> ; ) $.g | 0 t R W ` 9.h.k.8.0.b.V.C.C.C.M.t.( R w t W &.^ b G O.+.",
"O.+., ; v ( &.&.v w @ = w U =.:.) <.b.V.C.C.n.v.,.T w w E ( %.n e F +.O.",
"O.O.O.> $ 9 L &.) E w . * t / ) ;.r.n.N.V.b.w.9.) J y U ^ &.T w 1 < +.O.",
"O.O.O.X.d + x ( -.&.W Y ! Y T w.a.n.M.b.j.e.&.R L #. .&.W T y m X.O.O.O.",
"O.O.O.X.> 7 H h R %.) =.9.1.8.c.b.n.j.7.=.) b J J N R &.b w * m X.O.O.O.",
"O.O.O...X.X.X.o w W :.:.1.w.a.0.0.3.=.) T K C | X.l ( ( * % d , +.O.O.O.",
"O.O.O.O.O.O.O.> % t T ( Q Q ) ( T E E v a ] X.+.+.z a p N , X.+.O.O.O.O.",
"O.O.O.O.O.O.O.+., D A 8 r r 0 0 $ 8 0 O 4 +.O.+.m . O X o.X.o.+.O.O.O.O.",
"O.O.O.O.O.O.O.O.O.X.o.M     @   N X $ , ] O.O.O.[ , , ] O.O.O.O.O.O.O.O.",
"O.O.O.O.O.O.O.O.O.O.O.o.] [ [ ] ..[ [ X.+.O.O.O.O.+.+.+.O.+.o.O.O.O.O.O."
};
