/* XPM */
static char *t3[] = {
/* columns rows colors chars-per-pixel */
"36 36 106 2 ",
"   c #016AEE",
".  c #0874EA",
"X  c #0C7FEB",
"o  c #016DF3",
"O  c #086FF2",
"+  c #0474F2",
"@  c #0A71F1",
"#  c #097BF6",
"$  c #0373F8",
"%  c #0E78F8",
"&  c #2DADDF",
"*  c #2EB0DE",
"=  c #33B6DD",
"-  c #38BFDC",
";  c #1E98E4",
":  c #1890E8",
">  c #0D80F7",
",  c #0C84FC",
"<  c #1382F6",
"1  c #1384FD",
"2  c #1987FF",
"3  c #148EFF",
"4  c #1C8AFF",
"5  c #1796F5",
"6  c #1C9CF1",
"7  c #1A94FF",
"8  c #239FE1",
"9  c #229DEB",
"0  c #208BF6",
"q  c #248DFE",
"w  c #288EFF",
"e  c #2D99F1",
"r  c #2790FF",
"t  c #2993FF",
"y  c #269CFF",
"u  c #2B9BFE",
"i  c #3296FF",
"p  c #349CFF",
"a  c #22A3E9",
"s  c #31A9EF",
"d  c #32B6E1",
"f  c #30B8E4",
"g  c #3ABCE9",
"h  c #26A4F3",
"j  c #29A0F6",
"k  c #2BA2FE",
"l  c #34A4FF",
"z  c #34AAFF",
"x  c #39ADFE",
"c  c #37B3FD",
"v  c #3CB4FE",
"b  c #40AFFC",
"n  c #41B8F4",
"m  c #42B6FE",
"M  c #44BBFE",
"N  c #49BCFD",
"B  c #51BFFB",
"V  c #3CC5DB",
"C  c #3FCADB",
"Z  c #3FC7E5",
"A  c #41CDDB",
"S  c #4ADAD7",
"D  c #45D1DB",
"F  c #48D7D8",
"G  c #49D9D8",
"H  c #45CEE0",
"J  c #46C1FF",
"K  c #4CC4FE",
"L  c #4EC8FE",
"P  c #54C1FC",
"I  c #5DC4FA",
"U  c #53C9FE",
"Y  c #5ACCFD",
"T  c #5CD1FE",
"R  c #61C4F9",
"E  c #64CCFB",
"W  c #6BCEFA",
"Q  c #67D4F7",
"!  c #61D1FD",
"~  c #6DD0FA",
"^  c #7ED3F7",
"/  c #74D2F9",
"(  c #7CD3F8",
")  c #8ECFF3",
"_  c #83D5F7",
"`  c #89D6F6",
"'  c #87D8F6",
"]  c #80D6F8",
"[  c #92D7F4",
"{  c #9AD1F1",
"}  c #94D9F5",
"|  c #9DDBF3",
" . c #BBDFEE",
".. c #A4DBF2",
"X. c #ACDDF1",
"o. c #B0DFF0",
"O. c #A7E1ED",
"+. c #BBE0EF",
"@. c #C2E1ED",
"#. c #CCE3EC",
"$. c #D5E5EB",
"%. c #DCE6EA",
"&. c #EBE9E7",
"*. c #E3E7E9",
"=. c #E6E8E8",
"-. c #E9E8E8",
/* pixels */
"F F F F F F F F F F F F F F G G V .     $ $ ; C V F G F F F F F F F F F ",
"F F F F F F F F F F F F S A - - >   , , , # > #   & V G F F F F F F F F ",
"F F F F F F F F F F S A = : O @ , 3 c v N N n u < + + = F F F F F F F F ",
"F F F F F F S S F F S f o > u l M v _ I L T U M M k 3 + f F G F F F F F ",
"F F F F S S * 8 D G F C h c J W } ` #.R m N U L U K v 7 , a = S F F F F ",
"F F F S = 9 4 % C G A s n E _ o.%.O._ p u u u l m c K J k 3 9 S F F F F ",
"F F S S a 4 x g D 6 j z K ^ @.#. .R m q 2 1 $ @ 1 3 K M v l 0 * S F F F ",
"F F S f , u m D D , x Y _ X.%.@./ U U M z y 2 4 w , H H D g @ & S F F F ",
"F F = + 7 J N H 5 u M ^ #.*.-. .B N } ..` Y M N m u c 5 A D C A F F F F ",
"S V + 3 v J K Z c U / ..-.-.-. .^ _ %.=.%. .X.` / W U u , 6 S G F F F F ",
"F *   k L v 3 % u Q *.=.-.=.*.+.' +.*.=.-.-.-.$.%.*./ N x j A S S F F F ",
"V   > J U m 1 w m / %.-.*.#...[ W P | X.+.@.$.*.-.=...( Y z s C d A F F ",
"C # y N L l O 0 N ' $.*.#.[ B M x t x m M Y } #.=.-.-.#.] K n h o d S F ",
"; > M U L k # 1 B X.&.$.} E m M p 2 w l l M E [ #.=.-.*.X.( E c > : A F ",
"$ > N ! K t , y ] #.&.@.Y M c m p w i l c c v K ..=.&.-.%.@.] J y @ - S ",
"o , M T Y l 2 z ` *.&. .m l c t k N l w t v N N [ +.+.+.@.#.X.~ l   V S ",
"o , c U U l q x ( *.*.X.m l l r z / m z l i p x W _ ( B (  .$.} M , > C ",
"  , c Q O.( v K [ %.*...x t i l m X.X./ M w q t P +.( N U I o.) v 3   . ",
". o 3 J .. .R L N ( @.B u 2 w M / X.X.m l i w c ..*.%.} K v ( @._ v ,   ",
"V X , M _ #.+./ P ( ` W x p l l l m / l q l l M X.*.*.( x q p W R c ,   ",
"S - @ l ~ X.#.@. . . .[ N N v e q l M l w l l m +.-.%.^ l 2 k Y ! M , + ",
"F - O y J ] @.%.&.&.*...N m v c l i w p b c m Y @.-.X.P y 1 u P ! M > $ ",
"F A : > x E ^ X.*.&.*.#.} E M l l w 2 p N m E } $.-.X.x 2 $ u L U m > ; ",
"F S = o h n K _ #.*.&.&.#.} Y M m v r x M K [ #.=.$.X.N 0 @ l L N y # C ",
"F F A d A s z Y _ ..*.&.*.$. .+.X.| B W [ ..#.=.-.%.( m w , m U M >   C ",
"F F F S F A j x m ( *.%.$.&.&.&.=.*.@._ +.*.=.-.=.*.W u , 3 v K k o * F ",
"F F F F F S 6 , u U Q ( ..X.X.%.*.%._ ^  .-.-.-.../ U c Z K K v 3 + V S ",
"F F F F A C D D 5 c u m N m B ^ ^ [ N P  .-.*.#.^ N u 5 H N J 7 + d F F ",
"F F F S a % g D H Z , r 0 1 y z x K L / @.%.o._ Y x , A D m k , f F F F ",
"F F F S & 0 x m N K 3 , @ $ 1 2 q v I +.#.@.( K z j 6 A g z 3 a S F F F ",
"F F F F S 9 2 k J J v m l p y k l ( +.#.o._ E n s A S A % 4 9 = S F F F ",
"F F F F S = a , 7 v K U L U P I E #.{ _ W J c h A S G A 8 = S S F F F F ",
"F F F F F S S f + 3 k J J U ! ! I _ v N l y > o d S F F S S F F F F F F ",
"F F F F F F F S = +   < k v N M v c 3 , @ @ : = A S F F F F F F F F F F ",
"F F F F F F F F S V &   # > > , , , o X V - C G F F F F F F F F F F F F ",
"F F F F F F F F F S D V C ; o +     . C F F G F F F F F F F F F F F F F "
};
