/* XPM */
static char *t4[] = {
/* columns rows colors chars-per-pixel */
"36 36 113 2 ",
"   c #0066EE",
".  c #016AEE",
"X  c #0570EB",
"o  c #0975EB",
"O  c #026EF1",
"+  c #0574F3",
"@  c #0975F3",
"#  c #0B7CF6",
"$  c #0072F9",
"%  c #0D76F8",
"&  c #0178FB",
"*  c #0E7EFD",
"=  c #137FF6",
"-  c #137FFA",
";  c #2DADDF",
":  c #2EB0DD",
">  c #32B7DF",
",  c #36BCDC",
"<  c #1587E6",
"1  c #1D94E4",
"2  c #1E98E4",
"3  c #0D80F7",
"4  c #0D84FD",
"5  c #0D88FF",
"6  c #1483F6",
"7  c #1D85F6",
"8  c #1289F6",
"9  c #198AF7",
"0  c #128AFF",
"q  c #1A8AFF",
"w  c #1A90F4",
"e  c #1B96FF",
"r  c #2187FA",
"t  c #228FFF",
"y  c #2593FD",
"u  c #2C93FF",
"i  c #269BFF",
"p  c #2C9DFE",
"a  c #3299F1",
"s  c #3295FF",
"d  c #329DFE",
"f  c #25A1E1",
"g  c #2BAAE0",
"h  c #22A5E9",
"j  c #2BA7EA",
"k  c #2EA8EF",
"l  c #32B1EF",
"z  c #2CA7F0",
"x  c #2CA2FF",
"c  c #35A4F7",
"v  c #35A9F3",
"b  c #33A3FE",
"n  c #38A6FD",
"m  c #34A9FF",
"M  c #3BABFE",
"N  c #3BB5F3",
"B  c #36B0FE",
"V  c #3BB3FF",
"C  c #3EB8FE",
"Z  c #43B6FE",
"A  c #44BBFE",
"S  c #4ABCFC",
"D  c #56BEFC",
"F  c #5ABDFC",
"G  c #3CC5DB",
"H  c #3FCBDB",
"J  c #39C5E0",
"K  c #3DC1F0",
"L  c #43CEDC",
"P  c #4ADAD7",
"I  c #46D4D8",
"U  c #48D7D8",
"Y  c #49D9D8",
"T  c #4ACDEF",
"R  c #47C1FF",
"E  c #4CC4FF",
"W  c #54C4FC",
"Q  c #5CC4FB",
"!  c #54CAFE",
"~  c #5ACAFD",
"^  c #5CD0FE",
"/  c #65C7F9",
"(  c #61C8FB",
")  c #6DCCFA",
"_  c #75CEF7",
"`  c #78CFF7",
"'  c #71CEF9",
"]  c #6FD8F7",
"[  c #6FD4FA",
"{  c #7ED2F7",
"}  c #74D4F9",
"|  c #7CD4F8",
" . c #84CFF5",
".. c #83D5F7",
"X. c #8BD6F5",
"o. c #92D4F4",
"O. c #9BD6F2",
"+. c #93DAF4",
"@. c #9CDBF3",
"#. c #B5DFEF",
"$. c #A4DCF2",
"%. c #ABDCF1",
"&. c #B0DFF0",
"*. c #BDE1EE",
"=. c #B4E0F0",
"-. c #C3E2ED",
";. c #CBE3EC",
":. c #D3E4EB",
">. c #DCE6EA",
",. c #EEE9E7",
"<. c #E3E7E9",
"1. c #E6E8E8",
"2. c #E8E8E8",
/* pixels */
"U U U U U U U U U U I H H 1 $ O . O $ + $ .   f I U U U U U U U U U U U ",
"U U U U U U U U I G : . # 3 3 5 5 p 0 u 5 0 # . g U U U U U U U U U U U ",
"U U U U U U U U I X X 6 i A S A C ! A A R E y 8 J P P U U U U U U U U U ",
"U U U U U U U I g @ e C R W ^ E E R R m N T j , P P P U U U U U U U U U ",
"U U U U U U U U o 4 V S ] ^ E C x e 9 h : P U P U U U U P U U U U U U U ",
"U U U U U U g 1 # p Z o.X.C m 9 @ 4 7 k l K N v k L U 1 f P P U U U U U ",
"U U U U U U < % x ~ o.#.) x q 3 3 x A M W Q W Z b v N r 3 < g U U U P I ",
"U U U U P f = x V ..:.@.F e i M M ! ~ ..+.+...} ~ V R V b % 1 U I U I P ",
"U U U U U 2 r V ) *.;...V D { ..` #.%.:.;.:.*.-.X.+.} ) V x 6 o : I I I ",
"U U U U I I N E } >.:...A / #.>.<.1.<.<.,.1.1.1.<.>.<.#...Q i 4 + . G P ",
"P P U U U L v V o.>.;.X.R ..:.,.1.:.%.#.>.>.1.,.:.;.:.;.:.o.A B e + ; I ",
"P l J P U k b ~ ..<.>.O.X.X.#.-.$.' S X...O.:.,.@.o.....$.#.o.S V 6 . H ",
";   8 , P k M | -.1.2.,.*.} ' S Z Z V R V F %.*.X.R A V F ) O...A p # H ",
"  @ y j P N W ..-.1.<.>.%.~ m t u s B Z A Z ~ } X.../ A t x D [ W A 3 2 ",
". 0 E T P K ~ +.:.2.>.O.Q A p s s s d p M d m } *.:.&.~ i q m E ^ A # O ",
"$ 5 R N > l D +.;.1.>...M A M s n m m m b u t A -.,.>.X.M 3 9 C ! A 5 $ ",
"+ i C m h k M ..:.<.&.X.A A d d E Z ' E n s s Z $.1.<...M - @ x E A 5 . ",
"& 0 K R 9 7 Z ^ %.<.%.S V M d m _ #.%.A m s s Z } :.2.O.W x * e R ! p O ",
"O d ! E e 4 b ! #.2.:.[ A u s m Z #.#.) d d B V S %.<.*.} S 7 9 R A 0 $ ",
"  4 A E p @ 3 A $.<.<.%.Z u s n R ' A S b p C R X.#.<.:...n k h m A i + ",
"O 5 A E Z 9 - M X.>.,.;.S y u d c m m n s M A M ..>.,.;.+.D l : N R 5 & ",
"$ * S ^ E m q i Q &.;.*.' m p Z a d s s s d A Q O.>.1.:.+.~ K U T E 5 . ",
"2 3 A W } W x t A / | X.} ( A R Z V s u t m ~ %.:.1.1.*...W N P j y # . ",
"H @ x S } ` ( F V R R X.#.$.Q M A V Z Z Z _ } *.,.2.1.-.| M l P , 6 O f ",
"H . 3 C A _ *.$...{ o.@.,.:.O. .X.S } %.-.*.X.X.@.>.1...~ m k U P J > U ",
"I ; + e B Z o.:.;.:.;.:.2.2.>.<.#.%.:.<.2.:...R X.;.>.o.V v L U U U U U ",
"P G X + 4 p ~ ..*.<.>.<.<.2.2.2.<.<.<.<.>.=./ A ..:.>.` R N I U U U U U ",
"U I I g o 6 x V ) } o.X.;.#.:.;.:.*.@...X.! A V  .;.#.' V r 2 P U U U U ",
"U U U U I 1 @ x M R V ~ } ..+.+...} W M M i t F $.:...V x = f P U U U U ",
"U U U U U ; < = r N v m Z E Q W n S x - 6 q x ) -.O.Q x % < P U U U U U ",
"U U U U U U U f 2 I L j v N K l k 7 - @ 9 m W @.o.Z p = 1 g U U U U U U ",
"U U U U U U U U U U U P P P P : h 9 e x V E } ..S B 4 o I Y U U U U U U ",
"U U U U U U U U U U U P , g T N m R E E ! ^ ! S C e + g I U U U U U U U ",
"U U U U U U U U U U P H 8 y E R A A ! C A A C x 6 + X I U U U U U U U U ",
"U U U U U U U U U U U l O # 5 5 u 0 p 5 5 # 3 @ . ; G I U U P I U U U U ",
"U U U U U U U U U U U U f . . $ O & O   + $ 2 H H I P I I P I I U U U U "
};
