/* XPM */
static char *t5[] = {
/* columns rows colors chars-per-pixel */
"36 36 113 2 ",
"   c #036EEF",
".  c #0D7EEB",
"X  c #026EF3",
"o  c #0572F6",
"O  c #0A7CF4",
"+  c #0172F9",
"@  c #067BFD",
"#  c #0C7DFD",
"$  c #127FF9",
"%  c #2CACDF",
"&  c #39AFDF",
"*  c #2FB0DE",
"=  c #37BCDC",
"-  c #0F85EE",
";  c #1085EE",
":  c #1C93E5",
">  c #1F98E4",
",  c #1B95EA",
"<  c #1F98E9",
"1  c #0782FA",
"2  c #0A82FD",
"3  c #1182F4",
"4  c #1485FA",
"5  c #1B83FB",
"6  c #148DFE",
"7  c #1A8DFF",
"8  c #1D97F0",
"9  c #1790FD",
"0  c #1C93FC",
"q  c #219BE3",
"w  c #2C8BF2",
"e  c #2285FA",
"r  c #248EFF",
"t  c #288FFF",
"y  c #239BF2",
"u  c #2197FF",
"i  c #2D91FF",
"p  c #279AFE",
"a  c #2A9CFE",
"s  c #329BFF",
"d  c #2DAEE0",
"f  c #2DADEC",
"g  c #2CB2E5",
"h  c #31BAE3",
"j  c #34B5EA",
"k  c #37BBEA",
"l  c #2DA8F0",
"z  c #2DA1FF",
"x  c #2FA8FE",
"c  c #33A5F7",
"v  c #31ADF7",
"b  c #32A4FE",
"n  c #39A7FE",
"m  c #36ACFE",
"M  c #3BACFE",
"N  c #35B0F1",
"B  c #3CB3FE",
"V  c #3FB9FF",
"C  c #43ADFD",
"Z  c #42B3FD",
"A  c #49B7FB",
"S  c #44BCFE",
"D  c #48BBFD",
"F  c #53BCFB",
"G  c #3CC4DB",
"H  c #3ECBDC",
"J  c #36C1E1",
"K  c #41CCD9",
"L  c #48D7D7",
"P  c #4ADAD7",
"I  c #47D5D8",
"U  c #48D7D8",
"Y  c #49D8D8",
"T  c #47C6F1",
"R  c #45C0FE",
"E  c #4CC4FE",
"W  c #55C1FC",
"Q  c #52CAFE",
"!  c #5ACCFD",
"~  c #64C6F9",
"^  c #6EC5F8",
"/  c #62CBFB",
"(  c #6ACDFA",
")  c #75CDF7",
"_  c #7DCEF6",
"`  c #74CEF8",
"'  c #64D0FC",
"]  c #6DD2FA",
"[  c #7ED2F7",
"{  c #74D1F9",
"}  c #7AD4F8",
"|  c #84D4F6",
" . c #8DD6F5",
".. c #8BD8F6",
"X. c #82D6F8",
"o. c #93D7F4",
"O. c #94D9F4",
"+. c #9DDBF3",
"@. c #B7DFEF",
"#. c #B8DFEF",
"$. c #A7D9F1",
"%. c #ADDCF0",
"&. c #B2DFF0",
"*. c #BBE0EF",
"=. c #B3E1F0",
"-. c #C5E3ED",
";. c #CDE3EC",
":. c #D1E4EB",
">. c #DCE6EA",
",. c #EDE9E7",
"<. c #E3E7E9",
"1. c #E6E8E8",
"2. c #E9E8E8",
/* pixels */
"U U U U U U U U Y Y I G K > + o   # @ . K Y U U U U I P I I Y I U U U U ",
"U U U U U U U Y Y Y d X X O 7 7 s B u o q Y U Y Y U I I I Y I Y U U U U ",
"U U U U U U U = h g 3 6 6 x B V Q A y q Y Y U G I P P P U U Y I U U U U ",
"U U U U U U P ; 2 9 V B S S n c T & L P H J P < , % % % I U U Y U U U U ",
"U U U U U P * 1 a E / E Q M 7 , H h f j j 0 k v $ o o O Y P U U U U U U ",
"U U U U Y % O 7 S E ! R B 5 X , l p a b A b m E M z a 2 : : % P U U U U ",
"U U U U L : $ C ( Q E p 2 # 5 p B _ ( ( o.) ( ..[ ! ~ x e 5 O * P I U U ",
"U U U U L : e C  .{ m @ o u S S _ ;.*.*.>.;.=.:.-.@.%.A C n 7 1 - = P U ",
"U U Y * O 2 x A %.| m @ 9 R ' X.#.<.<.,.,.<.<.<.;.$.*.@. .( S a 2 h P U ",
"U U L % o a ~ %.#.` B Q ( | =.:.>.2.<.<.<.,.;.o. .F ( { { ] ! E 9 g L U ",
"U U Y % o z ! @.%.F S X.:.1.2.;.o.;.&.$.&.<.#.~ E S V x m E ! ' V 3 % I ",
"U U K q $ m _ -.;.| Q } :.,.1.&.F [ E A O.+.X.} } ] E @ @ p R E B 6   H ",
"U U G y v E ..:.<.O.~ } *.-.=.) M S B E ( ~ X.#.;.%.F 9 o 2 B Q R 6   K ",
"U U Y P k m ( #.<.;.*.X.| F C M s M n Z C a F -.,.>...D 0 # 5 B S z O > ",
"U Y Y J 0 b ) ;.1.2.>.+.~ p r a s s i i t t C =.1.2.#.' S 5 o 6 n B 6 o ",
"K q Y K N D  .>.2.<.*.O./ M r i b u b B i a B ` =.;.>.o.! p , , z S 7 o ",
"- o q P k b ( *.1.<.$.S E Z t Z Z ^ ) S b s s C F o.>.:.[ B l K T Q a   ",
"@ r y L f p ( #.1.1.#.E B n t m ) *.&.^ u s n D [ ;.,.<.:._ z j & D Z # ",
"@ B A & j a _ :.<.1.;.[ S M s r ^ #.#.) m r n B E #.<.,.#.( p f Y y r @ ",
"  s Q T K l B } #.>. .F C s s b S ) ^ S Z i Z E S $.<.<.*.( m j P q o . ",
"  0 S c , , p S ..<.;.%.) M s i Z c r b i r n ' O.#.<.2.>.o.S v K U q K ",
"o 9 B b 7 X 5 S | ;.2.1.&.C r t t w n s s r p ~ +.>.,.2.;.) s y J P Y Y ",
": O z S B 5 # u W ..>.,.-.F b M Z n S s M C F | X.#.;.<.=.' m k P P U U ",
"H   6 E Q B 2 o 6 W %.:.*.| ~ ( E B A C ` =.-.#.} ~ o.<.:...E v , G Y U ",
"G   6 B E E p @ @ E ] } } [ +.O.A E [ F %.1.,.;.} Q ..;.-._ m $ : K Y U ",
"I % 3 V ! ! E m x V S Q ~ =.>.#.$.&.;. .;.1.>.%.] S F %.@.! z o % P U U ",
"Y I g 0 E ! ' ' { ( F ..O.;.,.<.1.1.1.<.>.*.O.W E B ( *.%./ p o % P U U ",
"Y P h # b S Q ] $.*.%.;.<.<.1.2.1.<.1.:.O.' D 6 @ x { %.A b 2 O % P U U ",
"Y Y = ; 1 5 n Z A %.@.-.:.&.;.>.*.*.;.} Q S u o @ m { o.Z e : L I U U U ",
"I U Y Y * O 5 e b ! W [ ..( ) o.( ( _ B p 5 @ 4 p E ] ' n 5 : P U U U U ",
"Y I U U P % : : 4 z z m E M s S b p z f 8 X 4 B S ! ! S 5 O % P U U U U ",
"I Y U U Y Y Y I O o o 3 x k y v k f j K , 7 B Q E ( E b 1 % P L U U U U ",
"Y U U U U U U I * d % : q P J J P Y j T c c D R B V 9 2 - P U U U U U U ",
"U U U U U U U U Y Y P K G U P P q 8 A Q V B z 6 6 3 g h = U U U U U U U ",
"U U U U U U U U U U U U Y Y P q o i Z s 7 6 O   X d Y P P U U U U U U U ",
"I U U U U U U Y U U U U Y Y Y K . @ 2 X o o > H G I U U U U U P U U U U "
};
