/* XPM */
static char *up1[] = {
/* columns rows colors chars-per-pixel */
"40 40 167 2 ",
"   c #000100",
".  c #080401",
"X  c #020C03",
"o  c #0A040C",
"O  c #071607",
"+  c #0D1D0D",
"@  c #171E08",
"#  c #281607",
"$  c #2A1C07",
"%  c #201F09",
"&  c #221A04",
"*  c #3B1800",
"=  c #331D0A",
"-  c #0E200D",
";  c #10250F",
":  c #0C2C13",
">  c #122311",
",  c #152B13",
"<  c #173715",
"1  c #2D230A",
"2  c #34250A",
"3  c #39260A",
"4  c #3C290B",
"5  c #452D0D",
"6  c #4A2F0D",
"7  c #4B300E",
"8  c #53330D",
"9  c #412B10",
"0  c #4B2B11",
"q  c #4D3110",
"w  c #533411",
"e  c #593611",
"r  c #5C3812",
"t  c #61370E",
"y  c #64390F",
"u  c #753D05",
"i  c #633B12",
"p  c #6A3E12",
"a  c #633711",
"s  c #743118",
"d  c #443323",
"f  c #622B26",
"g  c #673827",
"h  c #174318",
"j  c #1C441A",
"k  c #1A4217",
"l  c #005A1A",
"z  c #21451A",
"x  c #234C1E",
"c  c #284A1F",
"v  c #22501E",
"b  c #2E4B25",
"n  c #285321",
"m  c #305B27",
"M  c #315628",
"N  c #325E29",
"B  c #34652B",
"V  c #346C2C",
"C  c #396C2F",
"Z  c #346026",
"A  c #39722E",
"S  c #3B7331",
"D  c #3B7B31",
"F  c #734113",
"G  c #7D4412",
"H  c #7A471A",
"J  c #7F452E",
"K  c #70582D",
"L  c #655039",
"P  c #7E503E",
"I  c #73523B",
"U  c #407F36",
"Y  c #844101",
"T  c #83440F",
"R  c #995600",
"E  c #9A5908",
"W  c #9D5B06",
"Q  c #834613",
"!  c #834914",
"~  c #8D4B14",
"^  c #8B4713",
"/  c #904E14",
"(  c #935113",
")  c #945816",
"_  c #9B5B14",
"`  c #96561C",
"'  c #9D6217",
"]  c #A86500",
"[  c #A8690D",
"{  c #A16117",
"}  c #AB6C19",
"|  c #B1731A",
" . c #B7781A",
".. c #975721",
"X. c #995A26",
"o. c #8B5333",
"O. c #8A523B",
"+. c #8F583E",
"@. c #825634",
"#. c #9E5637",
"$. c #975B38",
"%. c #A15C39",
"&. c #9E6836",
"*. c #895B41",
"=. c #916047",
"-. c #AF7342",
";. c #B27645",
":. c #B87848",
">. c #A5795A",
",. c #B57D51",
"<. c #3F8936",
"1. c #3F8435",
"2. c #418136",
"3. c #418E37",
"4. c #428738",
"5. c #468D3B",
"6. c #45913A",
"7. c #48933D",
"8. c #4F9540",
"9. c #4C9D41",
"0. c #4EA043",
"q. c #51AF45",
"w. c #52AA46",
"e. c #54B147",
"r. c #57B54A",
"t. c #59BB4C",
"y. c #5CC24E",
"u. c #5EC750",
"i. c #5FC951",
"p. c #BF833B",
"a. c #B58054",
"s. c #AA8265",
"d. c #D58B4F",
"f. c #CC9048",
"g. c #D1964D",
"h. c #D38D56",
"j. c #D7915A",
"k. c #D69D5F",
"l. c #D99053",
"z. c #E0965C",
"x. c #DBA15B",
"c. c #C5946F",
"v. c #DA9660",
"b. c #C59771",
"n. c #D59D71",
"m. c #E09C66",
"M. c #DFA172",
"N. c #E3A964",
"B. c #E2A06C",
"V. c #E7A773",
"C. c #E6A876",
"Z. c #E9AD7B",
"A. c #E4AB7A",
"S. c #DEAC83",
"D. c #ECB385",
"F. c #EFB98C",
"G. c #E9B58A",
"H. c #F3BA8B",
"J. c #F4C396",
"K. c #FACA9C",
"L. c #FCCEA1",
"P. c #FFD5A8",
"I. c #FFD9AB",
"U. c #FFD3A5",
"Y. c #FFDCB0",
"T. c #FFE2B6",
"R. c #48D7D8",
/* pixels */
"R.R.R.R.R.R.R.R.R.R.R.R.R.R.R.R.R.R.R.R.R.R.R.R.R.R.R.R.R.R.R.R.R.R.R.R.R.R.R.R.",
"R.R.R.R.R.R.R.R.R.R.R.R.R.R.R.R.R.R.R.R.R.R.R.R.R.R.R.R.R.R.R.R.R.R.R.R.R.R.R.R.",
"R.R.R.R.R.R.R.R.R.R.R.R.R.R.R.R.1 1 0 0 9 0 0 1 @ R.R.R.R.R.R.R.R.R.R.R.R.R.R.R.",
"R.R.R.R.R.R.R.R.R.R.R.R.R.R.% w e _ | | | | | ( Y 4 R.R.R.R.R.R.R.R.R.R.R.R.R.R.",
"R.R.R.R.R.R.R.R.R.R.R.R.R.5 ! | | ~ ~ ~ ~ ~ ^ [ N.] F 4 R.R.R.R.R.R.R.R.R.R.R.R.",
"R.R.R.R.R.R.R.R.R.R.R.R.4 i { / ~ / / / / / / ~ Y _ ) e 2 R.R.R.R.R.R.R.R.R.R.R.",
"R.R.R.R.R.R.R.R.R.R.R.R.3 e ' ( / / / / / / / / / ` ) q 2 R.R.R.R.R.R.R.R.R.R.R.",
"R.R.R.R.R.R.R.R.R.R.R.R.9 { { ^ / / / / / / / ~ ( } ( ~ 1 R.R.R.R.R.R.R.R.R.R.R.",
"R.R.R.R.R.R.R.R.R.R.R.2 i G '  .X.( ` ) / ` X.| | ~ F ^ w 1 R.R.R.R.R.R.R.R.R.R.",
"R.R.R.R.R.R.R.R.R.R.R.2 w F ! [ x.R v.g.E p.N...^ F ( e r 1 R.R.R.R.R.R.R.R.R.R.",
"R.R.R.R.R.R.R.R.R.R.R.2 3 i r ~ E T &.f._ ( W F / Q p 3 5 2 R.R.R.R.R.R.R.R.R.R.",
"R.R.R.R.R.R.R.R.R.R.R.2 4 F t r / w ! ( / F ( i p Q q 4 3 3 R.R.R.R.R.R.R.R.R.R.",
"R.R.R.R.R.R.R.R.R.R.R.R.  y y w ~ 5 5 ~ q y F 3 r q 2 2   R.R.R.R.R.R.R.R.R.R.R.",
"R.R.R.R.R.R.R.R.R.R.R.R.. 3 r 5 F 1 w q 5 r e i 1 7 2 1   R.R.R.R.R.R.R.R.R.R.R.",
"R.R.R.R.R.R.R.R.R.R.R.R.R.  3 r ( 7 H 2 i F e 5 8 2 $ R.R.R.R.R.R.R.R.R.R.R.R.R.",
"R.R.R.R.R.R.R.R.R.R.R.R.R.R.  2 7 G G r i G q 2 r & R.R.R.R.R.R.R.R.R.R.R.R.R.R.",
"R.R.R.R.R.R.R.R.R.R.R.R.R.R.O.L 8 4 G F e 3 r e 1 I R.R.R.R.R.R.R.R.R.R.R.R.R.R.",
"R.R.R.R.R.R.R.R.R.R.R.R.R.O.S.I.H     F     * O >.I.c.R.R.R.R.R.R.R.R.R.R.R.R.R.",
"R.R.R.R.R.R.R.R.R.R.R.R.R.s.L.m.l.a.b.-.-.,.b.-.H.C.U.P R.R.R.R.R.R.R.R.R.R.R.R.",
"R.R.R.R.R.R.R.R.R.R.R.R.@.A.K.*.o.v.D.D.l.D.G.l.h.>.P.h.g R.R.R.R.R.R.R.R.R.R.R.",
"R.R.R.R.R.R.R.R.R.R.R.R.=.T.Z.3 d J.I.F.j.J.Y.G.l H J.Y.s R.R.R.R.R.R.R.R.R.R.R.",
"R.R.R.R.R.R.R.R.R.R.R.$.C.Y.n.2 c *.V.A.A.A.n.g j i G.Y.v.o.R.R.R.R.R.R.R.R.R.R.",
"R.R.R.R.R.R.R.R.R.R.f d.H.H.@.  A h o.#.#.%.K < C   :.J.D.:.R.R.R.R.R.R.R.R.R.R.",
"R.R.R.R.R.R.R.R.R.R.R.# z.,.R., x Z 5.Z 7.U S Z z :   h.h.  R.R.R.R.R.R.R.R.R.R.",
"R.R.R.R.R.R.R.R.R.R.R.R.    R., v 3.e.V y.<.6.7.< , R.    R.R.R.R.R.R.R.R.R.R.R.",
"R.R.R.R.R.R.R.R.R.R.R.R.R.R.R.X m D D 4.j D 0.z N R.R.R.R.R.R.R.R.R.R.R.R.R.R.R.",
"R.R.R.R.R.R.R.R.R.R.R.R.R.R.R.R., D A k v h 2.B + R.R.R.R.R.R.R.R.R.R.R.R.R.R.R.",
"R.R.R.R.R.R.R.R.R.R.R.R.R.R.C B N U D 9.A 6.7.C N C R.R.R.R.R.R.R.R.R.R.R.R.R.R.",
"R.R.R.R.R.R.R.R.R.R.R.R.R.S S 9.u.e.7.C , U U y.y.9.S C R.R.R.R.R.R.R.R.R.R.R.R.",
"R.R.R.R.R.R.R.R.R.R.R.R.2.r.e.t.7.r.2.+ O , 7.r.6.t.e.r.S R.R.R.R.R.R.R.R.R.R.R.",
"R.R.R.R.R.R.R.R.R.R.R.M u.5.w.u.1.A @ ; < + , D <.u.9.6.t.b R.R.R.R.R.R.R.R.R.R.",
"R.R.R.R.R.R.R.R.R.R.R.i.9.> j n R.R.R.  ,   R.R.R.n b , r.i.R.R.R.R.R.R.R.R.R.R.",
"R.R.R.R.R.R.R.R.R.R.R.o > R.R.R.R.R.R.R.R.R.R.R.R.R.R.R.+ o R.R.R.R.R.R.R.R.R.R.",
"R.R.R.R.R.R.R.R.R.R.R.R.R.R.R.R.R.R.R.R.R.R.R.R.R.R.R.R.R.R.R.R.R.R.R.R.R.R.R.R.",
"R.R.R.R.R.R.R.R.R.R.R.R.R.R.R.R.R.R.R.R.R.R.R.R.R.R.R.R.R.R.R.R.R.R.R.R.R.R.R.R.",
"R.R.R.R.R.R.R.R.R.R.R.R.R.R.R.R.R.R.R.R.R.R.R.R.R.R.R.R.R.R.R.R.R.R.R.R.R.R.R.R.",
"R.R.R.R.R.R.R.R.R.R.R.R.R.R.R.R.R.R.R.R.R.R.R.R.R.R.R.R.R.R.R.R.R.R.R.R.R.R.R.R.",
"R.R.R.R.R.R.R.R.R.R.R.R.R.R.R.R.R.R.R.R.R.R.R.R.R.R.R.R.R.R.R.R.R.R.R.R.R.R.R.R.",
"R.R.R.R.R.R.R.R.R.R.R.R.R.R.R.R.R.R.R.R.R.R.R.R.R.R.R.R.R.R.R.R.R.R.R.R.R.R.R.R.",
"R.R.R.R.R.R.R.R.R.R.R.R.R.R.R.R.R.R.R.R.R.R.R.R.R.R.R.R.R.R.R.R.R.R.R.R.R.R.R.R."
};
