/* XPM */
static char *wb[] = {
/* columns rows colors chars-per-pixel */
"36 36 172 2 ",
"   c #994B15",
".  c #9A4D18",
"X  c #9B4F1B",
"o  c #9D561D",
"O  c #9D551E",
"+  c #9E571F",
"@  c #9D5122",
"#  c #9E5323",
"$  c #9E5324",
"%  c #9E5820",
"&  c #9F5922",
"*  c #9E5823",
"=  c #9F5923",
"-  c #A35A30",
";  c #A25B30",
":  c #A35B31",
">  c #A35932",
",  c #A35C32",
"<  c #A35C33",
"1  c #A45D35",
"2  c #A26527",
"3  c #A2602A",
"4  c #A2612A",
"5  c #A26528",
"6  c #A36729",
"7  c #A86A2F",
"8  c #A6722F",
"9  c #A76938",
"0  c #A77330",
"q  c #A97A37",
"w  c #AA7F36",
"e  c #AC694E",
"r  c #AE6C51",
"t  c #AE6D52",
"y  c #B06E58",
"u  c #B07258",
"i  c #B47664",
"p  c #B87C70",
"a  c #B87D70",
"s  c #B97D71",
"d  c #BA7F77",
"f  c #AD883C",
"g  c #AE8342",
"h  c #B39B46",
"j  c #B39C44",
"k  c #B39B48",
"l  c #BAB152",
"z  c #BBB354",
"x  c #BBB454",
"c  c #BBB554",
"v  c #BCB655",
"b  c #BCB755",
"n  c #BCB856",
"m  c #BCB957",
"M  c #BCBA57",
"N  c #BCBA58",
"B  c #BCBB58",
"V  c #BDBB58",
"C  c #BEBC58",
"Z  c #BEBC59",
"A  c #BEBD59",
"S  c #BFBD59",
"D  c #BEBE59",
"F  c #BFBD5A",
"G  c #BEBE5A",
"H  c #BA8F6C",
"J  c #BB8179",
"K  c #BB817A",
"L  c #BC827D",
"P  c #BD807E",
"I  c #BD837E",
"U  c #BD8A7D",
"Y  c #C0BE5A",
"T  c #C1BF5B",
"R  c #C1BF5C",
"E  c #C2BF5C",
"W  c #BFC05A",
"Q  c #C5C35E",
"!  c #C5C35F",
"~  c #C7C560",
"^  c #C8C661",
"/  c #CAC762",
"(  c #CAC862",
")  c #CBC863",
"_  c #CBC963",
"`  c #CDCA65",
"'  c #CECC65",
"]  c #CFCC66",
"[  c #D2CF68",
"{  c #D3D16A",
"}  c #D4D16A",
"|  c #D6D36C",
" . c #D7D46C",
".. c #D8D56D",
"X. c #D9D66E",
"o. c #DAD76E",
"O. c #DBD870",
"+. c #41D5D7",
"@. c #4CDCD6",
"#. c #45D6D8",
"$. c #46D7D8",
"%. c #64DDDB",
"&. c #67DEDC",
"*. c #68DEDC",
"=. c #6DE3DB",
"-. c #BD8180",
";. c #BE8382",
":. c #BE8383",
">. c #BD8480",
",. c #BE8482",
"<. c #BE8483",
"1. c #BE8583",
"2. c #BF8585",
"3. c #BF8684",
"4. c #BF8785",
"5. c #BF8686",
"6. c #BF8786",
"7. c #BF8787",
"8. c #BF8886",
"9. c #BF8986",
"0. c #C08887",
"q. c #C08A88",
"w. c #C18F8C",
"e. c #C2998C",
"r. c #C29F8F",
"t. c #C39491",
"y. c #C59C97",
"u. c #C59C98",
"i. c #C9A9A3",
"p. c #C9AAA4",
"a. c #CEB9B1",
"s. c #CFBEB6",
"d. c #D0BEB6",
"f. c #D8D699",
"g. c #D0C0B8",
"h. c #D0C2B9",
"j. c #D1C2BA",
"k. c #98F2DD",
"l. c #A3EBE3",
"z. c #B1EEE4",
"x. c #A8F4E1",
"c. c #D3CCC2",
"v. c #D4CDC3",
"b. c #D4CEC4",
"n. c #D7D6CB",
"m. c #D7D7CC",
"M. c #D7D8CD",
"N. c #D8DBD0",
"B. c #DAE2D6",
"V. c #DCEADC",
"C. c #DDEADD",
"Z. c #DDEBDE",
"A. c #DDEDDF",
"S. c #E1F7DF",
"D. c #DFF2E3",
"F. c #E0F5E6",
"G. c #E1F8E9",
"H. c #E1F9EA",
"J. c #E1FAEB",
"K. c #E1FBEB",
"L. c #E2FAEB",
"P. c #E5F9EB",
"I. c #E4FAEA",
"U. c #E5FAEB",
"Y. c #E1FAEC",
"T. c #E2FBEC",
"R. c #E2FCEC",
"E. c #E2FDED",
"W. c #E2FDEE",
"Q. c #E3FFEF",
"!. c #E5FCED",
"~. c #E3FFF0",
/* pixels */
"V V V V V V V V V V V V V V V V V V V V V V V V V V V V V V V V V V V V ",
"V V V V V V V V V V V V V V V V V V V V V V V V V V V V V V V V V V V V ",
"V V V V V V V V V V V V V V V V V V V V V V V V V V V V V V V V V V V V ",
"V V V V V V V V V V V V V V V V V V V V V V V V V V V V V V V V V V V V ",
"V V V V V V V V V V V V V V V V V V V V V V V V V V V V V V V V V V V V ",
"V V V V V V V V V V V V V V V V V V V V V V V V V V V V V V V V V V V V ",
"V V V V V V V V V V V V V V V V V V V V V V V V V V V V V V V V V V V V ",
"V V V V V V V V V V V V V V V V V V V V V V V V V V V V V V V V V V V V ",
"V V V V V V V V V V V V V V V V V V V V V V V V V V V V V V V V V V V V ",
"V V V V V V B V V V V V V V V V V V V V V V V V V V V V V V V V V V V V ",
"V V V V V B T Z V V V V V V V V V V V V V V V V V V V V V V V V V V V V ",
"V V V V V E { / Z V V V V V V V V V V V V V V V V V V V V V V V V V V V ",
"V V V V M ] O.o.T V V V V V V V V V V V V V V V V V V V V V V V V V V V ",
"V V V V B ! _ ) S V V V V V V V V V V V V V V V V V V V V V V V V V V V ",
"V V B V V N M M V V V V V V V V V V V V V V V V V V V V V V V N V V V V ",
"B R ) B V V V V V V V V V V V V V V V V V V V V V V V V V N Q [ Q N V V ",
"Y } ..( M V V V V V V V V V V V V V V V V V V V V V V V V M ^ O.^ M V V ",
"T  ...` M V V V V V V V V V V V V S S V V V V V V V V V V M ~ X.~ M V V ",
"V F F Z V V V V V V V V V V V V Z } } Z V V V V V V V V V V Z F Z V V V ",
"V V V V V V V V V V V V V V V V Z | | Z V V V V V V V V V V V V V V V V ",
"V V V V V V V V V V V V V V V V C ' ' C V V V V V V V V V V V V V V V V ",
"V V V V V V V V V V V V V V V V V B B V V V V V V V V V V V V V V V V V ",
"V V V V V V V V V V V V V V V V V V V V V V V V V V V V V V V V V V V V ",
"V V V V V V V V V V V V V V V V V V V V V V V V V V V V V V V V V V V V ",
"V V V V V V V V V V V V V V V V V V V V V V V V V V V V V V V V V V V V ",
"0 m V V V V V V V V V V V D f 5 6 6 8 m V V V V V m 8 6 6 6 6 6 6 6 6 6 ",
"4 l z b V V V V c z x x x v q @ $ # 3 l x x x x x l 3 # $ $ $ $ $ $ $ $ ",
"a = O w G V V n 2 + % % % o u >.I L p * % % % % % & s I I I I I I I I I ",
"J 1 > g W A A V 9 , < < < ; i 0.8.u.e.7 - : < < < 1 K 6.4.4.4.4.4.4.4.4.",
"4.4.7.H j h h k U 6.4.4.4.4.4.4.q.C.S.f.p.y.3.4.4.4.4.4.4.4.4.4.4.4.4.4.",
";.;.2.y   . . X d 4.;.;.;.;.;.;.4.V.J.Y.Q.c.P ;.;.;.;.,.4.4.4.4.1.;.;.;.",
"g.g.j.r.e r r t I w.d.g.g.g.g.g.h.D.H.H.K.B.s.g.g.g.g.a.9.4.4.1.i.h.g.g.",
"E.E.~.b.:.5.5.5.<.t.H.E.E.E.E.E.E.H.H.H.H.K.E.E.E.E.W.A.8.1.1.-.v.~.E.E.",
"H.H.J.Z.n.m.m.m.m.N.G.H.H.H.H.H.H.H.H.H.H.H.H.H.H.H.H.F.M.m.m.n.Z.L.H.H.",
"H.H.H.J.R.T.T.T.T.T.H.I.z.%.*.*.*.*.*.*.*.*.%.z.I.H.H.H.T.T.T.!.x.=.&.*.",
"H.H.H.H.H.H.H.H.H.H.H.U.l.+.$.$.$.$.$.$.$.$.+.l.U.H.H.H.H.H.H.P.k.@.#.$."
};
