/* XPM */
static char *wbl[] = {
/* columns rows colors chars-per-pixel */
"36 36 90 1 ",
"  c #9C501F",
". c #A16426",
"X c #AF6D55",
"o c #B17D52",
"O c #BD7F7E",
"+ c #B4994B",
"@ c #B5A24A",
"# c #BCBA57",
"$ c #BDBC57",
"% c #BDB75B",
"& c #BDB35F",
"* c #BDB65D",
"= c #BCBA58",
"- c #BCBB58",
"; c #BDBB58",
": c #BDB85A",
"> c #BDB95A",
", c #BDB85B",
"< c #BEBC59",
"1 c #BFBC59",
"2 c #BEBD59",
"3 c #BFBD59",
"4 c #BFBD5A",
"5 c #BEBA5C",
"6 c #BC817C",
"7 c #BE877F",
"8 c #BF8E7F",
"9 c #BE9F70",
"0 c #BF937B",
"q c #BDAF62",
"w c #BEAD64",
"e c #BEA769",
"r c #BEA06F",
"t c #BEA46C",
"y c #C0BE5A",
"u c #C0BE5B",
"i c #C1BE5B",
"p c #C1BF5B",
"a c #C3C15D",
"s c #C4C25E",
"d c #C8C560",
"f c #C8C661",
"g c #C9C762",
"h c #CAC862",
"j c #CCC964",
"k c #CCCA64",
"l c #D2CF68",
"z c #D3D069",
"x c #D5D26B",
"c c #D6D36B",
"v c #D8D56D",
"b c #D8D56E",
"n c #D8D66E",
"m c #DBD870",
"M c #41D5D7",
"N c #47D7D8",
"B c #48D7D8",
"V c #48D8D8",
"C c #54DCD8",
"Z c #64DDDB",
"A c #BE8382",
"S c #BE8481",
"D c #BF8684",
"F c #BF8685",
"G c #BF8785",
"H c #BF8587",
"J c #BE8980",
"K c #BE8981",
"L c #BF8883",
"P c #BF8983",
"I c #BF8A82",
"U c #BF8B82",
"Y c #C08C85",
"T c #C08888",
"R c #C39390",
"E c #C69F9A",
"W c #C6A09B",
"Q c #CFBEB6",
"! c #D0C0B8",
"~ c #93E8E1",
"^ c #A4ECE3",
"/ c #A7F2E0",
"( c #D9DCD1",
") c #E7F5EC",
"_ c #E6F7EC",
"` c #E1F9EA",
"' c #E5FAEA",
"] c #E6FAEB",
"[ c #E1FBEC",
"{ c #E2FDED",
/* pixels */
";;;;;;;;;;;;;;;;;;;;;;;;;;%JE`]~MNBB",
";;;;;;;;;;;;;;;;;;;;;;;;;25KE`'^ZCVB",
";;;;;;;;;;;;;;;;;;;;;;;;;@+7E```_/CN",
";;;;;;;;;;;;;;;;;;;;;;;;;. 6W{{[)_ZM",
";;;;;;;;;;;;;;;;;;;;;;;;$oXSR!Q([`^~",
";;;;;;;;;;;;;;-;;;;;;;;$tYTGDAOQ{`']",
";;;;;;;;;;;;;=ga-;;;;;;;q8FGGGA!{```",
";;;;;;;;;;;;#fvxp-;;;;;$rPGGGGDRWEEE",
";;;;;;;;;;;;#hnd;;;;;;;;*0IUIGGLJJJJ",
";;;;;;;;;;;;;<4;;;;;;;;;;:%,wFH9>%%%",
";;;;;;;;;;;;;;;;;;;;;;;;;;;$&8Pe$;;;",
";;;;;;;;;;;;;;;;;;;;;;;;;;;;$qt$;;;;",
";;;;;;;;;;;;;;;;;;;;;;;;;;;;;;$;;;;;",
";;;;;;;;;;;;;;;;;;;;;;;;;;;;;;;;;;;;",
";;;;;;;-;;;;;;;;;;;;;;;;;;;;;;;;;;;;",
";;;;;;;jy;;;;;;;;;;;;;;;;;;;;;;;;;;;",
";;;;;-jbz1;;;;;;;;;;;;;;;;;;;;;;;;;;",
";;;;;;yzc3;;;;;;;;;;;;<4;;;;;;;;;;;;",
";;;;;;;13;;;;;;;;;;;;#hnd;;;;;;;;;;;",
";;;;;;;;;;;;;;;;;;;;;#fvxp-;;;;;;;;;",
";;;;;;;;;;;;;;;;;;;;;;=ga-;;;;;;;;;;",
";;;;;;;;;;;;;;;;;;;;;;;-;;;;;;;;;;;;",
";;;;;;;;;;;;;;;;;;;;;;;;;;;;;;;;;;;;",
";;;;;;;;;;;;;;;;;;;;;;;;;;;;;;;;;;;;",
";;;;;;;;;;;;;;;;;;;;;;;;;;;;;;;;;;;;",
";;;;;;;;;;;;;;;;;;;;;;;;;;;;;;;;;;;;",
";;;;;;;;;;;;;;;;;;;;;;;;;;;;;;;;;;;;",
";;;;;;;;;;;;;;;;;;;;;;;;;;;;;;;;;;;;",
";;;;;;;;;;;;;;;;;;;;;;;;;;;;;;;;;;;;",
";;;;;;;;;;;;;;;;;;;;;;;;;;;;;;;;;;;;",
";;;;;;;;;;;;;-#-;;;;;;;;;;;;;;;;;;;;",
";;;;;;;;;;;;-sji-;;;;;;;;;;;;;;;;;;;",
";;;;;;;;;;;;#jmlu;;;;;;;;;;;;;;;;;;;",
";;;;;;;;;;;;-ilk1;;;;;;;;;;;;;;;;;;;",
";;;;;;;;;;;;;-u1-;;;;;;;;;;;;;;;;;;;",
";;;;;;;;;;;;;;;;;;;;;;;;;;;;;;;;;;;;"
};
