/* XPM */
static char *wbr[] = {
/* columns rows colors chars-per-pixel */
"36 36 91 1 ",
"  c #9C501F",
". c #A16426",
"X c #AF6D55",
"o c #B17D52",
"O c #BD7F7E",
"+ c #B4994B",
"@ c #B5A24A",
"# c #BCBA57",
"$ c #BDBC57",
"% c #BDB75B",
"& c #BDB35F",
"* c #BDB65D",
"= c #BCBA58",
"- c #BCBB58",
"; c #BDBB58",
": c #BDB85A",
"> c #BDB95A",
", c #BDB85B",
"< c #BEBC59",
"1 c #BFBC59",
"2 c #BEBD59",
"3 c #BFBD59",
"4 c #BFBD5A",
"5 c #BEBA5C",
"6 c #BC817C",
"7 c #BE877F",
"8 c #BF8E7F",
"9 c #BE9F70",
"0 c #BF937B",
"q c #BDAF62",
"w c #BEAD64",
"e c #BEA769",
"r c #BEA06F",
"t c #BEA46C",
"y c #C0BE5A",
"u c #C0BE5B",
"i c #C1BE5B",
"p c #C1BF5B",
"a c #C3C15D",
"s c #C4C25D",
"d c #C4C25E",
"f c #C8C560",
"g c #C8C661",
"h c #C9C762",
"j c #CAC862",
"k c #CCC964",
"l c #CCCA64",
"z c #D2CF68",
"x c #D3D069",
"c c #D5D26B",
"v c #D6D36B",
"b c #D8D56D",
"n c #D8D56E",
"m c #D8D66E",
"M c #DBD870",
"N c #41D5D7",
"B c #47D7D8",
"V c #48D7D8",
"C c #48D8D8",
"Z c #54DCD8",
"A c #64DDDB",
"S c #BE8382",
"D c #BE8481",
"F c #BF8684",
"G c #BF8685",
"H c #BF8785",
"J c #BF8587",
"K c #BE8980",
"L c #BE8981",
"P c #BF8883",
"I c #BF8983",
"U c #BF8A82",
"Y c #BF8B82",
"T c #C08C85",
"R c #C08888",
"E c #C39390",
"W c #C69F9A",
"Q c #C6A09B",
"! c #CFBEB6",
"~ c #D0C0B8",
"^ c #93E8E1",
"/ c #A4ECE3",
"( c #A7F2E0",
") c #D9DCD1",
"_ c #E7F5EC",
"` c #E6F7EC",
"' c #E1F9EA",
"] c #E5FAEA",
"[ c #E6FAEB",
"{ c #E1FBEC",
"} c #E2FDED",
/* pixels */
"VVBN^['WK%;;;;;;;;;;;;;;;;;;;;;;;;;;",
"VCZA/]'WL52;;;;;;;;;;;;;;;;;;;;;;;;;",
"BZ(`'''W7+@;;;;;;;;;;;;;;;;;;;;;;;;;",
"NA`_{}}Q6 .;;;;;;;;;;;;;;;;;;;;-#-;;",
"^/'{)!~EDXo$;;;;;;;;;;;;;;;;;;-dki-;",
"[]'}!OSFHRTt$;;;;;;;;;;-;;;;;;#kMzu;",
"'''}~SHHHG8q;;;;;;;;;;=ha-;;;;-izl1;",
"WWWQEFHHHHIr$;;;;;;;;#gbcp-;;;;-u1-;",
"KKKKPHHUYU0*;;;;;;;;;#jmf;;;;;;;;;;;",
"%%%>9JGw,%:;;;;;;;;;;;<4;;;;;;;;;;;;",
";;;$eI8&$;;;;;;;;;;;;;;;;;;;;;;;;;;;",
";;;;$tq$;;;;;;;;;;;;;;;;;;;;;;;;;;;;",
";;;;;$;;;;;;;;;;;;;;;;;;;;;;;;;;;;;;",
";;;;;;;;;;;;;;;;;;;;;;;;;;;;;;;;;;;;",
";;;;;;;;;;;;;;;;;;;;;;;;;;;;;;;;;;;;",
";;;;;;;;;;;;;;;;;;;;;;;;;;;;;;;;;;;;",
";;;;;;;;;;;;;;;;;;;;;;;;;;;;;;;;;;;;",
";;;;;;;;;;;;;;;;;;;;;;;;;;;;;;;;;;;;",
";;;;;;;;;;;;;;;;;;;;;;;;;;;;;;;;;;;;",
";;;;;;;;;;;;;;;;;;;;;;;;;;;;;;;;;;;;",
";;;;;;;;;;;;;;;;;;;;;;;;;;;;;;;;;;;;",
";;;;;;;;;;;;;;;;;;;;;;;;;;;;;;;;;;;;",
";;;;;;;;;;;;;;;;;;;;;;;;;;;;;;;;;;;;",
";;;;;;;;;;;;;;;;-;;;;;;;;;;;;;;;;;;;",
";;;;;;;;;;;;;;;;ky;;;;;;;;;;;;;;;;;;",
";;;;;;;;;;;;;;-knx1;;;;;;;;;;;;;;;;;",
";;;;<4;;;;;;;;;yxv3;;;;;;;;;;;;;;;;;",
";;;#jmf;;;;;;;;;13;;;;;;;;;;;;;;;;;;",
";;;#gbcp-;;;;;;;;;;;;;;;;;;;;;;;;;;;",
";;;;=ha-;;;;;;;;;;;;;;;;;;;;;;;;;;;;",
";;;;;-;;;;;;;;;;;;;;-#-;;;;;;;;;;;;;",
";;;;;;;;;;;;;;;;;;;-iks-;;;;;;;;;;;;",
";;;;;;;;;;;;;;;;;;;uzMk#;;;;;;;;;;;;",
";;;;;;;;;;;;;;;;;;;1lzi-;;;;;;;;;;;;",
";;;;;;;;;;;;;;;;;;;-1u-;;;;;;;;;;;;;",
";;;;;;;;;;;;;;;;;;;;;;;;;;;;;;;;;;;;"
};
