/* XPM */
static char *whirl3[] = {
/* columns rows colors chars-per-pixel */
"40 40 21 1 ",
"  c #0068EC",
". c #007BFF",
"X c #1485FF",
"o c #1C89FF",
"O c #2481E4",
"+ c #3295FF",
"@ c #37B2FF",
"# c #38B2FE",
"$ c #3EB3FC",
"% c #53CEFF",
"& c #55CEFE",
"* c #58CEFE",
"= c #5CCFFD",
"- c #68D1FB",
"; c #78D4F9",
": c #8DD8F5",
"> c #A7DCF1",
", c #9CE8E8",
"< c #C6E2ED",
"1 c gray91",
"2 c #48D7D8",
/* pixels */
"2222222222222222222    . 222222222222222",
"222222222222222222  .... .  222222222222",
"222222222222222   ..@@$$$@X   2222222222",
"2222222222222  .+o@@%$%*-$@@.. 222222222",
"2222222222222.o#@%-$1:$%%%&%%@..22222222",
"2222222  22222$%*><<<$$$$%#*@$@X. 222222",
"22222 X+X222o+%:><1:-+oooo+$@&%$#X222222",
"22222.#$22.o#%=>1<>$$ooX.  ..&$$$+ 22222",
"2222.X$$22.$%;><1>*%%%$@oo++.2222X 22222",
"222 .@%$2.+$-<111>$$>>>=&@%@+@.222222222",
"22 .@$&&2@%-;1111>;-111<>>--%%+..2222222",
"22 .%@@..+%111111>;1111111<11-$$o2222222",
"2  @%*$.+@-1111<<>;&<<1111111;-%#o222222",
"2 X@&#+ +%-<11<:$%@+%%%*;<1111<;%+2. 222",
"2.@$%%o o@>11<:%$$+Xo++@;:<1111>=%$o 222",
"  $-%$o.X;>11;;$$%+X+@@@$%:<111<>:%#. 22",
"..$*-$oX@:111*@@@+++++@@$$$<11111>*@+ 22",
" .$*-%oo@:111%+@@o@%@oo+%$%>>>>><<>%o 22",
" .@$=@+o$;11<%+@+o@:@@@+++@;;;$*>1<-@. 2",
" .@%,<%$%>11<%o++@@<<:%+oo+&1-$%$:<$@.  ",
"  .@&1:$%$-1&+oo+%:<<@@++o%<11>%$%<1%@. ",
"2 .@->1>*$;;;@+++#@@:@X+@+%<11;$o+@:$@. ",
"22 o%><<>>>>>%$%#Oo@%@o+@+%111:@oo%-*$. ",
"22 +@*>11111<$$$#@+++++@@@*11<=@Xo$-*$..",
"22 .#%:><111<:%$@@@+X+%$$;;11:$o.o$%-$  ",
"222 o$%=>1111<:;@++oX+$$%:<11<$o o%%$@.2",
"222 .2+%;<1111<;*%%%+@%$:<11<:%+ +#&@X 2",
"222222o#%-;1111111<<&;><<1111-@+.$*%@  2",
"2222222o$$-11<1111111;>111111%+..@@%. 22",
"2222222..+%%-:<:<111-;>1111;-%@2&&$@. 22",
"222222222.@+@%$$=:;>$$>111<-$+.2$%@. 222",
"22222 X2222.++oo@@$%%*>1<>;%$.22$$X.2222",
"22222 +$$$&..  .Xoo$$><1>=%#o.22$#.22222",
"222222X#$%&@$+oooo+%:1<>:%+o222X+X 22222",
"222222 .X@$@*#%$$%@<1>>*%$22222  2222222",
"22222222..@%%&%%--:1$-%@#o.2222222222222",
"222222222 ..@@$-**$%@@o+.  2222222222222",
"2222222222   X@$$$@@..   222222222222222",
"222222222222  . ....  222222222222222222",
"222222222222222 .    2222222222222222222"
};
