/* XPM */
static char *whirl4[] = {
/* columns rows colors chars-per-pixel */
"40 40 21 1 ",
"  c #0068EC",
". c #007BFF",
"X c #1485FF",
"o c #1C89FF",
"O c #2481E4",
"+ c #3295FF",
"@ c #37B2FF",
"# c #38B2FE",
"$ c #3EB3FC",
"% c #53CEFF",
"& c #55CEFE",
"* c #58CEFE",
"= c #5CCFFD",
"- c #68D1FB",
"; c #78D4F9",
": c #8DD8F5",
"> c #A7DCF1",
", c #9CE8E8",
"< c #C6E2ED",
"1 c gray91",
"2 c #48D7D8",
/* pixels */
"222222222222222 .   . .   22222222222222",
"222222222222  . ...+.+...  2222222222222",
"2222222222   X@$$$@%@@#%$o.2222222222222",
"2222222222 .@@$-*%*%%%%%# 22222222222222",
"222222222 .@#=*%%$@@@. 22222222222222222",
"222222222 X@$,%%@@X. 2222222222222222222",
"2222222  X@$><@@o  o+oo@@+oo22  22222222",
"2222222 o@-><;@oXoo@%$-;*=$$+@+o  222222",
"222222 o@@;1>;+X@@$=&::>::;%@%@@o 222222",
"222222 +@;<<>@$;::;<>1<1<<<->-;@@X  2222",
"2222222@%-11:%$:<1111111111111<;-@X.  22",
"2222222+@>1<<@%>1111<>111111<1<1>$@@. 22",
"222222o$%-11;;;>11<;$>>><11;<:>><>$#@  2",
"2 .222o$;<1111;::%%&@%@$>11;@%@;;<>=@X 2",
"  o 22+=:<1111;*#o++@$$$-;;;%$$+@$:-$@.2",
" .$#22@*:<11<>-#o+++@$%$#*:>>:*Xo@-%-$  ",
" .%%22@;>111>$$$+++++o++o#:11<=@Xo@%*$..",
"..#% 2o-:<11>@$%++$@@$@++o%111>$o @$%$. ",
" +@%.2o$:11>>%$$o$%@:%$+++%<11;#o X@*@. ",
"..@%@ +%&>1<$@@@+@:<<@@+++&;11>=@o.@%%+ ",
" +%%@.o@=<11;&+++@@<<:++@@@$<1<;=+ @%@..",
" .@*@X o%>11<%+++$%:@%$o$$%>>11:$o2.%@+ ",
" .$%$@ o$>111%o++@$@@$++%$@>11<:-o2 %#..",
"..$*%@oX@=<11:#o++O+++++$$$>111>;@22%%. ",
"  $-%-@oX*:>>:*#$%$#+++o#-><11<:*@22#$. ",
"2.@$-:$@+$$%;;;-$$$@++o#*;1111<:=+22 o  ",
"2 X@=;:;;@%@;11>$@%@&%%::;1111<;$o222. 2",
"2  @#$:1>>:<;11<>>>$;<11>;;;11-%$o222222",
"22 .@@$>1<1<111111><1111>%@<<1>@+2222222",
"22  .X@-;<1111111111111<:$%:11-%@2222222",
"2222  X@@;->-<<<1<1<>;>=*$@><<;@+ 222222",
"222222 o@@%@%;::>::;=#$@X+;>1;@@o 222222",
"222222  o+@+$$=*;-$=@ooXo@;1>-@o 2222222",
"22222222  22oo+@@oo+o  o@$<>$@X  2222222",
"2222222222222222222 .X@@-:>$@X 222222222",
"22222222222222222 .@@@$%%-=#@. 222222222",
"22222222222222 #%%%%%*%*-$@@. 2222222222",
"2222222222222.o$%#@@%@$$$@X   2222222222",
"2222222222222  ...+.+... .  222222222222",
"22222222222222   . .   . 222222222222222"
};
