/* XPM */
static char *whirl5[] = {
/* columns rows colors chars-per-pixel */
"40 40 20 1 ",
"  c #0068EC",
". c #007BFF",
"X c #1485FF",
"o c #1C89FF",
"O c #2481E4",
"+ c #3295FF",
"@ c #37B2FF",
"# c #38B2FE",
"$ c #3EB3FC",
"% c #53CEFF",
"& c #55CEFE",
"* c #58CEFE",
"= c #5CCFFD",
"- c #68D1FB",
"; c #78D4F9",
": c #8DD8F5",
"> c #A7DCF1",
", c #C6E2ED",
"< c gray91",
"1 c #48D7D8",
/* pixels */
"111111111111111 .  .. 111111111111111111",
"111111111111   .oX+$+. 11111111111111111",
"11111111111 ..X@@@%&X 111111111111111111",
"11111111 ..@@@$$$%%O111111 1111111111111",
"11111111.+@&#&*$o 11111.11X    111111111",
"1111111 .@%;%%@o.11XXo$+X@#oXX.111111111",
"111111 X+%$%@$o  Xo$$$*$$%&$@$X   111111",
"111111 +$;*%+..X+@%>;->>-:>:=;@++X 11111",
"111111 +$>;#. X#%$:<,,<<,,<,,,$$$+.. 111",
"1111 .X@$,:$..@%-:,<<<<<<<<,>,,>;%@+.111",
"1111 X$;,,;#%%-:,<<<<<<<<>::$;;;;=%@.111",
"1111 X@=,>$@-,<<<,:<,,><<>$%@###%%;&@ 11",
"1111 o$:,,:%-,<<<>$>&#:,;;%-=%..+@%#@. 1",
"111 X#&><<:$%><<,;$%@$-:-,>,:$. .$%&@. 1",
"11111@%:,<>>;,:;;@+$#%%$$:<<,-#X.o@*$X 1",
"11111X$-,<<<;-$oo@+$++++o;<<<>*@X o$$@. ",
"1111.+$><<<<,:$o++++o+o+o;,<<,-%+ .o$@o.",
"1 111$*><<<>:-%+o+@X@%++@@;>,<>=@X1 %@X ",
" . 11o$-,<<,#$%++%@::@@+++$$:<<:%o11%%+ ",
".+X11X$;,<<,&@#+o@:,,:X+$$%><<<<>$X1O&$.",
".$&O1X$><<<<>%$$+X:,,:@o+#@&,<<,;$X11X+.",
" +%%11o%:,<:$$+++@@::@%++%$#,<<,-$o11 . ",
" X@% 1X@$:<,>;@@++%#X@+o+%-:><<<>*$111 1",
".o@$o. +%:<<<,;o+o+O++++o$:,<<<<>$+.1111",
" .@$$o X#;><<<;o++++%+@oo$-;<<<,-$X11111",
"1 X$*@o.X#-,<<:$$%%$$+@;;:,;>><,:%@11111",
"1 .@&%$. .$:,>,-:-$@%$;,<<>%$:<<>&#X 111",
"1 .@#%@+..%=-%;;,:#&>$><<<,-%:,,:$o 1111",
"11 @&;%%###@%$><<>,,<:,<<,:=@$>,=@X 1111",
"111.@%=;*;;$::><<<<<<<<,>-$%#;,,;$X 1111",
"111.+@%=;,,>,<<<<<<<<<>-*#..#;,$@X. 1111",
"111 ..+$$$,,,<,,<<,,<:=%@X .#;>$+ 111111",
"11111 X++@;=:>:->>-;>%@+X..+%;;$+ 111111",
"111111   X$@$&%$$*$$$oX  o$@%=%+X 111111",
"111111111.XXo#@X+$oXX11.o@%%;%@. 1111111",
"111111111    X11.11111 o$*&#&@+.11111111",
"1111111111111 111111O%%$$$@@@.. 11111111",
"111111111111111111 X&%@@@X.. 11111111111",
"11111111111111111 .+$+Xo.   111111111111",
"111111111111111111 ..  . 111111111111111"
};
