/* XPM */
static char *whirl1[] = {
/* columns rows colors chars-per-pixel */
"40 40 20 1 ",
"  c #0068EC",
". c #007BFF",
"X c #1485FF",
"o c #1C89FF",
"O c #2481E4",
"+ c #3295FF",
"@ c #37B2FF",
"# c #38B2FE",
"$ c #3EB3FC",
"% c #53CEFF",
"& c #55CEFE",
"* c #58CEFE",
"= c #5CCFFD",
"- c #68D1FB",
"; c #78D4F9",
": c #8DD8F5",
"> c #A7DCF1",
", c #C6E2ED",
"< c gray91",
"1 c #48D7D8",
/* pixels */
"11111111111111   11111111111111111111111",
"111111111111  ... 1111111111111111111111",
"1111111111  .X#$o11111    11111111111111",
"111111111 ..@#%$111111....     111111111",
"11111111 .@@$%$ 11...o#@@#o.... 11111111",
"1111111.X@%$%$ 1XX#@$$&**=%#$#@X.1111111",
"111111X@$%%%+.1o@#&%;=:>>,:::=%$@X111111",
"11111.@&&%$+..+#--:>,,<<<,,,>;&&&@.11111",
"1111 X$&&$+..@$%>,,<<<<,>;;=$$%&&$X 1111",
"111 .@%--$X .#$:,<<<<<,;*$$oo+$$%%@. 111",
"111 .#%-&+ .@&:,<<<<<<,=@%%@. X+$%%@. 11",
"111 .$-;@o.@-,<<<<,:,<;;;>,-@. .+%$@. 11",
"111 .#:,%o@$:<<<>:-@=>;><<<:$@...+%$@. 1",
"111 o%>,;$&:,<<,&$#$$$$:,<<,:*#@..$%#X 1",
"11 .#=,,;$%><<,:$@$%%o+@:,<<<:$$+1 $%#. ",
"11 .@*><>*@;<,:#+@$++Xoo@:,<<,:%#o1 $$. ",
"11 .@*><,;=;>:#o@++o+++@+$&><<,>-@X11o. ",
"11 .#&:<<,,;;$++++o+%%++@@$:<<<,-#X111 1",
"1111o$=,<<<<>$+o+%@::@o+$$#-,<<,:&#.1111",
"1111.$;,<<<,=$%++%:,,:+o+%$@:<<<>%@.1111",
"1111.@%><<<:@$%$O+:,,:%++%$=,<<<,;$.1111",
"1111.#&:,<<,-#$%+o@::@%+o+$><<<<,=$o1111",
"1 111X#-,<<<:$@@++%%+o++++$;;,,<<:&#. 11",
" .o11X@->,<<>&$+@+++o++@o#:>;=;,<>*@. 11",
" .$$ 1o#%:<<<,:@ooX++$@+#:,<;@*><>*@. 11",
" .#%$ 1+$=>,<<,:@+o%%$@$:,<<>%$;,,=#. 11",
"1 X#%$..@$$:<<<,:$$$$#$&,<<,:&$;,:%o 111",
"1 .@$%+...@=:,<<>;>=@-:><<<:$@o%,:#. 111",
"11 .@$%+. .@$:>;;;<,:,<<<,:=@.o@>:$. 111",
"11 .@%%$+X .@&%@=,<<<<<<<>$@. +&;=#. 111",
"111 .@%%$$+oo$$*;,<<<<<,:=$. X$--%@. 111",
"1111 X$&&-&@%;;>,<<<<,,>%$@..+$&&$X 1111",
"11111.@&&-;>,,,<<<,,>:--#+..+$%&&@.11111",
"111111X@$%=::>,>>:=;%&#@o1.+%%%$@X111111",
"1111111.X@#$#%=**&$$@#XX1 $%$%@X.1111111",
"11111111 ....o#@@#o...11 $%$@@. 11111111",
"111111111     ....111111$%#@.. 111111111",
"11111111111111    11111o$#X.  1111111111",
"1111111111111111111111 ...  111111111111",
"11111111111111111111111   11111111111111"
};
