/* XPM */
static char *whirl2[] = {
/* columns rows colors chars-per-pixel */
"40 40 22 1 ",
"  c #0068EC",
". c #007BFF",
"X c #3183DC",
"o c #1485FF",
"O c #1C89FF",
"+ c #2481E4",
"@ c #3295FF",
"# c #37B2FF",
"$ c #38B2FE",
"% c #3EB3FC",
"& c #53CEFF",
"* c #55CEFE",
"= c #58CEFE",
"- c #5CCFFD",
"; c #68D1FB",
": c #78D4F9",
"> c #8DD8F5",
", c #A7DCF1",
"< c #A9E4F9",
"1 c #C6E2ED",
"2 c gray91",
"3 c #48D7D8",
/* pixels */
"3333333333333333333333333333333333333333",
"33333333333333333333  3     333333333333",
"3333333333    3333  .. ..... 33333333333",
"3333333333...33333.O##o######O. 33333333",
"33333333 o%&O3333O$$%%=-=-&&&%$. 3333333",
"333333  .@*%333oO%%&>,,:21:*;-%O 3333333",
"333333.OO%&@3OO%%:;,1211-%%%%%&%@o. 3333",
"333333 %#&%33%#-;11221::#@@@@%&=%#. 3333",
"3333  O*&%@.O$:;,2221:-$&O.  O#%%#O.3333",
"3333O@%*%#.O#%112222,&%&,%O.. OO&&&$O 33",
"3333@%%*#oo%%=122222,:;,2;=%%#o.3@*&# 33",
"333O%;-%. O#&,222212,:1222,:=&%.33 @@ 33",
"33 @$&%#. @;:,222,#:>-,22221:&$#o333. 33",
"33 @&:>%. $,221;>&%%%@%,21221,>-&#.33 33",
"33 @%;-$.@*122>$&$&%@OO%,&:1222,%%O33333",
"33 @%,;$@&:122,$###@OO@@O$;1222,;%@.3333",
"33 @%>1>#&>122,@###O@@@##$-,22221:%O3333",
"33 o%:2>=&;12,%@#@@%&%O##%&-,2222:$#O 33",
"33 O#;21;#&>>%O@O##;<-#O@%&%,2222,=%O 33",
"33 @#>221;:::&@OO%:<1<;#O#%:122221-##O 3",
"33 O##;222221:$#O%:<1<;$OO@=::::121:#O 3",
"333 @&=,2222,%&%X+#;<-##O@@=>>%#:11;#O 3",
"333 O#$:2222,=&%##@%&$@O#@=,21=&-,1:%.33",
"33333O%:12222,*$##@@@O###%,221>&%>,>%O 3",
"33333.#%:,222,=#O@@OO@###%1221;&@%>,%O 3",
"333333O%*,2221:&,%OO@%&#&%,22,%O.%:>$O 3",
"333333.#&;>,22212,%@%%%&>:12,:@ .&>:&O 3",
"333  333o$%-:,2222,;>:#12221:*o .$%&$O 3",
"333 @O 33o%-;;12221:1212222,;%o o%-;%O33",
"333 $&*+3.o##%;;1,;:1222221=%%oo$&%%O333",
"333 O%&&&Oo ..@#;&%=1222211%#o.#%*%@O333",
"3333 .O#&%#o  .@&%-:1222,::$O.@%&&O. 333",
"33333 .#&*&%@@@@%:>12211==$$33&%#% 33333",
"33333 .O@&&%%;=#-2121>-:#%OO3$&$OO.33333",
"33333333 O%--:>11>,,>*%%oo33 %*O.  33333",
"33333333 o$&&-%;*-*%%$$o3333@&%  3333333",
"333333333 .O######O##O.33333...333333333",
"333333333333 ..... ..  3333    333333333",
"3333333333333     3  3333333333333333333",
"3333333333333333333333333333333333333333"
};
