/* XPM */
static char *wl[] = {
/* columns rows colors chars-per-pixel */
"36 36 159 2 ",
"   c #984914",
".  c #9C501F",
"X  c #9C4F20",
"o  c #A16425",
"O  c #A16426",
"+  c #AD694F",
"@  c #AD6A4F",
"#  c #AF6D54",
"$  c #B17757",
"%  c #B57868",
"&  c #B6796B",
"*  c #B77D6A",
"=  c #AE873E",
"-  c #B09141",
";  c #B39B44",
":  c #B39A45",
">  c #B49C48",
",  c #B5A24A",
"<  c #B8A555",
"1  c #BAB253",
"2  c #BCBA57",
"3  c #BDBE55",
"4  c #BDBD56",
"5  c #BDBC57",
"6  c #BDBD57",
"7  c #BDB35F",
"8  c #BDB55D",
"9  c #BDB45E",
"0  c #BCBA58",
"q  c #BCBB58",
"w  c #BDBB58",
"e  c #BDBA59",
"r  c #BDB85A",
"t  c #BDB95A",
"y  c #BDBC58",
"u  c #BDBD58",
"i  c #BEBC59",
"p  c #BFBC59",
"a  c #BEBD59",
"s  c #BFBD59",
"d  c #BEBF58",
"f  c #BFBD5A",
"g  c #BEBE5A",
"h  c #B99166",
"j  c #BD9F6B",
"k  c #BC817F",
"l  c #BC827E",
"z  c #BF8D7F",
"x  c #BF8F7E",
"c  c #BF8E7F",
"v  c #BE9F70",
"b  c #BE9C73",
"n  c #BE9678",
"m  c #BE947A",
"M  c #BF957A",
"N  c #BDAE63",
"B  c #BEAE63",
"V  c #BEAB65",
"C  c #BEAC65",
"Z  c #BDA568",
"A  c #BEA36D",
"S  c #BEA16E",
"D  c #BEA16F",
"F  c #BEA26E",
"G  c #BEA26F",
"H  c #BDB160",
"J  c #BDB061",
"K  c #C0BE5A",
"L  c #C0BE5B",
"P  c #C1BE5B",
"I  c #C1BF5B",
"U  c #C3C15D",
"Y  c #C4C25D",
"T  c #C4C25E",
"R  c #C8C560",
"E  c #C8C661",
"W  c #C9C762",
"Q  c #CAC862",
"!  c #CCC964",
"~  c #CCCA64",
"^  c #D2CF68",
"/  c #D3D069",
"(  c #D5D26B",
")  c #D6D36B",
"_  c #D8D56D",
"`  c #D8D56E",
"'  c #D8D66E",
"]  c #DBD870",
"[  c #40D5D7",
"{  c #41D5D7",
"}  c #43D6D7",
"|  c #4BDAD7",
" . c #47D6D8",
".. c #46D7D8",
"X. c #47D7D8",
"o. c #48D7D8",
"O. c #48D8D8",
"+. c #54DCD8",
"@. c #62DEDB",
"#. c #64DDDB",
"$. c #68DEDC",
"%. c #78E8DA",
"&. c #BE8281",
"*. c #BE8581",
"=. c #BE8482",
"-. c #BE8683",
";. c #BF8584",
":. c #BF8685",
">. c #BF8785",
",. c #BF8586",
"<. c #BF8587",
"1. c #BF8686",
"2. c #BF8687",
"3. c #BF8A83",
"4. c #BF8886",
"5. c #BF8986",
"6. c #BF8388",
"7. c #C08787",
"8. c #C08887",
"9. c #C08888",
"0. c #C08988",
"q. c #C08889",
"w. c #C08989",
"e. c #C08B89",
"r. c #C18D8A",
"t. c #C18E8C",
"y. c #C18F8C",
"u. c #C18F8D",
"i. c #C59C97",
"p. c #C59C98",
"a. c #C69D99",
"s. c #C69F9A",
"d. c #C8A5A0",
"f. c #CCB2AB",
"g. c #CFBBB3",
"h. c #93E8E1",
"j. c #95E8E1",
"k. c #A4ECE3",
"l. c #B4EFE5",
"z. c #A7F2E0",
"x. c #D4CCC2",
"c. c #DCE9DC",
"v. c #CAF4E7",
"b. c #DFF1E3",
"n. c #DFF3E4",
"m. c #D5F5E9",
"M. c #E0F4E6",
"N. c #E7F5EC",
"B. c #E6F7EC",
"V. c #ECF6ED",
"C. c #E0F9EA",
"Z. c #E1F9EA",
"A. c #E2F9EA",
"S. c #E2F8EB",
"D. c #E3F9EB",
"F. c #E2FAEA",
"G. c #E5FAEA",
"H. c #E6FAEB",
"J. c #E2FCED",
/* pixels */
"..$.D.S.Z.Z.Z.a.=.>.>.>.>.>.1.V 5 w w w w w w w w w w w w w w w w w w w ",
"..@.m.V.F.Z.Z.f.p.5.>.>.>.>.1.C 6 w w w w w q L p q w w w w w w w w w w ",
"o.| %.l.v.A.Z.Z.b.y.>.>.>.>.:.v r w w w w q P ^ ~ p w w w w w w w w w w ",
"o.o. .[ h.H.Z.Z.b.y.>.>.>.1.<.m 8 w w w w 2 ! ] ^ L w w w w w w w w w w ",
"o.o.o.} j.H.Z.Z.b.y.>.>.1.m S 9 5 w w w w q T ! P q w w w w w w w w w w ",
"o.o.o.} j.H.Z.Z.b.y.>.>.,.F 3 y w w w w w w q 2 q w w w q w w w w w w w ",
"o.o.o.} j.H.Z.Z.b.y.>.>.,.S 6 w w w w w w w w w w w w K ! w w w w w w w ",
"o.o.o.} j.H.Z.Z.b.y.>.>.9.$ o , a w w w w w w w w w p / ` ! q w w w w w ",
"o.o.o.} j.H.Z.n.c.t.>.>.0.# . > a w w w w w w w w w s ) / K w w w w w w ",
"o.o.X.{ h.H.Z.d.r.4.>.>.>.*.l Z e w w w w w w w w w w s p w w w w w w w ",
"o.O.+.#.k.G.Z.s.;.>.>.>.>.:.,.x 7 y w q p L q w w w w w w w w w w w w w ",
"X.+.z.B.Z.Z.Z.s.;.>.>.>.:.x n J 5 w w p ~ ^ P q w w w w w w w w w w w w ",
"..$.B.N.Z.Z.Z.i.&.>.>.:.6.D 3 w w w w L ^ ] ! 2 w w w w w w w w w w w w ",
"..$.Z.C.Z.Z.Z.x.g.e.1.c D N 5 w w w w q P ! Y q w w w w w w w w w w w w ",
"..$.B.N.Z.Z.Z.J.M.u.z B 4 5 w w w w w w q 2 q w w w w w w w w w w w w w ",
"X.+.z.B.Z.Z.Z.Z.b.y.3.A 5 w w w w w w w w w w w w w w w w w w w w w w w ",
"o.O.+.#.k.G.Z.Z.b.y.7.* O - g w w w w w w w w w w w w w w w w w w w w w ",
"o.o.X.{ h.H.Z.n.c.t.8.% X = g w w w w w w w w w w w w w w w w w w w w w ",
"o.o.o.} j.H.Z.d.r.4.>.-.k j 6 w w w w w w w w w w w w w q w w w w w w w ",
"o.o.o.} j.H.Z.s.;.>.>.>.,.G d y w w w w w w w w w w w w I q w w w w w w ",
"o.o.o.} j.H.Z.s.;.>.>.>.2.h ; 1 y w w w w w w w w w w R ( U w w w w w w ",
"o.o.o.} j.H.Z.i.&.>.>.>.w.@   : a w w w w w w w w w f ' _ W q w w w w w ",
"o.o.o.} j.H.Z.x.g.e.>.>.8.& + < u w w w w w w w w w i Q E 0 w w w w w w ",
"o.o. .[ h.H.Z.J.M.y.>.>.>.8.q.M 8 w w w w w w w w w w 2 2 w w w w w w w ",
"o.| %.l.v.A.Z.Z.b.y.>.>.>.>.1.v r w w w w w w w w w w w w w w w w w w w ",
"..@.m.V.F.Z.Z.Z.b.y.>.>.1.b H t w w w w w w w w w w w w w w w w w w w w ",
"..$.D.S.Z.Z.Z.n.c.t.>.>.,.S 4 w w w w w w w w w w w w w w w w w w w w w ",
"..$.D.S.Z.Z.Z.d.r.4.>.>.,.D 6 w w w w w w w w w w w w w w w w w w w w w ",
"..@.m.V.F.Z.Z.s.;.>.>.>.,.G d y w w w w w w q L p q w w w w w w w w w w ",
"o.| %.l.v.A.Z.s.;.>.>.>.2.h ; 1 y w w w w q P ^ ~ p w w w w w w w w w w ",
"o.o. .[ h.H.Z.i.&.>.>.>.w.@   : a w w w w 2 ! ] ^ L w w w w w w w w w w ",
"o.o.o.} j.H.Z.x.g.e.>.>.8.& + < u w w w w q T ! P q w w w w w w w w w w ",
"o.o. .[ h.H.Z.J.M.y.>.>.>.8.q.M 8 w w w w w q 2 q w w w w w w w w w w w ",
"o.| %.l.v.A.Z.Z.b.y.>.>.>.>.:.v r w w w w w w w w w w w w w w w w w w w ",
"..@.m.V.F.Z.Z.Z.b.y.>.>.>.>.1.C 6 w w w w w w w w w w w w w w w w w w w ",
"..$.D.S.Z.Z.Z.Z.b.y.>.>.>.>.1.V 5 w w w w w w w w w w w w w w w w w w w "
};
