/* XPM */
static char *wm[] = {
/* columns rows colors chars-per-pixel */
"36 36 112 2 ",
"   c #984513",
".  c #994915",
"X  c #9A4A18",
"o  c #9C521D",
"O  c #9F5627",
"+  c #9F5E22",
"@  c #A05E22",
"#  c #A05628",
"$  c #A15A2B",
"%  c #A35633",
"&  c #A55D39",
"*  c #A16126",
"=  c #A7752E",
"-  c #AB6C45",
";  c #AD6C4D",
":  c #AE7054",
">  c #BA7D76",
",  c #AF8F40",
"<  c #B09041",
"1  c #B4974B",
"2  c #B5A24B",
"3  c #B9AE51",
"4  c #BBB555",
"5  c #BCBB56",
"6  c #BDB55D",
"7  c #BDBB58",
"8  c #BD817E",
"9  c #BF8F7E",
"0  c #BE9C73",
"q  c #BF937A",
"w  c #BEAB66",
"e  c #BEA56A",
"r  c #BFA86B",
"t  c #C1BF5B",
"y  c #CABF7F",
"u  c #BEC05A",
"i  c #C5C25C",
"p  c #C7C560",
"a  c #C8C661",
"s  c #CECB65",
"d  c #D7D46D",
"f  c #D9D66E",
"g  c #DBD86F",
"h  c #DCD870",
"j  c #BD7E80",
"k  c #3ED5D7",
"l  c #43D6D7",
"z  c #4DDCD7",
"x  c #46D6D8",
"c  c #48D7D8",
"v  c #49D8D8",
"b  c #53DBD9",
"n  c #5BDBDA",
"m  c #51E1D5",
"M  c #64E7D6",
"N  c #64E8D6",
"B  c #79E7DB",
"V  c #77EAD9",
"C  c #BF8684",
"Z  c #BF8983",
"A  c #C08987",
"S  c #C08A88",
"D  c #C2908D",
"F  c #C49693",
"G  c #C59995",
"H  c #C4AD86",
"J  c #C7A29D",
"K  c #C8A49F",
"L  c #C6B699",
"P  c #C9BBA4",
"I  c #CCB4AD",
"U  c #CDB5B1",
"Y  c #D9DC99",
"T  c #CBC7A2",
"R  c #D0D7A8",
"E  c #D1C3BA",
"W  c #D2C9BC",
"Q  c #D3D4BB",
"!  c #DDE5A0",
"~  c #D3E1AF",
"^  c #D3E1B0",
"/  c #BCDBCD",
"(  c #97F2DE",
")  c #9AF1DD",
"_  c #B0E2D2",
"`  c #A4EBE3",
"'  c #ADEEE4",
"]  c #A7F0E4",
"[  c #B5F4E2",
"{  c #D4CCC2",
"}  c #CCD1C6",
"|  c #D5D1C6",
" . c #D9DED2",
".. c #DCEADD",
"X. c #DDEBE0",
"o. c #CAF7EA",
"O. c #D1F7E7",
"+. c #D2F8E7",
"@. c #D4F9E9",
"#. c #DDF8EA",
"$. c #E2EFE1",
"%. c #F6EEEE",
"&. c #E0F4E6",
"*. c #E1F7E8",
"=. c #E2FAEB",
"-. c #EAFDED",
";. c #F4F3EE",
":. c #E4FEF0",
">. c #EAFCF7",
",. c #F7F0F0",
"<. c #F7FDF7",
"1. c #FBFDFB",
/* pixels */
"c c v b n ' &.&.=.+.V n n n ' =.=.=.=.*.X.............X.=.=.' n b v v c ",
"c x z ( =...K { =.=.#.#.#.#.#.=.=.=.=.{ S Z C S C S C G #.=.=.*.( z c c ",
"v z m ( :.U C Z X.:.=.=.=.=.:.:.:.:.X.C C C C Z C C C F =.=.=.=.) z c c ",
"b ( ( _ { K C C E { { { Q ~ ^ R ^ ^ R 0 0 0 0 0 0 0 Z F { W  .=.( z c c ",
"n =.-.{ C C C C C 8 C j 0 5 5 4 5 5 4 5 5 7 7 7 7 5 A j A > I :.) z l l ",
"] ..U J C A C A C Z e e w 5 5 7 7 5 7 7 7 7 7 7 5 6 0 t A C G I / ] ` ` ",
";.K 8 C C Z C C A 9 7 5 5 5 7 7 7 7 7 7 7 7 7 7 5 7 5 6 A 8 A j W -.=.=.",
"%.S C A C C A Z A 9 7 5 5 5 7 7 7 7 7 7 5 7 7 7 7 7 6 t 8 A A A | =.=.*.",
"%.S S A A e 6 6 6 6 7 7 7 7 7 7 7 7 7 7 7 7 7 7 7 7 7 6 A C C C { =.=.=.",
"%.S C 9 A w 5 5 5 7 7 7 7 t t 7 7 7 7 7 7 7 7 7 7 7 7 6 A C S 8 | =.=.#.",
"%.A C 0 7 7 7 5 7 7 7 7 p g p 7 7 7 7 7 7 7 7 7 7 7 5 6 Z C C C { =.=.=.",
"%.A A 0 7 7 7 7 7 7 7 5 a h a 7 7 5 7 7 7 7 7 7 7 7 7 6 C C A 8 { =.#.=.",
"%.A A 0 4 5 5 7 7 7 7 7 t s i 7 7 7 7 7 7 7 7 7 7 7 5 6 0 0 q C W =.=.=.",
"%.S A 0 5 7 7 7 7 7 7 7 7 7 7 7 7 7 6 7 7 7 7 7 7 5 7 7 7 7 w 8 | =.=.=.",
"%.S A 0 7 7 7 7 7 7 7 7 7 7 7 7 7 7 5 5 7 7 7 a s s t 7 5 5 e C | =.=.=.",
"%.S A q 7 7 7 7 7 7 7 7 7 7 7 7 7 7 7 5 7 7 5 s f f t 7 7 5 e C W =.=.*.",
"1.| C 0 5 7 7 7 7 7 7 7 7 7 7 7 7 7 7 7 7 7 7 s f d t 7 7 5 t j W =.=.=.",
"1.=.X.R 5 7 7 7 7 7 7 7 7 7 7 7 7 7 7 7 7 7 7 7 t t 7 7 7 t R X.#.*.=.*.",
">.=.:.^ 5 5 7 7 7 7 7 7 7 7 7 7 7 7 7 7 7 7 7 7 7 7 7 7 t t ! >.#.O.+.+.",
"V #.:.R 5 5 7 7 7 7 7 7 7 7 7 7 7 7 7 7 7 7 7 7 7 7 7 7 t t ! =.) N N N ",
"n #.:.R 5 5 5 7 7 7 7 7 7 7 7 7 7 7 7 7 7 7 7 7 7 7 5 5 4 t ! -.( z z z ",
"n #.:.^ 5 7 7 7 7 7 7 7 7 7 7 7 7 7 7 7 7 7 7 7 7 7 7 5 t t ! =.[ ( ) ) ",
"n #.:.^ 5 u 7 7 7 7 7 7 7 7 7 7 5 7 7 7 7 7 7 7 7 7 t 5 t i ! :.=.-.=.=.",
"' #.:.T = 1 7 7 7 7 7 7 7 7 p s s 7 7 7 7 7 7 7 7 7 5 5 5 i H I  .=.=.=.",
"<.#.:.L   < 7 7 7 7 7 7 7 7 s g f t 7 7 7 7 7 7 7 7 7 7 7 7 e > { =.=.=.",
"1.*.=.L X , 7 7 7 7 7 7 7 7 s g d t 7 7 7 7 7 7 7 7 7 7 5 4 t A { =.=.=.",
",.G F S > - + * 3 7 7 7 7 7 7 t t 7 5 7 7 7 7 7 7 7 7 3 # O ; j { =.*.=.",
",.S C C S ; O $ 2 3 7 7 7 7 7 7 7 3 3 3 3 3 3 5 7 7 3 2 $ % : F } @.+.+.",
"%.S C C C C Z C $ * 7 7 7 7 7 7 5 * o o o o o < 7 4 * # 8 C I *.) N N N ",
";.K C C C C C C O + 7 7 7 u 7 7 7 + O & & & & 1 t t @ # 8 S W -.( z c c ",
"' ..U K C C Z C ; - < < < < , < , - ; I U U U H 1 , - : I { o.` B z c c ",
"n =.:.{ > C C C Z > X . . X . . X > F =.=.=.:.I % . > F *.-.` l x c c c ",
"b ( ( _ { { { { { W L L L L L L L W | =.=.=.=. .P L W } ) ) B x c c c c ",
"c z m ( -.=.=.=.=.=.:.=.:.:.:.:.=.=.=.=.=.=.#.=.=.:.=.@.N z z c c c c c ",
"c c z ( =.=.=.=.=.=.=.=.=.#.#.=.=.*.=.&.=.=.=.=.#.=.=.@.N x x c c c c c ",
"c c z ( =.&.=.=.=.=.=.#.=.=.=.=.#.=.=.=.#.=.*.=.=.=.=.O.N c v v c c c c "
};
