/* XPM */
static char *wall_right[] = {
/* columns rows colors chars-per-pixel */
"40 40 9 1 ",
"  c white",
". c #BDBB58",
"X c #48D7D8",
"o c #E1F9EA",
"O c #BF8785",
"+ c gray94",
"@ c #D9D66E",
"# c #9C511D",
"$ c #68ECD5",
/* pixels */
"........................OOOOOOOooooo$XXX",
"........................OOOOOOOooooo$XXX",
"........................OOOOOOOooooo$XXX",
"........................OOOOOOOoooXXXXXX",
"........................OOOOOOOoooXXXXXX",
"......@@@...............OOOOOOOoooXXXXXX",
"......@@@...............OOOOOOOoooXXXXXX",
".......@......@@........OOOOOOOoooXXXXXX",
"..............@@........OOOOOOOoooXXXXXX",
"..............@@........OOOOOOOoooXXXXXX",
".....................###OOOOOoooooXXXXXX",
".....................###OOOOOoooooXXXXXX",
".....................OOOOOOOOoooooXXXXXX",
".....................OOOOOOOOoooooXXXXXX",
".....................OOOOOOOOoooooXXXXXX",
".@@@....................OOOOOoooooXXXXXX",
".@@@....................OOOOOoooooXXXXXX",
"..@.....................OOOOOoooooXXXXXX",
"........................OOOOOOOoooXXXXXX",
"........................OOOOOOOoooXXXXXX",
"........................OOOOOOOooooo$XXX",
"........................OOOOOOOooooo$XXX",
"........................OOOOOOOooooo$XXX",
".....................###OOOOOOOooooo$XXX",
".....................###OOOOOOOooooo$XXX",
".........@@..........OOOOOOOOOOooooo$XXX",
".........@@..........OOOOOOOOOOooooo$XXX",
".........@@............OOOOOOooooooo$XXX",
"........................OOOOOoooooXXXXXX",
"........................OOOOOoooooXXXXXX",
".@@@.................###OOOOOoooooXXXXXX",
".@@@.................###OOOOOoooooXXXXXX",
"..@..................OOOOOOOOoooooXXXXXX",
".....................OOOOOOOOoooooXXXXXX",
".....................OOOOOOOOoooooXXXXXX",
"......@@@...............OOOOOOOoooXXXXXX",
"......@@@...............OOOOOOOoooXXXXXX",
".......@................OOOOOOOooooo$XXX",
"........................OOOOOOOooooo$XXX",
"........................OOOOOOOooooo$XXX"
};
