/* XPM */
static char *wr[] = {
/* columns rows colors chars-per-pixel */
"36 36 151 2 ",
"   c #994B15",
".  c #9B501A",
"X  c #9D561D",
"o  c #9F5B21",
"O  c #A25B30",
"+  c #A45F34",
"@  c #A96444",
"#  c #AB6B48",
"$  c #AD6B50",
"%  c #AE6E51",
"&  c #AE6D53",
"*  c #B47766",
"=  c #B39C45",
"-  c #B39C47",
";  c #B8935F",
":  c #B8AD50",
">  c #B9AE51",
",  c #BAAF53",
"<  c #BBB552",
"1  c #BBB157",
"2  c #BBB454",
"3  c #BCB756",
"4  c #BCBA57",
"5  c #BDBA57",
"6  c #BDBE55",
"7  c #BDBC57",
"8  c #BDBD57",
"9  c #BDB45E",
"0  c #BCBA58",
"q  c #BCBB58",
"w  c #BDBB58",
"e  c #BDBA59",
"r  c #BDB95A",
"t  c #BDB85B",
"y  c #BDBC58",
"u  c #BEBC59",
"i  c #BEBD59",
"p  c #BFBD59",
"a  c #BEBF58",
"s  c #BFBD5A",
"d  c #BE9777",
"f  c #BCA267",
"g  c #BEAD64",
"h  c #BEA769",
"j  c #BEA66A",
"k  c #BEA16F",
"l  c #BEA26E",
"z  c #BEA86B",
"x  c #BEA070",
"c  c #C0BE5A",
"v  c #C1BF5B",
"b  c #C1BF5C",
"n  c #C2BF5C",
"m  c #C2C05C",
"M  c #C5C35E",
"N  c #C5C35F",
"B  c #C7C560",
"V  c #C8C661",
"C  c #C9C762",
"Z  c #CAC762",
"A  c #CAC862",
"S  c #CBC863",
"D  c #CBC963",
"F  c #CDCA65",
"G  c #CFCC66",
"H  c #D2CF68",
"J  c #D3D16A",
"K  c #D4D16A",
"L  c #D6D36B",
"P  c #D6D36C",
"I  c #D7D46C",
"U  c #D8D56D",
"Y  c #D9D66E",
"T  c #DAD76E",
"R  c #DBD870",
"E  c #40D5D7",
"W  c #41D5D7",
"Q  c #43D6D7",
"!  c #4CDBD7",
"~  c #4EDDD6",
"^  c #4EDCD7",
"/  c #46D6D8",
"(  c #47D7D8",
")  c #48D7D8",
"_  c #49D8D8",
"`  c #4ED9D8",
"'  c #4FD8D9",
"]  c #59DDD9",
"[  c #65DDDB",
"{  c #BE8382",
"}  c #BE8483",
"|  c #BE8583",
" . c #BF8684",
".. c #BF8785",
"X. c #BF8586",
"o. c #BF8587",
"O. c #BF8686",
"+. c #BF8687",
"@. c #BF8984",
"#. c #BF8886",
"$. c #BF8986",
"%. c #C08887",
"&. c #C08987",
"*. c #C08888",
"=. c #C08988",
"-. c #C08889",
";. c #C08A88",
":. c #C18D8B",
">. c #C3938F",
",. c #C39490",
"<. c #C39591",
"1. c #C39692",
"2. c #C59B97",
"3. c #C69D98",
"4. c #CAABA5",
"5. c #CEB8B1",
"6. c #D2C8BE",
"7. c #81EADC",
"8. c #93F0DD",
"9. c #99F2DD",
"0. c #9AF2DD",
"q. c #A3EBE3",
"w. c #A4EBE3",
"e. c #A9ECE3",
"r. c #B1EEE4",
"t. c #B5EFE5",
"y. c #D4CCC2",
"u. c #D8DCD0",
"i. c #DAE3D7",
"p. c #DDEADD",
"a. c #DDECDF",
"s. c #DDEDE0",
"d. c #CFF5E8",
"f. c #DFF3E4",
"g. c #D9F7E9",
"h. c #DDF8E9",
"j. c #E0F6E7",
"k. c #E0F6E8",
"l. c #E1F7E9",
"z. c #E1F8E9",
"x. c #E1F9EA",
"c. c #E2F9EA",
"v. c #E1FAEB",
"b. c #E5F9EB",
"n. c #E4FAEA",
"m. c #E5FAEA",
"M. c #E5FAEB",
"N. c #E6FAEB",
"B. c #E2FCEC",
"V. c #E2FDED",
"C. c #E8FAEB",
/* pixels */
"w w w w w w w w w w w w w w w w w w w w 7 j X....... .1.j.x.x.b.9.~ ( ) ",
"w w w w w w w w w w w w w w w w w w w w 7 j X....... .1.j.x.c.C.0.~ ( ) ",
"w w w w w w w w w w w w w w w w w w w w 7 j X....... .1.j.c.d.t.7.! ) ) ",
"w w w w w 0 4 4 w w w w w w w w w w w w 7 j X....... .1.j.N.q.E / ) ) ) ",
"w w w w q N D S p w w w w w w w w w w w 7 j X....... .1.j.M.w.Q ) ) ) ) ",
"w w w w 4 G R T v w w w w 0 w w w w w w 7 j X....... .1.j.M.w.Q ) ) ) ) ",
"w w w w q n J Z u w w 0 M H M 0 w w w w 7 j X....... .1.j.M.w.Q ) ) ) ) ",
"w w w w w q v u w w w 4 V R V 4 w w w w 7 j X....... .1.j.M.w.Q ) ) ) ) ",
"w w w w w w q w w w w 4 B Y B 4 w w 5 2 < f X.......:.3.j.M.w.Q ) ) ) ) ",
"w w w w w w w w w w w w u s u w w y > o X # *.....;.i.f.x.M.w.Q ) ) ) ) ",
"w w w w w w w w w w w w w w w w w y , + O & *.....;.p.v.x.M.w.Q ) ) ) ) ",
"w w w w w w w w w w w w w w w w w w 9 @...........;.p.v.x.M.w.Q ) ) ) ) ",
"w 4 4 0 w w w w w w w w w w w w w w 9 ..o.O.......;.p.v.x.M.w.Q ) ) ) ) ",
"s S D N q w w w w w w w w w w w w w t l l d O.....;.p.v.x.M.w.Q ) ) ) ) ",
"v T R G 4 w w w w w w w w w w w w w w 8 6 h X.....;.p.v.x.M.w.Q ) ) ) ) ",
"u Z J n q w w w w w w w w w w w w w w w 7 j X.....;.p.v.x.M.w.Q ) ) ) ) ",
"w u v q w w w w w w w w w w w w w w w w 7 j X.....#.2.4.k.M.w.Q ) ) ) ) ",
"w w q w w w w w w w w w w w w w w w w w 7 j X.......| <.j.m.e.' ` ) ) ) ",
"w w w w w w w w w w w w w w w w w w w w 7 j X....... .1.j.x.h.g.8.^ ( ) ",
"w w w w w w w w w w w w w w w w w w w i a z X....... .1.j.x.x.b.9.~ ( ) ",
"w w w w w w w w w w w w w w w w w w 3 - = ; +....... .1.j.x.x.b.9.~ ( ) ",
"w w w w w w w w 4 4 w w w w w w w y : .   @ =....... .1.j.x.x.b.9.~ ( ) ",
"w w w w w w w w C C w w w w w w w w 1 % $ * %....... .1.j.x.x.b.9.~ ( ) ",
"w w w w w w w u P P u w w w w w w w 9 =.-.%.........} ,.j.x.x.b.9.~ ( ) ",
"w w w w w w w u L L u w w w w w w w r g k O.......&.y.u.z.x.x.b.9.~ ( ) ",
"w w w w w w w w m m w w w w w w w w w 7 e x O.....;.a.B.x.n.r.[ ] _ ) ) ",
"w p s u w w w w q q w w w w w w w w 5 2 < f X.....;.p.v.x.N.q.W ( ) ) ) ",
"v I U F 4 w w w w w w w w w w w w y > o X # *.....;.p.v.x.M.w.Q ) ) ) ) ",
"c K U A 4 w w w w w w w w w w w w y , + O & *.....;.p.v.x.M.w.Q ) ) ) ) ",
"q b S q w w w w w w w w w w w w w w 9 @...........;.p.v.x.M.w.Q ) ) ) ) ",
"w w q w w 0 4 4 w w w w w w w w w w 9 ..o.O.......;.s.V.x.M.w.Q ) ) ) ) ",
"w w w w q N D S p w w w w w w w w w t l l d O.....$.5.6.l.M.w.Q ) ) ) ) ",
"w w w w 4 G R T v w w w w w w w w w w 8 6 h X.......{ >.j.N.q.E / ) ) ) ",
"w w w w q n J Z u w w w w w w w w w w w 7 j X....... .1.j.c.d.t.7.! ) ) ",
"w w w w w q v u w w w w w w w w w w w w 7 j X....... .1.j.x.c.C.0.~ ( ) ",
"w w w w w w q w w w w w w w w w w w w w 7 j X....... .1.j.x.x.b.9.~ ( ) "
};
