/* XPM */
static char *wtl[] = {
/* columns rows colors chars-per-pixel */
"36 36 108 2 ",
"   c #9D561D",
".  c #9D571E",
"X  c #9D561F",
"o  c #9C4E21",
"O  c #9E5820",
"+  c #A2582E",
"@  c #A35A30",
"#  c #A35B32",
"$  c #A35C32",
"%  c #A16327",
"&  c #A46C2B",
"*  c #A56334",
"=  c #A9703A",
"-  c #A96544",
";  c #AD6D4F",
":  c #B1705B",
">  c #BD7F7E",
",  c #AC833C",
"<  c #B09141",
"1  c #B4994B",
"2  c #B5A24A",
"3  c #BBB354",
"4  c #BBB454",
"5  c #BBB555",
"6  c #BCB755",
"7  c #BCB757",
"8  c #BCBA57",
"9  c #BDBD56",
"0  c #BDBC57",
"q  c #BDB35F",
"w  c #BCBA58",
"e  c #BCBB58",
"r  c #BDBB58",
"t  c #BDB85B",
"y  c #BEBC59",
"u  c #BFBC59",
"i  c #BEBD59",
"p  c #BFBD59",
"a  c #BFBD5A",
"s  c #BEBE5A",
"d  c #BF8E7F",
"f  c #BF937B",
"g  c #BDAF62",
"h  c #BEAD64",
"j  c #BEA46C",
"k  c #C0BE5A",
"l  c #C0BE5B",
"z  c #C1BE5B",
"x  c #C1BF5B",
"c  c #C3C15D",
"v  c #C4C25D",
"b  c #C8C560",
"n  c #C8C661",
"m  c #C9C762",
"M  c #CAC862",
"N  c #CCC964",
"B  c #CCCA64",
"V  c #D2CF68",
"C  c #D3D069",
"Z  c #D5D26B",
"A  c #D6D36B",
"S  c #D8D56D",
"D  c #D8D56E",
"F  c #D8D66E",
"G  c #DBD870",
"H  c #41D5D7",
"J  c #47D7D8",
"K  c #48D7D8",
"L  c #48D8D8",
"P  c #54DCD8",
"I  c #64DDDB",
"U  c #BE8382",
"Y  c #BD8481",
"T  c #BF8584",
"R  c #BF8684",
"E  c #BF8685",
"W  c #BF8785",
"Q  c #BF8686",
"!  c #BF8786",
"~  c #BE8980",
"^  c #BE8881",
"/  c #BE8981",
"(  c #BF8A82",
")  c #C08988",
"_  c #C39390",
"`  c #C49894",
"'  c #C69F9A",
"]  c #C6A09B",
"[  c #C9A9A3",
"{  c #CAAAA4",
"}  c #CFBEB6",
"|  c #D0BFB7",
" . c #D0C0B8",
".. c #93E8E1",
"X. c #A4ECE3",
"o. c #A7F2E0",
"O. c #D9DCD1",
"+. c #E7F5EC",
"@. c #E6F7EC",
"#. c #E1F9EA",
"$. c #E5FAEA",
"%. c #E6FAEB",
"&. c #E1FBEC",
"*. c #E2FBEC",
"=. c #E2FDED",
"-. c #E6FCED",
";. c #E7FDED",
":. c #E3FFF0",
/* pixels */
"r r r r r r r r r r r r r r r r r r r r r r r r r r r r r r r r r r r r ",
"r r r r r r r r r r r r r r r r r r r r r r r r r r r r r r r r r r r r ",
"r r r r r r r r r r r r r r r r r r r r r r r r r r r r r r r r r r r r ",
"r r r r r r r r r r r r r r r r r r r r r r r r r r r r r r r r r r r r ",
"r r r r r r r r r r r r r r r r r r r r r r r r r r r r r r r r r r r r ",
"r r r r r r r r r r r r r r r r r r r r r r r r r r r r r r e r r r r r ",
"r r r r r r r r r r r r r r r r r r r r r r r r r r r r e c m w r r r r ",
"r r r r r r r r r r r r r r r r r r r r r r r r r r r e x Z S n 8 r r r ",
"r r r r r r r r r r r r r r r r u p r r r r r r r r r r r b F M 8 r r r ",
"r r r r r r r r r r r r r r r k C A p r r r r r r r r r r r a y r r r r ",
"r r r r r r r r r r r r r r e N D C u r r r r r r r r r r r r r r r r r ",
"r r r r r r r r r r r r r r r r N k r r r r r r r r r r r r r r r r r r ",
"r r r r r r r r r r r r r r r r e r r r r r r r r r r r r r r r r r r r ",
"r r r r r r r r r r r r r r r r r r r r r r r r r r r r r r r r r r r r ",
"r r r r r r r r r r r r r r r r r r r r r r r r r r r r r r r r r r r r ",
"r r r r r r r r r r r r r r r r r r r r r r r r r r r r r r r r r r r r ",
"r r r r r r r r r r r r r r r r r r r r r r r r r r r r r r r r r r r r ",
"r r r r r r r r r r r r r r r r r r r r r r r r r r r r r r r r r r r r ",
"r r r r r r r r r r r r r r r r r r r r r r r r r r r r r r r r r r r r ",
"r r r r r r r r r r r r r r r r r r r r r r r r r r r r r r r r r r r r ",
"r r r r r r r r r r r r r r r r r r r r r r r r r r r r r r r r r r r r ",
"r r r r r r r r r r r e 8 e r r r r r r r r r r r r r r r r r r r r r r ",
"r r r r r r r r r r e z N v e r r r r r r r r r r r r r r r r r r r r r ",
"r r r r r r r r r r l V G N 8 r r r r r r r r r r r r r r r r r r r r r ",
"r r r r r r r r r r u B V z e r r r r r r r r r r r r r r r r r r r r r ",
"r r r s < % 2 i r r r u l e r r r r r r r r r r r r r r r r r r r r r r ",
"4 4 4 6 , o 1 7 3 3 5 r r r r r r r r r r r y a r r r r r r r r r r r r ",
"O O O   ; Y / * . X & r r r r r r r r r r 8 M F b r r r r r r r r r r r ",
"@ @ @ + : ) W - $ # = 0 r r r r r r r r r 8 n S Z x e r r r r r r r r r ",
"[ [ [ { ` R W W W ! d g r r r r r r r r r r w m c e r r r r r r r r r r ",
";.-.*.:.| > U R W W ( j 0 r r r r r r r r r r e r r r r r r r r r r r r ",
"..X.#.&.O.}  ._ R Q f 9 r r r r r r r r r r r r r r r r r r r r r r r r ",
"H I @.+.&.=.=.] T W ( j 0 r r r r r r r r r r r r r r r r r r r r r r r ",
"J P o.@.#.#.#.' T E d g r r r r r r r r r r r r r r r r r r r r r r r r ",
"K L P I X.$.#.' ^ h q 0 r r r r r r r r r r r r r r r r r r r r r r r r ",
"K K J H ..%.#.' ~ t 0 r r r r r r r r r r r r r r r r r r r r r r r r r "
};
