/* XPM */
static char *wtr[] = {
/* columns rows colors chars-per-pixel */
"36 36 109 2 ",
"   c #9D561D",
".  c #9D571E",
"X  c #9D561F",
"o  c #9C4E21",
"O  c #9E5820",
"+  c #A2582E",
"@  c #A35A30",
"#  c #A35B32",
"$  c #A35C32",
"%  c #A16327",
"&  c #A46C2B",
"*  c #A56334",
"=  c #A9703A",
"-  c #A96544",
";  c #AD6D4F",
":  c #B1705B",
">  c #BD7F7E",
",  c #AC833C",
"<  c #B09141",
"1  c #B4994B",
"2  c #B5A24A",
"3  c #BBB354",
"4  c #BBB454",
"5  c #BBB555",
"6  c #BCB755",
"7  c #BCB757",
"8  c #BCBA57",
"9  c #BDBD56",
"0  c #BDBC57",
"q  c #BDB35F",
"w  c #BCBA58",
"e  c #BCBB58",
"r  c #BDBB58",
"t  c #BDB85B",
"y  c #BEBC59",
"u  c #BFBC59",
"i  c #BEBD59",
"p  c #BFBD59",
"a  c #BFBD5A",
"s  c #BEBE5A",
"d  c #BF8E7F",
"f  c #BF937B",
"g  c #BDAF62",
"h  c #BEAD64",
"j  c #BEA46C",
"k  c #C0BE5A",
"l  c #C0BE5B",
"z  c #C1BE5B",
"x  c #C1BF5B",
"c  c #C3C15D",
"v  c #C4C25D",
"b  c #C4C25E",
"n  c #C8C560",
"m  c #C8C661",
"M  c #C9C762",
"N  c #CAC862",
"B  c #CCC964",
"V  c #CCCA64",
"C  c #D2CF68",
"Z  c #D3D069",
"A  c #D5D26B",
"S  c #D6D36B",
"D  c #D8D56D",
"F  c #D8D56E",
"G  c #D8D66E",
"H  c #DBD870",
"J  c #41D5D7",
"K  c #47D7D8",
"L  c #48D7D8",
"P  c #48D8D8",
"I  c #54DCD8",
"U  c #64DDDB",
"Y  c #BE8382",
"T  c #BD8481",
"R  c #BF8584",
"E  c #BF8684",
"W  c #BF8685",
"Q  c #BF8785",
"!  c #BF8686",
"~  c #BF8786",
"^  c #BE8980",
"/  c #BE8881",
"(  c #BE8981",
")  c #BF8A82",
"_  c #C08988",
"`  c #C39390",
"'  c #C49894",
"]  c #C69F9A",
"[  c #C6A09B",
"{  c #C9A9A3",
"}  c #CAAAA4",
"|  c #CFBEB6",
" . c #D0BFB7",
".. c #D0C0B8",
"X. c #93E8E1",
"o. c #A4ECE3",
"O. c #A7F2E0",
"+. c #D9DCD1",
"@. c #E7F5EC",
"#. c #E6F7EC",
"$. c #E1F9EA",
"%. c #E5FAEA",
"&. c #E6FAEB",
"*. c #E1FBEC",
"=. c #E2FBEC",
"-. c #E2FDED",
";. c #E6FCED",
":. c #E7FDED",
">. c #E3FFF0",
/* pixels */
"r r r r r r r r r r r r r r r r r r r r r r r r r r r r r r r r r r r r ",
"r r r r r r r r r r r r r e l u e r r r r r r r r r r r r r r r r r r r ",
"r r r r r r r r r r r r e z C V u r r r r r r r r r r r r r r r r r r r ",
"r r r r r r r r r r r r 8 B H C l r r r r r r r r r r r r r r r r r r r ",
"r r r r r r r r r r r r e b B z e r r r r r r r r r r r r r r r r r r r ",
"r r r r r r r r r r r r r e 8 e r r r r r r r r r r r r r r e r r r r r ",
"r r r r r r r r r r r r r r r r r r r r r r r r r r r r e c M w r r r r ",
"r r r r r r r r r r r r r r r r r r r r r r r r r r r e x A D m 8 r r r ",
"r r r r r r r r r r r r r r r r r r p u r r r r r r r r r n G N 8 r r r ",
"r r r r r r r r r r r r r r r r r p S Z k r r r r r r r r r a y r r r r ",
"r r r r r r r r r r r r r r r r r u Z F B e r r r r r r r r r r r r r r ",
"r r r r r r r r r r r r r r r r r r k B r r r r r r r r r r r r r r r r ",
"r r r r r r r r r r r r r r r r r r r e r r r r r r r r r r r r r r r r ",
"r r r r r r r r r r r r r r r r r r r r r r r r r r r r r r r r r r r r ",
"r r r r r r r r r r r r r r r r r r r r r r r r r r r r r r r r r r r r ",
"r r r r r r r r r r r r r r r r r r r r r r r r r r r r r r r r r r r r ",
"r r r r r r r r r r r r r r r r r r r r r r r r r r r r r r r r r r r r ",
"r r r r r r r r r r r r r r r r r r r r r r r r r r r r r r r r r r r r ",
"r r r r r r r r r r r r r r r r r r r r r r r r r r r r r r r r r r r r ",
"r r r r r r r r r r r r r r r r r r r r r r r r r r r r r r r r r r r r ",
"r r r r r r r r r r r r r r r r r r r r r r r r r r r r r r r r r r r r ",
"r r r r r r r r r r r r r r r r r r r r r r r r r r r r r r r r r r r r ",
"r r r r r r r r r r r r r r r r r r r r r r r r r r r r r r r r r r r r ",
"r r r r r r r r r r r r r r r r r r r r r r r r r r r r r r r r r r r r ",
"r r r r r r r r r r r r r r r r r r r r r r r r r r r r r r r r r r r r ",
"r r r r r r r r r r r r r r r r r r r r r r r r r r r r i 2 % < s r r r ",
"r r r r r r r r r r r r a y r r r r r r r r r r r 5 3 3 7 1 o , 6 4 4 4 ",
"r r r r r r r r r r r n G N 8 r r r r r r r r r r & X . * ( T ;   O O O ",
"r e u l e r r r r e x A D m 8 r r r r r r r r r 0 = # $ - Q _ : + @ @ @ ",
"r u V C z e r r r r e c M w r r r r r r r r r r g d ~ Q Q Q E ' } { { { ",
"r l C H B 8 r r r r r r e r r r r r r r r r r 0 j ) Q Q E Y >  .>.=.;.:.",
"r e z B v e r r r r r r r r r r r r r r r r r r 9 f ! E ` ..| +.*.$.o.X.",
"r r e 8 e r r r r r r r r r r r r r r r r r r 0 j ) Q R [ -.-.*.@.#.U J ",
"r r r r r r r r r r r r r r r r r r r r r r r r g d W R ] $.$.$.#.O.I K ",
"r r r r r r r r r r r r r r r r r r r r r r r r 0 q h / ] $.%.o.U I P L ",
"r r r r r r r r r r r r r r r r r r r r r r r r r 0 t ^ ] $.&.X.J K L L "
};
