/* XPM */
static char *wall_top_right[] = {
/* columns rows colors chars-per-pixel */
"40 40 9 1 ",
"  c white",
". c #BDBB58",
"X c #48D7D8",
"o c #E1F9EA",
"O c #BF8785",
"+ c gray94",
"@ c #D9D66E",
"# c #9C511D",
"$ c #68ECD5",
/* pixels */
"........................................",
"........................................",
"................@.......................",
"...............@@@......................",
"...............@@.......................",
"........................................",
"........................................",
".................................@......",
"................................@@@.....",
".................................@@.....",
"....................@@..................",
"....................@@@.................",
".....................@..................",
"........................................",
"........................................",
"........................................",
"........................................",
"........................................",
"........................................",
"........................................",
"........................................",
"........................................",
"........................................",
"........................................",
"........................................",
"........................................",
"........................................",
"........................................",
".................................##.....",
".................................##.....",
".............@@.............####OOO#####",
"............@@@.............####OOO#####",
"...@.........@..............OOOOOOOOOOOO",
"..@@@......................OOOOOOOOooooo",
"...@@.......................OOOOOOOooooo",
"............................OOOOooooooXX",
"...........................OOOOOoooo+oXX",
"............................OOOOooooo$XX",
"..............................OOoooXXXXX",
"..............................OOoooXXXXX"
};
