/* XPM */
static char *wu[] = {
/* columns rows colors chars-per-pixel */
"36 36 149 2 ",
"   c #BCBA57",
".  c #BDBC57",
"X  c #BDB75B",
"o  c #BDB35F",
"O  c #BDB65C",
"+  c #BCBA58",
"@  c #BCBB58",
"#  c #BDBB58",
"$  c #BDBA59",
"%  c #BDB85A",
"&  c #BDB95A",
"*  c #BDB85B",
"=  c #BEBC58",
"-  c #BEBC59",
";  c #BFBD59",
":  c #BFBD5A",
">  c #BD807E",
",  c #BD807F",
"<  c #BF8F7E",
"1  c #BF8E7F",
"2  c #BE9E71",
"3  c #BE9A75",
"4  c #BF917C",
"5  c #BF917D",
"6  c #BF927C",
"7  c #BEAB65",
"8  c #BEAC65",
"9  c #BEA26D",
"0  c #BEA16E",
"q  c #BDB160",
"w  c #C1BF5B",
"e  c #C2BF5C",
"r  c #C5C35E",
"t  c #C5C35F",
"y  c #C7C560",
"u  c #C8C661",
"i  c #CAC762",
"p  c #CBC863",
"a  c #CBC963",
"s  c #CECC65",
"d  c #CFCC66",
"f  c #D2CF68",
"g  c #D3D16A",
"h  c #D4D16A",
"j  c #D6D36C",
"k  c #D9D66E",
"l  c #DAD76E",
"z  c #DBD870",
"x  c #3DD5D7",
"c  c #3ED5D7",
"v  c #43D6D7",
"b  c #44D6D7",
"n  c #4AD9D7",
"m  c #46D6D8",
"M  c #46D7D8",
"N  c #48D7D8",
"B  c #4EDBD8",
"V  c #60DDDA",
"C  c #61DDDB",
"Z  c #65DEDB",
"A  c #67DEDB",
"S  c #66DEDC",
"D  c #68DEDC",
"F  c #61E8D6",
"G  c #65E8D6",
"H  c #6FE6DA",
"J  c #BD8381",
"K  c #BE8381",
"L  c #BE8382",
"P  c #BE8283",
"I  c #BE8482",
"U  c #BE8583",
"Y  c #BF8683",
"T  c #BF8584",
"R  c #BF8585",
"E  c #BF8684",
"W  c #BF8685",
"Q  c #BF8785",
"!  c #BF8586",
"~  c #BF8686",
"^  c #BE8981",
"/  c #BF8A81",
"(  c #BF8A82",
")  c #BF8B82",
"_  c #BF8C80",
"`  c #BF8D80",
"'  c #BF8884",
"]  c #BF8886",
"[  c #C08A88",
"{  c #C2908D",
"}  c #C39390",
"|  c #C49793",
" . c #C59A96",
".. c #C59C97",
"X. c #C69E99",
"o. c #C69F9A",
"O. c #C69F9B",
"+. c #C6A09B",
"@. c #CEB2AB",
"#. c #CDB4AD",
"$. c #CEB9B1",
"%. c #CFBEB6",
"&. c #D2BFB6",
"*. c #CAC7BD",
"=. c #D0C0B7",
"-. c #D0C0B8",
";. c #D0C2B9",
":. c #B8D0C8",
">. c #81E4DF",
",. c #A2EFDF",
"<. c #93E8E1",
"1. c #93E9E2",
"2. c #94E8E1",
"3. c #95E8E1",
"4. c #A4ECE3",
"5. c #A5EDE5",
"6. c #B3EFE5",
"7. c #BDF1E6",
"8. c #DDC3C0",
"9. c #D4CCC2",
"0. c #D7D6CB",
"q. c #D9DED2",
"w. c #DAE2D6",
"e. c #DCEADC",
"r. c #DDEADD",
"t. c #CAF7E6",
"y. c #DFF2E3",
"u. c #D2F8E7",
"i. c #D2FBEA",
"p. c #E7F7EC",
"a. c #E1F9EA",
"s. c #E2F9EA",
"d. c #E1FAEB",
"f. c #E1FBEB",
"g. c #E5F8E9",
"h. c #E4FAEA",
"j. c #E5FAEA",
"k. c #E6FAEB",
"l. c #E2FBEC",
"z. c #E2FCEC",
"x. c #E2FDED",
"c. c #E3FDED",
"v. c #E2FDEE",
"b. c #E4FCEC",
"n. c #E7FEEE",
"m. c #E8FEEE",
"M. c #EAF8F1",
"N. c #EAFAF0",
"B. c #FCFEFD",
/* pixels */
"a.h.6.x <.k.a.S b M M M M M M M M M M M M M M M M M M M N N N N N M M M ",
"z.b.7.C 4.j.a.>.S D D D D D D D D D D D D D D D D D D Z B N N N n V D A ",
"0.q.a.a.a.a.a.a.a.a.a.a.a.a.a.a.a.a.a.a.a.a.a.a.a.a.s.u.G N N m H t.p.N.",
"K X.x.x.x.x.x.x.x.x.x.x.x.x.x.x.x.a.a.a.a.f.x.x.x.x.c.i.F v v c 5.m.M.B.",
"E } -.=.=.=.=.=.=.=.=.=.=.=.=.=.;.y.a.a.f.w.%.=.=.=.=.*.,.2.3.1.:.&.-.8.",
"~ R P P P P P L L L L L L L L L Q e.d.a.v.9.> L L L K } g.k.k.n.@., L J ",
"7 7 7 7 7 7 8 < W Q Q Q Q Q Q Q [ r.d.l.w. .E Q Q Q Q [ $.a.a.x.#.I Q Q ",
". . . . . . . q _ Q Q Q Q Q Q Q ] ..o.O.| U Q Q Q Q Q E [ o.o.+.{ E Q Q ",
"# # # # # # # $ 4 ( ) ) ) ) ' Q Q T Y ^ / ) ) ) ) ) Q Q Q T T T E Q Q Q ",
"# # # # # # @ # * X X X X & 3 ! W ~ ` O X X X X X O ` ~ ~ ~ ~ ~ ~ ~ ~ ~ ",
"# # # # # @ w - # # # # # . 9 ' < 4 1 $ # # # # # $ 1 5 6 6 6 6 6 6 6 6 ",
"# # # # # e g i - # # # # # . 0 o & 2 $ # # # # # $ 2 % # # # # # # # # ",
"# # # #   d z l w # # # # # # . # # . # # # # # # # . # # # # # # # # # ",
"# # # # @ t a p ; # # # # # # # # # # # # # # # # # # # # # # # # # # # ",
"# # # # # +     # # # # # # # # # @ @ # # # # # # # # # # # # # # # # # ",
"# # # # # # # # # # # # # # # # = s s = # # # # # # # # # # # # # # # # ",
"# # # # # # # # # # # # # # # # - j j - # # # # # # # # # # # # # # # # ",
"# # # # # # # # # # # # # # # # - h h - # # # # # # # # # # # # # # # # ",
"# # # # # # # # # # # # # # # # # ; ; # # # # # # # # # # # # # # # # # ",
"# # # # # # # # # # # # # # # # # # # # # # # # # # # # # # # # # # # # ",
"# # # # # # # # # # # # # # # # # # # # # # # # # # # # # # # # # # # # ",
"# # # # # # # # # # # # # # # # # # # # # # # # # # # # # # # # # # # # ",
"# # # # # # # # # # # # # # # # # # # # # # # # # # # # # # # # # # # # ",
"# # # # # # # # # # # # # # # # # # # # # # # # # # # # # # # # # # # # ",
"# # # # # # # # # # # # # # # # # # # # # # # # # # # # # # # # # # # # ",
"# # # # # # # # # # # # # # # # # # # # # # # # # # # # # # # # # # # # ",
"# # # # # # # # # # # # # # # # # # # # # # # # # # # # # # - : - # # # ",
"# # # # # # # # # # # @ # # # # # # # # # # # # # # # # #   y k y   # # ",
"# # # # # # # # # # - w @ # # # # # # # # # # # # # # # #   u z u   # # ",
"# # # # # # # # # - i g e # # # # # # # # # # # # # # # # + r f r + # # ",
"# # # # # # # # # w l z d   # # # # # # # # # # # # # # # # # + # # # # ",
"# # # # # # # # # ; p a t @ # # # # # # # # # # # # # # # # # # # # # # ",
"# # # # # # # # # #     + # # # # # # # # # # # # # # # # # # # # # # # ",
"# # # # # # # # # # # # # # # # # # # # # # # # # # # # # # # # # # # # ",
"# # # # # # # # # # # # # # # # # # # # # # # # # # # # # # # # # # # # ",
"# # # # # # # # # # # # # # # # # # # # # # # # # # # # # # # # # # # # "
};
